<?xml version="1.0" encoding="UTF-8" standalone="no"?>
<svg width="480px" height="81px" viewBox="0 0 480 81" version="1.1" xmlns="http://www.w3.org/2000/svg" xmlns:xlink="http://www.w3.org/1999/xlink" xmlns:sketch="http://www.bohemiancoding.com/sketch/ns">
    <!-- Generator: Sketch 3.2.2 (9983) - http://www.bohemiancoding.com/sketch -->
    <title>brand_dev</title>
    <desc>Created with Sketch.</desc>
    <defs></defs>
    <g id="Page-1" stroke="none" stroke-width="1" fill="none" fill-rule="evenodd" sketch:type="MSPage">
        <g id="Group" sketch:type="MSLayerGroup">
            <rect id="Rectangle-36" fill="#000000" sketch:type="MSShapeGroup" x="0" y="0.6588" width="80" height="80"></rect>
            <rect id="Rectangle-36" fill="#333333" sketch:type="MSShapeGroup" x="80" y="0.6588" width="80" height="80"></rect>
            <rect id="Rectangle-36" opacity="0.9" fill="#999999" sketch:type="MSShapeGroup" x="160" y="0.6588" width="80" height="80"></rect>
            <rect id="Rectangle-36" fill="#2F5297" sketch:type="MSShapeGroup" x="240" y="0.6588" width="80" height="80"></rect>
            <rect id="Rectangle-36" fill="#00ACE8" sketch:type="MSShapeGroup" x="320" y="0.6588" width="80" height="80"></rect>
            <rect id="Rectangle-36" fill="#7DC5EA" sketch:type="MSShapeGroup" x="400" y="0.6588" width="80" height="80"></rect>
            <path d="M10.8142524,40.2581818 L12.3851615,40.2581818 L12.1069797,42.2872727 L10.519707,42.2872727 L10.8142524,40.2581818 Z M8.7360706,43.76 L8.27788878,47 L9.86516151,47 L10.3233433,43.76 L11.8942524,43.76 L11.4524342,47 L13.039707,47 L13.4815251,43.76 L14.9051615,43.76 L14.9051615,42.2872727 L13.6942524,42.2872727 L13.9724342,40.2581818 L15.3960706,40.2581818 L15.3960706,38.7854545 L14.1851615,38.7854545 L14.6269797,35.5454545 L13.039707,35.5454545 L12.5978888,38.7854545 L11.0106161,38.7854545 L11.4687979,35.5454545 L9.88152515,35.5454545 L9.42334333,38.7854545 L7.86879788,38.7854545 L7.86879788,40.2581818 L9.22697969,40.2581818 L8.93243424,42.2872727 L7.37788878,42.2872727 L7.37788878,43.76 L8.7360706,43.76 Z M18.6033433,41.2236364 C18.6033433,41.0272717 18.6060706,40.7900014 18.6115251,40.5118182 C18.6169797,40.233635 18.6360704,39.9472742 18.6687979,39.6527273 C18.7015253,39.3581803 18.7560702,39.0663651 18.8324342,38.7772727 C18.9087983,38.4881804 19.0151608,38.2290921 19.1515251,38 C19.2878895,37.7709079 19.4624332,37.5854553 19.6751615,37.4436364 C19.8878898,37.3018175 20.1524327,37.2309091 20.4687979,37.2309091 C20.7851631,37.2309091 21.0524331,37.3018175 21.2706161,37.4436364 C21.488799,37.5854553 21.6687972,37.7709079 21.8106161,38 C21.9524349,38.2290921 22.0587975,38.4881804 22.129707,38.7772727 C22.2006164,39.0663651 22.2551613,39.3581803 22.2933433,39.6527273 C22.3315253,39.9472742 22.3533433,40.233635 22.3587979,40.5118182 C22.3642524,40.7900014 22.3669797,41.0272717 22.3669797,41.2236364 C22.3669797,41.5509107 22.3560707,41.9463613 22.3342524,42.41 C22.3124341,42.8736387 22.244253,43.3209069 22.129707,43.7518182 C22.0151609,44.1827294 21.8297082,44.5509076 21.5733433,44.8563636 C21.3169784,45.1618197 20.9488003,45.3145455 20.4687979,45.3145455 C19.9997046,45.3145455 19.6397082,45.1618197 19.3887979,44.8563636 C19.1378875,44.5509076 18.9551621,44.1827294 18.8406161,43.7518182 C18.72607,43.3209069 18.6578889,42.8736387 18.6360706,42.41 C18.6142523,41.9463613 18.6033433,41.5509107 18.6033433,41.2236364 L18.6033433,41.2236364 Z M16.279707,41.2236364 C16.279707,42.3690966 16.391524,43.3263598 16.6151615,44.0954545 C16.838799,44.8645493 17.1415232,45.4781795 17.5233433,45.9363636 C17.9051634,46.3945477 18.3497044,46.7218172 18.8569797,46.9181818 C19.364255,47.1145464 19.9015223,47.2127273 20.4687979,47.2127273 C21.0469826,47.2127273 21.5897044,47.1145464 22.0969797,46.9181818 C22.604255,46.7218172 23.0515232,46.3945477 23.4387979,45.9363636 C23.8260725,45.4781795 24.131524,44.8645493 24.3551615,44.0954545 C24.578799,43.3263598 24.6906161,42.3690966 24.6906161,41.2236364 C24.6906161,40.1109035 24.578799,39.1754583 24.3551615,38.4172727 C24.131524,37.6590871 23.8260725,37.0509114 23.4387979,36.5927273 C23.0515232,36.1345432 22.604255,35.8072737 22.0969797,35.6109091 C21.5897044,35.4145445 21.0469826,35.3163636 20.4687979,35.3163636 C19.9015223,35.3163636 19.364255,35.4145445 18.8569797,35.6109091 C18.3497044,35.8072737 17.9051634,36.1345432 17.5233433,36.5927273 C17.1415232,37.0509114 16.838799,37.6590871 16.6151615,38.4172727 C16.391524,39.1754583 16.279707,40.1109035 16.279707,41.2236364 L16.279707,41.2236364 Z M27.7015251,41.2236364 C27.7015251,41.0272717 27.7042524,40.7900014 27.709707,40.5118182 C27.7151615,40.233635 27.7342523,39.9472742 27.7669797,39.6527273 C27.7997071,39.3581803 27.854252,39.0663651 27.9306161,38.7772727 C28.0069801,38.4881804 28.1133426,38.2290921 28.249707,38 C28.3860713,37.7709079 28.560615,37.5854553 28.7733433,37.4436364 C28.9860717,37.3018175 29.2506145,37.2309091 29.5669797,37.2309091 C29.8833449,37.2309091 30.150615,37.3018175 30.3687979,37.4436364 C30.5869808,37.5854553 30.766979,37.7709079 30.9087979,38 C31.0506168,38.2290921 31.1569793,38.4881804 31.2278888,38.7772727 C31.2987982,39.0663651 31.3533431,39.3581803 31.3915251,39.6527273 C31.4297072,39.9472742 31.4515251,40.233635 31.4569797,40.5118182 C31.4624343,40.7900014 31.4651615,41.0272717 31.4651615,41.2236364 C31.4651615,41.5509107 31.4542525,41.9463613 31.4324342,42.41 C31.4106159,42.8736387 31.3424348,43.3209069 31.2278888,43.7518182 C31.1133428,44.1827294 30.9278901,44.5509076 30.6715251,44.8563636 C30.4151602,45.1618197 30.0469821,45.3145455 29.5669797,45.3145455 C29.0978864,45.3145455 28.73789,45.1618197 28.4869797,44.8563636 C28.2360693,44.5509076 28.0533439,44.1827294 27.9387979,43.7518182 C27.8242518,43.3209069 27.7560707,42.8736387 27.7342524,42.41 C27.7124341,41.9463613 27.7015251,41.5509107 27.7015251,41.2236364 L27.7015251,41.2236364 Z M25.3778888,41.2236364 C25.3778888,42.3690966 25.4897058,43.3263598 25.7133433,44.0954545 C25.9369808,44.8645493 26.2397051,45.4781795 26.6215251,45.9363636 C27.0033452,46.3945477 27.4478862,46.7218172 27.9551615,46.9181818 C28.4624368,47.1145464 28.9997041,47.2127273 29.5669797,47.2127273 C30.1451644,47.2127273 30.6878862,47.1145464 31.1951615,46.9181818 C31.7024368,46.7218172 32.149705,46.3945477 32.5369797,45.9363636 C32.9242544,45.4781795 33.2297058,44.8645493 33.4533433,44.0954545 C33.6769808,43.3263598 33.7887979,42.3690966 33.7887979,41.2236364 C33.7887979,40.1109035 33.6769808,39.1754583 33.4533433,38.4172727 C33.2297058,37.6590871 32.9242544,37.0509114 32.5369797,36.5927273 C32.149705,36.1345432 31.7024368,35.8072737 31.1951615,35.6109091 C30.6878862,35.4145445 30.1451644,35.3163636 29.5669797,35.3163636 C28.9997041,35.3163636 28.4624368,35.4145445 27.9551615,35.6109091 C27.4478862,35.8072737 27.0033452,36.1345432 26.6215251,36.5927273 C26.2397051,37.0509114 25.9369808,37.6590871 25.7133433,38.4172727 C25.4897058,39.1754583 25.3778888,40.1109035 25.3778888,41.2236364 L25.3778888,41.2236364 Z M36.799707,41.2236364 C36.799707,41.0272717 36.8024342,40.7900014 36.8078888,40.5118182 C36.8133434,40.233635 36.8324341,39.9472742 36.8651615,39.6527273 C36.8978889,39.3581803 36.9524339,39.0663651 37.0287979,38.7772727 C37.1051619,38.4881804 37.2115245,38.2290921 37.3478888,38 C37.4842531,37.7709079 37.6587968,37.5854553 37.8715251,37.4436364 C38.0842535,37.3018175 38.3487963,37.2309091 38.6651615,37.2309091 C38.9815267,37.2309091 39.2487968,37.3018175 39.4669797,37.4436364 C39.6851626,37.5854553 39.8651608,37.7709079 40.0069797,38 C40.1487986,38.2290921 40.2551612,38.4881804 40.3260706,38.7772727 C40.39698,39.0663651 40.451525,39.3581803 40.489707,39.6527273 C40.527889,39.9472742 40.5497069,40.233635 40.5551615,40.5118182 C40.5606161,40.7900014 40.5633433,41.0272717 40.5633433,41.2236364 C40.5633433,41.5509107 40.5524343,41.9463613 40.5306161,42.41 C40.5087978,42.8736387 40.4406166,43.3209069 40.3260706,43.7518182 C40.2115246,44.1827294 40.0260719,44.5509076 39.769707,44.8563636 C39.513342,45.1618197 39.1451639,45.3145455 38.6651615,45.3145455 C38.1960683,45.3145455 37.8360719,45.1618197 37.5851615,44.8563636 C37.3342512,44.5509076 37.1515257,44.1827294 37.0369797,43.7518182 C36.9224337,43.3209069 36.8542525,42.8736387 36.8324342,42.41 C36.8106159,41.9463613 36.799707,41.5509107 36.799707,41.2236364 L36.799707,41.2236364 Z M34.4760706,41.2236364 C34.4760706,42.3690966 34.5878877,43.3263598 34.8115251,44.0954545 C35.0351626,44.8645493 35.3378869,45.4781795 35.719707,45.9363636 C36.1015271,46.3945477 36.5460681,46.7218172 37.0533433,46.9181818 C37.5606186,47.1145464 38.0978859,47.2127273 38.6651615,47.2127273 C39.2433462,47.2127273 39.7860681,47.1145464 40.2933433,46.9181818 C40.8006186,46.7218172 41.2478868,46.3945477 41.6351615,45.9363636 C42.0224362,45.4781795 42.3278877,44.8645493 42.5515251,44.0954545 C42.7751626,43.3263598 42.8869797,42.3690966 42.8869797,41.2236364 C42.8869797,40.1109035 42.7751626,39.1754583 42.5515251,38.4172727 C42.3278877,37.6590871 42.0224362,37.0509114 41.6351615,36.5927273 C41.2478868,36.1345432 40.8006186,35.8072737 40.2933433,35.6109091 C39.7860681,35.4145445 39.2433462,35.3163636 38.6651615,35.3163636 C38.0978859,35.3163636 37.5606186,35.4145445 37.0533433,35.6109091 C36.5460681,35.8072737 36.1015271,36.1345432 35.719707,36.5927273 C35.3378869,37.0509114 35.0351626,37.6590871 34.8115251,38.4172727 C34.5878877,39.1754583 34.4760706,40.1109035 34.4760706,41.2236364 L34.4760706,41.2236364 Z M45.8978888,41.2236364 C45.8978888,41.0272717 45.900616,40.7900014 45.9060706,40.5118182 C45.9115252,40.233635 45.9306159,39.9472742 45.9633433,39.6527273 C45.9960708,39.3581803 46.0506157,39.0663651 46.1269797,38.7772727 C46.2033437,38.4881804 46.3097063,38.2290921 46.4460706,38 C46.5824349,37.7709079 46.7569786,37.5854553 46.969707,37.4436364 C47.1824353,37.3018175 47.4469781,37.2309091 47.7633433,37.2309091 C48.0797085,37.2309091 48.3469786,37.3018175 48.5651615,37.4436364 C48.7833444,37.5854553 48.9633426,37.7709079 49.1051615,38 C49.2469804,38.2290921 49.353343,38.4881804 49.4242524,38.7772727 C49.4951619,39.0663651 49.5497068,39.3581803 49.5878888,39.6527273 C49.6260708,39.9472742 49.6478888,40.233635 49.6533433,40.5118182 C49.6587979,40.7900014 49.6615251,41.0272717 49.6615251,41.2236364 C49.6615251,41.5509107 49.6506162,41.9463613 49.6287979,42.41 C49.6069796,42.8736387 49.5387984,43.3209069 49.4242524,43.7518182 C49.3097064,44.1827294 49.1242537,44.5509076 48.8678888,44.8563636 C48.6115239,45.1618197 48.2433457,45.3145455 47.7633433,45.3145455 C47.2942501,45.3145455 46.9342537,45.1618197 46.6833433,44.8563636 C46.432433,44.5509076 46.2497075,44.1827294 46.1351615,43.7518182 C46.0206155,43.3209069 45.9524343,42.8736387 45.9306161,42.41 C45.9087978,41.9463613 45.8978888,41.5509107 45.8978888,41.2236364 L45.8978888,41.2236364 Z M43.5742524,41.2236364 C43.5742524,42.3690966 43.6860695,43.3263598 43.909707,44.0954545 C44.1333444,44.8645493 44.4360687,45.4781795 44.8178888,45.9363636 C45.1997089,46.3945477 45.6442499,46.7218172 46.1515251,46.9181818 C46.6588004,47.1145464 47.1960678,47.2127273 47.7633433,47.2127273 C48.341528,47.2127273 48.8842499,47.1145464 49.3915251,46.9181818 C49.8988004,46.7218172 50.3460687,46.3945477 50.7333433,45.9363636 C51.120618,45.4781795 51.4260695,44.8645493 51.649707,44.0954545 C51.8733444,43.3263598 51.9851615,42.3690966 51.9851615,41.2236364 C51.9851615,40.1109035 51.8733444,39.1754583 51.649707,38.4172727 C51.4260695,37.6590871 51.120618,37.0509114 50.7333433,36.5927273 C50.3460687,36.1345432 49.8988004,35.8072737 49.3915251,35.6109091 C48.8842499,35.4145445 48.341528,35.3163636 47.7633433,35.3163636 C47.1960678,35.3163636 46.6588004,35.4145445 46.1515251,35.6109091 C45.6442499,35.8072737 45.1997089,36.1345432 44.8178888,36.5927273 C44.4360687,37.0509114 44.1333444,37.6590871 43.909707,38.4172727 C43.6860695,39.1754583 43.5742524,40.1109035 43.5742524,41.2236364 L43.5742524,41.2236364 Z M54.9960706,41.2236364 C54.9960706,41.0272717 54.9987978,40.7900014 55.0042524,40.5118182 C55.009707,40.233635 55.0287977,39.9472742 55.0615251,39.6527273 C55.0942526,39.3581803 55.1487975,39.0663651 55.2251615,38.7772727 C55.3015255,38.4881804 55.4078881,38.2290921 55.5442524,38 C55.6806167,37.7709079 55.8551604,37.5854553 56.0678888,37.4436364 C56.2806171,37.3018175 56.5451599,37.2309091 56.8615251,37.2309091 C57.1778904,37.2309091 57.4451604,37.3018175 57.6633433,37.4436364 C57.8815262,37.5854553 58.0615244,37.7709079 58.2033433,38 C58.3451622,38.2290921 58.4515248,38.4881804 58.5224342,38.7772727 C58.5933437,39.0663651 58.6478886,39.3581803 58.6860706,39.6527273 C58.7242526,39.9472742 58.7460706,40.233635 58.7515251,40.5118182 C58.7569797,40.7900014 58.759707,41.0272717 58.759707,41.2236364 C58.759707,41.5509107 58.748798,41.9463613 58.7269797,42.41 C58.7051614,42.8736387 58.6369803,43.3209069 58.5224342,43.7518182 C58.4078882,44.1827294 58.2224355,44.5509076 57.9660706,44.8563636 C57.7097057,45.1618197 57.3415275,45.3145455 56.8615251,45.3145455 C56.3924319,45.3145455 56.0324355,45.1618197 55.7815251,44.8563636 C55.5306148,44.5509076 55.3478894,44.1827294 55.2333433,43.7518182 C55.1187973,43.3209069 55.0506162,42.8736387 55.0287979,42.41 C55.0069796,41.9463613 54.9960706,41.5509107 54.9960706,41.2236364 L54.9960706,41.2236364 Z M52.6724342,41.2236364 C52.6724342,42.3690966 52.7842513,43.3263598 53.0078888,44.0954545 C53.2315263,44.8645493 53.5342505,45.4781795 53.9160706,45.9363636 C54.2978907,46.3945477 54.7424317,46.7218172 55.249707,46.9181818 C55.7569822,47.1145464 56.2942496,47.2127273 56.8615251,47.2127273 C57.4397099,47.2127273 57.9824317,47.1145464 58.489707,46.9181818 C58.9969822,46.7218172 59.4442505,46.3945477 59.8315251,45.9363636 C60.2187998,45.4781795 60.5242513,44.8645493 60.7478888,44.0954545 C60.9715263,43.3263598 61.0833433,42.3690966 61.0833433,41.2236364 C61.0833433,40.1109035 60.9715263,39.1754583 60.7478888,38.4172727 C60.5242513,37.6590871 60.2187998,37.0509114 59.8315251,36.5927273 C59.4442505,36.1345432 58.9969822,35.8072737 58.489707,35.6109091 C57.9824317,35.4145445 57.4397099,35.3163636 56.8615251,35.3163636 C56.2942496,35.3163636 55.7569822,35.4145445 55.249707,35.6109091 C54.7424317,35.8072737 54.2978907,36.1345432 53.9160706,36.5927273 C53.5342505,37.0509114 53.2315263,37.6590871 53.0078888,38.4172727 C52.7842513,39.1754583 52.6724342,40.1109035 52.6724342,41.2236364 L52.6724342,41.2236364 Z M64.0942524,41.2236364 C64.0942524,41.0272717 64.0969797,40.7900014 64.1024342,40.5118182 C64.1078888,40.233635 64.1269795,39.9472742 64.159707,39.6527273 C64.1924344,39.3581803 64.2469793,39.0663651 64.3233433,38.7772727 C64.3997073,38.4881804 64.5060699,38.2290921 64.6424342,38 C64.7787986,37.7709079 64.9533423,37.5854553 65.1660706,37.4436364 C65.3787989,37.3018175 65.6433417,37.2309091 65.959707,37.2309091 C66.2760722,37.2309091 66.5433422,37.3018175 66.7615251,37.4436364 C66.9797081,37.5854553 67.1597063,37.7709079 67.3015251,38 C67.443344,38.2290921 67.5497066,38.4881804 67.6206161,38.7772727 C67.6915255,39.0663651 67.7460704,39.3581803 67.7842524,39.6527273 C67.8224344,39.9472742 67.8442524,40.233635 67.849707,40.5118182 C67.8551615,40.7900014 67.8578888,41.0272717 67.8578888,41.2236364 C67.8578888,41.5509107 67.8469798,41.9463613 67.8251615,42.41 C67.8033432,42.8736387 67.7351621,43.3209069 67.6206161,43.7518182 C67.50607,44.1827294 67.3206173,44.5509076 67.0642524,44.8563636 C66.8078875,45.1618197 66.4397094,45.3145455 65.959707,45.3145455 C65.4906137,45.3145455 65.1306173,45.1618197 64.879707,44.8563636 C64.6287966,44.5509076 64.4460712,44.1827294 64.3315251,43.7518182 C64.2169791,43.3209069 64.148798,42.8736387 64.1269797,42.41 C64.1051614,41.9463613 64.0942524,41.5509107 64.0942524,41.2236364 L64.0942524,41.2236364 Z M61.7706161,41.2236364 C61.7706161,42.3690966 61.8824331,43.3263598 62.1060706,44.0954545 C62.3297081,44.8645493 62.6324323,45.4781795 63.0142524,45.9363636 C63.3960725,46.3945477 63.8406135,46.7218172 64.3478888,46.9181818 C64.855164,47.1145464 65.3924314,47.2127273 65.959707,47.2127273 C66.5378917,47.2127273 67.0806135,47.1145464 67.5878888,46.9181818 C68.095164,46.7218172 68.5424323,46.3945477 68.929707,45.9363636 C69.3169816,45.4781795 69.6224331,44.8645493 69.8460706,44.0954545 C70.0697081,43.3263598 70.1815251,42.3690966 70.1815251,41.2236364 C70.1815251,40.1109035 70.0697081,39.1754583 69.8460706,38.4172727 C69.6224331,37.6590871 69.3169816,37.0509114 68.929707,36.5927273 C68.5424323,36.1345432 68.095164,35.8072737 67.5878888,35.6109091 C67.0806135,35.4145445 66.5378917,35.3163636 65.959707,35.3163636 C65.3924314,35.3163636 64.855164,35.4145445 64.3478888,35.6109091 C63.8406135,35.8072737 63.3960725,36.1345432 63.0142524,36.5927273 C62.6324323,37.0509114 62.3297081,37.6590871 62.1060706,38.4172727 C61.8824331,39.1754583 61.7706161,40.1109035 61.7706161,41.2236364 L61.7706161,41.2236364 Z" id="#000000" fill="#FFFFFF" sketch:type="MSShapeGroup"></path>
            <path d="M91.9216982,40.2581818 L93.4926073,40.2581818 L93.2144255,42.2872727 L91.6271528,42.2872727 L91.9216982,40.2581818 Z M89.8435164,43.76 L89.3853346,47 L90.9726073,47 L91.4307891,43.76 L93.0016982,43.76 L92.55988,47 L94.1471528,47 L94.588971,43.76 L96.0126073,43.76 L96.0126073,42.2872727 L94.8016982,42.2872727 L95.07988,40.2581818 L96.5035164,40.2581818 L96.5035164,38.7854545 L95.2926073,38.7854545 L95.7344255,35.5454545 L94.1471528,35.5454545 L93.7053346,38.7854545 L92.1180619,38.7854545 L92.5762437,35.5454545 L90.988971,35.5454545 L90.5307891,38.7854545 L88.9762437,38.7854545 L88.9762437,40.2581818 L90.3344255,40.2581818 L90.03988,42.2872727 L88.4853346,42.2872727 L88.4853346,43.76 L89.8435164,43.76 Z M100.774425,40.1763636 L100.774425,41.8127273 C101.058063,41.8127273 101.355333,41.820909 101.666244,41.8372727 C101.977154,41.8536364 102.263515,41.9136358 102.525335,42.0172727 C102.787154,42.1209096 103.002606,42.2872716 103.171698,42.5163636 C103.34079,42.7454557 103.425335,43.0781796 103.425335,43.5145455 C103.425335,44.0709119 103.245336,44.5099984 102.885335,44.8318182 C102.525333,45.153638 102.083519,45.3145455 101.55988,45.3145455 C101.221697,45.3145455 100.929881,45.2545461 100.684425,45.1345455 C100.43897,45.0145449 100.234426,44.8536374 100.070789,44.6518182 C99.907152,44.449999 99.7816987,44.2100014 99.6944255,43.9318182 C99.6071523,43.653635 99.5580619,43.3618197 99.5471528,43.0563636 L97.3380619,43.0563636 C97.3271527,43.7218215 97.4226063,44.3109065 97.6244255,44.8236364 C97.8262447,45.3363662 98.1126055,45.7699982 98.4835164,46.1245455 C98.8544274,46.4790927 99.3044229,46.74909 99.8335164,46.9345455 C100.36261,47.1200009 100.948968,47.2127273 101.592607,47.2127273 C102.148974,47.2127273 102.683514,47.1309099 103.196244,46.9672727 C103.708974,46.8036355 104.161696,46.5636379 104.554425,46.2472727 C104.947155,45.9309075 105.260788,45.5381842 105.495335,45.0690909 C105.729881,44.5999977 105.847153,44.0654575 105.847153,43.4654545 C105.847153,42.8109058 105.667155,42.2490933 105.307153,41.78 C104.947151,41.3109067 104.450792,41.0054553 103.818062,40.8636364 L103.818062,40.8309091 C104.35261,40.6781811 104.753515,40.389093 105.020789,39.9636364 C105.288063,39.5381797 105.421698,39.0472755 105.421698,38.4909091 C105.421698,37.9781793 105.307154,37.5254565 105.078062,37.1327273 C104.84897,36.739998 104.5517,36.4072741 104.186244,36.1345455 C103.820787,35.8618168 103.408973,35.6572734 102.950789,35.5209091 C102.492605,35.3845448 102.034428,35.3163636 101.576244,35.3163636 C100.98715,35.3163636 100.45261,35.4118172 99.9726073,35.6027273 C99.4926049,35.7936373 99.0807909,36.0636346 98.7371528,36.4127273 C98.3935147,36.7618199 98.1262446,37.1790885 97.9353346,37.6645455 C97.7444245,38.1500024 97.638062,38.6872698 97.6162437,39.2763636 L99.8253346,39.2763636 C99.8144254,38.6872698 99.9589695,38.1990928 100.258971,37.8118182 C100.558972,37.4245435 101.003513,37.2309091 101.592607,37.2309091 C102.018064,37.2309091 102.394424,37.3618169 102.721698,37.6236364 C103.048973,37.8854559 103.212607,38.2618157 103.212607,38.7527273 C103.212607,39.0800016 103.133517,39.3418172 102.975335,39.5381818 C102.817152,39.7345464 102.615336,39.8845449 102.36988,39.9881818 C102.124424,40.0918187 101.859881,40.1545453 101.576244,40.1763636 C101.292606,40.1981819 101.025336,40.1981819 100.774425,40.1763636 L100.774425,40.1763636 Z M109.872607,40.1763636 L109.872607,41.8127273 C110.156245,41.8127273 110.453515,41.820909 110.764425,41.8372727 C111.075336,41.8536364 111.361697,41.9136358 111.623516,42.0172727 C111.885336,42.1209096 112.100788,42.2872716 112.26988,42.5163636 C112.438972,42.7454557 112.523516,43.0781796 112.523516,43.5145455 C112.523516,44.0709119 112.343518,44.5099984 111.983516,44.8318182 C111.623515,45.153638 111.181701,45.3145455 110.658062,45.3145455 C110.319878,45.3145455 110.028063,45.2545461 109.782607,45.1345455 C109.537152,45.0145449 109.332608,44.8536374 109.168971,44.6518182 C109.005334,44.449999 108.87988,44.2100014 108.792607,43.9318182 C108.705334,43.653635 108.656244,43.3618197 108.645335,43.0563636 L106.436244,43.0563636 C106.425335,43.7218215 106.520788,44.3109065 106.722607,44.8236364 C106.924427,45.3363662 107.210787,45.7699982 107.581698,46.1245455 C107.952609,46.4790927 108.402605,46.74909 108.931698,46.9345455 C109.460792,47.1200009 110.04715,47.2127273 110.690789,47.2127273 C111.247156,47.2127273 111.781696,47.1309099 112.294425,46.9672727 C112.807155,46.8036355 113.259878,46.5636379 113.652607,46.2472727 C114.045337,45.9309075 114.35897,45.5381842 114.593516,45.0690909 C114.828063,44.5999977 114.945335,44.0654575 114.945335,43.4654545 C114.945335,42.8109058 114.765336,42.2490933 114.405335,41.78 C114.045333,41.3109067 113.548974,41.0054553 112.916244,40.8636364 L112.916244,40.8309091 C113.450792,40.6781811 113.851697,40.389093 114.118971,39.9636364 C114.386245,39.5381797 114.51988,39.0472755 114.51988,38.4909091 C114.51988,37.9781793 114.405336,37.5254565 114.176244,37.1327273 C113.947152,36.739998 113.649882,36.4072741 113.284425,36.1345455 C112.918969,35.8618168 112.507155,35.6572734 112.048971,35.5209091 C111.590787,35.3845448 111.13261,35.3163636 110.674425,35.3163636 C110.085332,35.3163636 109.550792,35.4118172 109.070789,35.6027273 C108.590787,35.7936373 108.178973,36.0636346 107.835335,36.4127273 C107.491697,36.7618199 107.224426,37.1790885 107.033516,37.6645455 C106.842606,38.1500024 106.736244,38.6872698 106.714425,39.2763636 L108.923516,39.2763636 C108.912607,38.6872698 109.057151,38.1990928 109.357153,37.8118182 C109.657154,37.4245435 110.101695,37.2309091 110.690789,37.2309091 C111.116246,37.2309091 111.492606,37.3618169 111.81988,37.6236364 C112.147154,37.8854559 112.310789,38.2618157 112.310789,38.7527273 C112.310789,39.0800016 112.231699,39.3418172 112.073516,39.5381818 C111.915334,39.7345464 111.713518,39.8845449 111.468062,39.9881818 C111.222606,40.0918187 110.958063,40.1545453 110.674425,40.1763636 C110.390788,40.1981819 110.123518,40.1981819 109.872607,40.1763636 L109.872607,40.1763636 Z M118.970789,40.1763636 L118.970789,41.8127273 C119.254427,41.8127273 119.551697,41.820909 119.862607,41.8372727 C120.173518,41.8536364 120.459879,41.9136358 120.721698,42.0172727 C120.983518,42.1209096 121.19897,42.2872716 121.368062,42.5163636 C121.537154,42.7454557 121.621698,43.0781796 121.621698,43.5145455 C121.621698,44.0709119 121.4417,44.5099984 121.081698,44.8318182 C120.721696,45.153638 120.279883,45.3145455 119.756244,45.3145455 C119.41806,45.3145455 119.126245,45.2545461 118.880789,45.1345455 C118.635333,45.0145449 118.43079,44.8536374 118.267153,44.6518182 C118.103516,44.449999 117.978062,44.2100014 117.890789,43.9318182 C117.803516,43.653635 117.754426,43.3618197 117.743516,43.0563636 L115.534425,43.0563636 C115.523516,43.7218215 115.61897,44.3109065 115.820789,44.8236364 C116.022608,45.3363662 116.308969,45.7699982 116.67988,46.1245455 C117.050791,46.4790927 117.500786,46.74909 118.02988,46.9345455 C118.558974,47.1200009 119.145331,47.2127273 119.788971,47.2127273 C120.345337,47.2127273 120.879877,47.1309099 121.392607,46.9672727 C121.905337,46.8036355 122.35806,46.5636379 122.750789,46.2472727 C123.143518,45.9309075 123.457152,45.5381842 123.691698,45.0690909 C123.926245,44.5999977 124.043516,44.0654575 124.043516,43.4654545 C124.043516,42.8109058 123.863518,42.2490933 123.503516,41.78 C123.143515,41.3109067 122.647156,41.0054553 122.014425,40.8636364 L122.014425,40.8309091 C122.548974,40.6781811 122.949879,40.389093 123.217153,39.9636364 C123.484427,39.5381797 123.618062,39.0472755 123.618062,38.4909091 C123.618062,37.9781793 123.503518,37.5254565 123.274425,37.1327273 C123.045333,36.739998 122.748064,36.4072741 122.382607,36.1345455 C122.017151,35.8618168 121.605337,35.6572734 121.147153,35.5209091 C120.688969,35.3845448 120.230791,35.3163636 119.772607,35.3163636 C119.183513,35.3163636 118.648973,35.4118172 118.168971,35.6027273 C117.688969,35.7936373 117.277154,36.0636346 116.933516,36.4127273 C116.589878,36.7618199 116.322608,37.1790885 116.131698,37.6645455 C115.940788,38.1500024 115.834426,38.6872698 115.812607,39.2763636 L118.021698,39.2763636 C118.010789,38.6872698 118.155333,38.1990928 118.455335,37.8118182 C118.755336,37.4245435 119.199877,37.2309091 119.788971,37.2309091 C120.214428,37.2309091 120.590787,37.3618169 120.918062,37.6236364 C121.245336,37.8854559 121.408971,38.2618157 121.408971,38.7527273 C121.408971,39.0800016 121.329881,39.3418172 121.171698,39.5381818 C121.013516,39.7345464 120.811699,39.8845449 120.566244,39.9881818 C120.320788,40.0918187 120.056245,40.1545453 119.772607,40.1763636 C119.48897,40.1981819 119.221699,40.1981819 118.970789,40.1763636 L118.970789,40.1763636 Z M128.068971,40.1763636 L128.068971,41.8127273 C128.352609,41.8127273 128.649878,41.820909 128.960789,41.8372727 C129.2717,41.8536364 129.558061,41.9136358 129.81988,42.0172727 C130.0817,42.1209096 130.297152,42.2872716 130.466244,42.5163636 C130.635335,42.7454557 130.71988,43.0781796 130.71988,43.5145455 C130.71988,44.0709119 130.539882,44.5099984 130.17988,44.8318182 C129.819878,45.153638 129.378064,45.3145455 128.854425,45.3145455 C128.516242,45.3145455 128.224427,45.2545461 127.978971,45.1345455 C127.733515,45.0145449 127.528972,44.8536374 127.365335,44.6518182 C127.201697,44.449999 127.076244,44.2100014 126.988971,43.9318182 C126.901698,43.653635 126.852607,43.3618197 126.841698,43.0563636 L124.632607,43.0563636 C124.621698,43.7218215 124.717152,44.3109065 124.918971,44.8236364 C125.12079,45.3363662 125.407151,45.7699982 125.778062,46.1245455 C126.148973,46.4790927 126.598968,46.74909 127.128062,46.9345455 C127.657155,47.1200009 128.243513,47.2127273 128.887153,47.2127273 C129.443519,47.2127273 129.978059,47.1309099 130.490789,46.9672727 C131.003519,46.8036355 131.456242,46.5636379 131.848971,46.2472727 C132.2417,45.9309075 132.555333,45.5381842 132.78988,45.0690909 C133.024427,44.5999977 133.141698,44.0654575 133.141698,43.4654545 C133.141698,42.8109058 132.9617,42.2490933 132.601698,41.78 C132.241696,41.3109067 131.745338,41.0054553 131.112607,40.8636364 L131.112607,40.8309091 C131.647155,40.6781811 132.048061,40.389093 132.315335,39.9636364 C132.582609,39.5381797 132.716244,39.0472755 132.716244,38.4909091 C132.716244,37.9781793 132.601699,37.5254565 132.372607,37.1327273 C132.143515,36.739998 131.846246,36.4072741 131.480789,36.1345455 C131.115333,35.8618168 130.703519,35.6572734 130.245335,35.5209091 C129.78715,35.3845448 129.328973,35.3163636 128.870789,35.3163636 C128.281695,35.3163636 127.747155,35.4118172 127.267153,35.6027273 C126.78715,35.7936373 126.375336,36.0636346 126.031698,36.4127273 C125.68806,36.7618199 125.42079,37.1790885 125.22988,37.6645455 C125.03897,38.1500024 124.932607,38.6872698 124.910789,39.2763636 L127.11988,39.2763636 C127.108971,38.6872698 127.253515,38.1990928 127.553516,37.8118182 C127.853518,37.4245435 128.298059,37.2309091 128.887153,37.2309091 C129.312609,37.2309091 129.688969,37.3618169 130.016244,37.6236364 C130.343518,37.8854559 130.507153,38.2618157 130.507153,38.7527273 C130.507153,39.0800016 130.428063,39.3418172 130.26988,39.5381818 C130.111697,39.7345464 129.909881,39.8845449 129.664425,39.9881818 C129.41897,40.0918187 129.154427,40.1545453 128.870789,40.1763636 C128.587151,40.1981819 128.319881,40.1981819 128.068971,40.1763636 L128.068971,40.1763636 Z M137.167153,40.1763636 L137.167153,41.8127273 C137.450791,41.8127273 137.74806,41.820909 138.058971,41.8372727 C138.369882,41.8536364 138.656242,41.9136358 138.918062,42.0172727 C139.179881,42.1209096 139.395334,42.2872716 139.564425,42.5163636 C139.733517,42.7454557 139.818062,43.0781796 139.818062,43.5145455 C139.818062,44.0709119 139.638064,44.5099984 139.278062,44.8318182 C138.91806,45.153638 138.476246,45.3145455 137.952607,45.3145455 C137.614424,45.3145455 137.322609,45.2545461 137.077153,45.1345455 C136.831697,45.0145449 136.627154,44.8536374 136.463516,44.6518182 C136.299879,44.449999 136.174426,44.2100014 136.087153,43.9318182 C135.99988,43.653635 135.950789,43.3618197 135.93988,43.0563636 L133.730789,43.0563636 C133.71988,43.7218215 133.815334,44.3109065 134.017153,44.8236364 C134.218972,45.3363662 134.505333,45.7699982 134.876244,46.1245455 C135.247155,46.4790927 135.69715,46.74909 136.226244,46.9345455 C136.755337,47.1200009 137.341695,47.2127273 137.985335,47.2127273 C138.541701,47.2127273 139.076241,47.1309099 139.588971,46.9672727 C140.101701,46.8036355 140.554424,46.5636379 140.947153,46.2472727 C141.339882,45.9309075 141.653515,45.5381842 141.888062,45.0690909 C142.122608,44.5999977 142.23988,44.0654575 142.23988,43.4654545 C142.23988,42.8109058 142.059882,42.2490933 141.69988,41.78 C141.339878,41.3109067 140.84352,41.0054553 140.210789,40.8636364 L140.210789,40.8309091 C140.745337,40.6781811 141.146242,40.389093 141.413516,39.9636364 C141.68079,39.5381797 141.814425,39.0472755 141.814425,38.4909091 C141.814425,37.9781793 141.699881,37.5254565 141.470789,37.1327273 C141.241697,36.739998 140.944427,36.4072741 140.578971,36.1345455 C140.213515,35.8618168 139.801701,35.6572734 139.343516,35.5209091 C138.885332,35.3845448 138.427155,35.3163636 137.968971,35.3163636 C137.379877,35.3163636 136.845337,35.4118172 136.365335,35.6027273 C135.885332,35.7936373 135.473518,36.0636346 135.12988,36.4127273 C134.786242,36.7618199 134.518972,37.1790885 134.328062,37.6645455 C134.137152,38.1500024 134.030789,38.6872698 134.008971,39.2763636 L136.218062,39.2763636 C136.207153,38.6872698 136.351697,38.1990928 136.651698,37.8118182 C136.9517,37.4245435 137.396241,37.2309091 137.985335,37.2309091 C138.410791,37.2309091 138.787151,37.3618169 139.114425,37.6236364 C139.4417,37.8854559 139.605335,38.2618157 139.605335,38.7527273 C139.605335,39.0800016 139.526244,39.3418172 139.368062,39.5381818 C139.209879,39.7345464 139.008063,39.8845449 138.762607,39.9881818 C138.517152,40.0918187 138.252609,40.1545453 137.968971,40.1763636 C137.685333,40.1981819 137.418063,40.1981819 137.167153,40.1763636 L137.167153,40.1763636 Z M146.265335,40.1763636 L146.265335,41.8127273 C146.548972,41.8127273 146.846242,41.820909 147.157153,41.8372727 C147.468063,41.8536364 147.754424,41.9136358 148.016244,42.0172727 C148.278063,42.1209096 148.493516,42.2872716 148.662607,42.5163636 C148.831699,42.7454557 148.916244,43.0781796 148.916244,43.5145455 C148.916244,44.0709119 148.736245,44.5099984 148.376244,44.8318182 C148.016242,45.153638 147.574428,45.3145455 147.050789,45.3145455 C146.712606,45.3145455 146.42079,45.2545461 146.175335,45.1345455 C145.929879,45.0145449 145.725335,44.8536374 145.561698,44.6518182 C145.398061,44.449999 145.272608,44.2100014 145.185335,43.9318182 C145.098061,43.653635 145.048971,43.3618197 145.038062,43.0563636 L142.828971,43.0563636 C142.818062,43.7218215 142.913515,44.3109065 143.115335,44.8236364 C143.317154,45.3363662 143.603515,45.7699982 143.974425,46.1245455 C144.345336,46.4790927 144.795332,46.74909 145.324425,46.9345455 C145.853519,47.1200009 146.439877,47.2127273 147.083516,47.2127273 C147.639883,47.2127273 148.174423,47.1309099 148.687153,46.9672727 C149.199883,46.8036355 149.652605,46.5636379 150.045335,46.2472727 C150.438064,45.9309075 150.751697,45.5381842 150.986244,45.0690909 C151.22079,44.5999977 151.338062,44.0654575 151.338062,43.4654545 C151.338062,42.8109058 151.158064,42.2490933 150.798062,41.78 C150.43806,41.3109067 149.941701,41.0054553 149.308971,40.8636364 L149.308971,40.8309091 C149.843519,40.6781811 150.244424,40.389093 150.511698,39.9636364 C150.778972,39.5381797 150.912607,39.0472755 150.912607,38.4909091 C150.912607,37.9781793 150.798063,37.5254565 150.568971,37.1327273 C150.339879,36.739998 150.042609,36.4072741 149.677153,36.1345455 C149.311696,35.8618168 148.899882,35.6572734 148.441698,35.5209091 C147.983514,35.3845448 147.525337,35.3163636 147.067153,35.3163636 C146.478059,35.3163636 145.943519,35.4118172 145.463516,35.6027273 C144.983514,35.7936373 144.5717,36.0636346 144.228062,36.4127273 C143.884424,36.7618199 143.617154,37.1790885 143.426244,37.6645455 C143.235334,38.1500024 143.128971,38.6872698 143.107153,39.2763636 L145.316244,39.2763636 C145.305335,38.6872698 145.449879,38.1990928 145.74988,37.8118182 C146.049882,37.4245435 146.494423,37.2309091 147.083516,37.2309091 C147.508973,37.2309091 147.885333,37.3618169 148.212607,37.6236364 C148.539882,37.8854559 148.703516,38.2618157 148.703516,38.7527273 C148.703516,39.0800016 148.624426,39.3418172 148.466244,39.5381818 C148.308061,39.7345464 148.106245,39.8845449 147.860789,39.9881818 C147.615333,40.0918187 147.350791,40.1545453 147.067153,40.1763636 C146.783515,40.1981819 146.516245,40.1981819 146.265335,40.1763636 L146.265335,40.1763636 Z" id="#333333" fill="#FFFFFF" sketch:type="MSShapeGroup"></path>
            <path d="M170.708692,40.2581818 L172.279601,40.2581818 L172.001419,42.2872727 L170.414146,42.2872727 L170.708692,40.2581818 Z M168.63051,43.76 L168.172328,47 L169.759601,47 L170.217783,43.76 L171.788692,43.76 L171.346873,47 L172.934146,47 L173.375964,43.76 L174.799601,43.76 L174.799601,42.2872727 L173.588692,42.2872727 L173.866873,40.2581818 L175.29051,40.2581818 L175.29051,38.7854545 L174.079601,38.7854545 L174.521419,35.5454545 L172.934146,35.5454545 L172.492328,38.7854545 L170.905055,38.7854545 L171.363237,35.5454545 L169.775964,35.5454545 L169.317783,38.7854545 L167.763237,38.7854545 L167.763237,40.2581818 L169.121419,40.2581818 L168.826873,42.2872727 L167.272328,42.2872727 L167.272328,43.76 L168.63051,43.76 Z M180.248692,41.4854545 C179.954145,41.4854545 179.695056,41.4227279 179.471419,41.2972727 C179.247781,41.1718176 179.065056,41.0081828 178.923237,40.8063636 C178.781418,40.6045444 178.675056,40.3754558 178.604146,40.1190909 C178.533237,39.862726 178.497783,39.5981832 178.497783,39.3254545 C178.497783,39.0636351 178.535964,38.807274 178.612328,38.5563636 C178.688692,38.3054533 178.803236,38.0818192 178.955964,37.8854545 C179.108692,37.6890899 179.294145,37.5309097 179.512328,37.4109091 C179.730511,37.2909085 179.975963,37.2309091 180.248692,37.2309091 C180.543239,37.2309091 180.805054,37.2909085 181.034146,37.4109091 C181.263238,37.5309097 181.456873,37.6918172 181.615055,37.8936364 C181.773238,38.0954556 181.893237,38.3245442 181.975055,38.5809091 C182.056874,38.837274 182.097783,39.0963623 182.097783,39.3581818 C182.097783,39.6418196 182.059601,39.9118169 181.983237,40.1681818 C181.906873,40.4245467 181.792329,40.6509081 181.639601,40.8472727 C181.486873,41.0436373 181.295966,41.1990903 181.066873,41.3136364 C180.837781,41.4281824 180.565057,41.4854545 180.248692,41.4854545 L180.248692,41.4854545 Z M178.579601,44.0545455 L176.37051,44.0545455 C176.435965,44.5563661 176.572327,45.0036344 176.779601,45.3963636 C176.986874,45.7890929 177.254145,46.1218168 177.581419,46.3945455 C177.908693,46.6672741 178.285053,46.8718175 178.71051,47.0081818 C179.135966,47.1445461 179.594144,47.2127273 180.085055,47.2127273 C180.903241,47.2127273 181.595962,47.0354563 182.163237,46.6809091 C182.730513,46.3263619 183.194144,45.8627301 183.554146,45.29 C183.914148,44.7172699 184.175964,44.0763672 184.339601,43.3672727 C184.503238,42.6581783 184.585055,41.9490945 184.585055,41.24 C184.585055,40.5199964 184.519601,39.8054581 184.388692,39.0963636 C184.257782,38.3872692 184.023239,37.751821 183.685055,37.19 C183.346872,36.628179 182.896876,36.1754563 182.335055,35.8318182 C181.773234,35.4881801 181.055969,35.3163636 180.183237,35.3163636 C179.583234,35.3163636 179.037785,35.4254535 178.546873,35.6436364 C178.055962,35.8618193 177.633239,36.159089 177.278692,36.5354545 C176.924144,36.9118201 176.65142,37.3536338 176.46051,37.8609091 C176.2696,38.3681844 176.174146,38.9163607 176.174146,39.5054545 C176.174146,39.9636387 176.245055,40.4163614 176.386873,40.8636364 C176.528692,41.3109113 176.752326,41.7090892 177.057783,42.0581818 C177.385057,42.4181836 177.783235,42.7045444 178.252328,42.9172727 C178.721421,43.1300011 179.201416,43.2363636 179.692328,43.2363636 C180.248694,43.2363636 180.739599,43.1381828 181.165055,42.9418182 C181.590512,42.7454536 181.961417,42.4181841 182.277783,41.96 L182.31051,41.9927273 C182.288692,42.3090925 182.242328,42.6690889 182.171419,43.0727273 C182.100509,43.4763657 181.983238,43.8554528 181.819601,44.21 C181.655964,44.5645472 181.437784,44.8645442 181.165055,45.11 C180.892327,45.3554558 180.543239,45.4781818 180.117783,45.4781818 C179.714144,45.4781818 179.375966,45.3363651 179.103237,45.0527273 C178.830508,44.7690895 178.655965,44.4363655 178.579601,44.0545455 L178.579601,44.0545455 Z M189.346873,41.4854545 C189.052327,41.4854545 188.793238,41.4227279 188.569601,41.2972727 C188.345963,41.1718176 188.163238,41.0081828 188.021419,40.8063636 C187.8796,40.6045444 187.773237,40.3754558 187.702328,40.1190909 C187.631419,39.862726 187.595964,39.5981832 187.595964,39.3254545 C187.595964,39.0636351 187.634146,38.807274 187.71051,38.5563636 C187.786874,38.3054533 187.901418,38.0818192 188.054146,37.8854545 C188.206874,37.6890899 188.392327,37.5309097 188.61051,37.4109091 C188.828693,37.2909085 189.074145,37.2309091 189.346873,37.2309091 C189.64142,37.2309091 189.903236,37.2909085 190.132328,37.4109091 C190.36142,37.5309097 190.555054,37.6918172 190.713237,37.8936364 C190.87142,38.0954556 190.991418,38.3245442 191.073237,38.5809091 C191.155056,38.837274 191.195964,39.0963623 191.195964,39.3581818 C191.195964,39.6418196 191.157783,39.9118169 191.081419,40.1681818 C191.005055,40.4245467 190.890511,40.6509081 190.737783,40.8472727 C190.585055,41.0436373 190.394147,41.1990903 190.165055,41.3136364 C189.935963,41.4281824 189.663239,41.4854545 189.346873,41.4854545 L189.346873,41.4854545 Z M187.677783,44.0545455 L185.468692,44.0545455 C185.534147,44.5563661 185.670509,45.0036344 185.877783,45.3963636 C186.085056,45.7890929 186.352326,46.1218168 186.679601,46.3945455 C187.006875,46.6672741 187.383235,46.8718175 187.808692,47.0081818 C188.234148,47.1445461 188.692326,47.2127273 189.183237,47.2127273 C190.001423,47.2127273 190.694143,47.0354563 191.261419,46.6809091 C191.828694,46.3263619 192.292326,45.8627301 192.652328,45.29 C193.01233,44.7172699 193.274145,44.0763672 193.437783,43.3672727 C193.60142,42.6581783 193.683237,41.9490945 193.683237,41.24 C193.683237,40.5199964 193.617783,39.8054581 193.486873,39.0963636 C193.355964,38.3872692 193.121421,37.751821 192.783237,37.19 C192.445054,36.628179 191.995058,36.1754563 191.433237,35.8318182 C190.871416,35.4881801 190.154151,35.3163636 189.281419,35.3163636 C188.681416,35.3163636 188.135967,35.4254535 187.645055,35.6436364 C187.154144,35.8618193 186.731421,36.159089 186.376873,36.5354545 C186.022326,36.9118201 185.749602,37.3536338 185.558692,37.8609091 C185.367782,38.3681844 185.272328,38.9163607 185.272328,39.5054545 C185.272328,39.9636387 185.343236,40.4163614 185.485055,40.8636364 C185.626874,41.3109113 185.850508,41.7090892 186.155964,42.0581818 C186.483239,42.4181836 186.881417,42.7045444 187.35051,42.9172727 C187.819603,43.1300011 188.299598,43.2363636 188.79051,43.2363636 C189.346876,43.2363636 189.83778,43.1381828 190.263237,42.9418182 C190.688694,42.7454536 191.059599,42.4181841 191.375964,41.96 L191.408692,41.9927273 C191.386873,42.3090925 191.34051,42.6690889 191.269601,43.0727273 C191.198691,43.4763657 191.08142,43.8554528 190.917783,44.21 C190.754145,44.5645472 190.535966,44.8645442 190.263237,45.11 C189.990508,45.3554558 189.641421,45.4781818 189.215964,45.4781818 C188.812326,45.4781818 188.474148,45.3363651 188.201419,45.0527273 C187.92869,44.7690895 187.754147,44.4363655 187.677783,44.0545455 L187.677783,44.0545455 Z M198.445055,41.4854545 C198.150508,41.4854545 197.89142,41.4227279 197.667783,41.2972727 C197.444145,41.1718176 197.26142,41.0081828 197.119601,40.8063636 C196.977782,40.6045444 196.871419,40.3754558 196.80051,40.1190909 C196.7296,39.862726 196.694146,39.5981832 196.694146,39.3254545 C196.694146,39.0636351 196.732328,38.807274 196.808692,38.5563636 C196.885056,38.3054533 196.9996,38.0818192 197.152328,37.8854545 C197.305056,37.6890899 197.490509,37.5309097 197.708692,37.4109091 C197.926875,37.2909085 198.172327,37.2309091 198.445055,37.2309091 C198.739602,37.2309091 199.001418,37.2909085 199.23051,37.4109091 C199.459602,37.5309097 199.653236,37.6918172 199.811419,37.8936364 C199.969602,38.0954556 200.0896,38.3245442 200.171419,38.5809091 C200.253237,38.837274 200.294146,39.0963623 200.294146,39.3581818 C200.294146,39.6418196 200.255965,39.9118169 200.179601,40.1681818 C200.103237,40.4245467 199.988692,40.6509081 199.835964,40.8472727 C199.683236,41.0436373 199.492329,41.1990903 199.263237,41.3136364 C199.034145,41.4281824 198.76142,41.4854545 198.445055,41.4854545 L198.445055,41.4854545 Z M196.775964,44.0545455 L194.566873,44.0545455 C194.632328,44.5563661 194.768691,45.0036344 194.975964,45.3963636 C195.183238,45.7890929 195.450508,46.1218168 195.777783,46.3945455 C196.105057,46.6672741 196.481417,46.8718175 196.906873,47.0081818 C197.33233,47.1445461 197.790507,47.2127273 198.281419,47.2127273 C199.099605,47.2127273 199.792325,47.0354563 200.359601,46.6809091 C200.926876,46.3263619 201.390508,45.8627301 201.75051,45.29 C202.110512,44.7172699 202.372327,44.0763672 202.535964,43.3672727 C202.699602,42.6581783 202.781419,41.9490945 202.781419,41.24 C202.781419,40.5199964 202.715965,39.8054581 202.585055,39.0963636 C202.454146,38.3872692 202.219602,37.751821 201.881419,37.19 C201.543235,36.628179 201.09324,36.1754563 200.531419,35.8318182 C199.969598,35.4881801 199.252332,35.3163636 198.379601,35.3163636 C197.779598,35.3163636 197.234149,35.4254535 196.743237,35.6436364 C196.252326,35.8618193 195.829602,36.159089 195.475055,36.5354545 C195.120508,36.9118201 194.847783,37.3536338 194.656873,37.8609091 C194.465963,38.3681844 194.37051,38.9163607 194.37051,39.5054545 C194.37051,39.9636387 194.441418,40.4163614 194.583237,40.8636364 C194.725056,41.3109113 194.94869,41.7090892 195.254146,42.0581818 C195.581421,42.4181836 195.979598,42.7045444 196.448692,42.9172727 C196.917785,43.1300011 197.39778,43.2363636 197.888692,43.2363636 C198.445058,43.2363636 198.935962,43.1381828 199.361419,42.9418182 C199.786876,42.7454536 200.157781,42.4181841 200.474146,41.96 L200.506873,41.9927273 C200.485055,42.3090925 200.438692,42.6690889 200.367783,43.0727273 C200.296873,43.4763657 200.179602,43.8554528 200.015964,44.21 C199.852327,44.5645472 199.634148,44.8645442 199.361419,45.11 C199.08869,45.3554558 198.739603,45.4781818 198.314146,45.4781818 C197.910508,45.4781818 197.572329,45.3363651 197.299601,45.0527273 C197.026872,44.7690895 196.852328,44.4363655 196.775964,44.0545455 L196.775964,44.0545455 Z M207.543237,41.4854545 C207.24869,41.4854545 206.989602,41.4227279 206.765964,41.2972727 C206.542327,41.1718176 206.359601,41.0081828 206.217783,40.8063636 C206.075964,40.6045444 205.969601,40.3754558 205.898692,40.1190909 C205.827782,39.862726 205.792328,39.5981832 205.792328,39.3254545 C205.792328,39.0636351 205.830509,38.807274 205.906873,38.5563636 C205.983237,38.3054533 206.097782,38.0818192 206.25051,37.8854545 C206.403238,37.6890899 206.588691,37.5309097 206.806873,37.4109091 C207.025056,37.2909085 207.270508,37.2309091 207.543237,37.2309091 C207.837784,37.2309091 208.0996,37.2909085 208.328692,37.4109091 C208.557784,37.5309097 208.751418,37.6918172 208.909601,37.8936364 C209.067783,38.0954556 209.187782,38.3245442 209.269601,38.5809091 C209.351419,38.837274 209.392328,39.0963623 209.392328,39.3581818 C209.392328,39.6418196 209.354147,39.9118169 209.277783,40.1681818 C209.201419,40.4245467 209.086874,40.6509081 208.934146,40.8472727 C208.781418,41.0436373 208.590511,41.1990903 208.361419,41.3136364 C208.132327,41.4281824 207.859602,41.4854545 207.543237,41.4854545 L207.543237,41.4854545 Z M205.874146,44.0545455 L203.665055,44.0545455 C203.73051,44.5563661 203.866872,45.0036344 204.074146,45.3963636 C204.28142,45.7890929 204.54869,46.1218168 204.875964,46.3945455 C205.203239,46.6672741 205.579599,46.8718175 206.005055,47.0081818 C206.430512,47.1445461 206.888689,47.2127273 207.379601,47.2127273 C208.197787,47.2127273 208.890507,47.0354563 209.457783,46.6809091 C210.025058,46.3263619 210.48869,45.8627301 210.848692,45.29 C211.208693,44.7172699 211.470509,44.0763672 211.634146,43.3672727 C211.797783,42.6581783 211.879601,41.9490945 211.879601,41.24 C211.879601,40.5199964 211.814147,39.8054581 211.683237,39.0963636 C211.552327,38.3872692 211.317784,37.751821 210.979601,37.19 C210.641417,36.628179 210.191422,36.1754563 209.629601,35.8318182 C209.06778,35.4881801 208.350514,35.3163636 207.477783,35.3163636 C206.87778,35.3163636 206.33233,35.4254535 205.841419,35.6436364 C205.350507,35.8618193 204.927784,36.159089 204.573237,36.5354545 C204.21869,36.9118201 203.945965,37.3536338 203.755055,37.8609091 C203.564145,38.3681844 203.468692,38.9163607 203.468692,39.5054545 C203.468692,39.9636387 203.5396,40.4163614 203.681419,40.8636364 C203.823238,41.3109113 204.046872,41.7090892 204.352328,42.0581818 C204.679602,42.4181836 205.07778,42.7045444 205.546873,42.9172727 C206.015967,43.1300011 206.495962,43.2363636 206.986873,43.2363636 C207.54324,43.2363636 208.034144,43.1381828 208.459601,42.9418182 C208.885057,42.7454536 209.255963,42.4181841 209.572328,41.96 L209.605055,41.9927273 C209.583237,42.3090925 209.536874,42.6690889 209.465964,43.0727273 C209.395055,43.4763657 209.277783,43.8554528 209.114146,44.21 C208.950509,44.5645472 208.732329,44.8645442 208.459601,45.11 C208.186872,45.3554558 207.837785,45.4781818 207.412328,45.4781818 C207.00869,45.4781818 206.670511,45.3363651 206.397783,45.0527273 C206.125054,44.7690895 205.95051,44.4363655 205.874146,44.0545455 L205.874146,44.0545455 Z M216.641419,41.4854545 C216.346872,41.4854545 216.087784,41.4227279 215.864146,41.2972727 C215.640509,41.1718176 215.457783,41.0081828 215.315964,40.8063636 C215.174145,40.6045444 215.067783,40.3754558 214.996873,40.1190909 C214.925964,39.862726 214.89051,39.5981832 214.89051,39.3254545 C214.89051,39.0636351 214.928691,38.807274 215.005055,38.5563636 C215.081419,38.3054533 215.195964,38.0818192 215.348692,37.8854545 C215.50142,37.6890899 215.686872,37.5309097 215.905055,37.4109091 C216.123238,37.2909085 216.36869,37.2309091 216.641419,37.2309091 C216.935966,37.2309091 217.197781,37.2909085 217.426873,37.4109091 C217.655966,37.5309097 217.8496,37.6918172 218.007783,37.8936364 C218.165965,38.0954556 218.285964,38.3245442 218.367783,38.5809091 C218.449601,38.837274 218.49051,39.0963623 218.49051,39.3581818 C218.49051,39.6418196 218.452328,39.9118169 218.375964,40.1681818 C218.2996,40.4245467 218.185056,40.6509081 218.032328,40.8472727 C217.8796,41.0436373 217.688693,41.1990903 217.459601,41.3136364 C217.230509,41.4281824 216.957784,41.4854545 216.641419,41.4854545 L216.641419,41.4854545 Z M214.972328,44.0545455 L212.763237,44.0545455 C212.828692,44.5563661 212.965054,45.0036344 213.172328,45.3963636 C213.379602,45.7890929 213.646872,46.1218168 213.974146,46.3945455 C214.301421,46.6672741 214.67778,46.8718175 215.103237,47.0081818 C215.528694,47.1445461 215.986871,47.2127273 216.477783,47.2127273 C217.295968,47.2127273 217.988689,47.0354563 218.555964,46.6809091 C219.12324,46.3263619 219.586872,45.8627301 219.946873,45.29 C220.306875,44.7172699 220.568691,44.0763672 220.732328,43.3672727 C220.895965,42.6581783 220.977783,41.9490945 220.977783,41.24 C220.977783,40.5199964 220.912329,39.8054581 220.781419,39.0963636 C220.650509,38.3872692 220.415966,37.751821 220.077783,37.19 C219.739599,36.628179 219.289604,36.1754563 218.727783,35.8318182 C218.165962,35.4881801 217.448696,35.3163636 216.575964,35.3163636 C215.975961,35.3163636 215.430512,35.4254535 214.939601,35.6436364 C214.448689,35.8618193 214.025966,36.159089 213.671419,36.5354545 C213.316872,36.9118201 213.044147,37.3536338 212.853237,37.8609091 C212.662327,38.3681844 212.566873,38.9163607 212.566873,39.5054545 C212.566873,39.9636387 212.637782,40.4163614 212.779601,40.8636364 C212.92142,41.3109113 213.145054,41.7090892 213.45051,42.0581818 C213.777784,42.4181836 214.175962,42.7045444 214.645055,42.9172727 C215.114149,43.1300011 215.594144,43.2363636 216.085055,43.2363636 C216.641422,43.2363636 217.132326,43.1381828 217.557783,42.9418182 C217.983239,42.7454536 218.354145,42.4181841 218.67051,41.96 L218.703237,41.9927273 C218.681419,42.3090925 218.635056,42.6690889 218.564146,43.0727273 C218.493237,43.4763657 218.375965,43.8554528 218.212328,44.21 C218.048691,44.5645472 217.830511,44.8645442 217.557783,45.11 C217.285054,45.3554558 216.935966,45.4781818 216.51051,45.4781818 C216.106871,45.4781818 215.768693,45.3363651 215.495964,45.0527273 C215.223236,44.7690895 215.048692,44.4363655 214.972328,44.0545455 L214.972328,44.0545455 Z M225.739601,41.4854545 C225.445054,41.4854545 225.185965,41.4227279 224.962328,41.2972727 C224.738691,41.1718176 224.555965,41.0081828 224.414146,40.8063636 C224.272327,40.6045444 224.165965,40.3754558 224.095055,40.1190909 C224.024146,39.862726 223.988692,39.5981832 223.988692,39.3254545 C223.988692,39.0636351 224.026873,38.807274 224.103237,38.5563636 C224.179601,38.3054533 224.294145,38.0818192 224.446873,37.8854545 C224.599601,37.6890899 224.785054,37.5309097 225.003237,37.4109091 C225.22142,37.2909085 225.466872,37.2309091 225.739601,37.2309091 C226.034148,37.2309091 226.295963,37.2909085 226.525055,37.4109091 C226.754147,37.5309097 226.947782,37.6918172 227.105964,37.8936364 C227.264147,38.0954556 227.384146,38.3245442 227.465964,38.5809091 C227.547783,38.837274 227.588692,39.0963623 227.588692,39.3581818 C227.588692,39.6418196 227.55051,39.9118169 227.474146,40.1681818 C227.397782,40.4245467 227.283238,40.6509081 227.13051,40.8472727 C226.977782,41.0436373 226.786875,41.1990903 226.557783,41.3136364 C226.32869,41.4281824 226.055966,41.4854545 225.739601,41.4854545 L225.739601,41.4854545 Z M224.07051,44.0545455 L221.861419,44.0545455 C221.926874,44.5563661 222.063236,45.0036344 222.27051,45.3963636 C222.477784,45.7890929 222.745054,46.1218168 223.072328,46.3945455 C223.399602,46.6672741 223.775962,46.8718175 224.201419,47.0081818 C224.626876,47.1445461 225.085053,47.2127273 225.575964,47.2127273 C226.39415,47.2127273 227.086871,47.0354563 227.654146,46.6809091 C228.221422,46.3263619 228.685053,45.8627301 229.045055,45.29 C229.405057,44.7172699 229.666873,44.0763672 229.83051,43.3672727 C229.994147,42.6581783 230.075964,41.9490945 230.075964,41.24 C230.075964,40.5199964 230.01051,39.8054581 229.879601,39.0963636 C229.748691,38.3872692 229.514148,37.751821 229.175964,37.19 C228.837781,36.628179 228.387785,36.1754563 227.825964,35.8318182 C227.264143,35.4881801 226.546878,35.3163636 225.674146,35.3163636 C225.074143,35.3163636 224.528694,35.4254535 224.037783,35.6436364 C223.546871,35.8618193 223.124148,36.159089 222.769601,36.5354545 C222.415053,36.9118201 222.142329,37.3536338 221.951419,37.8609091 C221.760509,38.3681844 221.665055,38.9163607 221.665055,39.5054545 C221.665055,39.9636387 221.735964,40.4163614 221.877783,40.8636364 C222.019601,41.3109113 222.243236,41.7090892 222.548692,42.0581818 C222.875966,42.4181836 223.274144,42.7045444 223.743237,42.9172727 C224.21233,43.1300011 224.692326,43.2363636 225.183237,43.2363636 C225.739604,43.2363636 226.230508,43.1381828 226.655964,42.9418182 C227.081421,42.7454536 227.452326,42.4181841 227.768692,41.96 L227.801419,41.9927273 C227.779601,42.3090925 227.733237,42.6690889 227.662328,43.0727273 C227.591419,43.4763657 227.474147,43.8554528 227.31051,44.21 C227.146873,44.5645472 226.928693,44.8645442 226.655964,45.11 C226.383236,45.3554558 226.034148,45.4781818 225.608692,45.4781818 C225.205053,45.4781818 224.866875,45.3363651 224.594146,45.0527273 C224.321418,44.7690895 224.146874,44.4363655 224.07051,44.0545455 L224.07051,44.0545455 Z" id="#999999" fill="#FFFFFF" sketch:type="MSShapeGroup"></path>
            <path d="M250.256288,40.2581818 L251.827197,40.2581818 L251.549016,42.2872727 L249.961743,42.2872727 L250.256288,40.2581818 Z M248.178106,43.76 L247.719925,47 L249.307197,47 L249.765379,43.76 L251.336288,43.76 L250.89447,47 L252.481743,47 L252.923561,43.76 L254.347197,43.76 L254.347197,42.2872727 L253.136288,42.2872727 L253.41447,40.2581818 L254.838106,40.2581818 L254.838106,38.7854545 L253.627197,38.7854545 L254.069016,35.5454545 L252.481743,35.5454545 L252.039925,38.7854545 L250.452652,38.7854545 L250.910834,35.5454545 L249.323561,35.5454545 L248.865379,38.7854545 L247.310834,38.7854545 L247.310834,40.2581818 L248.669016,40.2581818 L248.37447,42.2872727 L246.819925,42.2872727 L246.819925,43.76 L248.178106,43.76 Z M255.983561,39.9472727 L258.209016,39.9472727 C258.209016,39.6418167 258.239015,39.3336379 258.299016,39.0227273 C258.359016,38.7118166 258.459924,38.4281831 258.601743,38.1718182 C258.743562,37.9154533 258.931742,37.7081826 259.166288,37.55 C259.400835,37.3918174 259.687196,37.3127273 260.025379,37.3127273 C260.5272,37.3127273 260.939014,37.4681803 261.260834,37.7790909 C261.582653,38.0900016 261.743561,38.5236336 261.743561,39.08 C261.743561,39.4290927 261.664471,39.7399986 261.506288,40.0127273 C261.348106,40.2854559 261.151744,40.530908 260.917197,40.7490909 C260.682651,40.9672738 260.423562,41.1663627 260.139925,41.3463636 C259.856287,41.5263645 259.589017,41.7036355 259.338106,41.8781818 C258.847195,42.2163653 258.380836,42.5490893 257.939016,42.8763636 C257.497195,43.203638 257.112654,43.5609072 256.785379,43.9481818 C256.458105,44.3354565 256.199016,44.774543 256.008106,45.2654545 C255.817196,45.7563661 255.721743,46.3345421 255.721743,47 L264.132652,47 L264.132652,45.0036364 L258.716288,45.0036364 C258.999926,44.6109071 259.327195,44.2672742 259.698106,43.9727273 C260.069017,43.6781803 260.450832,43.4027286 260.843561,43.1463636 C261.23629,42.8899987 261.626286,42.6309104 262.013561,42.3690909 C262.400836,42.1072714 262.747196,41.8154562 263.052652,41.4936364 C263.358108,41.1718166 263.60356,40.8036384 263.789016,40.3890909 C263.974471,39.9745434 264.067197,39.4781847 264.067197,38.9 C264.067197,38.3436336 263.960835,37.8418204 263.748106,37.3945455 C263.535378,36.9472705 263.249017,36.5709106 262.889016,36.2654545 C262.529014,35.9599985 262.111745,35.7254554 261.637197,35.5618182 C261.162649,35.398181 260.663564,35.3163636 260.139925,35.3163636 C259.452648,35.3163636 258.844473,35.4336352 258.315379,35.6681818 C257.786286,35.9027284 257.347199,36.2299979 256.998106,36.65 C256.649014,37.0700021 256.387198,37.5609063 256.212652,38.1227273 C256.038106,38.6845483 255.961743,39.292724 255.983561,39.9472727 L255.983561,39.9472727 Z M265.605379,35.3163636 L265.605379,47 L268.17447,47 L268.17447,42.1727273 L273.067197,42.1727273 L273.067197,40.1763636 L268.17447,40.1763636 L268.17447,37.4763636 L273.819925,37.4763636 L273.819925,35.3163636 L265.605379,35.3163636 Z M282.361743,37.46 L282.361743,35.5454545 L275.963561,35.5454545 L274.83447,41.8781818 L276.929016,41.8781818 C277.158108,41.5618166 277.40356,41.3300007 277.665379,41.1827273 C277.927199,41.0354538 278.265377,40.9618182 278.679925,40.9618182 C278.99629,40.9618182 279.274469,41.0163631 279.51447,41.1254545 C279.754471,41.234546 279.961742,41.3872717 280.136288,41.5836364 C280.310835,41.780001 280.441742,42.0090896 280.529016,42.2709091 C280.616289,42.5327286 280.659925,42.8109076 280.659925,43.1054545 C280.659925,43.3890923 280.613561,43.6645441 280.520834,43.9318182 C280.428106,44.1990922 280.297198,44.4336354 280.128106,44.6354545 C279.959015,44.8372737 279.751744,45.0009085 279.506288,45.1263636 C279.260832,45.2518188 278.985381,45.3145455 278.679925,45.3145455 C278.156286,45.3145455 277.725381,45.1590925 277.387197,44.8481818 C277.049014,44.5372712 276.852652,44.1200026 276.798106,43.5963636 L274.47447,43.5963636 C274.485379,44.1963666 274.608105,44.722725 274.842652,45.1754545 C275.077198,45.6281841 275.390832,46.0072712 275.783561,46.3127273 C276.17629,46.6181833 276.626286,46.8445447 277.133561,46.9918182 C277.640836,47.1390916 278.172649,47.2127273 278.729016,47.2127273 C279.3072,47.2236364 279.852649,47.1281828 280.365379,46.9263636 C280.878109,46.7245444 281.328104,46.4381837 281.715379,46.0672727 C282.102654,45.6963618 282.410833,45.2572753 282.639925,44.75 C282.869017,44.2427247 282.983561,43.6945484 282.983561,43.1054545 C282.983561,42.5709064 282.904471,42.066366 282.746288,41.5918182 C282.588106,41.1172704 282.359017,40.7054563 282.059016,40.3563636 C281.759014,40.007271 281.390836,39.7290919 280.95447,39.5218182 C280.518104,39.3145444 280.016291,39.2109091 279.449016,39.2109091 C278.990831,39.2109091 278.581745,39.2790902 278.221743,39.4154545 C277.861741,39.5518189 277.523563,39.7781802 277.207197,40.0945455 L277.17447,40.0618182 L277.632652,37.46 L282.361743,37.46 Z M283.883561,39.9472727 L286.109016,39.9472727 C286.109016,39.6418167 286.139015,39.3336379 286.199016,39.0227273 C286.259016,38.7118166 286.359924,38.4281831 286.501743,38.1718182 C286.643562,37.9154533 286.831742,37.7081826 287.066288,37.55 C287.300835,37.3918174 287.587196,37.3127273 287.925379,37.3127273 C288.4272,37.3127273 288.839014,37.4681803 289.160834,37.7790909 C289.482653,38.0900016 289.643561,38.5236336 289.643561,39.08 C289.643561,39.4290927 289.564471,39.7399986 289.406288,40.0127273 C289.248106,40.2854559 289.051744,40.530908 288.817197,40.7490909 C288.582651,40.9672738 288.323562,41.1663627 288.039925,41.3463636 C287.756287,41.5263645 287.489017,41.7036355 287.238106,41.8781818 C286.747195,42.2163653 286.280836,42.5490893 285.839016,42.8763636 C285.397195,43.203638 285.012654,43.5609072 284.685379,43.9481818 C284.358105,44.3354565 284.099016,44.774543 283.908106,45.2654545 C283.717196,45.7563661 283.621743,46.3345421 283.621743,47 L292.032652,47 L292.032652,45.0036364 L286.616288,45.0036364 C286.899926,44.6109071 287.227195,44.2672742 287.598106,43.9727273 C287.969017,43.6781803 288.350832,43.4027286 288.743561,43.1463636 C289.13629,42.8899987 289.526286,42.6309104 289.913561,42.3690909 C290.300836,42.1072714 290.647196,41.8154562 290.952652,41.4936364 C291.258108,41.1718166 291.50356,40.8036384 291.689016,40.3890909 C291.874471,39.9745434 291.967197,39.4781847 291.967197,38.9 C291.967197,38.3436336 291.860835,37.8418204 291.648106,37.3945455 C291.435378,36.9472705 291.149017,36.5709106 290.789016,36.2654545 C290.429014,35.9599985 290.011745,35.7254554 289.537197,35.5618182 C289.062649,35.398181 288.563564,35.3163636 288.039925,35.3163636 C287.352648,35.3163636 286.744473,35.4336352 286.215379,35.6681818 C285.686286,35.9027284 285.247199,36.2299979 284.898106,36.65 C284.549014,37.0700021 284.287198,37.5609063 284.112652,38.1227273 C283.938106,38.6845483 283.861743,39.292724 283.883561,39.9472727 L283.883561,39.9472727 Z M296.79447,41.4854545 C296.499923,41.4854545 296.240835,41.4227279 296.017197,41.2972727 C295.79356,41.1718176 295.610834,41.0081828 295.469016,40.8063636 C295.327197,40.6045444 295.220834,40.3754558 295.149925,40.1190909 C295.079015,39.862726 295.043561,39.5981832 295.043561,39.3254545 C295.043561,39.0636351 295.081742,38.807274 295.158106,38.5563636 C295.23447,38.3054533 295.349015,38.0818192 295.501743,37.8854545 C295.654471,37.6890899 295.839924,37.5309097 296.058106,37.4109091 C296.276289,37.2909085 296.521741,37.2309091 296.79447,37.2309091 C297.089017,37.2309091 297.350833,37.2909085 297.579925,37.4109091 C297.809017,37.5309097 298.002651,37.6918172 298.160834,37.8936364 C298.319016,38.0954556 298.439015,38.3245442 298.520834,38.5809091 C298.602652,38.837274 298.643561,39.0963623 298.643561,39.3581818 C298.643561,39.6418196 298.60538,39.9118169 298.529016,40.1681818 C298.452651,40.4245467 298.338107,40.6509081 298.185379,40.8472727 C298.032651,41.0436373 297.841744,41.1990903 297.612652,41.3136364 C297.38356,41.4281824 297.110835,41.4854545 296.79447,41.4854545 L296.79447,41.4854545 Z M295.125379,44.0545455 L292.916288,44.0545455 C292.981743,44.5563661 293.118105,45.0036344 293.325379,45.3963636 C293.532653,45.7890929 293.799923,46.1218168 294.127197,46.3945455 C294.454472,46.6672741 294.830832,46.8718175 295.256288,47.0081818 C295.681745,47.1445461 296.139922,47.2127273 296.630834,47.2127273 C297.44902,47.2127273 298.14174,47.0354563 298.709016,46.6809091 C299.276291,46.3263619 299.739923,45.8627301 300.099925,45.29 C300.459926,44.7172699 300.721742,44.0763672 300.885379,43.3672727 C301.049016,42.6581783 301.130834,41.9490945 301.130834,41.24 C301.130834,40.5199964 301.06538,39.8054581 300.93447,39.0963636 C300.80356,38.3872692 300.569017,37.751821 300.230834,37.19 C299.89265,36.628179 299.442655,36.1754563 298.880834,35.8318182 C298.319013,35.4881801 297.601747,35.3163636 296.729016,35.3163636 C296.129013,35.3163636 295.583563,35.4254535 295.092652,35.6436364 C294.60174,35.8618193 294.179017,36.159089 293.82447,36.5354545 C293.469923,36.9118201 293.197198,37.3536338 293.006288,37.8609091 C292.815378,38.3681844 292.719925,38.9163607 292.719925,39.5054545 C292.719925,39.9636387 292.790833,40.4163614 292.932652,40.8636364 C293.074471,41.3109113 293.298105,41.7090892 293.603561,42.0581818 C293.930835,42.4181836 294.329013,42.7045444 294.798106,42.9172727 C295.2672,43.1300011 295.747195,43.2363636 296.238106,43.2363636 C296.794473,43.2363636 297.285377,43.1381828 297.710834,42.9418182 C298.13629,42.7454536 298.507196,42.4181841 298.823561,41.96 L298.856288,41.9927273 C298.83447,42.3090925 298.788107,42.6690889 298.717197,43.0727273 C298.646288,43.4763657 298.529016,43.8554528 298.365379,44.21 C298.201742,44.5645472 297.983562,44.8645442 297.710834,45.11 C297.438105,45.3554558 297.089018,45.4781818 296.663561,45.4781818 C296.259923,45.4781818 295.921744,45.3363651 295.649016,45.0527273 C295.376287,44.7690895 295.201743,44.4363655 295.125379,44.0545455 L295.125379,44.0545455 Z M302.603561,35.3163636 L302.603561,47 L305.172652,47 L305.172652,42.1727273 L310.065379,42.1727273 L310.065379,40.1763636 L305.172652,40.1763636 L305.172652,37.4763636 L310.818106,37.4763636 L310.818106,35.3163636 L302.603561,35.3163636 Z" id="#2F529F" fill="#FFFFFF" sketch:type="MSShapeGroup"></path>
            <path d="M328.228013,40.2581818 L329.798922,40.2581818 L329.52074,42.2872727 L327.933468,42.2872727 L328.228013,40.2581818 Z M326.149831,43.76 L325.691649,47 L327.278922,47 L327.737104,43.76 L329.308013,43.76 L328.866195,47 L330.453468,47 L330.895286,43.76 L332.318922,43.76 L332.318922,42.2872727 L331.108013,42.2872727 L331.386195,40.2581818 L332.809831,40.2581818 L332.809831,38.7854545 L331.598922,38.7854545 L332.04074,35.5454545 L330.453468,35.5454545 L330.011649,38.7854545 L328.424377,38.7854545 L328.882558,35.5454545 L327.295286,35.5454545 L326.837104,38.7854545 L325.282558,38.7854545 L325.282558,40.2581818 L326.64074,40.2581818 L326.346195,42.2872727 L324.791649,42.2872727 L324.791649,43.76 L326.149831,43.76 Z M336.017104,41.2236364 C336.017104,41.0272717 336.019831,40.7900014 336.025286,40.5118182 C336.03074,40.233635 336.049831,39.9472742 336.082558,39.6527273 C336.115286,39.3581803 336.169831,39.0663651 336.246195,38.7772727 C336.322559,38.4881804 336.428921,38.2290921 336.565286,38 C336.70165,37.7709079 336.876194,37.5854553 337.088922,37.4436364 C337.30165,37.3018175 337.566193,37.2309091 337.882558,37.2309091 C338.198924,37.2309091 338.466194,37.3018175 338.684377,37.4436364 C338.90256,37.5854553 339.082558,37.7709079 339.224377,38 C339.366196,38.2290921 339.472558,38.4881804 339.543468,38.7772727 C339.614377,39.0663651 339.668922,39.3581803 339.707104,39.6527273 C339.745286,39.9472742 339.767104,40.233635 339.772558,40.5118182 C339.778013,40.7900014 339.78074,41.0272717 339.78074,41.2236364 C339.78074,41.5509107 339.769831,41.9463613 339.748013,42.41 C339.726195,42.8736387 339.658014,43.3209069 339.543468,43.7518182 C339.428922,44.1827294 339.243469,44.5509076 338.987104,44.8563636 C338.730739,45.1618197 338.362561,45.3145455 337.882558,45.3145455 C337.413465,45.3145455 337.053469,45.1618197 336.802558,44.8563636 C336.551648,44.5509076 336.368923,44.1827294 336.254377,43.7518182 C336.139831,43.3209069 336.071649,42.8736387 336.049831,42.41 C336.028013,41.9463613 336.017104,41.5509107 336.017104,41.2236364 L336.017104,41.2236364 Z M333.693468,41.2236364 C333.693468,42.3690966 333.805285,43.3263598 334.028922,44.0954545 C334.25256,44.8645493 334.555284,45.4781795 334.937104,45.9363636 C335.318924,46.3945477 335.763465,46.7218172 336.27074,46.9181818 C336.778016,47.1145464 337.315283,47.2127273 337.882558,47.2127273 C338.460743,47.2127273 339.003465,47.1145464 339.51074,46.9181818 C340.018016,46.7218172 340.465284,46.3945477 340.852558,45.9363636 C341.239833,45.4781795 341.545285,44.8645493 341.768922,44.0954545 C341.99256,43.3263598 342.104377,42.3690966 342.104377,41.2236364 C342.104377,40.1109035 341.99256,39.1754583 341.768922,38.4172727 C341.545285,37.6590871 341.239833,37.0509114 340.852558,36.5927273 C340.465284,36.1345432 340.018016,35.8072737 339.51074,35.6109091 C339.003465,35.4145445 338.460743,35.3163636 337.882558,35.3163636 C337.315283,35.3163636 336.778016,35.4145445 336.27074,35.6109091 C335.763465,35.8072737 335.318924,36.1345432 334.937104,36.5927273 C334.555284,37.0509114 334.25256,37.6590871 334.028922,38.4172727 C333.805285,39.1754583 333.693468,40.1109035 333.693468,41.2236364 L333.693468,41.2236364 Z M345.115286,41.2236364 C345.115286,41.0272717 345.118013,40.7900014 345.123468,40.5118182 C345.128922,40.233635 345.148013,39.9472742 345.18074,39.6527273 C345.213468,39.3581803 345.268013,39.0663651 345.344377,38.7772727 C345.420741,38.4881804 345.527103,38.2290921 345.663468,38 C345.799832,37.7709079 345.974376,37.5854553 346.187104,37.4436364 C346.399832,37.3018175 346.664375,37.2309091 346.98074,37.2309091 C347.297106,37.2309091 347.564376,37.3018175 347.782558,37.4436364 C348.000741,37.5854553 348.18074,37.7709079 348.322558,38 C348.464377,38.2290921 348.57074,38.4881804 348.641649,38.7772727 C348.712559,39.0663651 348.767104,39.3581803 348.805286,39.6527273 C348.843468,39.9472742 348.865286,40.233635 348.87074,40.5118182 C348.876195,40.7900014 348.878922,41.0272717 348.878922,41.2236364 C348.878922,41.5509107 348.868013,41.9463613 348.846195,42.41 C348.824377,42.8736387 348.756195,43.3209069 348.641649,43.7518182 C348.527103,44.1827294 348.341651,44.5509076 348.085286,44.8563636 C347.828921,45.1618197 347.460743,45.3145455 346.98074,45.3145455 C346.511647,45.3145455 346.151651,45.1618197 345.90074,44.8563636 C345.64983,44.5509076 345.467105,44.1827294 345.352558,43.7518182 C345.238012,43.3209069 345.169831,42.8736387 345.148013,42.41 C345.126195,41.9463613 345.115286,41.5509107 345.115286,41.2236364 L345.115286,41.2236364 Z M342.791649,41.2236364 C342.791649,42.3690966 342.903466,43.3263598 343.127104,44.0954545 C343.350741,44.8645493 343.653466,45.4781795 344.035286,45.9363636 C344.417106,46.3945477 344.861647,46.7218172 345.368922,46.9181818 C345.876197,47.1145464 346.413465,47.2127273 346.98074,47.2127273 C347.558925,47.2127273 348.101647,47.1145464 348.608922,46.9181818 C349.116197,46.7218172 349.563466,46.3945477 349.95074,45.9363636 C350.338015,45.4781795 350.643466,44.8645493 350.867104,44.0954545 C351.090741,43.3263598 351.202558,42.3690966 351.202558,41.2236364 C351.202558,40.1109035 351.090741,39.1754583 350.867104,38.4172727 C350.643466,37.6590871 350.338015,37.0509114 349.95074,36.5927273 C349.563466,36.1345432 349.116197,35.8072737 348.608922,35.6109091 C348.101647,35.4145445 347.558925,35.3163636 346.98074,35.3163636 C346.413465,35.3163636 345.876197,35.4145445 345.368922,35.6109091 C344.861647,35.8072737 344.417106,36.1345432 344.035286,36.5927273 C343.653466,37.0509114 343.350741,37.6590871 343.127104,38.4172727 C342.903466,39.1754583 342.791649,40.1109035 342.791649,41.2236364 L342.791649,41.2236364 Z M355.62074,42.4836364 L357.142558,38.1963636 L357.175286,38.1963636 L358.648013,42.4836364 L355.62074,42.4836364 Z M355.866195,35.3163636 L351.448013,47 L354.033468,47 L354.949831,44.3981818 L359.318922,44.3981818 L360.202558,47 L362.869831,47 L358.50074,35.3163636 L355.866195,35.3163636 Z M371.673468,39.2436364 L374.16074,39.2436364 C374.084376,38.5672693 373.898924,37.9672753 373.604377,37.4436364 C373.30983,36.9199974 372.936197,36.4809109 372.483468,36.1263636 C372.030738,35.7718164 371.518016,35.5018191 370.945286,35.3163636 C370.372556,35.1309082 369.76438,35.0381818 369.12074,35.0381818 C368.22619,35.0381818 367.421653,35.1963621 366.707104,35.5127273 C365.992555,35.8290925 365.389834,36.2654518 364.898922,36.8218182 C364.408011,37.3781846 364.031651,38.0299963 363.769831,38.7772727 C363.508012,39.5245492 363.377104,40.3345411 363.377104,41.2072727 C363.377104,42.0581861 363.508012,42.8518145 363.769831,43.5881818 C364.031651,44.3245491 364.408011,44.9654518 364.898922,45.5109091 C365.389834,46.0563664 365.992555,46.4845439 366.707104,46.7954545 C367.421653,47.1063652 368.22619,47.2618182 369.12074,47.2618182 C369.840744,47.2618182 370.500737,47.1527284 371.10074,46.9345455 C371.700743,46.7163625 372.224374,46.4000021 372.671649,45.9854545 C373.118924,45.570907 373.478921,45.0690939 373.751649,44.48 C374.024378,43.8909061 374.193467,43.2309127 374.258922,42.5 L371.771649,42.5 C371.673467,43.2854585 371.40347,43.9181794 370.961649,44.3981818 C370.519829,44.8781842 369.906199,45.1181818 369.12074,45.1181818 C368.542556,45.1181818 368.051651,45.0063648 367.648013,44.7827273 C367.244375,44.5590898 366.917105,44.26182 366.666195,43.8909091 C366.415284,43.5199981 366.232559,43.1027296 366.118013,42.6390909 C366.003467,42.1754522 365.946195,41.6981843 365.946195,41.2072727 C365.946195,40.6945429 366.003467,40.1981842 366.118013,39.7181818 C366.232559,39.2381794 366.415284,38.8100019 366.666195,38.4336364 C366.917105,38.0572708 367.244375,37.7572738 367.648013,37.5336364 C368.051651,37.3099989 368.542556,37.1981818 369.12074,37.1981818 C369.437106,37.1981818 369.73983,37.2499995 370.028922,37.3536364 C370.318014,37.4572732 370.577103,37.6018173 370.806195,37.7872727 C371.035287,37.9727282 371.226194,38.1881806 371.378922,38.4336364 C371.53165,38.6790921 371.629831,38.9490894 371.673468,39.2436364 L371.673468,39.2436364 Z M376.009831,35.3163636 L376.009831,47 L384.878922,47 L384.878922,44.84 L378.578922,44.84 L378.578922,41.9763636 L384.24074,41.9763636 L384.24074,39.98 L378.578922,39.98 L378.578922,37.4763636 L384.748013,37.4763636 L384.748013,35.3163636 L376.009831,35.3163636 Z M388.298922,38.6545455 C388.298922,38.392726 388.345285,38.1636373 388.438013,37.9672727 C388.530741,37.7709081 388.658921,37.6072734 388.822558,37.4763636 C388.986196,37.3454539 389.174376,37.2445458 389.387104,37.1736364 C389.599832,37.1027269 389.820739,37.0672727 390.049831,37.0672727 C390.409833,37.0672727 390.701648,37.1218176 390.925286,37.2309091 C391.148923,37.3400005 391.323467,37.4763628 391.448922,37.64 C391.574377,37.8036372 391.658922,37.9754536 391.702558,38.1554545 C391.746195,38.3354554 391.768013,38.5018174 391.768013,38.6545455 C391.768013,39.145457 391.604378,39.5190896 391.277104,39.7754545 C390.94983,40.0318195 390.540743,40.16 390.049831,40.16 C389.580738,40.16 389.171651,40.0318195 388.822558,39.7754545 C388.473466,39.5190896 388.298922,39.145457 388.298922,38.6545455 L388.298922,38.6545455 Z M386.188013,38.4418182 C386.188013,39.0090937 386.32983,39.5054524 386.613468,39.9309091 C386.897105,40.3563658 387.317101,40.6454538 387.873468,40.7981818 L387.873468,40.8309091 C387.186191,40.9945463 386.654379,41.3218157 386.278013,41.8127273 C385.901648,42.3036388 385.713468,42.9145418 385.713468,43.6454545 C385.713468,44.2672758 385.836194,44.8018159 386.081649,45.2490909 C386.327105,45.6963659 386.654375,46.0672713 387.063468,46.3618182 C387.472561,46.6563651 387.936192,46.8718175 388.454377,47.0081818 C388.972561,47.1445461 389.509828,47.2127273 390.066195,47.2127273 C390.600743,47.2127273 391.124374,47.1390916 391.637104,46.9918182 C392.149834,46.8445447 392.608011,46.6236378 393.011649,46.3290909 C393.415288,46.034544 393.73983,45.6636386 393.985286,45.2163636 C394.230742,44.7690887 394.353468,44.2400031 394.353468,43.6290909 C394.353468,42.9090873 394.168015,42.3009116 393.797104,41.8045455 C393.426193,41.3081793 392.897107,40.9836371 392.209831,40.8309091 L392.209831,40.7981818 C392.766198,40.6127263 393.183466,40.3072749 393.461649,39.8818182 C393.739833,39.4563615 393.878922,38.9600028 393.878922,38.3927273 C393.878922,38.1090895 393.813468,37.7900018 393.682558,37.4354545 C393.551649,37.0809073 393.336196,36.7481834 393.036195,36.4372727 C392.736193,36.1263621 392.340743,35.8618193 391.849831,35.6436364 C391.35892,35.4254535 390.758926,35.3163636 390.049831,35.3163636 C389.580738,35.3163636 389.117106,35.3818175 388.658922,35.5127273 C388.200738,35.643637 387.788924,35.8399987 387.423468,36.1018182 C387.058011,36.3636377 386.760741,36.6909071 386.531649,37.0836364 C386.302557,37.4763656 386.188013,37.9290883 386.188013,38.4418182 L386.188013,38.4418182 Z M388.037104,43.5309091 C388.037104,42.9418152 388.233466,42.4918197 388.626195,42.1809091 C389.018924,41.8699984 389.498919,41.7145455 390.066195,41.7145455 C390.338923,41.7145455 390.592557,41.7581814 390.827104,41.8454545 C391.061651,41.9327277 391.268921,42.058181 391.448922,42.2218182 C391.628923,42.3854554 391.77074,42.5790898 391.874377,42.8027273 C391.978014,43.0263648 392.029831,43.2745441 392.029831,43.5472727 C392.029831,43.8309105 391.980741,44.0927261 391.882558,44.3327273 C391.784376,44.5727285 391.645287,44.7772719 391.465286,44.9463636 C391.285285,45.1154554 391.078014,45.2463632 390.843468,45.3390909 C390.608921,45.4318186 390.349833,45.4781818 390.066195,45.4781818 C389.793466,45.4781818 389.531651,45.4318186 389.28074,45.3390909 C389.02983,45.2463632 388.814378,45.1154554 388.634377,44.9463636 C388.454376,44.7772719 388.309832,44.5727285 388.20074,44.3327273 C388.091649,44.0927261 388.037104,43.825456 388.037104,43.5309091 L388.037104,43.5309091 Z" id="#00ACE8" fill="#FFFFFF" sketch:type="MSShapeGroup"></path>
            <path d="M406.976364,40.2581818 L408.547273,40.2581818 L408.269091,42.2872727 L406.681818,42.2872727 L406.976364,40.2581818 Z M404.898182,43.76 L404.44,47 L406.027273,47 L406.485455,43.76 L408.056364,43.76 L407.614545,47 L409.201818,47 L409.643636,43.76 L411.067273,43.76 L411.067273,42.2872727 L409.856364,42.2872727 L410.134545,40.2581818 L411.558182,40.2581818 L411.558182,38.7854545 L410.347273,38.7854545 L410.789091,35.5454545 L409.201818,35.5454545 L408.76,38.7854545 L407.172727,38.7854545 L407.630909,35.5454545 L406.043636,35.5454545 L405.585455,38.7854545 L404.030909,38.7854545 L404.030909,40.2581818 L405.389091,40.2581818 L405.094545,42.2872727 L403.54,42.2872727 L403.54,43.76 L404.898182,43.76 Z M420.558182,37.5418182 L420.558182,35.5454545 L412.736364,35.5454545 L412.736364,37.7054545 L418.169091,37.7054545 C417.078176,39.0254611 416.197276,40.4763557 415.526364,42.0581818 C414.855451,43.6400079 414.454546,45.2872642 414.323636,47 L416.810909,47 C416.821818,46.2363598 416.911817,45.4127317 417.080909,44.5290909 C417.250001,43.6454501 417.489998,42.7727316 417.800909,41.9109091 C418.11182,41.0490866 418.499089,40.2363675 418.962727,39.4727273 C419.426366,38.7090871 419.958179,38.0654572 420.558182,37.5418182 L420.558182,37.5418182 Z M424.894545,44.84 L424.894545,37.4763636 L426.727273,37.4763636 C427.360003,37.4763636 427.891816,37.5663627 428.322727,37.7463636 C428.753639,37.9263645 429.099999,38.1854529 429.361818,38.5236364 C429.623638,38.8618199 429.811818,39.2681794 429.926364,39.7427273 C430.04091,40.2172751 430.098182,40.749088 430.098182,41.3381818 C430.098182,41.9818214 430.016364,42.5272705 429.852727,42.9745455 C429.68909,43.4218204 429.47091,43.7845441 429.198182,44.0627273 C428.925453,44.3409105 428.614547,44.5399994 428.265455,44.66 C427.916362,44.7800006 427.556365,44.84 427.185455,44.84 L424.894545,44.84 Z M422.325455,35.3163636 L422.325455,47 L427.365455,47 C428.260004,47 429.037269,46.8500015 429.697273,46.55 C430.357276,46.2499985 430.90818,45.8381844 431.35,45.3145455 C431.79182,44.7909065 432.121817,44.1690945 432.34,43.4490909 C432.558183,42.7290873 432.667273,41.9436406 432.667273,41.0927273 C432.667273,40.1218133 432.533638,39.2763672 432.266364,38.5563636 C431.99909,37.83636 431.628184,37.236366 431.153636,36.7563636 C430.679089,36.2763612 430.117276,35.9163648 429.468182,35.6763636 C428.819088,35.4363624 428.118186,35.3163636 427.365455,35.3163636 L422.325455,35.3163636 Z M442.24,39.2436364 L444.727273,39.2436364 C444.650909,38.5672693 444.465456,37.9672753 444.170909,37.4436364 C443.876362,36.9199974 443.50273,36.4809109 443.05,36.1263636 C442.59727,35.7718164 442.084548,35.5018191 441.511818,35.3163636 C440.939088,35.1309082 440.330912,35.0381818 439.687273,35.0381818 C438.792723,35.0381818 437.988185,35.1963621 437.273636,35.5127273 C436.559087,35.8290925 435.956366,36.2654518 435.465455,36.8218182 C434.974543,37.3781846 434.598183,38.0299963 434.336364,38.7772727 C434.074544,39.5245492 433.943636,40.3345411 433.943636,41.2072727 C433.943636,42.0581861 434.074544,42.8518145 434.336364,43.5881818 C434.598183,44.3245491 434.974543,44.9654518 435.465455,45.5109091 C435.956366,46.0563664 436.559087,46.4845439 437.273636,46.7954545 C437.988185,47.1063652 438.792723,47.2618182 439.687273,47.2618182 C440.407276,47.2618182 441.06727,47.1527284 441.667273,46.9345455 C442.267276,46.7163625 442.790907,46.4000021 443.238182,45.9854545 C443.685457,45.570907 444.045453,45.0690939 444.318182,44.48 C444.59091,43.8909061 444.76,43.2309127 444.825455,42.5 L442.338182,42.5 C442.24,43.2854585 441.970002,43.9181794 441.528182,44.3981818 C441.086361,44.8781842 440.472731,45.1181818 439.687273,45.1181818 C439.109088,45.1181818 438.618184,45.0063648 438.214545,44.7827273 C437.810907,44.5590898 437.483638,44.26182 437.232727,43.8909091 C436.981817,43.5199981 436.799091,43.1027296 436.684545,42.6390909 C436.569999,42.1754522 436.512727,41.6981843 436.512727,41.2072727 C436.512727,40.6945429 436.569999,40.1981842 436.684545,39.7181818 C436.799091,39.2381794 436.981817,38.8100019 437.232727,38.4336364 C437.483638,38.0572708 437.810907,37.7572738 438.214545,37.5336364 C438.618184,37.3099989 439.109088,37.1981818 439.687273,37.1981818 C440.003638,37.1981818 440.306362,37.2499995 440.595455,37.3536364 C440.884547,37.4572732 441.143635,37.6018173 441.372727,37.7872727 C441.601819,37.9727282 441.792727,38.1881806 441.945455,38.4336364 C442.098183,38.6790921 442.196363,38.9490894 442.24,39.2436364 L442.24,39.2436364 Z M453.629091,37.46 L453.629091,35.5454545 L447.230909,35.5454545 L446.101818,41.8781818 L448.196364,41.8781818 C448.425456,41.5618166 448.670908,41.3300007 448.932727,41.1827273 C449.194547,41.0354538 449.532725,40.9618182 449.947273,40.9618182 C450.263638,40.9618182 450.541817,41.0163631 450.781818,41.1254545 C451.021819,41.234546 451.22909,41.3872717 451.403636,41.5836364 C451.578183,41.780001 451.70909,42.0090896 451.796364,42.2709091 C451.883637,42.5327286 451.927273,42.8109076 451.927273,43.1054545 C451.927273,43.3890923 451.88091,43.6645441 451.788182,43.9318182 C451.695454,44.1990922 451.564546,44.4336354 451.395455,44.6354545 C451.226363,44.8372737 451.019092,45.0009085 450.773636,45.1263636 C450.528181,45.2518188 450.252729,45.3145455 449.947273,45.3145455 C449.423634,45.3145455 448.992729,45.1590925 448.654545,44.8481818 C448.316362,44.5372712 448.12,44.1200026 448.065455,43.5963636 L445.741818,43.5963636 C445.752727,44.1963666 445.875453,44.722725 446.11,45.1754545 C446.344547,45.6281841 446.65818,46.0072712 447.050909,46.3127273 C447.443638,46.6181833 447.893634,46.8445447 448.400909,46.9918182 C448.908184,47.1390916 449.439997,47.2127273 449.996364,47.2127273 C450.574548,47.2236364 451.119997,47.1281828 451.632727,46.9263636 C452.145457,46.7245444 452.595453,46.4381837 452.982727,46.0672727 C453.370002,45.6963618 453.678181,45.2572753 453.907273,44.75 C454.136365,44.2427247 454.250909,43.6945484 454.250909,43.1054545 C454.250909,42.5709064 454.171819,42.066366 454.013636,41.5918182 C453.855454,41.1172704 453.626365,40.7054563 453.326364,40.3563636 C453.026362,40.007271 452.658184,39.7290919 452.221818,39.5218182 C451.785452,39.3145444 451.283639,39.2109091 450.716364,39.2109091 C450.25818,39.2109091 449.849093,39.2790902 449.489091,39.4154545 C449.129089,39.5518189 448.790911,39.7781802 448.474545,40.0945455 L448.441818,40.0618182 L448.9,37.46 L453.629091,37.46 Z M455.674545,35.3163636 L455.674545,47 L464.543636,47 L464.543636,44.84 L458.243636,44.84 L458.243636,41.9763636 L463.905455,41.9763636 L463.905455,39.98 L458.243636,39.98 L458.243636,37.4763636 L464.412727,37.4763636 L464.412727,35.3163636 L455.674545,35.3163636 Z M469.223636,42.4836364 L470.745455,38.1963636 L470.778182,38.1963636 L472.250909,42.4836364 L469.223636,42.4836364 Z M469.469091,35.3163636 L465.050909,47 L467.636364,47 L468.552727,44.3981818 L472.921818,44.3981818 L473.805455,47 L476.472727,47 L472.103636,35.3163636 L469.469091,35.3163636 Z" id="#7DC5EA" fill="#FFFFFF" sketch:type="MSShapeGroup"></path>
        </g>
    </g>
</svg>