<?xml version="1.0" encoding="UTF-8" standalone="no"?>
<svg width="695px" height="139px" viewBox="0 0 695 139" version="1.1" xmlns="http://www.w3.org/2000/svg" xmlns:xlink="http://www.w3.org/1999/xlink" xmlns:sketch="http://www.bohemiancoding.com/sketch/ns">
    <!-- Generator: Sketch 3.2.2 (9983) - http://www.bohemiancoding.com/sketch -->
    <title>Rectangle 1</title>
    <desc>Created with Sketch.</desc>
    <defs></defs>
    <g id="Page-1" stroke="none" stroke-width="1" fill="none" fill-rule="evenodd" sketch:type="MSPage">
        <rect id="Rectangle-1" fill="#000000" sketch:type="MSShapeGroup" x="0" y="0" width="695" height="139"></rect>
        <path d="M518.958237,-341.771081 L751.579456,-613.32 L1002.74746,-411.735944 L810.751795,-104.534389 L1139,236.074618 L804.165921,372.389709 L552.580154,153.413851 L27.799,398.726505 L399.97463,-79.0063063 L293.617672,-298.004505 L518.958237,-341.771081 Z M293.5998,-297.36781 L518.958237,-341.775549 L293.5998,-297.36781 Z M556.784569,123.489228 L112.557507,331.145335 L429.653512,-75.8831541 L330.800608,-279.421973 L532.451684,-318.586479 L754.854521,-578.207996 L969.335542,-406.070483 L778.794219,-101.194537 L1094.80449,226.718565 L809.042774,343.054866 L556.784569,123.489228 L556.784569,123.489228 Z M560.984516,93.5646046 L197.316013,263.561931 L459.327925,-72.760002 L367.985778,-260.839441 L545.945131,-295.404112 L758.13182,-543.098225 L935.923622,-400.405023 L746.834409,-97.8524518 L1050.60899,217.362513 L813.919628,313.717788 L560.984516,93.5646046 L560.984516,93.5646046 Z M565.188932,63.6399816 L282.076754,195.980761 L489.006806,-69.6368499 L405.170948,-242.259143 L559.438578,-272.21951 L761.406885,-507.988455 L902.511703,-394.741796 L714.876833,-94.5126003 L1006.41348,208.004227 L818.798715,284.382945 L565.188932,63.6399816 L565.188932,63.6399816 Z M569.388879,33.7153587 L366.83526,128.397357 L518.683454,-66.5159317 L442.353883,-223.676611 L572.932025,-249.037143 L764.684184,-472.878684 L869.099783,-389.076336 L682.917023,-91.1705147 L962.215738,198.648174 L823.677803,255.048102 L569.388879,33.7153587 L569.388879,33.7153587 Z M573.59106,3.79073567 L451.596001,60.8161874 L548.360101,-63.3905456 L479.536819,-205.094079 L586.425473,-225.852541 L767.961483,-437.76668 L835.687864,-383.410875 L650.957213,-87.8306632 L918.020231,189.289888 L828.554656,225.711025 L573.59106,3.79073567 L573.59106,3.79073567 Z M577.793241,-26.1338873 L536.354508,-6.7649824 L578.038982,-60.2673934 L516.721989,-186.511548 L599.921154,-202.670174 L771.238782,-402.656909 L802.275945,-377.747649 L618.997403,-84.4885776 L873.824724,179.933836 L833.433743,196.376182 L577.793241,-26.1338873 L577.793241,-26.1338873 Z M596.818108,-43.1570771 L607.713396,-57.1464753 L605.220236,-62.2802404 L763.296861,101.747799 L596.818108,-43.1570771 L596.818108,-43.1570771 Z M553.909393,-167.929016 L613.412367,-179.485572 L743.143817,-330.927175 L592.113273,-89.2671344 L553.909393,-167.929016 L553.909393,-167.929016 Z" id="Stroke-3" stroke="#FFFFFF" stroke-width="0.75" sketch:type="MSShapeGroup"></path>
        <path d="M22.0451803,19.1199574 L607,19.1199574 L607,66.7280426 L22.0451803,66.7280426 L22.0451803,19.1199574 Z" id="Fill-1" fill="#FFFFFF" sketch:type="MSShapeGroup"></path>
        <path d="M22.0451803,61.0134894 L408,61.0134894 L408,110.394511 L22.0451803,110.394511 L22.0451803,61.0134894 Z" id="Fill-2" fill="#FFFFFF" sketch:type="MSShapeGroup"></path>
        <g id="Imported-Layers" sketch:type="MSLayerGroup" transform="translate(29.000000, 27.000000)" fill="#000106">
            <path d="M21.8036807,1.762 L21.8036807,7.04 L8.02988772,7.04 L8.02988772,13.642 L19.9669088,13.642 L19.9669088,18.52 L8.02988772,18.52 L8.02988772,30.32 L1.75890877,30.32 L1.75890877,1.762 L21.8036807,1.762" id="Fill-1" sketch:type="MSShapeGroup"></path>
            <path d="M23.8800316,1.762 L29.5500667,1.762 L29.5500667,6.442 L23.8800316,6.442 L23.8800316,1.762 Z M23.8800316,9.64 L29.5500667,9.64 L29.5500667,30.32 L23.8800316,30.32 L23.8800316,9.64 Z" id="Fill-2" sketch:type="MSShapeGroup"></path>
            <path d="M38.2946982,9.64 L38.2946982,12.52 L38.4124912,12.52 C39.1332246,11.32 40.0635895,10.448 41.2095754,9.9 C42.3535649,9.356 43.5255053,9.08 44.7214035,9.08 C46.2387368,9.08 47.4845474,9.288 48.4568386,9.7 C49.4271333,10.114 50.193786,10.688 50.7528035,11.42 C51.3098246,12.154 51.7031333,13.046 51.9307333,14.102 C52.1563368,15.154 52.2701368,16.32 52.2701368,17.602 L52.2701368,30.32 L46.6001018,30.32 L46.6001018,18.64 C46.6001018,16.934 46.3325719,15.66 45.8015053,14.82 C45.2684421,13.98 44.3221053,13.56 42.9664877,13.56 C41.4212035,13.56 40.3051649,14.02 39.6123825,14.942 C38.9196,15.86 38.5722105,17.376 38.5722105,19.48 L38.5722105,30.32 L32.9041719,30.32 L32.9041719,9.64 L38.2946982,9.64" id="Fill-3" sketch:type="MSShapeGroup"></path>
            <path d="M70.1167719,27.68 C69.4519404,28.802 68.5814702,29.608 67.5033649,30.102 C66.4252596,30.594 65.2054035,30.84 63.8477895,30.84 C62.3045018,30.84 60.9468877,30.54 59.7749474,29.942 C58.6050035,29.34 57.6387018,28.528 56.8800351,27.5 C56.1213684,26.472 55.5483754,25.294 55.1650491,23.962 C54.7777298,22.628 54.5860667,21.24 54.5860667,19.802 C54.5860667,18.414 54.7777298,17.074 55.1650491,15.782 C55.5483754,14.488 56.1213684,13.348 56.8800351,12.36 C57.6387018,11.376 58.5910281,10.58 59.737014,9.982 C60.879007,9.38 62.2106667,9.08 63.7299965,9.08 C64.9518491,9.08 66.1178,9.34 67.2238561,9.86 C68.3279158,10.38 69.198386,11.148 69.8372632,12.16 L69.9191193,12.16 L69.9191193,1.762 L75.5871579,1.762 L75.5871579,30.32 L70.1966316,30.32 L70.1966316,27.68 L70.1167719,27.68 L70.1167719,27.68 Z M69.877193,17.462 C69.7194702,16.674 69.4439544,15.982 69.0606281,15.38 C68.6753053,14.782 68.174186,14.294 67.5632596,13.92 C66.9483404,13.548 66.1796912,13.36 65.2473298,13.36 C64.3149684,13.36 63.5283509,13.548 62.8894737,13.92 C62.252593,14.294 61.7394947,14.788 61.3541719,15.4 C60.9668526,16.014 60.6873439,16.716 60.5156456,17.5 C60.3419509,18.288 60.2561018,19.108 60.2561018,19.96 C60.2561018,20.762 60.3479404,21.562 60.533614,22.36 C60.7192877,23.16 61.0207579,23.876 61.4340316,24.5 C61.8453088,25.128 62.3643965,25.632 62.9912947,26.02 C63.6142,26.406 64.3668772,26.602 65.2473298,26.602 C66.1796912,26.602 66.9563263,26.414 67.5832246,26.04 C68.2061298,25.668 68.7052526,25.168 69.080593,24.54 C69.4519404,23.914 69.7194702,23.2 69.877193,22.402 C70.0369123,21.602 70.1167719,20.774 70.1167719,19.92 C70.1167719,19.066 70.0369123,18.246 69.877193,17.462 L69.877193,17.462 Z" id="Fill-4" sketch:type="MSShapeGroup"></path>
            <path d="M100.06414,9.64 L100.06414,13.442 L95.9134351,13.442 L95.9134351,23.68 C95.9134351,24.64 96.0711579,25.282 96.3905965,25.602 C96.7120316,25.92 97.3509088,26.08 98.3072281,26.08 C98.6266667,26.08 98.9341263,26.066 99.225614,26.04 C99.5190982,26.014 99.798607,25.974 100.06414,25.92 L100.06414,30.32 C99.5869789,30.4 99.0519193,30.454 98.4669474,30.48 C97.8819754,30.508 97.3089825,30.52 96.7519614,30.52 C95.8735053,30.52 95.0409684,30.46 94.2563474,30.34 C93.4717263,30.22 92.7789439,29.988 92.1799965,29.64 C91.5790526,29.294 91.1078807,28.802 90.7624877,28.16 C90.4150982,27.52 90.2414035,26.68 90.2414035,25.642 L90.2414035,13.442 L86.8094351,13.442 L86.8094351,9.64 L90.2414035,9.64 L90.2414035,3.442 L95.9134351,3.442 L95.9134351,9.64 L100.06414,9.64" id="Fill-5" sketch:type="MSShapeGroup"></path>
            <path d="M107.331368,1.762 L107.331368,12.52 L107.451158,12.52 C108.169895,11.32 109.088281,10.448 110.206316,9.9 C111.324351,9.356 112.416432,9.08 113.480561,9.08 C114.997895,9.08 116.243705,9.288 117.214,9.7 C118.184295,10.114 118.950947,10.688 119.511961,11.42 C120.068982,12.154 120.462291,13.046 120.687895,14.102 C120.915495,15.154 121.027298,16.32 121.027298,17.602 L121.027298,30.32 L115.357263,30.32 L115.357263,18.64 C115.357263,16.934 115.09173,15.66 114.558667,14.82 C114.025604,13.98 113.081263,13.56 111.723649,13.56 C110.180361,13.56 109.062326,14.02 108.369544,14.942 C107.678758,15.86 107.331368,17.376 107.331368,19.48 L107.331368,30.32 L101.661333,30.32 L101.661333,1.762 L107.331368,1.762" id="Fill-6" sketch:type="MSShapeGroup"></path>
            <path d="M130.291018,25.36 C131.143519,26.188 132.367368,26.602 133.964561,26.602 C135.108551,26.602 136.092821,26.316 136.919368,25.74 C137.743919,25.168 138.249032,24.562 138.436702,23.92 L143.42793,23.92 C142.629333,26.4 141.403488,28.174 139.754386,29.24 C138.103288,30.31 136.106796,30.84 133.764912,30.84 C132.141765,30.84 130.67634,30.58 129.372632,30.06 C128.068923,29.54 126.962867,28.802 126.058456,27.84 C125.154046,26.88 124.455274,25.736 123.96214,24.4 C123.469007,23.066 123.223439,21.602 123.223439,20 C123.223439,18.454 123.476993,17.014 123.982105,15.68 C124.487218,14.348 125.205954,13.196 126.138316,12.22 C127.070677,11.246 128.180726,10.48 129.472456,9.92 C130.762189,9.36 132.193674,9.08 133.764912,9.08 C135.521825,9.08 137.053133,9.42 138.356842,10.102 C139.660551,10.782 140.732667,11.696 141.571193,12.84 C142.409719,13.99 143.014656,15.294 143.388,16.762 C143.761344,18.226 143.893112,19.762 143.787298,21.36 L128.893474,21.36 C128.973333,23.2 129.438516,24.536 130.291018,25.36 L130.291018,25.36 Z M136.699754,14.482 C136.020947,13.736 134.988761,13.36 133.605193,13.36 C132.700782,13.36 131.948105,13.514 131.349158,13.82 C130.750211,14.128 130.271053,14.508 129.911684,14.962 C129.552316,15.414 129.298761,15.894 129.153018,16.402 C129.005277,16.906 128.919428,17.36 128.893474,17.762 L138.117263,17.762 C137.85173,16.32 137.378561,15.226 136.699754,14.482 L136.699754,14.482 Z" id="Fill-7" sketch:type="MSShapeGroup"></path>
            <path d="M170.66007,27.68 C169.995239,28.802 169.122772,29.608 168.044667,30.102 C166.966561,30.594 165.748702,30.84 164.391088,30.84 C162.845804,30.84 161.490186,30.54 160.318246,29.942 C159.146305,29.34 158.182,28.528 157.423333,27.5 C156.664667,26.472 156.091674,25.294 155.706351,23.962 C155.319032,22.628 155.127368,21.24 155.127368,19.802 C155.127368,18.414 155.319032,17.074 155.706351,15.782 C156.091674,14.488 156.664667,13.348 157.423333,12.36 C158.182,11.376 159.13233,10.58 160.278316,9.982 C161.422305,9.38 162.753965,9.08 164.271298,9.08 C165.495147,9.08 166.661098,9.34 167.765158,9.86 C168.869218,10.38 169.741684,11.148 170.380561,12.16 L170.460421,12.16 L170.460421,1.762 L176.130456,1.762 L176.130456,30.32 L170.73993,30.32 L170.73993,27.68 L170.66007,27.68 L170.66007,27.68 Z M170.418495,17.462 C170.260772,16.674 169.987253,15.982 169.60193,15.38 C169.216607,14.782 168.717484,14.294 168.104561,13.92 C167.491639,13.548 166.720993,13.36 165.788632,13.36 C164.85627,13.36 164.071649,13.548 163.430775,13.92 C162.793895,14.294 162.280796,14.788 161.895474,15.4 C161.510151,16.014 161.230642,16.716 161.056947,17.5 C160.883253,18.288 160.797404,19.108 160.797404,19.96 C160.797404,20.762 160.889242,21.562 161.076912,22.36 C161.262586,23.16 161.56206,23.876 161.975333,24.5 C162.386611,25.128 162.907695,25.632 163.532596,26.02 C164.157498,26.406 164.910175,26.602 165.788632,26.602 C166.720993,26.602 167.499625,26.414 168.124526,26.04 C168.749428,25.668 169.246554,25.168 169.621895,24.54 C169.995239,23.914 170.260772,23.2 170.418495,22.402 C170.580211,21.602 170.66007,20.774 170.66007,19.92 C170.66007,19.066 170.580211,18.246 170.418495,17.462 L170.418495,17.462 Z" id="Fill-8" sketch:type="MSShapeGroup"></path>
            <path d="M179.045333,16 C179.125193,14.668 179.456611,13.56 180.043579,12.68 C180.628551,11.8 181.373242,11.094 182.279649,10.56 C183.18406,10.028 184.20227,9.648 185.332284,9.42 C186.466291,9.196 187.602295,9.08 188.746284,9.08 C189.786456,9.08 190.836611,9.154 191.90074,9.302 C192.96487,9.448 193.939158,9.734 194.815618,10.16 C195.69607,10.586 196.414807,11.18 196.971828,11.942 C197.532842,12.7 197.810354,13.708 197.810354,14.962 L197.810354,25.72 C197.810354,26.654 197.866256,27.548 197.970074,28.402 C198.077884,29.254 198.263558,29.894 198.529091,30.32 L192.781193,30.32 C192.673382,30 192.587533,29.674 192.521649,29.34 C192.455765,29.008 192.407849,28.668 192.381895,28.32 C191.475488,29.254 190.411358,29.906 189.187509,30.282 C187.96366,30.654 186.71186,30.84 185.434105,30.84 C184.447839,30.84 183.529453,30.722 182.676951,30.48 C181.824449,30.24 181.079758,29.868 180.442877,29.36 C179.804,28.856 179.304877,28.216 178.945509,27.442 C178.584144,26.668 178.40446,25.746 178.40446,24.68 C178.40446,23.508 178.612095,22.54 179.025368,21.782 C179.436646,21.02 179.969709,20.414 180.622561,19.96 C181.273418,19.508 182.020105,19.168 182.858632,18.942 C183.697158,18.716 184.541674,18.536 185.392179,18.4 C186.244681,18.268 187.083207,18.16 187.907758,18.08 C188.732309,18 189.467018,17.88 190.105895,17.722 C190.742775,17.56 191.249884,17.328 191.623228,17.02 C191.994575,16.716 192.16827,16.268 192.140319,15.68 C192.140319,15.068 192.042491,14.58 191.842842,14.222 C191.641196,13.86 191.37766,13.58 191.042249,13.38 C190.710832,13.18 190.323512,13.046 189.884284,12.982 C189.447053,12.914 188.971888,12.88 188.466775,12.88 C187.350737,12.88 186.472281,13.122 185.831407,13.602 C185.194526,14.08 184.819186,14.88 184.715368,16 L179.045333,16 L179.045333,16 Z M192.140319,20.2 C191.90074,20.414 191.603263,20.58 191.241898,20.7 C190.884526,20.82 190.497207,20.92 190.08593,21 C189.672656,21.08 189.239418,21.148 188.788211,21.2 C188.335007,21.254 187.881804,21.32 187.430596,21.4 C187.003347,21.48 186.584084,21.586 186.170811,21.722 C185.759533,21.856 185.398168,22.036 185.094702,22.262 C184.787242,22.488 184.541674,22.774 184.356,23.122 C184.16833,23.468 184.074495,23.906 184.074495,24.442 C184.074495,24.948 184.16833,25.376 184.356,25.72 C184.541674,26.066 184.795228,26.34 185.114667,26.54 C185.434105,26.74 185.807449,26.88 186.230705,26.962 C186.655958,27.04 187.097182,27.08 187.550386,27.08 C188.666425,27.08 189.532902,26.894 190.143828,26.52 C190.756751,26.148 191.209954,25.7 191.503439,25.18 C191.796923,24.66 191.974611,24.132 192.042491,23.602 C192.108375,23.066 192.140319,22.642 192.140319,22.32 L192.140319,20.2 L192.140319,20.2 Z" id="Fill-9" sketch:type="MSShapeGroup"></path>
            <path d="M212.42467,9.64 L212.42467,13.442 L208.271968,13.442 L208.271968,23.68 C208.271968,24.64 208.433684,25.282 208.753123,25.602 C209.072561,25.92 209.709442,26.08 210.669754,26.08 C210.989193,26.08 211.294656,26.066 211.58814,26.04 C211.879628,26.014 212.159137,25.974 212.42467,25.92 L212.42467,30.32 C211.945512,30.4 211.414446,30.454 210.829474,30.48 C210.242505,30.508 209.671509,30.52 209.110495,30.52 C208.234035,30.52 207.401498,30.46 206.614881,30.34 C205.83026,30.22 205.137477,29.988 204.53853,29.64 C203.941579,29.294 203.466414,28.802 203.121021,28.16 C202.775628,27.52 202.60393,26.68 202.60393,25.642 L202.60393,13.442 L199.169965,13.442 L199.169965,9.64 L202.60393,9.64 L202.60393,3.442 L208.271968,3.442 L208.271968,9.64 L212.42467,9.64" id="Fill-10" sketch:type="MSShapeGroup"></path>
            <path d="M213.782284,16 C213.862144,14.668 214.195558,13.56 214.78053,12.68 C215.365502,11.8 216.112189,11.094 217.0166,10.56 C217.921011,10.028 218.939221,9.648 220.073228,9.42 C221.203242,9.196 222.341242,9.08 223.487228,9.08 C224.523407,9.08 225.575558,9.154 226.641684,9.302 C227.705814,9.448 228.676109,9.734 229.556561,10.16 C230.433021,10.586 231.151758,11.18 231.712772,11.942 C232.271789,12.7 232.551298,13.708 232.551298,14.962 L232.551298,25.72 C232.551298,26.654 232.603207,27.548 232.711018,28.402 C232.814835,29.254 233.002505,29.894 233.270035,30.32 L227.518144,30.32 C227.41233,30 227.324484,29.674 227.2586,29.34 C227.192716,29.008 227.146796,28.668 227.120842,28.32 C226.214435,29.254 225.150305,29.906 223.92446,30.282 C222.700611,30.654 221.448811,30.84 220.171056,30.84 C219.186786,30.84 218.2684,30.722 217.417895,30.48 C216.565393,30.24 215.820702,29.868 215.179828,29.36 C214.540951,28.856 214.041828,28.216 213.68246,27.442 C213.325088,26.668 213.145404,25.746 213.145404,24.68 C213.145404,23.508 213.349046,22.54 213.764316,21.782 C214.175593,21.02 214.708656,20.414 215.359512,19.96 C216.012365,19.508 216.759053,19.168 217.595582,18.942 C218.434109,18.716 219.278625,18.536 220.133123,18.4 C220.983628,18.268 221.820158,18.16 222.648702,18.08 C223.473253,18 224.205965,17.88 224.842846,17.722 C225.481723,17.56 225.988832,17.328 226.360179,17.02 C226.733523,16.716 226.905221,16.268 226.881263,15.68 C226.881263,15.068 226.781439,14.58 226.579793,14.222 C226.38214,13.86 226.114611,13.58 225.783193,13.38 C225.449779,13.18 225.064456,13.046 224.625228,12.982 C224.184004,12.914 223.712832,12.88 223.207719,12.88 C222.087688,12.88 221.211228,13.122 220.572351,13.602 C219.931477,14.08 219.56013,14.88 219.452319,16 L213.782284,16 L213.782284,16 Z M226.881263,20.2 C226.641684,20.414 226.340214,20.58 225.982842,20.7 C225.623474,20.82 225.236154,20.92 224.822881,21 C224.409607,21.08 223.978365,21.148 223.525161,21.2 C223.071958,21.254 222.620751,21.32 222.167547,21.4 C221.744291,21.48 221.323032,21.586 220.911754,21.722 C220.496484,21.856 220.139112,22.036 219.831653,22.262 C219.526189,22.488 219.278625,22.774 219.092951,23.122 C218.907277,23.468 218.815439,23.906 218.815439,24.442 C218.815439,24.948 218.907277,25.376 219.092951,25.72 C219.278625,26.066 219.532179,26.34 219.851618,26.54 C220.171056,26.74 220.5444,26.88 220.971649,26.962 C221.396902,27.04 221.83613,27.08 222.289333,27.08 C223.407368,27.08 224.269853,26.894 224.884772,26.52 C225.495698,26.148 225.948902,25.7 226.240389,25.18 C226.533874,24.66 226.713558,24.132 226.781439,23.602 C226.845326,23.066 226.881263,22.642 226.881263,22.32 L226.881263,20.2 L226.881263,20.2 Z" id="Fill-11" sketch:type="MSShapeGroup"></path>
            <path d="M240.595161,25.18 C240.848716,25.622 241.174144,25.98 241.573442,26.262 C241.97274,26.54 242.431933,26.746 242.951021,26.88 C243.470109,27.014 244.009161,27.08 244.568179,27.08 C244.967477,27.08 245.38674,27.036 245.825968,26.942 C246.265196,26.848 246.664495,26.7 247.023863,26.5 C247.383232,26.302 247.682705,26.036 247.922284,25.7 C248.161863,25.368 248.279656,24.948 248.279656,24.442 C248.279656,23.586 247.714649,22.948 246.584635,22.52 C245.454621,22.094 243.875396,21.668 241.852951,21.24 C241.0284,21.056 240.221818,20.834 239.437196,20.58 C238.650579,20.328 237.953804,19.994 237.340881,19.58 C236.727958,19.168 236.234825,18.648 235.863477,18.02 C235.490133,17.394 235.30446,16.628 235.30446,15.722 C235.30446,14.388 235.564004,13.294 236.083091,12.442 C236.602179,11.586 237.286975,10.914 238.139477,10.42 C238.989982,9.926 239.950295,9.58 241.014425,9.38 C242.078554,9.18 243.170635,9.08 244.28867,9.08 C245.406705,9.08 246.4908,9.188 247.542951,9.4 C248.595102,9.614 249.531456,9.972 250.358004,10.48 C251.182554,10.99 251.867351,11.66 252.414389,12.5 C252.959432,13.34 253.28486,14.4 253.39267,15.68 L248.002144,15.68 C247.922284,14.586 247.509011,13.848 246.764319,13.462 C246.019628,13.074 245.139175,12.88 244.128951,12.88 C243.809512,12.88 243.462123,12.9 243.090775,12.942 C242.717432,12.982 242.378028,13.066 242.072565,13.2 C241.767102,13.334 241.507558,13.528 241.293933,13.782 C241.080309,14.036 240.974495,14.376 240.974495,14.8 C240.974495,15.31 241.160168,15.722 241.533512,16.04 C241.90486,16.36 242.392004,16.622 242.990951,16.82 C243.589898,17.02 244.274695,17.2 245.047337,17.36 C245.817982,17.52 246.6046,17.696 247.403196,17.88 C248.227747,18.068 249.03433,18.294 249.818951,18.562 C250.603572,18.828 251.302344,19.18 251.915267,19.622 C252.526193,20.062 253.019326,20.608 253.39267,21.262 C253.766014,21.914 253.951688,22.72 253.951688,23.68 C253.951688,25.04 253.678168,26.18 253.133126,27.102 C252.588084,28.02 251.875337,28.762 250.996881,29.32 C250.118425,29.88 249.112193,30.274 247.982179,30.5 C246.850168,30.728 245.700189,30.84 244.528249,30.84 C243.330354,30.84 242.158414,30.722 241.014425,30.48 C239.870435,30.24 238.852225,29.84 237.959793,29.282 C237.067361,28.72 236.334649,27.982 235.763653,27.06 C235.19066,26.14 234.879207,24.988 234.825302,23.602 L240.215828,23.602 C240.215828,24.216 240.341607,24.74 240.595161,25.18" id="Fill-12" sketch:type="MSShapeGroup"></path>
            <path d="M262.217161,25.36 C263.069663,26.188 264.293512,26.602 265.890705,26.602 C267.034695,26.602 268.018965,26.316 268.845512,25.74 C269.670063,25.168 270.175175,24.562 270.362846,23.92 L275.354074,23.92 C274.555477,26.4 273.329632,28.174 271.68053,29.24 C270.029432,30.31 268.03294,30.84 265.691056,30.84 C264.067909,30.84 262.602484,30.58 261.298775,30.06 C259.995067,29.54 258.889011,28.802 257.9846,27.84 C257.080189,26.88 256.381418,25.736 255.888284,24.4 C255.395151,23.066 255.149582,21.602 255.149582,20 C255.149582,18.454 255.403137,17.014 255.908249,15.68 C256.413361,14.348 257.132098,13.196 258.06446,12.22 C258.996821,11.246 260.10687,10.48 261.3986,9.92 C262.688333,9.36 264.119818,9.08 265.691056,9.08 C267.447968,9.08 268.979277,9.42 270.282986,10.102 C271.586695,10.782 272.658811,11.696 273.497337,12.84 C274.335863,13.99 274.9408,15.294 275.314144,16.762 C275.687488,18.226 275.819256,19.762 275.713442,21.36 L260.819618,21.36 C260.899477,23.2 261.36466,24.536 262.217161,25.36 L262.217161,25.36 Z M268.625898,14.482 C267.947091,13.736 266.914905,13.36 265.531337,13.36 C264.626926,13.36 263.874249,13.514 263.275302,13.82 C262.676354,14.128 262.197196,14.508 261.837828,14.962 C261.47846,15.414 261.224905,15.894 261.079161,16.402 C260.931421,16.906 260.845572,17.36 260.819618,17.762 L270.043407,17.762 C269.777874,16.32 269.304705,15.226 268.625898,14.482 L268.625898,14.482 Z" id="Fill-13" sketch:type="MSShapeGroup"></path>
            <path d="M289.289582,9.64 L289.289582,13.442 L285.136881,13.442 L285.136881,23.68 C285.136881,24.64 285.294604,25.282 285.616039,25.602 C285.935477,25.92 286.572358,26.08 287.53267,26.08 C287.852109,26.08 288.157572,26.066 288.451056,26.04 C288.742544,26.014 289.022053,25.974 289.289582,25.92 L289.289582,30.32 C288.808428,30.4 288.277361,30.454 287.692389,30.48 C287.105421,30.508 286.534425,30.52 285.973411,30.52 C285.096951,30.52 284.264414,30.46 283.477796,30.34 C282.693175,30.22 282.000393,29.988 281.401446,29.64 C280.802498,29.294 280.32933,28.802 279.983937,28.16 C279.64054,27.52 279.466846,26.68 279.466846,25.642 L279.466846,13.442 L276.032881,13.442 L276.032881,9.64 L279.466846,9.64 L279.466846,3.442 L285.136881,3.442 L285.136881,9.64 L289.289582,9.64" id="Fill-14" sketch:type="MSShapeGroup"></path>
            <path d="M295.658389,25.18 C295.909947,25.622 296.235375,25.98 296.634674,26.262 C297.033972,26.54 297.495161,26.746 298.014249,26.88 C298.53134,27.014 299.072389,27.08 299.629411,27.08 C300.028709,27.08 300.447972,27.036 300.8872,26.942 C301.328425,26.848 301.725726,26.7 302.087091,26.5 C302.444463,26.302 302.745933,26.036 302.985512,25.7 C303.223095,25.368 303.344881,24.948 303.344881,24.442 C303.344881,23.586 302.777877,22.948 301.647863,22.52 C300.513856,22.094 298.938625,21.668 296.916179,21.24 C296.089632,21.056 295.283049,20.834 294.500425,20.58 C293.713807,20.328 293.015035,19.994 292.402112,19.58 C291.791186,19.168 291.298053,18.648 290.926705,18.02 C290.551365,17.394 290.367688,16.628 290.367688,15.722 C290.367688,14.388 290.625235,13.294 291.144323,12.442 C291.665407,11.586 292.350204,10.914 293.200709,10.42 C294.053211,9.926 295.011526,9.58 296.077653,9.38 C297.139786,9.18 298.231867,9.08 299.351898,9.08 C300.467937,9.08 301.554028,9.188 302.604182,9.4 C303.656333,9.614 304.594684,9.972 305.421232,10.48 C306.245782,10.99 306.930579,11.66 307.477618,12.5 C308.020663,13.34 308.348088,14.4 308.453902,15.68 L303.065372,15.68 C302.985512,14.586 302.572239,13.848 301.827547,13.462 C301.08086,13.074 300.202404,12.88 299.190182,12.88 C298.870744,12.88 298.525351,12.9 298.154004,12.942 C297.78066,12.982 297.441256,13.066 297.133796,13.2 C296.828333,13.334 296.568789,13.528 296.357161,13.782 C296.14154,14.036 296.037723,14.376 296.037723,14.8 C296.037723,15.31 296.2214,15.722 296.59674,16.04 C296.968088,16.36 297.453235,16.622 298.052182,16.82 C298.653126,17.02 299.337923,17.2 300.110565,17.36 C300.881211,17.52 301.667828,17.696 302.464428,17.88 C303.288979,18.068 304.097558,18.294 304.880182,18.562 C305.6668,18.828 306.363575,19.18 306.978495,19.622 C307.589421,20.062 308.082554,20.608 308.453902,21.262 C308.827246,21.914 309.012919,22.72 309.012919,23.68 C309.012919,25.04 308.741396,26.18 308.194358,27.102 C307.649316,28.02 306.936568,28.762 306.060109,29.32 C305.179656,29.88 304.175421,30.274 303.043411,30.5 C301.913396,30.728 300.761421,30.84 299.591477,30.84 C298.391586,30.84 297.219646,30.722 296.077653,30.48 C294.931667,30.24 293.913456,29.84 293.023021,29.282 C292.128593,28.72 291.397877,27.982 290.824884,27.06 C290.253888,26.14 289.940439,24.988 289.886533,23.602 L295.279056,23.602 C295.279056,24.216 295.404835,24.74 295.658389,25.18" id="Fill-15" sketch:type="MSShapeGroup"></path>
            <path d="M332.531586,9.64 L332.531586,13.442 L328.380881,13.442 L328.380881,23.68 C328.380881,24.64 328.538604,25.282 328.858042,25.602 C329.177481,25.92 329.816358,26.08 330.774674,26.08 C331.094112,26.08 331.399575,26.066 331.69306,26.04 C331.984547,26.014 332.266053,25.974 332.531586,25.92 L332.531586,30.32 C332.052428,30.4 331.519365,30.454 330.934393,30.48 C330.349421,30.508 329.776428,30.52 329.219407,30.52 C328.338954,30.52 327.506418,30.46 326.723793,30.34 C325.937175,30.22 325.244393,29.988 324.645446,29.64 C324.046498,29.294 323.57333,28.802 323.229933,28.16 C322.882544,27.52 322.708849,26.68 322.708849,25.642 L322.708849,13.442 L319.274884,13.442 L319.274884,9.64 L322.708849,9.64 L322.708849,3.442 L328.380881,3.442 L328.380881,9.64 L332.531586,9.64" id="Fill-16" sketch:type="MSShapeGroup"></path>
            <path d="M334.248568,15.5 C334.753681,14.154 335.472418,13.008 336.404779,12.06 C337.33714,11.114 338.455175,10.38 339.758884,9.86 C341.062593,9.34 342.528018,9.08 344.151165,9.08 C345.774312,9.08 347.245726,9.34 348.563411,9.86 C349.881095,10.38 351.007116,11.114 351.937481,12.06 C352.869842,13.008 353.588579,14.154 354.095688,15.5 C354.598804,16.848 354.852358,18.348 354.852358,20 C354.852358,21.654 354.598804,23.148 354.095688,24.48 C353.588579,25.814 352.869842,26.954 351.937481,27.9 C351.007116,28.848 349.881095,29.576 348.563411,30.08 C347.245726,30.586 345.774312,30.84 344.151165,30.84 C342.528018,30.84 341.062593,30.586 339.758884,30.08 C338.455175,29.576 337.33714,28.848 336.404779,27.9 C335.472418,26.954 334.753681,25.814 334.248568,24.48 C333.743456,23.148 333.489902,21.654 333.489902,20 C333.489902,18.348 333.743456,16.848 334.248568,15.5 L334.248568,15.5 Z M339.399516,22.42 C339.559235,23.208 339.832754,23.914 340.218077,24.54 C340.605396,25.168 341.116498,25.668 341.755375,26.04 C342.394253,26.414 343.194846,26.602 344.151165,26.602 C345.111477,26.602 345.914067,26.414 346.566919,26.04 C347.219772,25.668 347.73886,25.168 348.124182,24.54 C348.511502,23.914 348.783025,23.208 348.942744,22.42 C349.10446,21.634 349.184319,20.828 349.184319,20 C349.184319,19.174 349.10446,18.36 348.942744,17.56 C348.783025,16.762 348.511502,16.056 348.124182,15.442 C347.73886,14.828 347.219772,14.328 346.566919,13.942 C345.914067,13.556 345.111477,13.36 344.151165,13.36 C343.194846,13.36 342.394253,13.556 341.755375,13.942 C341.116498,14.328 340.605396,14.828 340.218077,15.442 C339.832754,16.056 339.559235,16.762 339.399516,17.56 C339.239796,18.36 339.159937,19.174 339.159937,20 C339.159937,20.828 339.239796,21.634 339.399516,22.42 L339.399516,22.42 Z" id="Fill-17" sketch:type="MSShapeGroup"></path>
            <path d="M372.898642,9.64 L372.898642,12.442 L372.980498,12.442 C373.725189,11.376 374.623611,10.548 375.675761,9.962 C376.725916,9.376 377.931796,9.08 379.289411,9.08 C380.593119,9.08 381.785025,9.334 382.86313,9.84 C383.941235,10.348 384.759796,11.24 385.318814,12.52 C385.931737,11.614 386.762277,10.814 387.814428,10.122 C388.866579,9.426 390.110393,9.08 391.547867,9.08 C392.637951,9.08 393.650172,9.216 394.582533,9.48 C395.514895,9.746 396.311495,10.174 396.978323,10.762 C397.643154,11.348 398.162242,12.114 398.535586,13.06 C398.90893,14.008 399.094604,15.148 399.094604,16.48 L399.094604,30.32 L393.424568,30.32 L393.424568,18.602 C393.424568,17.906 393.396618,17.254 393.344709,16.642 C393.290804,16.028 393.14506,15.494 392.905481,15.04 C392.665902,14.586 392.312523,14.228 391.84734,13.96 C391.380161,13.696 390.74927,13.56 389.950674,13.56 C389.152077,13.56 388.507211,13.716 388.014077,14.02 C387.520944,14.328 387.135621,14.726 386.856112,15.22 C386.576604,15.714 386.388933,16.274 386.295098,16.9 C386.201263,17.528 386.15734,18.16 386.15734,18.802 L386.15734,30.32 L380.487305,30.32 L380.487305,18.722 C380.487305,18.108 380.47333,17.5 380.447375,16.9 C380.419425,16.3 380.305625,15.746 380.107972,15.24 C379.908323,14.734 379.574909,14.328 379.109726,14.02 C378.642547,13.716 377.957751,13.56 377.051344,13.56 C376.787807,13.56 376.434428,13.622 375.9952,13.74 C375.553975,13.86 375.130719,14.086 374.717446,14.42 C374.304172,14.754 373.952789,15.236 373.659305,15.86 C373.365821,16.488 373.218081,17.308 373.218081,18.32 L373.218081,30.32 L367.550042,30.32 L367.550042,9.64 L372.898642,9.64" id="Fill-18" sketch:type="MSShapeGroup"></path>
            <path d="M402.207133,16 C402.286993,14.668 402.620407,13.56 403.205379,12.68 C403.790351,11.8 404.537039,11.094 405.441449,10.56 C406.34586,10.028 407.36407,9.648 408.496081,9.42 C409.628091,9.196 410.766091,9.08 411.912077,9.08 C412.948256,9.08 414.000407,9.154 415.066533,9.302 C416.130663,9.448 417.100958,9.734 417.981411,10.16 C418.85787,10.586 419.576607,11.18 420.137621,11.942 C420.696639,12.7 420.976147,13.708 420.976147,14.962 L420.976147,25.72 C420.976147,26.654 421.028056,27.548 421.13387,28.402 C421.239684,29.254 421.427354,29.894 421.694884,30.32 L415.942993,30.32 C415.837179,30 415.749333,29.674 415.683449,29.34 C415.617565,29.008 415.571646,28.668 415.545691,28.32 C414.639284,29.254 413.573158,29.906 412.349309,30.282 C411.12546,30.654 409.87366,30.84 408.595905,30.84 C407.611635,30.84 406.693249,30.722 405.840747,30.48 C404.990242,30.24 404.245551,29.868 403.604677,29.36 C402.9658,28.856 402.466677,28.216 402.107309,27.442 C401.749937,26.668 401.570253,25.746 401.570253,24.68 C401.570253,23.508 401.773895,22.54 402.187168,21.782 C402.600442,21.02 403.133505,20.414 403.784361,19.96 C404.437214,19.508 405.181905,19.168 406.020432,18.942 C406.858958,18.716 407.703474,18.536 408.557972,18.4 C409.408477,18.268 410.247004,18.16 411.073551,18.08 C411.898102,18 412.630814,17.88 413.267695,17.722 C413.908568,17.56 414.411684,17.328 414.785028,17.02 C415.160368,16.716 415.33007,16.268 415.306112,15.68 C415.306112,15.068 415.206288,14.58 415.004642,14.222 C414.806989,13.86 414.53946,13.58 414.208042,13.38 C413.874628,13.18 413.489305,13.046 413.050077,12.982 C412.608853,12.914 412.137681,12.88 411.632568,12.88 C410.512537,12.88 409.636077,13.122 408.9972,13.602 C408.356326,14.08 407.984979,14.88 407.877168,16 L402.207133,16 L402.207133,16 Z M415.306112,20.2 C415.066533,20.414 414.765063,20.58 414.405695,20.7 C414.048323,20.82 413.663,20.92 413.24773,21 C412.834456,21.08 412.403214,21.148 411.950011,21.2 C411.498804,21.254 411.0456,21.32 410.592396,21.4 C410.167144,21.48 409.747881,21.586 409.334607,21.722 C408.921333,21.856 408.563961,22.036 408.258498,22.262 C407.951039,22.488 407.703474,22.774 407.5178,23.122 C407.33013,23.468 407.240288,23.906 407.240288,24.442 C407.240288,24.948 407.33013,25.376 407.5178,25.72 C407.703474,26.066 407.957028,26.34 408.276467,26.54 C408.595905,26.74 408.969249,26.88 409.396498,26.962 C409.821751,27.04 410.258982,27.08 410.714182,27.08 C411.830221,27.08 412.694702,26.894 413.309621,26.52 C413.920547,26.148 414.373751,25.7 414.665239,25.18 C414.958723,24.66 415.138407,24.132 415.206288,23.602 C415.270175,23.066 415.306112,22.642 415.306112,22.32 L415.306112,20.2 L415.306112,20.2 Z" id="Fill-19" sketch:type="MSShapeGroup"></path>
            <path d="M430.439516,1.762 L430.439516,17.08 L437.584958,9.64 L444.293168,9.64 L436.508849,17.24 L445.173621,30.32 L438.303695,30.32 L432.63366,21.08 L430.439516,23.2 L430.439516,30.32 L424.767484,30.32 L424.767484,1.762 L430.439516,1.762" id="Fill-20" sketch:type="MSShapeGroup"></path>
            <path d="M452.119414,25.36 C452.971916,26.188 454.195765,26.602 455.792958,26.602 C456.936947,26.602 457.921218,26.316 458.747765,25.74 C459.572316,25.168 460.077428,24.562 460.265098,23.92 L465.256326,23.92 C464.45773,26.4 463.233881,28.174 461.582782,29.24 C459.931684,30.31 457.935193,30.84 455.593309,30.84 C453.970161,30.84 452.504737,30.58 451.201028,30.06 C449.897319,29.54 448.791263,28.802 447.886853,27.84 C446.982442,26.88 446.28367,25.736 445.790537,24.4 C445.297404,23.066 445.051835,21.602 445.051835,20 C445.051835,18.454 445.305389,17.014 445.810502,15.68 C446.315614,14.348 447.034351,13.196 447.966712,12.22 C448.899074,11.246 450.011119,10.48 451.300853,9.92 C452.590586,9.36 454.02207,9.08 455.593309,9.08 C457.350221,9.08 458.88153,9.42 460.185239,10.102 C461.488947,10.782 462.56306,11.696 463.399589,12.84 C464.238116,13.99 464.843053,15.294 465.218393,16.762 C465.58974,18.226 465.723505,19.762 465.615695,21.36 L450.72187,21.36 C450.80173,23.2 451.266912,24.536 452.119414,25.36 L452.119414,25.36 Z M458.528151,14.482 C457.849344,13.736 456.819154,13.36 455.433589,13.36 C454.529179,13.36 453.776502,13.514 453.179551,13.82 C452.580604,14.128 452.099449,14.508 451.742077,14.962 C451.380712,15.414 451.127158,15.894 450.981414,16.402 C450.83567,16.906 450.749821,17.36 450.72187,17.762 L459.94566,17.762 C459.680126,16.32 459.206958,15.226 458.528151,14.482 L458.528151,14.482 Z" id="Fill-21" sketch:type="MSShapeGroup"></path>
            <path d="M483.344537,9.64 L483.344537,12.442 L483.424396,12.442 C484.169088,11.376 485.067509,10.548 486.121656,9.962 C487.171811,9.376 488.375695,9.08 489.733309,9.08 C491.037018,9.08 492.228923,9.334 493.307028,9.84 C494.385133,10.348 495.203695,11.24 495.764709,12.52 C496.375635,11.614 497.206175,10.814 498.258326,10.122 C499.310477,9.426 500.554291,9.08 501.991765,9.08 C503.083846,9.08 504.09407,9.216 505.026432,9.48 C505.958793,9.746 506.755393,10.174 507.422221,10.762 C508.087053,11.348 508.60614,12.114 508.981481,13.06 C509.352828,14.008 509.538502,15.148 509.538502,16.48 L509.538502,30.32 L503.868467,30.32 L503.868467,18.602 C503.868467,17.906 503.840516,17.254 503.788607,16.642 C503.736698,16.028 503.588958,15.494 503.349379,15.04 C503.1098,14.586 502.756421,14.228 502.291239,13.96 C501.826056,13.696 501.193168,13.56 500.394572,13.56 C499.597972,13.56 498.951109,13.716 498.457975,14.02 C497.964842,14.328 497.581516,14.726 497.300011,15.22 C497.020502,15.714 496.834828,16.274 496.740993,16.9 C496.647158,17.528 496.603235,18.16 496.603235,18.802 L496.603235,30.32 L490.9332,30.32 L490.9332,18.722 C490.9332,18.108 490.919225,17.5 490.891274,16.9 C490.863323,16.3 490.751519,15.746 490.55187,15.24 C490.352221,14.734 490.020804,14.328 489.553625,14.02 C489.088442,13.716 488.401649,13.56 487.497239,13.56 C487.231705,13.56 486.878326,13.622 486.441095,13.74 C485.99987,13.86 485.574618,14.086 485.161344,14.42 C484.74807,14.754 484.396688,15.236 484.1052,15.86 C483.809719,16.488 483.663975,17.308 483.663975,18.32 L483.663975,30.32 L477.99394,30.32 L477.99394,9.64 L483.344537,9.64" id="Fill-22" sketch:type="MSShapeGroup"></path>
            <path d="M513.012396,15.5 C513.517509,14.154 514.234249,13.008 515.168607,12.06 C516.098972,11.114 517.219004,10.38 518.522712,9.86 C519.826421,9.34 521.291846,9.08 522.914993,9.08 C524.53814,9.08 526.009554,9.34 527.327239,9.86 C528.644923,10.38 529.768947,11.114 530.699312,12.06 C531.631674,13.008 532.352407,14.154 532.857519,15.5 C533.362632,16.848 533.616186,18.348 533.616186,20 C533.616186,21.654 533.362632,23.148 532.857519,24.48 C532.352407,25.814 531.631674,26.954 530.699312,27.9 C529.768947,28.848 528.644923,29.576 527.327239,30.08 C526.009554,30.586 524.53814,30.84 522.914993,30.84 C521.291846,30.84 519.826421,30.586 518.522712,30.08 C517.219004,29.576 516.098972,28.848 515.168607,27.9 C514.234249,26.954 513.517509,25.814 513.012396,24.48 C512.505288,23.148 512.251733,21.654 512.251733,20 C512.251733,18.348 512.505288,16.848 513.012396,15.5 L513.012396,15.5 Z M518.163344,22.42 C518.321067,23.208 518.594586,23.914 518.979909,24.54 C519.367228,25.168 519.87833,25.668 520.519204,26.04 C521.158081,26.414 521.956677,26.602 522.914993,26.602 C523.873309,26.602 524.677895,26.414 525.330747,26.04 C525.981604,25.668 526.500691,25.168 526.886014,24.54 C527.273333,23.914 527.544856,23.208 527.704575,22.42 C527.866291,21.634 527.946151,20.828 527.946151,20 C527.946151,19.174 527.866291,18.36 527.704575,17.56 C527.544856,16.762 527.273333,16.056 526.886014,15.442 C526.500691,14.828 525.981604,14.328 525.330747,13.942 C524.677895,13.556 523.873309,13.36 522.914993,13.36 C521.956677,13.36 521.158081,13.556 520.519204,13.942 C519.87833,14.328 519.367228,14.828 518.979909,15.442 C518.594586,16.056 518.321067,16.762 518.163344,17.56 C518.003625,18.36 517.923765,19.174 517.923765,20 C517.923765,20.828 518.003625,21.634 518.163344,22.42 L518.163344,22.42 Z" id="Fill-23" sketch:type="MSShapeGroup"></path>
            <path d="M540.943309,25.18 C541.194867,25.622 541.520295,25.98 541.921589,26.262 C542.320888,26.54 542.780081,26.746 543.299168,26.88 C543.818256,27.014 544.357309,27.08 544.916326,27.08 C545.315625,27.08 545.734888,27.036 546.172119,26.942 C546.613344,26.848 547.012642,26.7 547.372011,26.5 C547.731379,26.302 548.030853,26.036 548.270432,25.7 C548.510011,25.368 548.6298,24.948 548.6298,24.442 C548.6298,23.586 548.064793,22.948 546.932782,22.52 C545.800772,22.094 544.223544,21.668 542.201098,21.24 C541.374551,21.056 540.569965,20.834 539.785344,20.58 C539.000723,20.328 538.299954,19.994 537.689028,19.58 C537.076105,19.168 536.584968,18.648 536.211625,18.02 C535.838281,17.394 535.652607,16.628 535.652607,15.722 C535.652607,14.388 535.912151,13.294 536.431239,12.442 C536.950326,11.586 537.635123,10.914 538.487625,10.42 C539.340126,9.926 540.296446,9.58 541.362572,9.38 C542.426702,9.18 543.516786,9.08 544.636818,9.08 C545.754853,9.08 546.838947,9.188 547.891098,9.4 C548.941253,9.614 549.8816,9.972 550.706151,10.48 C551.530702,10.99 552.217495,11.66 552.762537,12.5 C553.307579,13.34 553.635004,14.4 553.740818,15.68 L548.350291,15.68 C548.270432,14.586 547.857158,13.848 547.112467,13.462 C546.365779,13.074 545.489319,12.88 544.477098,12.88 C544.15766,12.88 543.812267,12.9 543.438923,12.942 C543.065579,12.982 542.726175,13.066 542.420712,13.2 C542.113253,13.334 541.853709,13.528 541.642081,13.782 C541.42646,14.036 541.322642,14.376 541.322642,14.8 C541.322642,15.31 541.508316,15.722 541.88166,16.04 C542.255004,16.36 542.740151,16.622 543.339098,16.82 C543.938046,17.02 544.622842,17.2 545.395484,17.36 C546.168126,17.52 546.952747,17.696 547.751344,17.88 C548.575895,18.068 549.382477,18.294 550.165102,18.562 C550.951719,18.828 551.650491,19.18 552.263414,19.622 C552.876337,20.062 553.367474,20.608 553.740818,21.262 C554.112165,21.914 554.299835,22.72 554.299835,23.68 C554.299835,25.04 554.026316,26.18 553.481274,27.102 C552.934235,28.02 552.223484,28.762 551.345028,29.32 C550.466572,29.88 549.46034,30.274 548.32833,30.5 C547.198316,30.728 546.04634,30.84 544.876396,30.84 C543.678502,30.84 542.506561,30.722 541.362572,30.48 C540.216586,30.24 539.198375,29.84 538.30794,29.282 C537.415509,28.72 536.684793,27.982 536.109804,27.06 C535.538807,26.14 535.225358,24.988 535.173449,23.602 L540.563975,23.602 C540.563975,24.216 540.689754,24.74 540.943309,25.18" id="Fill-24" sketch:type="MSShapeGroup"></path>
            <path d="M567.834049,9.64 L567.834049,13.442 L563.683344,13.442 L563.683344,23.68 C563.683344,24.64 563.841067,25.282 564.160505,25.602 C564.479944,25.92 565.120818,26.08 566.077137,26.08 C566.396575,26.08 566.704035,26.066 566.995523,26.04 C567.289007,26.014 567.568516,25.974 567.834049,25.92 L567.834049,30.32 C567.356888,30.4 566.821828,30.454 566.236856,30.48 C565.651884,30.508 565.078891,30.52 564.52187,30.52 C563.641418,30.52 562.808881,30.46 562.026256,30.34 C561.239639,30.22 560.548853,29.988 559.949905,29.64 C559.348961,29.294 558.877789,28.802 558.532396,28.16 C558.185007,27.52 558.011312,26.68 558.011312,25.642 L558.011312,13.442 L554.579344,13.442 L554.579344,9.64 L558.011312,9.64 L558.011312,3.442 L563.683344,3.442 L563.683344,9.64 L567.834049,9.64" id="Fill-25" sketch:type="MSShapeGroup"></path>
            <path d="M1.3196807,45.762 L6.98971579,45.762 L6.98971579,50.442 L1.3196807,50.442 L1.3196807,45.762 Z M1.3196807,53.64 L6.98971579,53.64 L6.98971579,74.32 L1.3196807,74.32 L1.3196807,53.64 Z" id="Fill-26" sketch:type="MSShapeGroup"></path>
            <path d="M15.8561333,53.64 L15.8561333,56.442 L15.935993,56.442 C16.6806842,55.374 17.5791053,54.548 18.6292596,53.962 C19.6814105,53.376 20.8852947,53.08 22.2449053,53.08 C23.548614,53.08 24.7405193,53.334 25.8186246,53.84 C26.8967298,54.348 27.7132947,55.24 28.2723123,56.52 C28.8852351,55.614 29.7177719,54.816 30.7679263,54.122 C31.8180807,53.426 33.0658877,53.08 34.5013649,53.08 C35.5934456,53.08 36.6036702,53.216 37.5380281,53.482 C38.468393,53.746 39.2669895,54.174 39.9318211,54.762 C40.5966526,55.348 41.1177368,56.114 41.4890842,57.06 C41.8624281,58.008 42.0500982,59.148 42.0500982,60.48 L42.0500982,74.32 L36.3800632,74.32 L36.3800632,62.602 C36.3800632,61.906 36.3521123,61.254 36.3002035,60.64 C36.2443018,60.028 36.0985579,59.494 35.8589789,59.04 C35.6213965,58.586 35.2660211,58.226 34.8028351,57.962 C34.3356561,57.696 33.7027684,57.562 32.9041719,57.562 C32.1055754,57.562 31.4607088,57.716 30.9695719,58.02 C30.4764386,58.328 30.0891193,58.726 29.811607,59.222 C29.5301018,59.716 29.3444281,60.274 29.250593,60.9 C29.1587544,61.528 29.1108386,62.16 29.1108386,62.8 L29.1108386,74.32 L23.4408035,74.32 L23.4408035,62.722 C23.4408035,62.108 23.4268281,61.5 23.4028702,60.9 C23.3749193,60.302 23.2611193,59.746 23.0634667,59.24 C22.8618211,58.736 22.528407,58.328 22.0652211,58.02 C21.6000386,57.716 20.9132456,57.562 20.0088351,57.562 C19.7413053,57.562 19.3879263,57.622 18.9486982,57.74 C18.5114667,57.86 18.0842175,58.086 17.6729404,58.42 C17.2596667,58.754 16.9062877,59.234 16.6128035,59.86 C16.3213158,60.49 16.1755719,61.31 16.1755719,62.32 L16.1755719,74.32 L10.5055368,74.32 L10.5055368,53.64 L15.8561333,53.64" id="Fill-27" sketch:type="MSShapeGroup"></path>
            <path d="M50.7907368,53.64 L50.7907368,56.282 L50.872593,56.282 C51.5633789,55.16 52.4438316,54.348 53.5079614,53.84 C54.5720912,53.334 55.7440316,53.08 57.021786,53.08 C58.6449333,53.08 60.0424772,53.388 61.2144175,54 C62.3843614,54.614 63.3566526,55.426 64.1292947,56.442 C64.9019368,57.454 65.4729333,58.632 65.8462772,59.98 C66.2176246,61.328 66.4052947,62.734 66.4052947,64.2 C66.4052947,65.586 66.2176246,66.92 65.8462772,68.2 C65.4729333,69.48 64.9079263,70.614 64.1492596,71.602 C63.390593,72.586 62.4442561,73.376 61.3142421,73.96 C60.1822316,74.546 58.8585579,74.84 57.3412246,74.84 C56.0634702,74.84 54.8855404,74.58 53.8074351,74.062 C52.7293298,73.54 51.8448842,72.774 51.1521018,71.762 L51.0722421,71.762 L51.0722421,81.562 L45.402207,81.562 L45.402207,53.64 L50.7907368,53.64 L50.7907368,53.64 Z M58.159786,70.04 C58.7866842,69.668 59.2898,69.18 59.6771193,68.58 C60.0624421,67.98 60.3359614,67.282 60.4956807,66.48 C60.6554,65.68 60.7352596,64.868 60.7352596,64.04 C60.7352596,63.216 60.6494105,62.4 60.4757158,61.602 C60.3020211,60.802 60.0165228,60.086 59.6172246,59.462 C59.2179263,58.834 58.7048281,58.328 58.0799263,57.942 C57.4530281,57.554 56.6883719,57.36 55.7839614,57.36 C54.8516,57.36 54.0729684,57.554 53.4480667,57.942 C52.8211684,58.328 52.3160561,58.828 51.9307333,59.442 C51.5454105,60.056 51.2718912,60.762 51.1121719,61.56 C50.9524526,62.36 50.872593,63.188 50.872593,64.04 C50.872593,64.868 50.9604386,65.68 51.1321368,66.48 C51.3038351,67.282 51.5853404,67.98 51.9706632,68.58 C52.355986,69.18 52.8690842,69.668 53.5079614,70.04 C54.1468386,70.414 54.9194807,70.602 55.8238912,70.602 C56.7562526,70.602 57.5348842,70.414 58.159786,70.04 L58.159786,70.04 Z" id="Fill-28" sketch:type="MSShapeGroup"></path>
            <path d="M68.4397193,60 C68.5195789,58.668 68.852993,57.562 69.4379649,56.68 C70.0229368,55.802 70.7696246,55.094 71.6740351,54.562 C72.5804421,54.028 73.5966561,53.65 74.7306632,53.42 C75.8606772,53.196 77.0006737,53.08 78.1446632,53.08 C79.1808421,53.08 80.2349895,53.156 81.2991193,53.302 C82.3632491,53.448 83.3335439,53.734 84.2139965,54.16 C85.0904561,54.586 85.8111895,55.18 86.370207,55.942 C86.9292246,56.7 87.2087333,57.708 87.2087333,58.96 L87.2087333,69.722 C87.2087333,70.654 87.2606421,71.546 87.3684526,72.4 C87.4742667,73.254 87.6599404,73.896 87.9274702,74.32 L82.1755789,74.32 C82.0697649,74 81.9839158,73.674 81.9160351,73.34 C81.8501509,73.008 81.8042316,72.668 81.7782772,72.32 C80.8718702,73.254 79.8077404,73.906 78.5818947,74.282 C77.3580456,74.652 76.1062456,74.84 74.8304877,74.84 C73.8442211,74.84 72.9258351,74.722 72.0753298,74.482 C71.2228281,74.24 70.4781368,73.868 69.8372632,73.36 C69.198386,72.856 68.6992632,72.216 68.3398947,71.442 C67.9825228,70.668 67.8028386,69.746 67.8028386,68.68 C67.8028386,67.508 68.0084772,66.54 68.4217509,65.782 C68.8350246,65.02 69.3660912,64.414 70.0169474,63.962 C70.6717965,63.508 71.4164877,63.168 72.255014,62.942 C73.0935404,62.716 73.9360596,62.536 74.7905579,62.4 C75.6410632,62.268 76.4795895,62.16 77.3061368,62.08 C78.1306877,62 78.8634,61.88 79.5002807,61.72 C80.1411544,61.56 80.6462667,61.328 81.017614,61.02 C81.3929544,60.716 81.5646526,60.268 81.5386982,59.68 C81.5386982,59.066 81.4388737,58.58 81.2392246,58.222 C81.0395754,57.86 80.7720456,57.58 80.4406281,57.38 C80.107214,57.18 79.7218912,57.048 79.2826632,56.98 C78.8414386,56.914 78.3702667,56.88 77.8651544,56.88 C76.7471193,56.88 75.8686632,57.122 75.229786,57.602 C74.5909088,58.08 74.2175649,58.88 74.1097544,60 L68.4397193,60 L68.4397193,60 Z M81.5386982,64.2 C81.2991193,64.414 80.9976491,64.58 80.6402772,64.7 C80.2809088,64.82 79.895586,64.92 79.4823123,65 C79.0690386,65.08 78.6358,65.148 78.1825965,65.2 C77.7313895,65.254 77.278186,65.32 76.8269789,65.4 C76.4017263,65.482 75.9804667,65.586 75.5691895,65.722 C75.1559158,65.856 74.7965474,66.036 74.4910842,66.262 C74.1836246,66.49 73.9360596,66.774 73.7523825,67.122 C73.5647123,67.466 73.4728737,67.906 73.4728737,68.442 C73.4728737,68.948 73.5647123,69.376 73.7523825,69.722 C73.9360596,70.066 74.189614,70.34 74.5090526,70.54 C74.8304877,70.74 75.2018351,70.88 75.6290842,70.96 C76.0543368,71.04 76.4935649,71.08 76.9467684,71.08 C78.0648035,71.08 78.9272877,70.896 79.542207,70.52 C80.1531333,70.15 80.6063368,69.7 80.8998211,69.18 C81.1913088,68.66 81.370993,68.134 81.4388737,67.602 C81.5027614,67.066 81.5386982,66.64 81.5386982,66.32 L81.5386982,64.2 L81.5386982,64.2 Z" id="Fill-29" sketch:type="MSShapeGroup"></path>
            <path d="M100.345646,57.36 C99.4392386,57.36 98.6805719,57.566 98.0676491,57.982 C97.4567228,58.394 96.9576,58.926 96.5702807,59.58 C96.1849579,60.236 95.9114386,60.954 95.7537158,61.74 C95.5939965,62.528 95.5141368,63.31 95.5141368,64.08 C95.5141368,64.828 95.5939965,65.586 95.7537158,66.36 C95.9114386,67.134 96.1729789,67.834 96.5323474,68.462 C96.8897193,69.086 97.3748667,69.602 97.9877895,70 C98.6007123,70.402 99.3474,70.602 100.22386,70.602 C101.58347,70.602 102.625639,70.222 103.360347,69.46 C104.091063,68.7 104.550256,67.68 104.737926,66.4 L110.206316,66.4 C109.834968,69.148 108.768842,71.24 107.013926,72.68 C105.257014,74.122 103.006968,74.84 100.265786,74.84 C98.7205018,74.84 97.302993,74.58 96.0132596,74.062 C94.7195333,73.54 93.6234596,72.816 92.7170526,71.88 C91.8126421,70.948 91.1078807,69.834 90.6027684,68.54 C90.0956596,67.246 89.8421053,65.828 89.8421053,64.282 C89.8421053,62.68 90.0756947,61.196 90.5428737,59.82 C91.0080561,58.448 91.6928526,57.262 92.5992596,56.262 C93.5036702,55.262 94.6077298,54.48 95.9114386,53.92 C97.2171439,53.36 98.7065263,53.08 100.383579,53.08 C101.609425,53.08 102.787354,53.24 103.919365,53.56 C105.049379,53.88 106.0616,54.368 106.952035,55.02 C107.844467,55.674 108.571189,56.488 109.128211,57.46 C109.689225,58.434 110.008663,59.586 110.088523,60.92 L104.538277,60.92 C104.164933,58.548 102.767389,57.36 100.345646,57.36" id="Fill-30" sketch:type="MSShapeGroup"></path>
            <path d="M123.622737,53.64 L123.622737,57.442 L119.472032,57.442 L119.472032,67.68 C119.472032,68.64 119.629754,69.282 119.949193,69.602 C120.268632,69.92 120.909505,70.08 121.865825,70.08 C122.185263,70.08 122.492723,70.066 122.784211,70.04 C123.075698,70.014 123.357204,69.972 123.622737,69.92 L123.622737,74.32 C123.145575,74.4 122.610516,74.454 122.025544,74.482 C121.440572,74.508 120.867579,74.52 120.310558,74.52 C119.430105,74.52 118.599565,74.462 117.814944,74.34 C117.028326,74.222 116.33754,73.99 115.738593,73.642 C115.137649,73.294 114.666477,72.802 114.321084,72.16 C113.973695,71.52 113.8,70.68 113.8,69.64 L113.8,57.442 L110.366035,57.442 L110.366035,53.64 L113.8,53.64 L113.8,47.442 L119.472032,47.442 L119.472032,53.64 L123.622737,53.64" id="Fill-31" sketch:type="MSShapeGroup"></path>
            <path d="M135.364102,45.762 L141.034137,45.762 L141.034137,50.442 L135.364102,50.442 L135.364102,45.762 Z M135.364102,53.64 L141.034137,53.64 L141.034137,74.32 L135.364102,74.32 L135.364102,53.64 Z" id="Fill-32" sketch:type="MSShapeGroup"></path>
            <path d="M149.776772,53.64 L149.776772,56.52 L149.896561,56.52 C150.617295,55.32 151.545663,54.448 152.693646,53.902 C153.835639,53.356 155.007579,53.08 156.205474,53.08 C157.722807,53.08 158.966621,53.288 159.940909,53.7 C160.911204,54.114 161.677856,54.688 162.234877,55.42 C162.793895,56.156 163.185207,57.048 163.412807,58.102 C163.638411,59.156 163.752211,60.32 163.752211,61.602 L163.752211,74.32 L158.082175,74.32 L158.082175,62.64 C158.082175,60.934 157.816642,59.66 157.283579,58.82 C156.750516,57.982 155.806175,57.562 154.448561,57.562 C152.905274,57.562 151.787239,58.02 151.094456,58.942 C150.401674,59.86 150.056281,61.376 150.056281,63.48 L150.056281,74.32 L144.386246,74.32 L144.386246,53.64 L149.776772,53.64" id="Fill-33" sketch:type="MSShapeGroup"></path>
            <path d="M181.700667,69.18 C181.954221,69.622 182.279649,69.982 182.678947,70.262 C183.078246,70.54 183.537439,70.746 184.056526,70.88 C184.575614,71.014 185.114667,71.08 185.673684,71.08 C186.072982,71.08 186.492246,71.036 186.931474,70.942 C187.370702,70.848 187.77,70.7 188.129368,70.5 C188.488737,70.3 188.788211,70.036 189.027789,69.7 C189.267368,69.368 189.387158,68.948 189.387158,68.442 C189.387158,67.586 188.820154,66.948 187.69014,66.52 C186.55813,66.094 184.980902,65.668 182.958456,65.24 C182.133905,65.054 181.327323,64.834 180.542702,64.58 C179.756084,64.328 179.059309,63.994 178.446386,63.58 C177.833463,63.168 177.34033,62.65 176.968982,62.02 C176.595639,61.394 176.407968,60.628 176.407968,59.722 C176.407968,58.388 176.669509,57.294 177.188596,56.442 C177.707684,55.586 178.392481,54.914 179.244982,54.42 C180.095488,53.926 181.0558,53.58 182.11993,53.38 C183.18406,53.18 184.27614,53.08 185.392179,53.08 C186.512211,53.08 187.596305,53.188 188.648456,53.4 C189.700607,53.614 190.636961,53.974 191.461512,54.48 C192.28806,54.988 192.972856,55.66 193.519895,56.5 C194.064937,57.34 194.390365,58.402 194.498175,59.68 L189.107649,59.68 C189.027789,58.586 188.614516,57.848 187.869825,57.46 C187.125133,57.074 186.244681,56.88 185.234456,56.88 C184.915018,56.88 184.567628,56.902 184.196281,56.942 C183.822937,56.98 183.483533,57.068 183.17807,57.2 C182.872607,57.334 182.613063,57.528 182.397442,57.782 C182.185814,58.036 182.08,58.374 182.08,58.802 C182.08,59.308 182.265674,59.722 182.639018,60.04 C183.010365,60.36 183.497509,60.622 184.096456,60.82 C184.695404,61.02 185.3802,61.2 186.152842,61.36 C186.923488,61.52 187.710105,61.696 188.508702,61.88 C189.333253,62.066 190.137839,62.294 190.924456,62.56 C191.707081,62.828 192.407849,63.18 193.020772,63.622 C193.631698,64.06 194.126828,64.608 194.498175,65.262 C194.871519,65.914 195.057193,66.722 195.057193,67.68 C195.057193,69.04 194.783674,70.18 194.238632,71.102 C193.693589,72.02 192.980842,72.762 192.102386,73.32 C191.22393,73.88 190.217698,74.274 189.087684,74.5 C187.955674,74.726 186.803698,74.84 185.633754,74.84 C184.43586,74.84 183.263919,74.722 182.11993,74.482 C180.97594,74.24 179.95773,73.84 179.063302,73.282 C178.172867,72.722 177.440154,71.98 176.869158,71.062 C176.296165,70.14 175.984712,68.988 175.930807,67.602 L181.319337,67.602 C181.319337,68.216 181.447112,68.74 181.700667,69.18" id="Fill-34" sketch:type="MSShapeGroup"></path>
            <path d="M197.413053,45.762 L203.083088,45.762 L203.083088,50.442 L197.413053,50.442 L197.413053,45.762 Z M197.413053,53.64 L203.083088,53.64 L203.083088,74.32 L197.413053,74.32 L197.413053,53.64 Z" id="Fill-35" sketch:type="MSShapeGroup"></path>
            <path d="M204.91986,53.64 L211.388491,53.64 L215.020109,59.04 L218.615789,53.64 L224.884772,53.64 L218.094705,63.32 L225.723298,74.32 L219.25267,74.32 L214.940249,67.802 L210.629825,74.32 L204.278986,74.32 L211.70793,63.442 L204.91986,53.64" id="Fill-36" sketch:type="MSShapeGroup"></path>
            <path d="M241.515544,69.18 C241.767102,69.622 242.09253,69.982 242.491828,70.262 C242.891126,70.54 243.352316,70.746 243.869407,70.88 C244.388495,71.014 244.929544,71.08 245.486565,71.08 C245.885863,71.08 246.305126,71.036 246.744354,70.942 C247.185579,70.848 247.582881,70.7 247.942249,70.5 C248.301618,70.3 248.603088,70.036 248.842667,69.7 C249.080249,69.368 249.200039,68.948 249.200039,68.442 C249.200039,67.586 248.635032,66.948 247.505018,66.52 C246.371011,66.094 244.793782,65.668 242.773333,65.24 C241.946786,65.054 241.140204,64.834 240.357579,64.58 C239.570961,64.328 238.872189,63.994 238.259267,63.58 C237.646344,63.168 237.155207,62.65 236.78386,62.02 C236.408519,61.394 236.224842,60.628 236.224842,59.722 C236.224842,58.388 236.482389,57.294 237.001477,56.442 C237.522561,55.586 238.207358,54.914 239.057863,54.42 C239.910365,53.926 240.868681,53.58 241.934807,53.38 C242.99694,53.18 244.089021,53.08 245.209053,53.08 C246.325091,53.08 247.411182,53.188 248.461337,53.4 C249.513488,53.614 250.451839,53.974 251.276389,54.48 C252.102937,54.988 252.787733,55.66 253.334772,56.5 C253.877818,57.34 254.205242,58.402 254.311056,59.68 L248.922526,59.68 C248.842667,58.586 248.429393,57.848 247.684702,57.46 C246.938014,57.074 246.059558,56.88 245.047337,56.88 C244.727898,56.88 244.382505,56.902 244.011158,56.942 C243.635818,56.98 243.296414,57.068 242.990951,57.2 C242.685488,57.334 242.425944,57.528 242.214316,57.782 C241.998695,58.036 241.892881,58.374 241.892881,58.802 C241.892881,59.308 242.078554,59.722 242.453895,60.04 C242.825242,60.36 243.310389,60.622 243.909337,60.82 C244.510281,61.02 245.193081,61.2 245.965723,61.36 C246.738365,61.52 247.524982,61.696 248.321582,61.88 C249.146133,62.066 249.952716,62.294 250.737337,62.56 C251.521958,62.828 252.22073,63.18 252.835649,63.622 C253.446575,64.06 253.937712,64.608 254.311056,65.262 C254.6844,65.914 254.870074,66.722 254.870074,67.68 C254.870074,69.04 254.596554,70.18 254.051512,71.102 C253.50647,72.02 252.793723,72.762 251.917263,73.32 C251.036811,73.88 250.030579,74.274 248.900565,74.5 C247.770551,74.726 246.616579,74.84 245.448632,74.84 C244.24874,74.84 243.0768,74.722 241.934807,74.482 C240.788821,74.24 239.770611,73.84 238.880175,73.282 C237.985747,72.722 237.255032,71.98 236.682039,71.062 C236.111042,70.14 235.797593,68.988 235.743688,67.602 L241.134214,67.602 C241.134214,68.216 241.261989,68.74 241.515544,69.18" id="Fill-37" sketch:type="MSShapeGroup"></path>
            <path d="M263.135547,69.36 C263.988049,70.188 265.211898,70.602 266.809091,70.602 C267.953081,70.602 268.937351,70.316 269.763898,69.74 C270.588449,69.168 271.093561,68.56 271.281232,67.92 L276.27246,67.92 C275.473863,70.402 274.248018,72.174 272.598916,73.24 C270.947818,74.308 268.951326,74.84 266.609442,74.84 C264.986295,74.84 263.52087,74.58 262.217161,74.062 C260.913453,73.54 259.807396,72.802 258.902986,71.84 C257.998575,70.88 257.299804,69.734 256.80667,68.4 C256.313537,67.066 256.067968,65.602 256.067968,64 C256.067968,62.454 256.321523,61.014 256.826635,59.68 C257.331747,58.348 258.050484,57.196 258.982846,56.222 C259.915207,55.246 261.025256,54.48 262.316986,53.92 C263.606719,53.36 265.038204,53.08 266.609442,53.08 C268.366354,53.08 269.897663,53.42 271.201372,54.102 C272.505081,54.782 273.577196,55.696 274.415723,56.84 C275.254249,57.988 275.859186,59.294 276.234526,60.762 C276.605874,62.228 276.737642,63.762 276.631828,65.36 L261.738004,65.36 C261.817863,67.2 262.283046,68.536 263.135547,69.36 L263.135547,69.36 Z M269.544284,58.48 C268.865477,57.734 267.833291,57.36 266.449723,57.36 C265.545312,57.36 264.792635,57.514 264.193688,57.82 C263.59474,58.128 263.115582,58.508 262.758211,58.96 C262.396846,59.414 262.143291,59.894 261.997547,60.4 C261.849807,60.906 261.763958,61.36 261.738004,61.762 L270.961793,61.762 C270.69626,60.32 270.223091,59.228 269.544284,58.48 L269.544284,58.48 Z" id="Fill-38" sketch:type="MSShapeGroup"></path>
            <path d="M288.730565,57.36 C287.824158,57.36 287.065491,57.566 286.454565,57.982 C285.841642,58.394 285.342519,58.926 284.957196,59.58 C284.569877,60.236 284.298354,60.954 284.140632,61.74 C283.978916,62.528 283.899056,63.31 283.899056,64.08 C283.899056,64.828 283.978916,65.586 284.140632,66.36 C284.298354,67.134 284.557898,67.834 284.917267,68.462 C285.276635,69.086 285.761782,69.602 286.374705,70 C286.985632,70.402 287.732319,70.602 288.610775,70.602 C289.968389,70.602 291.012554,70.222 291.745267,69.46 C292.475982,68.7 292.937172,67.68 293.124842,66.4 L298.593232,66.4 C298.219888,69.148 297.155758,71.24 295.398846,72.68 C293.641933,74.122 291.391888,74.84 288.650705,74.84 C287.107418,74.84 285.689909,74.58 284.398179,74.062 C283.106449,73.54 282.008379,72.816 281.103968,71.88 C280.199558,70.948 279.4928,69.834 278.987688,68.54 C278.480579,67.246 278.227025,65.828 278.227025,64.282 C278.227025,62.68 278.462611,61.196 278.927793,59.82 C279.394972,58.448 280.077772,57.262 280.984179,56.262 C281.888589,55.262 282.992649,54.48 284.298354,53.92 C285.602063,53.36 287.093442,53.08 288.770495,53.08 C289.994344,53.08 291.172274,53.24 292.304284,53.56 C293.436295,53.88 294.448516,54.368 295.338951,55.02 C296.229386,55.674 296.956109,56.488 297.515126,57.46 C298.074144,58.434 298.393582,59.586 298.473442,60.92 L292.923196,60.92 C292.549853,58.548 291.152309,57.36 288.730565,57.36" id="Fill-39" sketch:type="MSShapeGroup"></path>
            <path d="M312.007656,53.64 L312.007656,57.442 L307.856951,57.442 L307.856951,67.68 C307.856951,68.64 308.01667,69.282 308.336109,69.602 C308.655547,69.92 309.294425,70.08 310.25274,70.08 C310.572179,70.08 310.877642,70.066 311.16913,70.04 C311.462614,70.014 311.744119,69.972 312.007656,69.92 L312.007656,74.32 C311.530495,74.4 310.995435,74.454 310.41246,74.482 C309.827488,74.508 309.252498,74.52 308.695477,74.52 C307.817021,74.52 306.984484,74.462 306.199863,74.34 C305.415242,74.222 304.72246,73.99 304.123512,73.642 C303.524565,73.294 303.051396,72.802 302.706004,72.16 C302.358614,71.52 302.184919,70.68 302.184919,69.64 L302.184919,57.442 L298.752951,57.442 L298.752951,53.64 L302.184919,53.64 L302.184919,47.442 L307.856951,47.442 L307.856951,53.64 L312.007656,53.64" id="Fill-40" sketch:type="MSShapeGroup"></path>
            <path d="M313.726635,59.5 C314.231747,58.154 314.948488,57.008 315.882846,56.062 C316.813211,55.114 317.931246,54.38 319.236951,53.86 C320.54066,53.34 322.004088,53.08 323.629232,53.08 C325.250382,53.08 326.723793,53.34 328.041477,53.86 C329.359161,54.38 330.481189,55.114 331.413551,56.062 C332.345912,57.008 333.064649,58.154 333.569761,59.5 C334.074874,60.848 334.328428,62.348 334.328428,64 C334.328428,65.654 334.074874,67.15 333.569761,68.482 C333.064649,69.816 332.345912,70.954 331.413551,71.902 C330.481189,72.848 329.359161,73.574 328.041477,74.08 C326.723793,74.586 325.250382,74.84 323.629232,74.84 C322.004088,74.84 320.54066,74.586 319.236951,74.08 C317.931246,73.574 316.813211,72.848 315.882846,71.902 C314.948488,70.954 314.231747,69.816 313.726635,68.482 C313.219526,67.15 312.965972,65.654 312.965972,64 C312.965972,62.348 313.219526,60.848 313.726635,59.5 L313.726635,59.5 Z M318.877582,66.42 C319.035305,67.208 319.308825,67.914 319.694147,68.54 C320.07947,69.168 320.592568,69.668 321.231446,70.04 C321.872319,70.414 322.668919,70.602 323.629232,70.602 C324.585551,70.602 325.392133,70.414 326.044986,70.04 C326.695842,69.668 327.21493,69.168 327.600253,68.54 C327.985575,67.914 328.259095,67.208 328.418814,66.42 C328.578533,65.634 328.658393,64.828 328.658393,64 C328.658393,63.174 328.578533,62.36 328.418814,61.56 C328.259095,60.762 327.985575,60.056 327.600253,59.442 C327.21493,58.828 326.695842,58.328 326.044986,57.942 C325.392133,57.554 324.585551,57.36 323.629232,57.36 C322.668919,57.36 321.872319,57.554 321.231446,57.942 C320.592568,58.328 320.07947,58.828 319.694147,59.442 C319.308825,60.056 319.035305,60.762 318.877582,61.56 C318.717863,62.36 318.638004,63.174 318.638004,64 C318.638004,64.828 318.717863,65.634 318.877582,66.42 L318.877582,66.42 Z" id="Fill-41" sketch:type="MSShapeGroup"></path>
            <path d="M342.27646,53.64 L342.27646,57.48 L342.356319,57.48 C342.619856,56.84 342.981221,56.246 343.434425,55.7 C343.885632,55.154 344.404719,54.688 344.991688,54.302 C345.57666,53.914 346.201561,53.614 346.866393,53.4 C347.531225,53.188 348.224007,53.08 348.942744,53.08 C349.316088,53.08 349.729361,53.148 350.182565,53.282 L350.182565,58.56 C349.915035,58.508 349.597593,58.462 349.222253,58.42 C348.848909,58.38 348.491537,58.36 348.146144,58.36 C347.105972,58.36 346.227516,58.536 345.510775,58.88 C344.790042,59.228 344.21106,59.7 343.773828,60.302 C343.3346,60.9 343.021151,61.602 342.835477,62.4 C342.647807,63.2 342.553972,64.066 342.553972,65 L342.553972,74.32 L336.883937,74.32 L336.883937,53.64 L342.27646,53.64" id="Fill-42" sketch:type="MSShapeGroup"></path>
            <path d="M356.072214,69.18 C356.323772,69.622 356.6492,69.982 357.048498,70.262 C357.447796,70.54 357.908986,70.746 358.426077,70.88 C358.945165,71.014 359.486214,71.08 360.043235,71.08 C360.442533,71.08 360.861796,71.036 361.301025,70.942 C361.742249,70.848 362.139551,70.7 362.498919,70.5 C362.858288,70.3 363.157761,70.036 363.399337,69.7 C363.636919,69.368 363.756709,68.948 363.756709,68.442 C363.756709,67.586 363.191702,66.948 362.061688,66.52 C360.927681,66.094 359.350453,65.668 357.330004,65.24 C356.50146,65.054 355.696874,64.834 354.914249,64.58 C354.127632,64.328 353.42886,63.994 352.815937,63.58 C352.203014,63.168 351.711877,62.65 351.34053,62.02 C350.965189,61.394 350.779516,60.628 350.779516,59.722 C350.779516,58.388 351.03906,57.294 351.558147,56.442 C352.079232,55.586 352.764028,54.914 353.614533,54.42 C354.467035,53.926 355.423354,53.58 356.491477,53.38 C357.553611,53.18 358.645691,53.08 359.763726,53.08 C360.881761,53.08 361.967853,53.188 363.018007,53.4 C364.070158,53.614 365.008509,53.974 365.83306,54.48 C366.659607,54.988 367.344404,55.66 367.891442,56.5 C368.434488,57.34 368.761912,58.402 368.867726,59.68 L363.479196,59.68 C363.399337,58.586 362.986063,57.848 362.241372,57.46 C361.494684,57.074 360.616228,56.88 359.604007,56.88 C359.284568,56.88 358.939175,56.902 358.567828,56.942 C358.192488,56.98 357.853084,57.068 357.547621,57.2 C357.242158,57.334 356.982614,57.528 356.768989,57.782 C356.555365,58.036 356.449551,58.374 356.449551,58.802 C356.449551,59.308 356.635225,59.722 357.010565,60.04 C357.381912,60.36 357.86706,60.622 358.466007,60.82 C359.066951,61.02 359.749751,61.2 360.522393,61.36 C361.295035,61.52 362.079656,61.696 362.878253,61.88 C363.702804,62.066 364.509386,62.294 365.294007,62.56 C366.078628,62.828 366.7774,63.18 367.392319,63.622 C368.003246,64.06 368.494382,64.608 368.867726,65.262 C369.239074,65.914 369.426744,66.722 369.426744,67.68 C369.426744,69.04 369.153225,70.18 368.608182,71.102 C368.06314,72.02 367.350393,72.762 366.473933,73.32 C365.593481,73.88 364.587249,74.274 363.457235,74.5 C362.325225,74.726 361.173249,74.84 360.005302,74.84 C358.805411,74.84 357.63347,74.722 356.491477,74.482 C355.343495,74.24 354.327281,73.84 353.434849,73.282 C352.542418,72.722 351.811702,71.98 351.238709,71.062 C350.667712,70.14 350.354263,68.988 350.300358,67.602 L355.690884,67.602 C355.690884,68.216 355.81866,68.74 356.072214,69.18" id="Fill-43" sketch:type="MSShapeGroup"></path>
        </g>
    </g>
</svg>