<?xml version="1.0" encoding="UTF-8" standalone="no"?>
<svg width="230px" height="27px" viewBox="0 0 230 27" version="1.1" xmlns="http://www.w3.org/2000/svg" xmlns:xlink="http://www.w3.org/1999/xlink" xmlns:sketch="http://www.bohemiancoding.com/sketch/ns">
    <!-- Generator: Sketch 3.2.2 (9983) - http://www.bohemiancoding.com/sketch -->
    <title>Rectangle 2</title>
    <desc>Created with Sketch.</desc>
    <defs></defs>
    <g id="Page-1" stroke="none" stroke-width="1" fill="none" fill-rule="evenodd" sketch:type="MSPage">
        <rect id="Rectangle-1" fill="#000000" sketch:type="MSShapeGroup" x="0" y="0" width="230" height="27"></rect>
        <path d="M685.958237,-520.771081 L918.579456,-792.32 L1169.74746,-590.735944 L977.751795,-283.534389 L1306,57.0746176 L971.165921,193.389709 L719.580154,-25.5861494 L194.799,219.726505 L566.97463,-258.006306 L460.617672,-477.004505 L685.958237,-520.771081 Z M460.5998,-476.36781 L685.958237,-520.775549 L460.5998,-476.36781 Z M723.784569,-55.5107724 L279.557507,152.145335 L596.653512,-254.883154 L497.800608,-458.421973 L699.451684,-497.586479 L921.854521,-757.207996 L1136.33554,-585.070483 L945.794219,-280.194537 L1261.80449,47.7185653 L976.042774,164.054866 L723.784569,-55.5107724 L723.784569,-55.5107724 Z M727.984516,-85.4353954 L364.316013,84.5619309 L626.327925,-251.760002 L534.985778,-439.839441 L712.945131,-474.404112 L925.13182,-722.098225 L1102.92362,-579.405023 L913.834409,-276.852452 L1217.60899,38.362513 L980.919628,134.717788 L727.984516,-85.4353954 L727.984516,-85.4353954 Z M732.188932,-115.360018 L449.076754,16.9807611 L656.006806,-248.63685 L572.170948,-421.259143 L726.438578,-451.21951 L928.406885,-686.988455 L1069.5117,-573.741796 L881.876833,-273.5126 L1173.41348,29.0042266 L985.798715,105.382945 L732.188932,-115.360018 L732.188932,-115.360018 Z M736.388879,-145.284641 L533.83526,-50.6026428 L685.683454,-245.515932 L609.353883,-402.676611 L739.932025,-428.037143 L931.684184,-651.878684 L1036.09978,-568.076336 L849.917023,-270.170515 L1129.21574,19.6481743 L990.677803,76.048102 L736.388879,-145.284641 L736.388879,-145.284641 Z M740.59106,-175.209264 L618.596001,-118.183813 L715.360101,-242.390546 L646.536819,-384.094079 L753.425473,-404.852541 L934.961483,-616.76668 L1002.68786,-562.410875 L817.957213,-266.830663 L1085.02023,10.2898879 L995.554656,46.7110248 L740.59106,-175.209264 L740.59106,-175.209264 Z M744.793241,-205.133887 L703.354508,-185.764982 L745.038982,-239.267393 L683.721989,-365.511548 L766.921154,-381.670174 L938.238782,-581.656909 L969.275945,-556.747649 L785.997403,-263.488578 L1040.82472,0.933835597 L1000.43374,17.3761816 L744.793241,-205.133887 L744.793241,-205.133887 Z M763.818108,-222.157077 L774.713396,-236.146475 L772.220236,-241.28024 L930.296861,-77.2522006 L763.818108,-222.157077 L763.818108,-222.157077 Z M720.909393,-346.929016 L780.412367,-358.485572 L910.143817,-509.927175 L759.113273,-268.267134 L720.909393,-346.929016 L720.909393,-346.929016 Z" id="Stroke-3" stroke="#FFFFFF" stroke-width="0.75" sketch:type="MSShapeGroup"></path>
        <path d="M10.972,17.8225046 L10.972,7.92250456 L13.436,7.92250456 C14.2866709,7.92250456 15.0016638,8.04350335 15.581,8.28550456 C16.1603362,8.52750577 16.6259982,8.87583562 16.978,9.33050456 C17.3300018,9.7851735 17.5829992,10.3315014 17.737,10.9695046 C17.8910008,11.6075078 17.968,12.3225006 17.968,13.1145046 C17.968,13.9798422 17.8580011,14.7131682 17.638,15.3145046 C17.4179989,15.9158409 17.1246685,16.4035027 16.758,16.7775046 C16.3913315,17.1515064 15.9733357,17.4191704 15.504,17.5805046 C15.0346643,17.7418387 14.5506692,17.8225046 14.052,17.8225046 L10.972,17.8225046 Z M7.518,5.01850456 L7.518,20.7265046 L14.294,20.7265046 C15.4966727,20.7265046 16.5416622,20.5248399 17.429,20.1215046 C18.3163378,19.7181692 19.056997,19.1645081 19.651,18.4605046 C20.245003,17.756501 20.6886652,16.9205094 20.982,15.9525046 C21.2753348,14.9844997 21.422,13.9285103 21.422,12.7845046 C21.422,11.4791647 21.2423351,10.3425094 20.883,9.37450456 C20.5236649,8.40649972 20.0250032,7.59984112 19.387,6.95450456 C18.7489968,6.309168 17.993671,5.82517284 17.121,5.50250456 C16.248329,5.17983628 15.3060051,5.01850456 14.294,5.01850456 L7.518,5.01850456 Z M26.462,15.0505046 C26.462,14.5958356 26.5059996,14.1485068 26.594,13.7085046 C26.6820004,13.2685024 26.8323323,12.8798396 27.045,12.5425046 C27.2576677,12.2051695 27.5399982,11.9301723 27.892,11.7175046 C28.2440018,11.5048368 28.6839974,11.3985046 29.212,11.3985046 C29.7400026,11.3985046 30.1836649,11.5048368 30.543,11.7175046 C30.9023351,11.9301723 31.1883323,12.2051695 31.401,12.5425046 C31.6136677,12.8798396 31.7639996,13.2685024 31.852,13.7085046 C31.9400004,14.1485068 31.984,14.5958356 31.984,15.0505046 C31.984,15.5051735 31.9400004,15.9488357 31.852,16.3815046 C31.7639996,16.8141734 31.6136677,17.2028362 31.401,17.5475046 C31.1883323,17.892173 30.9023351,18.1671702 30.543,18.3725046 C30.1836649,18.5778389 29.7400026,18.6805046 29.212,18.6805046 C28.6839974,18.6805046 28.2440018,18.5778389 27.892,18.3725046 C27.5399982,18.1671702 27.2576677,17.892173 27.045,17.5475046 C26.8323323,17.2028362 26.6820004,16.8141734 26.594,16.3815046 C26.5059996,15.9488357 26.462,15.5051735 26.462,15.0505046 L26.462,15.0505046 Z M23.338,15.0505046 C23.338,15.9598424 23.4773319,16.7811676 23.756,17.5145046 C24.0346681,18.2478416 24.4306641,18.8748353 24.944,19.3955046 C25.4573359,19.9161738 26.0733297,20.3158365 26.792,20.5945046 C27.5106703,20.8731726 28.3173289,21.0125046 29.212,21.0125046 C30.1066711,21.0125046 30.9169964,20.8731726 31.643,20.5945046 C32.3690036,20.3158365 32.9886641,19.9161738 33.502,19.3955046 C34.0153359,18.8748353 34.4113319,18.2478416 34.69,17.5145046 C34.9686681,16.7811676 35.108,15.9598424 35.108,15.0505046 C35.108,14.1411667 34.9686681,13.3161749 34.69,12.5755046 C34.4113319,11.8348342 34.0153359,11.2041738 33.502,10.6835046 C32.9886641,10.1628353 32.3690036,9.75950599 31.643,9.47350456 C30.9169964,9.18750313 30.1066711,9.04450456 29.212,9.04450456 C28.3173289,9.04450456 27.5106703,9.18750313 26.792,9.47350456 C26.0733297,9.75950599 25.4573359,10.1628353 24.944,10.6835046 C24.4306641,11.2041738 24.0346681,11.8348342 23.756,12.5755046 C23.4773319,13.3161749 23.338,14.1411667 23.338,15.0505046 L23.338,15.0505046 Z M50.334,20.7265046 L53.92,9.35250456 L50.708,9.35250456 L48.618,17.0525046 L48.574,17.0525046 L46.638,9.35250456 L43.602,9.35250456 L41.71,17.0745046 L41.666,17.0745046 L39.576,9.35250456 L36.276,9.35250456 L39.884,20.7265046 L43.118,20.7265046 L45.054,13.0925046 L45.098,13.0925046 L47.122,20.7265046 L50.334,20.7265046 Z M55.44,9.35250456 L55.44,20.7265046 L58.564,20.7265046 L58.564,14.7645046 C58.564,13.6058321 58.7546648,12.7735071 59.136,12.2675046 C59.5173352,11.761502 60.1333291,11.5085046 60.984,11.5085046 C61.7320037,11.5085046 62.2526652,11.7395023 62.546,12.2015046 C62.8393348,12.6635069 62.986,13.3638332 62.986,14.3025046 L62.986,20.7265046 L66.11,20.7265046 L66.11,13.7305046 C66.11,13.026501 66.0476673,12.3848408 65.923,11.8055046 C65.7983327,11.2261683 65.5820015,10.7348399 65.274,10.3315046 C64.9659985,9.92816921 64.544336,9.61283903 64.009,9.38550456 C63.473664,9.15817009 62.7880042,9.04450456 61.952,9.04450456 C61.2919967,9.04450456 60.6466698,9.19483639 60.016,9.49550456 C59.3853302,9.79617273 58.872002,10.2765013 58.476,10.9365046 L58.41,10.9365046 L58.41,9.35250456 L55.44,9.35250456 Z M68.774,5.01850456 L68.774,20.7265046 L71.898,20.7265046 L71.898,5.01850456 L68.774,5.01850456 Z M77.334,15.0505046 C77.334,14.5958356 77.3779996,14.1485068 77.466,13.7085046 C77.5540005,13.2685024 77.7043323,12.8798396 77.917,12.5425046 C78.1296677,12.2051695 78.4119983,11.9301723 78.764,11.7175046 C79.1160018,11.5048368 79.5559974,11.3985046 80.084,11.3985046 C80.6120027,11.3985046 81.0556649,11.5048368 81.415,11.7175046 C81.7743351,11.9301723 82.0603323,12.2051695 82.273,12.5425046 C82.4856677,12.8798396 82.6359996,13.2685024 82.724,13.7085046 C82.8120005,14.1485068 82.856,14.5958356 82.856,15.0505046 C82.856,15.5051735 82.8120005,15.9488357 82.724,16.3815046 C82.6359996,16.8141734 82.4856677,17.2028362 82.273,17.5475046 C82.0603323,17.892173 81.7743351,18.1671702 81.415,18.3725046 C81.0556649,18.5778389 80.6120027,18.6805046 80.084,18.6805046 C79.5559974,18.6805046 79.1160018,18.5778389 78.764,18.3725046 C78.4119983,18.1671702 78.1296677,17.892173 77.917,17.5475046 C77.7043323,17.2028362 77.5540005,16.8141734 77.466,16.3815046 C77.3779996,15.9488357 77.334,15.5051735 77.334,15.0505046 L77.334,15.0505046 Z M74.21,15.0505046 C74.21,15.9598424 74.349332,16.7811676 74.628,17.5145046 C74.9066681,18.2478416 75.3026641,18.8748353 75.816,19.3955046 C76.3293359,19.9161738 76.9453298,20.3158365 77.664,20.5945046 C78.3826703,20.8731726 79.1893289,21.0125046 80.084,21.0125046 C80.9786712,21.0125046 81.7889964,20.8731726 82.515,20.5945046 C83.2410036,20.3158365 83.8606641,19.9161738 84.374,19.3955046 C84.8873359,18.8748353 85.283332,18.2478416 85.562,17.5145046 C85.8406681,16.7811676 85.98,15.9598424 85.98,15.0505046 C85.98,14.1411667 85.8406681,13.3161749 85.562,12.5755046 C85.283332,11.8348342 84.8873359,11.2041738 84.374,10.6835046 C83.8606641,10.1628353 83.2410036,9.75950599 82.515,9.47350456 C81.7889964,9.18750313 80.9786712,9.04450456 80.084,9.04450456 C79.1893289,9.04450456 78.3826703,9.18750313 77.664,9.47350456 C76.9453298,9.75950599 76.3293359,10.1628353 75.816,10.6835046 C75.3026641,11.2041738 74.9066681,11.8348342 74.628,12.5755046 C74.349332,13.3161749 74.21,14.1411667 74.21,15.0505046 L74.21,15.0505046 Z M88.072,12.8505046 C88.1160002,12.1171676 88.2993317,11.508507 88.622,11.0245046 C88.9446683,10.5405021 89.3553309,10.1518394 89.854,9.85850456 C90.3526692,9.56516976 90.9136636,9.35617185 91.537,9.23150456 C92.1603365,9.10683727 92.7873302,9.04450456 93.418,9.04450456 C93.9900029,9.04450456 94.5693304,9.08483749 95.156,9.16550456 C95.7426696,9.24617163 96.2779976,9.40383672 96.762,9.63850456 C97.2460024,9.8731724 97.6419985,10.1995025 97.95,10.6175046 C98.2580016,11.0355067 98.412,11.5891678 98.412,12.2785046 L98.412,18.1965046 C98.412,18.7098405 98.4413331,19.2011689 98.5,19.6705046 C98.558667,20.1398402 98.6613326,20.4918367 98.808,20.7265046 L95.64,20.7265046 C95.5813331,20.5505037 95.5336669,20.3708388 95.497,20.1875046 C95.4603332,20.0041703 95.4346668,19.8171722 95.42,19.6265046 C94.9213309,20.1398405 94.3346701,20.4991702 93.66,20.7045046 C92.98533,20.9098389 92.2960035,21.0125046 91.592,21.0125046 C91.0493306,21.0125046 90.5433357,20.9465052 90.074,20.8145046 C89.6046643,20.6825039 89.1940018,20.4771726 88.842,20.1985046 C88.4899983,19.9198365 88.215001,19.56784 88.017,19.1425046 C87.818999,18.7171691 87.72,18.2111742 87.72,17.6245046 C87.72,16.979168 87.8336655,16.4475067 88.061,16.0295046 C88.2883345,15.6115025 88.5816649,15.2778391 88.941,15.0285046 C89.3003351,14.77917 89.7109977,14.5921719 90.173,14.4675046 C90.6350023,14.3428373 91.1006643,14.2438383 91.57,14.1705046 C92.0393357,14.0971709 92.5013311,14.0385048 92.956,13.9945046 C93.410669,13.9505043 93.8139983,13.884505 94.166,13.7965046 C94.5180018,13.7085041 94.7966657,13.5801721 95.002,13.4115046 C95.2073344,13.2428371 95.3026668,12.9971728 95.288,12.6745046 C95.288,12.3371695 95.2330006,12.0695056 95.123,11.8715046 C95.0129995,11.6735036 94.8663343,11.5195051 94.683,11.4095046 C94.4996658,11.299504 94.2870012,11.2261714 94.045,11.1895046 C93.8029988,11.1528377 93.5426681,11.1345046 93.264,11.1345046 C92.6479969,11.1345046 92.1640018,11.2665032 91.812,11.5305046 C91.4599983,11.7945059 91.254667,12.2345015 91.196,12.8505046 L88.072,12.8505046 Z M95.288,15.1605046 C95.1559994,15.2778385 94.991001,15.3695042 94.793,15.4355046 C94.594999,15.5015049 94.3823345,15.5565043 94.155,15.6005046 C93.9276655,15.6445048 93.6893346,15.6811711 93.44,15.7105046 C93.1906654,15.739838 92.9413346,15.7765043 92.692,15.8205046 C92.4573322,15.8645048 92.2263345,15.9231709 91.999,15.9965046 C91.7716655,16.0698383 91.5736675,16.1688373 91.405,16.2935046 C91.2363325,16.4181719 91.1006672,16.5758369 90.998,16.7665046 C90.8953328,16.9571722 90.844,17.1991698 90.844,17.4925046 C90.844,17.7711726 90.8953328,18.0058369 90.998,18.1965046 C91.1006672,18.3871722 91.2399991,18.537504 91.416,18.6475046 C91.5920009,18.7575051 91.7973322,18.8345043 92.032,18.8785046 C92.2666679,18.9225048 92.5086654,18.9445046 92.758,18.9445046 C93.3740031,18.9445046 93.850665,18.8418389 94.188,18.6365046 C94.525335,18.4311702 94.7746659,18.185506 94.936,17.8995046 C95.0973342,17.6135031 95.1963332,17.3238394 95.233,17.0305046 C95.2696669,16.7371698 95.288,16.5025054 95.288,16.3265046 L95.288,15.1605046 Z M109.106,15.0065046 C109.106,15.4758402 109.062,15.9305024 108.974,16.3705046 C108.886,16.8105068 108.739334,17.2028362 108.534,17.5475046 C108.328666,17.892173 108.053668,18.1671702 107.709,18.3725046 C107.364332,18.5778389 106.935336,18.6805046 106.422,18.6805046 C105.937998,18.6805046 105.523668,18.5741723 105.179,18.3615046 C104.834332,18.1488368 104.548334,17.870173 104.321,17.5255046 C104.093666,17.1808362 103.928667,16.7885068 103.826,16.3485046 C103.723333,15.9085024 103.672,15.4685068 103.672,15.0285046 C103.672,14.5591689 103.719666,14.1081734 103.815,13.6755046 C103.910334,13.2428357 104.064332,12.8578396 104.277,12.5205046 C104.489668,12.1831695 104.771998,11.9118389 105.124,11.7065046 C105.476002,11.5011702 105.908664,11.3985046 106.422,11.3985046 C106.935336,11.3985046 107.360665,11.5011702 107.698,11.7065046 C108.035335,11.9118389 108.310332,12.1795029 108.523,12.5095046 C108.735668,12.8395062 108.886,13.2208357 108.974,13.6535046 C109.062,14.0861734 109.106,14.5371689 109.106,15.0065046 L109.106,15.0065046 Z M109.15,19.2745046 L109.15,20.7265046 L112.12,20.7265046 L112.12,5.01850456 L108.996,5.01850456 L108.996,10.7385046 L108.952,10.7385046 C108.599998,10.1811684 108.11967,9.75950599 107.511,9.47350456 C106.90233,9.18750313 106.26067,9.04450456 105.586,9.04450456 C104.749996,9.04450456 104.01667,9.20950291 103.386,9.53950456 C102.75533,9.86950621 102.231002,10.3058352 101.813,10.8485046 C101.394998,11.3911739 101.079668,12.0181677 100.867,12.7295046 C100.654332,13.4408415 100.548,14.1778341 100.548,14.9405046 C100.548,15.7325085 100.654332,16.4951676 100.867,17.2285046 C101.079668,17.9618416 101.394998,18.6108351 101.813,19.1755046 C102.231002,19.7401741 102.762663,20.1875029 103.408,20.5175046 C104.053337,20.8475062 104.801329,21.0125046 105.652,21.0125046 C106.400004,21.0125046 107.070997,20.8768393 107.665,20.6055046 C108.259003,20.3341699 108.739332,19.8905076 109.106,19.2745046 L109.15,19.2745046 Z M130.01,19.1645046 L131.286,20.7265046 L135.114,20.7265046 L131.924,17.0085046 C132.364002,16.4511684 132.708665,15.8425079 132.958,15.1825046 C133.207335,14.5225013 133.368666,13.8405081 133.442,13.1365046 L130.736,13.1365046 C130.692,13.4591728 130.626,13.7781697 130.538,14.0935046 C130.45,14.4088395 130.325334,14.7131698 130.164,15.0065046 L128.14,12.5205046 C128.932004,12.0951691 129.595664,11.5671744 130.131,10.9365046 C130.666336,10.3058347 130.934,9.52850918 130.934,8.60450456 C130.934,7.98850148 130.820334,7.44584024 130.593,6.97650456 C130.365666,6.50716888 130.057669,6.11483947 129.669,5.79950456 C129.280331,5.48416965 128.825669,5.2458387 128.305,5.08450456 C127.784331,4.92317042 127.223336,4.84250456 126.622,4.84250456 C126.093997,4.84250456 125.584336,4.92683705 125.093,5.09550456 C124.601664,5.26417207 124.165335,5.50616965 123.784,5.82150456 C123.402665,6.13683947 123.098334,6.51450236 122.871,6.95450456 C122.643666,7.39450676 122.53,7.88583518 122.53,8.42850456 C122.53,9.11784134 122.672999,9.71916866 122.959,10.2325046 C123.245001,10.7458405 123.600665,11.2591687 124.026,11.7725046 C123.571331,11.9925057 123.131335,12.2491698 122.706,12.5425046 C122.280665,12.8358394 121.903002,13.1695027 121.573,13.5435046 C121.242998,13.9175064 120.982668,14.3355023 120.792,14.7975046 C120.601332,15.2595069 120.506,15.7691684 120.506,16.3265046 C120.506,17.0745083 120.637999,17.7381683 120.902,18.3175046 C121.166001,18.8968408 121.525331,19.3881692 121.98,19.7915046 C122.434669,20.1948399 122.973664,20.4991702 123.597,20.7045046 C124.220336,20.9098389 124.883997,21.0125046 125.588,21.0125046 C126.482671,21.0125046 127.285663,20.8585061 127.997,20.5505046 C128.708337,20.242503 129.37933,19.7805076 130.01,19.1645046 L130.01,19.1645046 Z M125.676,13.7965046 L128.36,17.0745046 C127.993332,17.4851733 127.601002,17.8188366 127.183,18.0755046 C126.764998,18.3321725 126.277336,18.4605046 125.72,18.4605046 C125.426665,18.4605046 125.144335,18.4055051 124.873,18.2955046 C124.601665,18.185504 124.363334,18.0388388 124.158,17.8555046 C123.952666,17.6721703 123.787667,17.4521725 123.663,17.1955046 C123.538333,16.9388366 123.476,16.6711726 123.476,16.3925046 C123.476,16.0698363 123.538333,15.7765059 123.663,15.5125046 C123.787667,15.2485032 123.952666,15.0065057 124.158,14.7865046 C124.363334,14.5665035 124.597999,14.3758387 124.862,14.2145046 C125.126001,14.0531704 125.397332,13.9138385 125.676,13.7965046 L125.676,13.7965046 Z M128.206,8.42850456 C128.206,9.00050742 128.048335,9.44783628 127.733,9.77050456 C127.417665,10.0931728 127.040002,10.3938365 126.6,10.6725046 C126.306665,10.3058361 126.028001,9.94650632 125.764,9.59450456 C125.499999,9.2425028 125.368,8.81717372 125.368,8.31850456 C125.368,7.90783584 125.507332,7.57417251 125.786,7.31750456 C126.064668,7.06083661 126.394665,6.93250456 126.776,6.93250456 C127.157335,6.93250456 127.490999,7.07916976 127.777,7.37250456 C128.063001,7.66583936 128.206,8.01783584 128.206,8.42850456 L128.206,8.42850456 Z M150.232,13.8185046 L145.15,13.8185046 C145.164667,13.5985035 145.212333,13.3491726 145.293,13.0705046 C145.373667,12.7918365 145.512999,12.5278391 145.711,12.2785046 C145.909001,12.02917 146.172998,11.8201721 146.503,11.6515046 C146.833002,11.4828371 147.247331,11.3985046 147.746,11.3985046 C148.508671,11.3985046 149.076998,11.6038358 149.451,12.0145046 C149.825002,12.4251733 150.085333,13.0265006 150.232,13.8185046 L150.232,13.8185046 Z M145.15,15.7985046 L153.356,15.7985046 C153.414667,14.9185002 153.341334,14.0751753 153.136,13.2685046 C152.930666,12.4618339 152.597002,11.7431744 152.135,11.1125046 C151.672998,10.4818347 151.08267,9.97950643 150.364,9.60550456 C149.64533,9.23150269 148.802005,9.04450456 147.834,9.04450456 C146.968662,9.04450456 146.180337,9.19850302 145.469,9.50650456 C144.757663,9.8145061 144.145336,10.2361686 143.632,10.7715046 C143.118664,11.3068406 142.722668,11.9411676 142.444,12.6745046 C142.165332,13.4078416 142.026,14.1998336 142.026,15.0505046 C142.026,15.930509 142.161665,16.7371676 142.433,17.4705046 C142.704335,18.2038416 143.089331,18.8345019 143.588,19.3625046 C144.086669,19.8905072 144.69533,20.2975031 145.414,20.5835046 C146.13267,20.869506 146.939329,21.0125046 147.834,21.0125046 C149.124673,21.0125046 150.224662,20.7191742 151.134,20.1325046 C152.043338,19.545835 152.717998,18.5705114 153.158,17.2065046 L150.408,17.2065046 C150.305333,17.5585063 150.026669,17.8921697 149.572,18.2075046 C149.117331,18.5228395 148.57467,18.6805046 147.944,18.6805046 C147.063996,18.6805046 146.389336,18.4531735 145.92,17.9985046 C145.450664,17.5438356 145.194,16.8105096 145.15,15.7985046 L145.15,15.7985046 Z M158.308,14.7425046 L154.216,20.7265046 L157.714,20.7265046 L160.09,17.1405046 L162.466,20.7265046 L166.03,20.7265046 L161.828,14.6765046 L165.568,9.35250456 L162.114,9.35250456 L160.134,12.3225046 L158.132,9.35250456 L154.568,9.35250456 L158.308,14.7425046 Z M173.16,18.6805046 C172.661331,18.6805046 172.236002,18.5778389 171.884,18.3725046 C171.531998,18.1671702 171.249668,17.8995062 171.037,17.5695046 C170.824332,17.2395029 170.670334,16.8545068 170.575,16.4145046 C170.479666,15.9745024 170.432,15.5271735 170.432,15.0725046 C170.432,14.6031689 170.476,14.1485068 170.564,13.7085046 C170.652,13.2685024 170.802332,12.8798396 171.015,12.5425046 C171.227668,12.2051695 171.506332,11.9301723 171.851,11.7175046 C172.195668,11.5048368 172.624664,11.3985046 173.138,11.3985046 C173.636669,11.3985046 174.058332,11.5048368 174.403,11.7175046 C174.747668,11.9301723 175.029999,12.2088362 175.25,12.5535046 C175.470001,12.898173 175.627666,13.2905024 175.723,13.7305046 C175.818334,14.1705068 175.866,14.6178356 175.866,15.0725046 C175.866,15.5271735 175.822,15.9745024 175.734,16.4145046 C175.646,16.8545068 175.495668,17.2395029 175.283,17.5695046 C175.070332,17.8995062 174.791668,18.1671702 174.447,18.3725046 C174.102332,18.5778389 173.673336,18.6805046 173.16,18.6805046 L173.16,18.6805046 Z M167.418,9.35250456 L167.418,24.7085046 L170.542,24.7085046 L170.542,19.3185046 L170.586,19.3185046 C170.967335,19.8758407 171.454997,20.2975031 172.049,20.5835046 C172.643003,20.869506 173.291997,21.0125046 173.996,21.0125046 C174.832004,21.0125046 175.561664,20.8511728 176.185,20.5285046 C176.808336,20.2058363 177.328998,19.7731739 177.747,19.2305046 C178.165002,18.6878352 178.476666,18.0645081 178.682,17.3605046 C178.887334,16.656501 178.99,15.923175 178.99,15.1605046 C178.99,14.3538339 178.887334,13.5801749 178.682,12.8395046 C178.476666,12.0988342 178.161335,11.4498407 177.736,10.8925046 C177.310665,10.3351684 176.775337,9.88783958 176.13,9.55050456 C175.484663,9.21316954 174.714671,9.04450456 173.82,9.04450456 C173.115997,9.04450456 172.47067,9.1838365 171.884,9.46250456 C171.29733,9.74117262 170.813335,10.1885015 170.432,10.8045046 L170.388,10.8045046 L170.388,9.35250456 L167.418,9.35250456 Z M181.148,5.01850456 L181.148,20.7265046 L184.272,20.7265046 L184.272,5.01850456 L181.148,5.01850456 Z M189.708,15.0505046 C189.708,14.5958356 189.752,14.1485068 189.84,13.7085046 C189.928,13.2685024 190.078332,12.8798396 190.291,12.5425046 C190.503668,12.2051695 190.785998,11.9301723 191.138,11.7175046 C191.490002,11.5048368 191.929997,11.3985046 192.458,11.3985046 C192.986003,11.3985046 193.429665,11.5048368 193.789,11.7175046 C194.148335,11.9301723 194.434332,12.2051695 194.647,12.5425046 C194.859668,12.8798396 195.01,13.2685024 195.098,13.7085046 C195.186,14.1485068 195.23,14.5958356 195.23,15.0505046 C195.23,15.5051735 195.186,15.9488357 195.098,16.3815046 C195.01,16.8141734 194.859668,17.2028362 194.647,17.5475046 C194.434332,17.892173 194.148335,18.1671702 193.789,18.3725046 C193.429665,18.5778389 192.986003,18.6805046 192.458,18.6805046 C191.929997,18.6805046 191.490002,18.5778389 191.138,18.3725046 C190.785998,18.1671702 190.503668,17.892173 190.291,17.5475046 C190.078332,17.2028362 189.928,16.8141734 189.84,16.3815046 C189.752,15.9488357 189.708,15.5051735 189.708,15.0505046 L189.708,15.0505046 Z M186.584,15.0505046 C186.584,15.9598424 186.723332,16.7811676 187.002,17.5145046 C187.280668,18.2478416 187.676664,18.8748353 188.19,19.3955046 C188.703336,19.9161738 189.31933,20.3158365 190.038,20.5945046 C190.75667,20.8731726 191.563329,21.0125046 192.458,21.0125046 C193.352671,21.0125046 194.162996,20.8731726 194.889,20.5945046 C195.615004,20.3158365 196.234664,19.9161738 196.748,19.3955046 C197.261336,18.8748353 197.657332,18.2478416 197.936,17.5145046 C198.214668,16.7811676 198.354,15.9598424 198.354,15.0505046 C198.354,14.1411667 198.214668,13.3161749 197.936,12.5755046 C197.657332,11.8348342 197.261336,11.2041738 196.748,10.6835046 C196.234664,10.1628353 195.615004,9.75950599 194.889,9.47350456 C194.162996,9.18750313 193.352671,9.04450456 192.458,9.04450456 C191.563329,9.04450456 190.75667,9.18750313 190.038,9.47350456 C189.31933,9.75950599 188.703336,10.1628353 188.19,10.6835046 C187.676664,11.2041738 187.280668,11.8348342 187.002,12.5755046 C186.723332,13.3161749 186.584,14.1411667 186.584,15.0505046 L186.584,15.0505046 Z M200.578,9.35250456 L200.578,20.7265046 L203.702,20.7265046 L203.702,15.6005046 C203.702,15.0871687 203.753333,14.6105068 203.856,14.1705046 C203.958667,13.7305024 204.130999,13.3455062 204.373,13.0155046 C204.615001,12.6855029 204.933998,12.4251722 205.33,12.2345046 C205.726002,12.0438369 206.209997,11.9485046 206.782,11.9485046 C206.972668,11.9485046 207.170666,11.9595045 207.376,11.9815046 C207.581334,12.0035047 207.757333,12.0291711 207.904,12.0585046 L207.904,9.15450456 C207.654665,9.08117086 207.427334,9.04450456 207.222,9.04450456 C206.825998,9.04450456 206.444669,9.10317064 206.078,9.22050456 C205.711332,9.33783848 205.366668,9.50283683 205.044,9.71550456 C204.721332,9.92817229 204.435335,10.1848364 204.186,10.4855046 C203.936665,10.7861727 203.738667,11.1125028 203.592,11.4645046 L203.548,11.4645046 L203.548,9.35250456 L200.578,9.35250456 Z M216.596,13.8185046 L211.514,13.8185046 C211.528667,13.5985035 211.576333,13.3491726 211.657,13.0705046 C211.737667,12.7918365 211.876999,12.5278391 212.075,12.2785046 C212.273001,12.02917 212.536998,11.8201721 212.867,11.6515046 C213.197002,11.4828371 213.611331,11.3985046 214.11,11.3985046 C214.872671,11.3985046 215.440998,11.6038358 215.815,12.0145046 C216.189002,12.4251733 216.449333,13.0265006 216.596,13.8185046 L216.596,13.8185046 Z M211.514,15.7985046 L219.72,15.7985046 C219.778667,14.9185002 219.705334,14.0751753 219.5,13.2685046 C219.294666,12.4618339 218.961002,11.7431744 218.499,11.1125046 C218.036998,10.4818347 217.44667,9.97950643 216.728,9.60550456 C216.00933,9.23150269 215.166005,9.04450456 214.198,9.04450456 C213.332662,9.04450456 212.544337,9.19850302 211.833,9.50650456 C211.121663,9.8145061 210.509336,10.2361686 209.996,10.7715046 C209.482664,11.3068406 209.086668,11.9411676 208.808,12.6745046 C208.529332,13.4078416 208.39,14.1998336 208.39,15.0505046 C208.39,15.930509 208.525665,16.7371676 208.797,17.4705046 C209.068335,18.2038416 209.453331,18.8345019 209.952,19.3625046 C210.450669,19.8905072 211.05933,20.2975031 211.778,20.5835046 C212.49667,20.869506 213.303329,21.0125046 214.198,21.0125046 C215.488673,21.0125046 216.588662,20.7191742 217.498,20.1325046 C218.407338,19.545835 219.081998,18.5705114 219.522,17.2065046 L216.772,17.2065046 C216.669333,17.5585063 216.390669,17.8921697 215.936,18.2075046 C215.481331,18.5228395 214.93867,18.6805046 214.308,18.6805046 C213.427996,18.6805046 212.753336,18.4531735 212.284,17.9985046 C211.814664,17.5438356 211.558,16.8105096 211.514,15.7985046 L211.514,15.7985046 Z" id="Download-&amp;-explore" fill="#FFFFFF" sketch:type="MSShapeGroup"></path>
    </g>
</svg>