<?xml version="1.0" encoding="UTF-8" standalone="no"?>
<svg width="695px" height="139px" viewBox="0 0 695 139" version="1.1" xmlns="http://www.w3.org/2000/svg" xmlns:xlink="http://www.w3.org/1999/xlink" xmlns:sketch="http://www.bohemiancoding.com/sketch/ns">
    <!-- Generator: Sketch 3.2.2 (9983) - http://www.bohemiancoding.com/sketch -->
    <title>Rectangle 1</title>
    <desc>Created with Sketch.</desc>
    <defs></defs>
    <g id="Page-1" stroke="none" stroke-width="1" fill="none" fill-rule="evenodd" sketch:type="MSPage">
        <rect id="Rectangle-1" fill="#00B7FF" sketch:type="MSShapeGroup" x="0" y="0" width="695" height="139"></rect>
        <path d="M518.958237,-341.771081 L751.579456,-613.32 L1002.74746,-411.735944 L810.751795,-104.534389 L1139,236.074618 L804.165921,372.389709 L552.580154,153.413851 L27.799,398.726505 L399.97463,-79.0063063 L293.617672,-298.004505 L518.958237,-341.771081 Z M293.5998,-297.36781 L518.958237,-341.775549 L293.5998,-297.36781 Z M556.784569,123.489228 L112.557507,331.145335 L429.653512,-75.8831541 L330.800608,-279.421973 L532.451684,-318.586479 L754.854521,-578.207996 L969.335542,-406.070483 L778.794219,-101.194537 L1094.80449,226.718565 L809.042774,343.054866 L556.784569,123.489228 L556.784569,123.489228 Z M560.984516,93.5646046 L197.316013,263.561931 L459.327925,-72.760002 L367.985778,-260.839441 L545.945131,-295.404112 L758.13182,-543.098225 L935.923622,-400.405023 L746.834409,-97.8524518 L1050.60899,217.362513 L813.919628,313.717788 L560.984516,93.5646046 L560.984516,93.5646046 Z M565.188932,63.6399816 L282.076754,195.980761 L489.006806,-69.6368499 L405.170948,-242.259143 L559.438578,-272.21951 L761.406885,-507.988455 L902.511703,-394.741796 L714.876833,-94.5126003 L1006.41348,208.004227 L818.798715,284.382945 L565.188932,63.6399816 L565.188932,63.6399816 Z M569.388879,33.7153587 L366.83526,128.397357 L518.683454,-66.5159317 L442.353883,-223.676611 L572.932025,-249.037143 L764.684184,-472.878684 L869.099783,-389.076336 L682.917023,-91.1705147 L962.215738,198.648174 L823.677803,255.048102 L569.388879,33.7153587 L569.388879,33.7153587 Z M573.59106,3.79073567 L451.596001,60.8161874 L548.360101,-63.3905456 L479.536819,-205.094079 L586.425473,-225.852541 L767.961483,-437.76668 L835.687864,-383.410875 L650.957213,-87.8306632 L918.020231,189.289888 L828.554656,225.711025 L573.59106,3.79073567 L573.59106,3.79073567 Z M577.793241,-26.1338873 L536.354508,-6.7649824 L578.038982,-60.2673934 L516.721989,-186.511548 L599.921154,-202.670174 L771.238782,-402.656909 L802.275945,-377.747649 L618.997403,-84.4885776 L873.824724,179.933836 L833.433743,196.376182 L577.793241,-26.1338873 L577.793241,-26.1338873 Z M596.818108,-43.1570771 L607.713396,-57.1464753 L605.220236,-62.2802404 L763.296861,101.747799 L596.818108,-43.1570771 L596.818108,-43.1570771 Z M553.909393,-167.929016 L613.412367,-179.485572 L743.143817,-330.927175 L592.113273,-89.2671344 L553.909393,-167.929016 L553.909393,-167.929016 Z" id="Stroke-3" stroke="#FFFFFF" stroke-width="0.75" sketch:type="MSShapeGroup"></path>
        <g id="Imported-Layers" sketch:type="MSLayerGroup" transform="translate(21.000000, 18.000000)">
            <path d="M1.04518033,1.11995745 L482.071611,1.11995745 L482.071611,48.7280426 L1.04518033,48.7280426 L1.04518033,1.11995745 Z" id="Fill-1" fill="#FFFFFF" sketch:type="MSShapeGroup"></path>
            <path d="M1.04518033,43.0134894 L354.714012,43.0134894 L354.714012,92.3945106 L1.04518033,92.3945106 L1.04518033,43.0134894 Z" id="Fill-2" fill="#FFFFFF" sketch:type="MSShapeGroup"></path>
            <path d="M27.4537992,8.54214894 L38.0223934,36.7963404 L31.5711762,36.7963404 L29.4333074,30.504 L18.8627336,30.504 L16.6456844,36.7963404 L10.3904385,36.7963404 L21.0778033,8.54214894 L27.4537992,8.54214894 L27.4537992,8.54214894 Z M27.8081311,25.875766 L24.2469959,15.5052766 L24.1678156,15.5052766 L20.4839508,25.875766 L27.8081311,25.875766 L27.8081311,25.875766 Z" id="Fill-3" fill="#3DA5D1" sketch:type="MSShapeGroup"></path>
            <path d="M43.5076107,31.7090426 C43.7570287,32.1463404 44.0796885,32.5025106 44.4775697,32.7795319 C44.8734713,33.0545745 45.3287582,33.2603617 45.8434303,33.3909574 C46.3581025,33.5235319 46.8925697,33.5908085 47.446832,33.5908085 C47.8427336,33.5908085 48.2584303,33.5452979 48.6919426,33.4522979 C49.1294139,33.3592979 49.5233361,33.2128723 49.881627,33.0169787 C50.2379385,32.8191064 50.5348648,32.5559362 50.7724057,32.2235106 C51.0079672,31.8950426 51.1287172,31.4795106 51.1287172,30.9808723 C51.1287172,30.1339787 50.5665369,29.5007872 49.4461352,29.0793191 C48.3237541,28.6578511 46.7599426,28.236383 44.7547008,27.8129362 C43.9351844,27.6289149 43.1374426,27.4112553 42.3594959,27.1599574 C41.5815492,26.9106383 40.8867418,26.5801915 40.2790328,26.1705957 C39.6733033,25.7629787 39.1863443,25.2485106 38.8161762,24.6271915 C38.4460082,24.0078511 38.2619139,23.2480213 38.2619139,22.3516596 C38.2619139,21.0318511 38.51925,19.9494894 39.0319426,19.1085319 C39.5485943,18.2616383 40.2275656,17.5967872 41.0728156,17.1060638 C41.9160861,16.6173191 42.86625,16.2769787 43.9233074,16.0771277 C44.9764057,15.881234 46.0591967,15.7822979 47.1697008,15.7822979 C48.2762459,15.7822979 49.3530984,15.8891489 50.3962992,16.0988936 C51.4375205,16.3086383 52.3698689,16.6648085 53.1874057,17.1674043 C54.0049426,17.67 54.6858934,18.3348511 55.2262992,19.1659149 C55.7647254,19.9969787 56.0893648,21.0457021 56.1942787,22.3120851 L50.8515861,22.3120851 C50.7724057,21.2297234 50.3626475,20.4995745 49.624291,20.1157021 C48.8839549,19.7338085 48.0129713,19.5398936 47.0113402,19.5398936 C46.6926393,19.5398936 46.3501844,19.5616596 45.9819959,19.601234 C45.6118279,19.6408085 45.2753115,19.7258936 44.9704672,19.8564894 C44.6676025,19.9910426 44.4102664,20.181 44.2004385,20.4322979 C43.9886311,20.6835957 43.8837172,21.0199787 43.8837172,21.4414468 C43.8837172,21.9440426 44.065832,22.3516596 44.4379795,22.6662766 C44.806168,22.9828723 45.289168,23.2420851 45.881041,23.4399574 C46.476873,23.6358511 47.1558443,23.8139362 47.9219139,23.9742128 C48.6860041,24.1305319 49.4659303,24.3046596 50.2557541,24.4867021 C51.073291,24.6727021 51.8749918,24.8962979 52.650959,25.1614468 C53.4308852,25.4265957 54.1217336,25.7728723 54.7314221,26.2101702 C55.3391311,26.6454894 55.8260902,27.1856809 56.1942787,27.8347021 C56.5644467,28.479766 56.7505205,29.2771915 56.7505205,30.225 C56.7505205,31.5705319 56.4793279,32.700383 55.9389221,33.6105957 C55.3965369,34.5188298 54.691832,35.2549149 53.8208484,35.8069787 C52.9498648,36.3590426 51.9521926,36.7508298 50.831791,36.9744255 C49.7094098,37.1980213 48.5672336,37.3108085 47.4072418,37.3108085 C46.2175574,37.3108085 45.0575656,37.1920851 43.9233074,36.9546383 C42.7870697,36.7171915 41.7775205,36.3214468 40.8946598,35.7674043 C40.0098197,35.2133617 39.2833402,34.481234 38.7152213,33.5710213 C38.149082,32.6608085 37.8382992,31.5210638 37.7848525,30.1498085 L43.1315041,30.1498085 C43.1315041,30.7552979 43.2562131,31.2757021 43.5076107,31.7090426" id="Fill-4" fill="#3DA5D1" sketch:type="MSShapeGroup"></path>
            <path d="M63.6590041,31.7090426 C63.9084221,32.1463404 64.231082,32.5025106 64.6269836,32.7795319 C65.0228852,33.0545745 65.4801516,33.2603617 65.9928443,33.3909574 C66.5075164,33.5235319 67.0439631,33.5908085 67.5962459,33.5908085 C67.9921475,33.5908085 68.4078443,33.5452979 68.8433361,33.4522979 C69.2808074,33.3592979 69.6747295,33.2128723 70.031041,33.0169787 C70.3873525,32.8191064 70.6842787,32.5559362 70.9237992,32.2235106 C71.1593607,31.8950426 71.2781311,31.4795106 71.2781311,30.9808723 C71.2781311,30.1339787 70.7179303,29.5007872 69.5975287,29.0793191 C68.473168,28.6578511 66.9113361,28.236383 64.9060943,27.8129362 C64.0865779,27.6289149 63.2888361,27.4112553 62.5108893,27.1599574 C61.7309631,26.9106383 61.0381352,26.5801915 60.4304262,26.1705957 C59.8227172,25.7629787 59.3357582,25.2485106 58.9675697,24.6271915 C58.5954221,24.0078511 58.4113279,23.2480213 58.4113279,22.3516596 C58.4113279,21.0318511 58.6686639,19.9494894 59.1833361,19.1085319 C59.6999877,18.2616383 60.378959,17.5967872 61.224209,17.1060638 C62.0674795,16.6173191 63.0176434,16.2769787 64.0747008,16.0771277 C65.1277992,15.881234 66.2105902,15.7822979 67.3191148,15.7822979 C68.4276393,15.7822979 69.5044918,15.8891489 70.5457131,16.0988936 C71.5889139,16.3086383 72.5212623,16.6648085 73.3387992,17.1674043 C74.1563361,17.67 74.8353074,18.3348511 75.3776926,19.1659149 C75.9161189,19.9969787 76.2407582,21.0457021 76.3456721,22.3120851 L71.0029795,22.3120851 C70.9237992,21.2297234 70.514041,20.4995745 69.7756844,20.1157021 C69.0353484,19.7338085 68.1643648,19.5398936 67.1627336,19.5398936 C66.8440328,19.5398936 66.5015779,19.5616596 66.1333893,19.601234 C65.7612418,19.6408085 65.4267049,19.7258936 65.1218607,19.8564894 C64.8189959,19.9910426 64.5616598,20.181 64.3498525,20.4322979 C64.1380451,20.6835957 64.0331311,21.0199787 64.0331311,21.4414468 C64.0331311,21.9440426 64.2172254,22.3516596 64.589373,22.6662766 C64.9575615,22.9828723 65.438582,23.2420851 66.0324344,23.4399574 C66.6282664,23.6358511 67.3072377,23.8139362 68.0713279,23.9742128 C68.8373975,24.1305319 69.6153443,24.3046596 70.4071475,24.4867021 C71.2246844,24.6727021 72.0244057,24.8962979 72.8023525,25.1614468 C73.5802992,25.4265957 74.273127,25.7728723 74.8828156,26.2101702 C75.4905246,26.6454894 75.9774836,27.1856809 76.3456721,27.8347021 C76.7138607,28.479766 76.8999344,29.2771915 76.8999344,30.225 C76.8999344,31.5705319 76.6307213,32.700383 76.0883361,33.6105957 C75.5479303,34.5188298 74.8412459,35.2549149 73.9722418,35.8069787 C73.1012582,36.3590426 72.1035861,36.7508298 70.9812049,36.9744255 C69.8608033,37.1980213 68.718627,37.3108085 67.5586352,37.3108085 C66.3689508,37.3108085 65.2069795,37.1920851 64.0747008,36.9546383 C62.9364836,36.7171915 61.9289139,36.3214468 61.0460533,35.7674043 C60.1592336,35.2133617 59.4347336,34.481234 58.8666148,33.5710213 C58.3004754,32.6608085 57.9896926,31.5210638 57.9362459,30.1498085 L63.280918,30.1498085 C63.280918,30.7552979 63.4076066,31.2757021 63.6590041,31.7090426" id="Fill-5" fill="#3DA5D1" sketch:type="MSShapeGroup"></path>
            <path d="M85.0950984,31.8871277 C85.9403484,32.7063191 87.1537869,33.1178936 88.7373934,33.1178936 C89.8716516,33.1178936 90.8475492,32.8329574 91.6670656,32.2650638 C92.4846025,31.6991489 92.985418,31.097617 93.1714918,30.4624468 L98.1202623,30.4624468 C97.328459,32.9180426 96.1150205,34.6731702 94.4779672,35.7278298 C92.8409139,36.7844681 90.8614057,37.3108085 88.5394426,37.3108085 C86.9301025,37.3108085 85.4771434,37.0535745 84.1845246,36.5391064 C82.8919057,36.0226596 81.7952582,35.2925106 80.898541,34.3427234 C80.0018238,33.3909574 79.3089959,32.2591277 78.8200574,30.9393191 C78.3311189,29.6195106 78.0876393,28.1710851 78.0876393,26.5861277 C78.0876393,25.0545957 78.3390369,23.6318936 78.8398525,22.3120851 C79.340668,20.9942553 80.053291,19.8525319 80.9777213,18.8888936 C81.9021516,17.9252553 83.0027582,17.1674043 84.2835,16.6133617 C85.5622623,16.0573404 86.9815697,15.7822979 88.5394426,15.7822979 C90.2814098,15.7822979 91.7996926,16.1186809 93.0923115,16.7934255 C94.3849303,17.4642128 95.4479262,18.3684894 96.2793197,19.5022979 C97.1107131,20.6380851 97.7105041,21.9282128 98.0806721,23.3825745 C98.4508402,24.831 98.5814877,26.3506596 98.4745943,27.9296809 L83.7094426,27.9296809 C83.788623,29.7501064 84.2498484,31.0718936 85.0950984,31.8871277 L85.0950984,31.8871277 Z M91.4493197,21.1248511 C90.7762869,20.3867872 89.7528811,20.0147872 88.381082,20.0147872 C87.4843648,20.0147872 86.7380902,20.1671489 86.1442377,20.4718723 C85.5503852,20.774617 85.0753033,21.1525532 84.7189918,21.5997447 C84.3626803,22.0489149 84.1112828,22.5238085 83.9667787,23.0244255 C83.8222746,23.5250426 83.7351762,23.9742128 83.7094426,24.3719362 L92.8547705,24.3719362 C92.5914959,22.9452766 92.1223525,21.8629149 91.4493197,21.1248511 L91.4493197,21.1248511 Z" id="Fill-6" fill="#3DA5D1" sketch:type="MSShapeGroup"></path>
            <path d="M105.424648,31.7090426 C105.676045,32.1463404 105.998705,32.5025106 106.394607,32.7795319 C106.790508,33.0545745 107.247775,33.2603617 107.760467,33.3909574 C108.275139,33.5235319 108.809607,33.5908085 109.363869,33.5908085 C109.75977,33.5908085 110.175467,33.5452979 110.610959,33.4522979 C111.046451,33.3592979 111.440373,33.2128723 111.798664,33.0169787 C112.154975,32.8191064 112.451902,32.5559362 112.689443,32.2235106 C112.925004,31.8950426 113.045754,31.4795106 113.045754,30.9808723 C113.045754,30.1339787 112.485553,29.5007872 111.363172,29.0793191 C110.240791,28.6578511 108.67698,28.236383 106.671738,27.8129362 C105.852221,27.6289149 105.05448,27.4112553 104.278512,27.1599574 C103.498586,26.9106383 102.803779,26.5801915 102.198049,26.1705957 C101.59034,25.7629787 101.103381,25.2485106 100.733213,24.6271915 C100.363045,24.0078511 100.178951,23.2480213 100.178951,22.3516596 C100.178951,21.0318511 100.436287,19.9494894 100.950959,19.1085319 C101.465631,18.2616383 102.144602,17.5967872 102.989852,17.1060638 C103.835102,16.6173191 104.783287,16.2769787 105.840344,16.0771277 C106.893443,15.881234 107.978213,15.7822979 109.086738,15.7822979 C110.195262,15.7822979 111.272115,15.8891489 112.313336,16.0988936 C113.354557,16.3086383 114.286906,16.6648085 115.104443,17.1674043 C115.92198,17.67 116.60293,18.3348511 117.143336,19.1659149 C117.683742,19.9969787 118.008381,21.0457021 118.113295,22.3120851 L112.770602,22.3120851 C112.689443,21.2297234 112.281664,20.4995745 111.541328,20.1157021 C110.800992,19.7338085 109.931988,19.5398936 108.928377,19.5398936 C108.611656,19.5398936 108.269201,19.5616596 107.901012,19.601234 C107.528865,19.6408085 107.192348,19.7258936 106.889484,19.8564894 C106.584639,19.9910426 106.329283,20.181 106.117475,20.4322979 C105.905668,20.6835957 105.800754,21.0199787 105.800754,21.4414468 C105.800754,21.9440426 105.984848,22.3516596 106.355016,22.6662766 C106.725184,22.9828723 107.206205,23.2420851 107.800057,23.4399574 C108.39391,23.6358511 109.072881,23.8139362 109.838951,23.9742128 C110.60502,24.1305319 111.382967,24.3046596 112.17477,24.4867021 C112.992307,24.6727021 113.792029,24.8962979 114.569975,25.1614468 C115.347922,25.4265957 116.04075,25.7728723 116.648459,26.2101702 C117.256168,26.6454894 117.743127,27.1856809 118.113295,27.8347021 C118.481484,28.479766 118.667557,29.2771915 118.667557,30.225 C118.667557,31.5705319 118.396365,32.700383 117.855959,33.6105957 C117.315553,34.5188298 116.608869,35.2549149 115.739865,35.8069787 C114.866902,36.3590426 113.86923,36.7508298 112.748828,36.9744255 C111.626447,37.1980213 110.48427,37.3108085 109.324279,37.3108085 C108.136574,37.3108085 106.974602,37.1920851 105.840344,36.9546383 C104.704107,36.7171915 103.694557,36.3214468 102.811697,35.7674043 C101.926857,35.2133617 101.202357,34.481234 100.632258,33.5710213 C100.066119,32.6608085 99.7553361,31.5210638 99.7038689,30.1498085 L105.048541,30.1498085 C105.048541,30.7552979 105.17325,31.2757021 105.424648,31.7090426" id="Fill-7" fill="#3DA5D1" sketch:type="MSShapeGroup"></path>
            <path d="M125.576041,31.7090426 C125.825459,32.1463404 126.148119,32.5025106 126.54402,32.7795319 C126.941902,33.0545745 127.397189,33.2603617 127.911861,33.3909574 C128.426533,33.5235319 128.961,33.5908085 129.513283,33.5908085 C129.911164,33.5908085 130.324881,33.5452979 130.760373,33.4522979 C131.197844,33.3592979 131.591766,33.2128723 131.950057,33.0169787 C132.306369,32.8191064 132.603295,32.5559362 132.840836,32.2235106 C133.076398,31.8950426 133.197148,31.4795106 133.197148,30.9808723 C133.197148,30.1339787 132.636947,29.5007872 131.514566,29.0793191 C130.392184,28.6578511 128.828373,28.236383 126.823131,27.8129362 C126.003615,27.6289149 125.205873,27.4112553 124.427926,27.1599574 C123.64998,26.9106383 122.955172,26.5801915 122.349443,26.1705957 C121.739754,25.7629787 121.252795,25.2485106 120.884607,24.6271915 C120.512459,24.0078511 120.330344,23.2480213 120.330344,22.3516596 C120.330344,21.0318511 120.58768,19.9494894 121.102352,19.1085319 C121.617025,18.2616383 122.295996,17.5967872 123.141246,17.1060638 C123.984516,16.6173191 124.93468,16.2769787 125.991738,16.0771277 C127.044836,15.881234 128.127627,15.7822979 129.238131,15.7822979 C130.344676,15.7822979 131.421529,15.8891489 132.46473,16.0988936 C133.505951,16.3086383 134.438299,16.6648085 135.255836,17.1674043 C136.073373,17.67 136.754324,18.3348511 137.29473,19.1659149 C137.833156,19.9969787 138.159775,21.0457021 138.264689,22.3120851 L132.920016,22.3120851 C132.840836,21.2297234 132.431078,20.4995745 131.692721,20.1157021 C130.952385,19.7338085 130.083381,19.5398936 129.07977,19.5398936 C128.763049,19.5398936 128.420594,19.5616596 128.050426,19.601234 C127.678279,19.6408085 127.343742,19.7258936 127.040877,19.8564894 C126.736033,19.9910426 126.478697,20.181 126.268869,20.4322979 C126.055082,20.6835957 125.952148,21.0199787 125.952148,21.4414468 C125.952148,21.9440426 126.134262,22.3516596 126.50641,22.6662766 C126.876578,22.9828723 127.355619,23.2420851 127.949471,23.4399574 C128.545303,23.6358511 129.224275,23.8139362 129.990344,23.9742128 C130.754434,24.1305319 131.534361,24.3046596 132.326164,24.4867021 C133.141721,24.6727021 133.943422,24.8962979 134.719389,25.1614468 C135.499316,25.4265957 136.190164,25.7728723 136.799852,26.2101702 C137.407561,26.6454894 137.89452,27.1856809 138.264689,27.8347021 C138.632877,28.479766 138.818951,29.2771915 138.818951,30.225 C138.818951,31.5705319 138.547758,32.700383 138.007352,33.6105957 C137.464967,34.5188298 136.760262,35.2549149 135.889279,35.8069787 C135.018295,36.3590426 134.020623,36.7508298 132.898242,36.9744255 C131.77784,37.1980213 130.635664,37.3108085 129.475672,37.3108085 C128.287967,37.3108085 127.124016,37.1920851 125.991738,36.9546383 C124.8555,36.7171915 123.845951,36.3214468 122.96309,35.7674043 C122.07825,35.2133617 121.35375,34.481234 120.783652,33.5710213 C120.217512,32.6608085 119.90673,31.5210638 119.855262,30.1498085 L125.199934,30.1498085 C125.199934,30.7552979 125.324643,31.2757021 125.576041,31.7090426" id="Fill-8" fill="#3DA5D1" sketch:type="MSShapeGroup"></path>
            <path d="M141.152791,8.54214894 L146.774594,8.54214894 L146.774594,13.1723617 L141.152791,13.1723617 L141.152791,8.54214894 Z M141.152791,16.3363404 L146.774594,16.3363404 L146.774594,36.7963404 L141.152791,36.7963404 L141.152791,16.3363404 Z" id="Fill-9" fill="#3DA5D1" sketch:type="MSShapeGroup"></path>
            <path d="M155.44484,16.3363404 L155.44484,19.1837234 L155.561631,19.1837234 C156.276234,17.9984681 157.200664,17.1357447 158.334922,16.5935745 C159.46918,16.053383 160.631152,15.7822979 161.818857,15.7822979 C163.323283,15.7822979 164.556516,15.9861064 165.520537,16.3937234 C166.482578,16.8033191 167.242709,17.3731915 167.796971,18.0974043 C168.351234,18.8235957 168.741197,19.7061064 168.964881,20.7508723 C169.188566,21.7916809 169.301398,22.9452766 169.301398,24.2136383 L169.301398,36.7963404 L163.679594,36.7963404 L163.679594,25.2405957 C163.679594,23.550766 163.41434,22.2922979 162.887791,21.461234 C162.359262,20.6301702 161.422955,20.2146383 160.076889,20.2146383 C158.54475,20.2146383 157.438205,20.667766 156.751316,21.5799574 C156.064426,22.4901702 155.721971,23.9880638 155.721971,26.0716596 L155.721971,36.7963404 L150.100168,36.7963404 L150.100168,16.3363404 L155.44484,16.3363404" id="Fill-10" fill="#3DA5D1" sketch:type="MSShapeGroup"></path>
            <path d="M191.808406,38.2981915 C191.582742,39.3548298 191.101721,40.3382553 190.363365,41.2484681 C189.625008,42.1586809 188.556074,42.9284043 187.154582,43.5635745 C185.757049,44.196766 183.882455,44.5133617 181.534758,44.5133617 C180.531148,44.5133617 179.507742,44.3867234 178.46652,44.1374043 C177.42332,43.8861064 176.473156,43.4982766 175.616029,42.9699574 C174.756922,42.4416383 174.044299,41.7629362 173.47816,40.9318723 C172.910041,40.1008085 172.587381,39.1035319 172.508201,37.944 L178.088434,37.944 C178.353689,38.9986596 178.868361,39.7288085 179.63443,40.1384043 C180.39852,40.548 181.283361,40.7537872 182.284992,40.7537872 C183.870578,40.7537872 185.024631,40.2788936 185.751111,39.3271277 C186.47759,38.3793191 186.825984,37.178234 186.80025,35.7278298 L186.80025,33.0347872 L186.72107,33.0347872 C186.113361,34.1171489 185.250295,34.9145745 184.127914,35.433 C183.005533,35.9454894 181.823766,36.2027234 180.584594,36.2027234 C179.054434,36.2027234 177.734102,35.9316383 176.625578,35.3914468 C175.517053,34.853234 174.60648,34.1131915 173.893857,33.1752766 C173.181234,32.2393404 172.658643,31.1451064 172.328066,29.8905957 C171.999467,28.6380638 171.833189,27.3123191 171.833189,25.9133617 C171.833189,24.5955319 172.025201,23.3192553 172.409225,22.0944255 C172.79127,20.867617 173.351471,19.7852553 174.091807,18.8493191 C174.830164,17.913383 175.746676,17.1674043 176.843324,16.6133617 C177.937992,16.0573404 179.198939,15.7822979 180.624184,15.7822979 C181.97025,15.7822979 183.150037,16.0335957 184.167504,16.5342128 C185.181012,17.0348298 186.03418,17.877766 186.72107,19.0669787 L186.80025,19.0669787 L186.80025,16.3363404 L192.144922,16.3363404 L192.144922,35.490383 C192.144922,36.3095745 192.030111,37.2435319 191.808406,38.2981915 L191.808406,38.2981915 Z M184.108119,31.4933617 C184.713848,31.176766 185.216643,30.7552979 185.612545,30.225 C186.008447,29.7006383 186.305373,29.0971277 186.501344,28.4263404 C186.701275,27.7535745 186.80025,27.0471702 186.80025,26.3091064 C186.80025,25.4641915 186.72107,24.666766 186.562709,23.9148511 C186.404348,23.1609574 186.139094,22.4961064 185.770906,21.9163404 C185.400738,21.3365745 184.913779,20.8735532 184.30607,20.5292553 C183.696381,20.1889149 182.93427,20.0147872 182.00984,20.0147872 C181.216057,20.0147872 180.539066,20.1750638 179.970947,20.4896809 C179.402828,20.8082553 178.927746,21.2376383 178.545701,21.7778298 C178.163656,22.3180213 177.884545,22.9393404 177.714307,23.6358511 C177.54209,24.3363191 177.456971,25.0684468 177.456971,25.8342128 C177.456971,26.5742553 177.528234,27.3044043 177.674717,28.0305957 C177.819221,28.7567872 178.070619,29.409766 178.424951,29.9895319 C178.783242,30.5692979 179.252385,31.0461702 179.832381,31.412234 C180.412377,31.7822553 181.138857,31.9682553 182.00984,31.9682553 C182.801643,31.9682553 183.50041,31.8119362 184.108119,31.4933617 L184.108119,31.4933617 Z" id="Fill-11" fill="#3DA5D1" sketch:type="MSShapeGroup"></path>
            <path d="M213.008939,42.8908085 C211.926148,43.6011702 210.421721,43.9593191 208.49566,43.9593191 C207.915664,43.9593191 207.341607,43.9375532 206.773488,43.8999574 C206.203389,43.860383 205.633291,43.8148723 205.051316,43.7594681 L205.051316,39.1292553 C205.577865,39.1846596 206.12025,39.2341277 206.674512,39.2895319 C207.228775,39.3429574 207.781057,39.3548298 208.337299,39.3271277 C209.075656,39.2499574 209.62398,38.9610638 209.980291,38.4584681 C210.336602,37.9558723 210.514758,37.4038085 210.514758,36.7963404 C210.514758,36.3471702 210.435578,35.9257021 210.277217,35.5279787 L203.111398,16.3363404 L209.089512,16.3363404 L213.719582,30.3457021 L213.800742,30.3457021 L218.27443,16.3363404 L224.094184,16.3363404 L215.542709,39.3271277 C214.935,40.991234 214.09173,42.1804468 213.008939,42.8908085" id="Fill-12" fill="#3DA5D1" sketch:type="MSShapeGroup"></path>
            <path d="M225.004758,22.134 C225.503594,20.8023191 226.218197,19.6685106 227.142627,18.7305957 C228.067057,17.7926809 229.173602,17.0664894 230.466221,16.554 C231.76082,16.0375532 233.211799,15.7822979 234.823119,15.7822979 C236.432459,15.7822979 237.889377,16.0375532 239.197832,16.554 C240.504307,17.0664894 241.61877,17.7926809 242.543201,18.7305957 C243.467631,19.6685106 244.178275,20.8023191 244.68107,22.134 C245.181885,23.4676596 245.433283,24.9517021 245.433283,26.5861277 C245.433283,28.2225319 245.181885,29.7006383 244.68107,31.0184681 C244.178275,32.3382766 243.467631,33.4641702 242.543201,34.4020851 C241.61877,35.34 240.504307,36.0582766 239.197832,36.5588936 C237.889377,37.0595106 236.432459,37.3108085 234.823119,37.3108085 C233.211799,37.3108085 231.76082,37.0595106 230.466221,36.5588936 C229.173602,36.0582766 228.067057,35.34 227.142627,34.4020851 C226.218197,33.4641702 225.503594,32.3382766 225.004758,31.0184681 C224.503943,29.7006383 224.252545,28.2225319 224.252545,26.5861277 C224.252545,24.9517021 224.503943,23.4676596 225.004758,22.134 L225.004758,22.134 Z M230.111889,28.9784043 C230.27025,29.7580213 230.541443,30.4584894 230.923488,31.0758511 C231.305533,31.6991489 231.814266,32.1938298 232.447709,32.5598936 C233.081152,32.9318936 233.872955,33.1178936 234.823119,33.1178936 C235.773283,33.1178936 236.569045,32.9318936 237.216344,32.5598936 C237.865623,32.1938298 238.378316,31.6991489 238.76234,31.0758511 C239.144385,30.4584894 239.415578,29.7580213 239.573939,28.9784043 C239.732299,28.200766 239.81148,27.4053191 239.81148,26.5861277 C239.81148,25.7689149 239.732299,24.9615957 239.573939,24.1720851 C239.415578,23.3825745 239.144385,22.6821064 238.76234,22.076617 C238.378316,21.4691489 237.865623,20.9744681 237.216344,20.5925745 C236.569045,20.2087021 235.773283,20.0147872 234.823119,20.0147872 C233.872955,20.0147872 233.081152,20.2087021 232.447709,20.5925745 C231.814266,20.9744681 231.305533,21.4691489 230.923488,22.076617 C230.541443,22.6821064 230.27025,23.3825745 230.111889,24.1720851 C229.953529,24.9615957 229.874348,25.7689149 229.874348,26.5861277 C229.874348,27.4053191 229.953529,28.200766 230.111889,28.9784043 L230.111889,28.9784043 Z" id="Fill-13" fill="#3DA5D1" sketch:type="MSShapeGroup"></path>
            <path d="M261.821631,36.7963404 L261.821631,33.9489574 L261.70484,33.9489574 C260.990238,35.1342128 260.065807,35.9929787 258.931549,36.5173404 C257.797291,37.0476383 256.63532,37.3108085 255.447615,37.3108085 C253.945168,37.3108085 252.709955,37.1129362 251.747914,36.7171915 C250.781914,36.3214468 250.023762,35.7594894 249.4695,35.0332979 C248.917217,34.3110638 248.527254,33.4265745 248.30159,32.3818085 C248.077906,31.3429787 247.965074,30.1874043 247.965074,28.9190426 L247.965074,16.3363404 L253.586877,16.3363404 L253.586877,27.8920851 C253.586877,29.5799362 253.852131,30.840383 254.37868,31.6714468 C254.907209,32.5025106 255.845496,32.9180426 257.189582,32.9180426 C258.721721,32.9180426 259.828266,32.4649149 260.515156,31.5507447 C261.202045,30.6425106 261.54648,29.144617 261.54648,27.0610213 L261.54648,16.3363404 L267.166303,16.3363404 L267.166303,36.7963404 L261.821631,36.7963404" id="Fill-14" fill="#3DA5D1" sketch:type="MSShapeGroup"></path>
            <path d="M275.678189,16.3363404 L275.678189,20.1354894 L275.757369,20.1354894 C276.020643,19.5022979 276.378934,18.914617 276.826303,18.3724468 C277.275652,17.834234 277.790324,17.3731915 278.37032,16.9893191 C278.950316,16.6074255 279.571881,16.3086383 280.231057,16.0988936 C280.890234,15.8891489 281.577123,15.7822979 282.289746,15.7822979 C282.659914,15.7822979 283.069672,15.8495745 283.517041,15.9801702 L283.517041,21.204 C283.251787,21.1525532 282.937045,21.1050638 282.566877,21.0654894 C282.196709,21.0239362 281.842377,21.0061277 281.499922,21.0061277 C280.468598,21.0061277 279.597615,21.1782766 278.886971,21.518617 C278.172369,21.8629149 277.598311,22.3298936 277.16282,22.9254894 C276.729307,23.5191064 276.416545,24.2136383 276.232451,25.0031489 C276.048357,25.7926596 275.95532,26.6514255 275.95532,27.5754894 L275.95532,36.7963404 L270.333516,36.7963404 L270.333516,16.3363404 L275.678189,16.3363404" id="Fill-15" fill="#3DA5D1" sketch:type="MSShapeGroup"></path>
            <path d="M294.641877,22.134 C295.142693,20.8023191 295.855316,19.6685106 296.779746,18.7305957 C297.702197,17.7926809 298.812701,17.0664894 300.10532,16.554 C301.397939,16.0375532 302.850898,15.7822979 304.460238,15.7822979 C306.069578,15.7822979 307.528475,16.0375532 308.834951,16.554 C310.141426,17.0664894 311.255889,17.7926809 312.18032,18.7305957 C313.10475,19.6685106 313.817373,20.8023191 314.318189,22.134 C314.819004,23.4676596 315.068422,24.9517021 315.068422,26.5861277 C315.068422,28.2225319 314.819004,29.7006383 314.318189,31.0184681 C313.817373,32.3382766 313.10475,33.4641702 312.18032,34.4020851 C311.255889,35.34 310.141426,36.0582766 308.834951,36.5588936 C307.528475,37.0595106 306.069578,37.3108085 304.460238,37.3108085 C302.850898,37.3108085 301.397939,37.0595106 300.10532,36.5588936 C298.812701,36.0582766 297.702197,35.34 296.779746,34.4020851 C295.855316,33.4641702 295.142693,32.3382766 294.641877,31.0184681 C294.139082,29.7006383 293.887684,28.2225319 293.887684,26.5861277 C293.887684,24.9517021 294.139082,23.4676596 294.641877,22.134 L294.641877,22.134 Z M299.749008,28.9784043 C299.907369,29.7580213 300.176582,30.4584894 300.560607,31.0758511 C300.942652,31.6991489 301.451385,32.1938298 302.084828,32.5598936 C302.71827,32.9318936 303.510074,33.1178936 304.460238,33.1178936 C305.410402,33.1178936 306.208143,32.9318936 306.855443,32.5598936 C307.500762,32.1938298 308.015434,31.6991489 308.399459,31.0758511 C308.781504,30.4584894 309.052697,29.7580213 309.211057,28.9784043 C309.369418,28.200766 309.448598,27.4053191 309.448598,26.5861277 C309.448598,25.7689149 309.369418,24.9615957 309.211057,24.1720851 C309.052697,23.3825745 308.781504,22.6821064 308.399459,22.076617 C308.015434,21.4691489 307.500762,20.9744681 306.855443,20.5925745 C306.208143,20.2087021 305.410402,20.0147872 304.460238,20.0147872 C303.510074,20.0147872 302.71827,20.2087021 302.084828,20.5925745 C301.451385,20.9744681 300.942652,21.4691489 300.560607,22.076617 C300.176582,22.6821064 299.907369,23.3825745 299.749008,24.1720851 C299.590648,24.9615957 299.511467,25.7689149 299.511467,26.5861277 C299.511467,27.4053191 299.590648,28.200766 299.749008,28.9784043 L299.749008,28.9784043 Z" id="Fill-16" fill="#3DA5D1" sketch:type="MSShapeGroup"></path>
            <path d="M322.948844,16.3363404 L322.948844,18.9482553 L323.028025,18.9482553 C323.714914,17.8401702 324.585898,17.0348298 325.640975,16.5342128 C326.698033,16.0335957 327.858025,15.7822979 329.12491,15.7822979 C330.73425,15.7822979 332.119906,16.0850426 333.281877,16.6925106 C334.443848,17.298 335.405889,18.1013617 336.171959,19.1085319 C336.938029,20.1077872 337.506148,21.275234 337.874336,22.6088936 C338.242525,23.9425532 338.428598,25.3335957 338.428598,26.7820213 C338.428598,28.1552553 338.242525,29.4750638 337.874336,30.7394681 C337.506148,32.0078298 336.943967,33.1277872 336.193734,34.1072553 C335.439541,35.0807872 334.503234,35.8604043 333.380852,36.4401702 C332.258471,37.0199362 330.946057,37.3108085 329.441631,37.3108085 C328.174746,37.3108085 327.006836,37.0535745 325.937902,36.5391064 C324.868967,36.0226596 323.992045,35.2667872 323.305156,34.2635745 L323.225975,34.2635745 L323.225975,43.9593191 L317.604172,43.9593191 L317.604172,16.3363404 L322.948844,16.3363404 L322.948844,16.3363404 Z M330.255209,32.5598936 C330.872816,32.1938298 331.375611,31.7090426 331.757656,31.1174043 C332.14168,30.5237872 332.410893,29.831234 332.571234,29.0397447 C332.729594,28.2482553 332.806795,27.4429149 332.806795,26.6237234 C332.806795,25.8084894 332.721676,25.0031489 332.549459,24.2136383 C332.377242,23.4201702 332.094172,22.713766 331.69827,22.0944255 C331.302369,21.4750851 330.793635,20.9744681 330.176029,20.5925745 C329.554463,20.2087021 328.794332,20.0147872 327.897615,20.0147872 C326.975164,20.0147872 326.203156,20.2087021 325.58159,20.5925745 C324.962004,20.9744681 324.459209,21.4691489 324.079143,22.076617 C323.695119,22.6821064 323.425906,23.3825745 323.265566,24.1720851 C323.107205,24.9615957 323.028025,25.782766 323.028025,26.6237234 C323.028025,27.4429149 323.113143,28.2482553 323.285361,29.0397447 C323.457578,29.831234 323.734709,30.5237872 324.116754,31.1174043 C324.498799,31.7090426 325.007533,32.1938298 325.640975,32.5598936 C326.274418,32.9318936 327.038508,33.1178936 327.937205,33.1178936 C328.861635,33.1178936 329.633643,32.9318936 330.255209,32.5598936 L330.255209,32.5598936 Z" id="Fill-17" fill="#3DA5D1" sketch:type="MSShapeGroup"></path>
            <path d="M346.702943,31.8871277 C347.546213,32.7063191 348.761631,33.1178936 350.345238,33.1178936 C351.479496,33.1178936 352.455393,32.8329574 353.27293,32.2650638 C354.092447,31.6991489 354.593262,31.097617 354.779336,30.4624468 L359.728107,30.4624468 C358.936303,32.9180426 357.722865,34.6731702 356.085811,35.7278298 C354.448758,36.7844681 352.46925,37.3108085 350.147287,37.3108085 C348.535967,37.3108085 347.084988,37.0535745 345.792369,36.5391064 C344.49777,36.0226596 343.403102,35.2925106 342.506385,34.3427234 C341.607689,33.3909574 340.91684,32.2591277 340.427902,30.9393191 C339.938963,29.6195106 339.695484,28.1710851 339.695484,26.5861277 C339.695484,25.0545957 339.944902,23.6318936 340.447697,22.3120851 C340.948512,20.9942553 341.661135,19.8525319 342.585566,18.8888936 C343.508016,17.9252553 344.610602,17.1674043 345.891344,16.6133617 C347.170107,16.0573404 348.589414,15.7822979 350.147287,15.7822979 C351.889254,15.7822979 353.405557,16.1186809 354.700156,16.7934255 C355.992775,17.4642128 357.053791,18.3684894 357.885184,19.5022979 C358.716578,20.6380851 359.318348,21.9282128 359.688516,23.3825745 C360.056705,24.831 360.187352,26.3506596 360.084418,27.9296809 L345.317287,27.9296809 C345.396467,29.7501064 345.859672,31.0718936 346.702943,31.8871277 L346.702943,31.8871277 Z M353.057164,21.1248511 C352.384131,20.3867872 351.360725,20.0147872 349.986947,20.0147872 C349.09023,20.0147872 348.345934,20.1671489 347.750102,20.4718723 C347.15823,20.774617 346.681168,21.1525532 346.326836,21.5997447 C345.970525,22.0489149 345.719127,22.5238085 345.574623,23.0244255 C345.430119,23.5250426 345.341041,23.9742128 345.317287,24.3719362 L354.462615,24.3719362 C354.197361,22.9452766 353.730197,21.8629149 353.057164,21.1248511 L353.057164,21.1248511 Z" id="Fill-18" fill="#3DA5D1" sketch:type="MSShapeGroup"></path>
            <path d="M367.64416,16.3363404 L367.64416,19.1837234 L367.76491,19.1837234 C368.477533,17.9984681 369.399984,17.1357447 370.536221,16.5935745 C371.6685,16.053383 372.830471,15.7822979 374.020156,15.7822979 C375.524582,15.7822979 376.757816,15.9861064 377.721836,16.3937234 C378.685857,16.8033191 379.444008,17.3731915 379.996291,18.0974043 C380.552533,18.8235957 380.940516,19.7061064 381.164201,20.7508723 C381.387885,21.7916809 381.500717,22.9452766 381.500717,24.2136383 L381.500717,36.7963404 L375.878914,36.7963404 L375.878914,25.2405957 C375.878914,23.550766 375.617619,22.2922979 375.08909,21.461234 C374.558582,20.6301702 373.624254,20.2146383 372.278189,20.2146383 C370.748029,20.2146383 369.637525,20.667766 368.950635,21.5799574 C368.265725,22.4901702 367.92327,23.9880638 367.92327,26.0716596 L367.92327,36.7963404 L362.301467,36.7963404 L362.301467,16.3363404 L367.64416,16.3363404" id="Fill-19" fill="#3DA5D1" sketch:type="MSShapeGroup"></path>
            <path d="M409.097041,34.1844255 C408.435885,35.2925106 407.57084,36.0899362 406.501906,36.5786809 C405.432971,37.0654468 404.227451,37.3108085 402.879406,37.3108085 C401.349246,37.3108085 400.00318,37.0120213 398.843189,36.420383 C397.681217,35.826766 396.723135,35.0214255 395.972902,34.0063404 C395.220689,32.9892766 394.65257,31.8218298 394.270525,30.504 C393.8865,29.1841915 393.694488,27.8129362 393.694488,26.3882553 C393.694488,25.017 393.8865,23.6912553 394.270525,22.4110213 C394.65257,21.132766 395.220689,20.0029149 395.972902,19.0254255 C396.723135,18.0518936 397.667361,17.2663404 398.801619,16.6727234 C399.937857,16.0771277 401.258189,15.7822979 402.762615,15.7822979 C403.976053,15.7822979 405.130107,16.0375532 406.224775,16.554 C407.319443,17.0664894 408.186467,17.8282979 408.81793,18.8295319 L408.897111,18.8295319 L408.897111,8.54214894 L414.520893,8.54214894 L414.520893,36.7963404 L409.176221,36.7963404 L409.176221,34.1844255 L409.097041,34.1844255 L409.097041,34.1844255 Z M408.8595,24.0731489 C408.701139,23.2935319 408.429947,22.6088936 408.047902,22.0132979 C407.663877,21.4236383 407.169,20.9388511 406.56327,20.5708085 C405.955561,20.2007872 405.189492,20.0147872 404.265061,20.0147872 C403.342611,20.0147872 402.564664,20.2007872 401.931221,20.5708085 C401.295799,20.9388511 400.789045,21.4275957 400.40502,22.0350638 C400.022975,22.6405532 399.745844,23.3350851 399.573627,24.1127234 C399.40141,24.8903617 399.316291,25.7016383 399.316291,26.5465532 C399.316291,27.3400213 399.409328,28.1295319 399.595402,28.9190426 C399.779496,29.7125106 400.076422,30.4189149 400.484201,31.0382553 C400.893959,31.6575957 401.408631,32.1582128 402.028217,32.5401064 C402.649783,32.9239787 403.396057,33.1178936 404.265061,33.1178936 C405.189492,33.1178936 405.9615,32.9318936 406.581086,32.5598936 C407.202652,32.1938298 407.695549,31.6991489 408.065717,31.0758511 C408.435885,30.4584894 408.701139,29.7501064 408.8595,28.9605957 C409.015881,28.1710851 409.097041,27.3499149 409.097041,26.5069787 C409.097041,25.6620638 409.015881,24.8507872 408.8595,24.0731489 L408.8595,24.0731489 Z" id="Fill-20" fill="#3DA5D1" sketch:type="MSShapeGroup"></path>
            <path d="M417.408996,22.6286809 C417.488176,21.3108511 417.818754,20.2146383 418.39875,19.344 C418.978746,18.4733617 419.719082,17.7728936 420.615799,17.2465532 C421.512516,16.7202128 422.522066,16.3442553 423.644447,16.1186809 C424.766828,15.8950851 425.895148,15.7822979 427.029406,15.7822979 C428.05875,15.7822979 429.101951,15.8555106 430.157029,15.9999574 C431.212107,16.1444043 432.176127,16.4293404 433.047111,16.8508085 C433.918094,17.2722766 434.630717,17.8599574 435.18498,18.6118723 C435.739242,19.3618085 436.016373,20.3590851 436.016373,21.5997447 L436.016373,32.2452766 C436.016373,33.1693404 436.06982,34.0518511 436.174734,34.896766 C436.279648,35.7416809 436.465721,36.3748723 436.730975,36.7963404 L431.028012,36.7963404 C430.923098,36.4797447 430.836,36.1572128 430.770676,35.826766 C430.705352,35.4982979 430.657844,35.1619149 430.632111,34.817617 C429.733414,35.7416809 428.678336,36.3867447 427.464898,36.756766 C426.251459,37.1248085 425.010307,37.3108085 423.743422,37.3108085 C422.767525,37.3108085 421.856951,37.1920851 421.011701,36.9546383 C420.166451,36.7171915 419.428094,36.3471702 418.794652,35.8465532 C418.161209,35.3459362 417.666332,34.7127447 417.31002,33.9489574 C416.955689,33.1831915 416.777533,32.271 416.777533,31.2163404 C416.777533,30.0568085 416.979443,29.0971277 417.389201,28.3471915 C417.798959,27.5952766 418.327488,26.9957234 418.972807,26.5465532 C419.620107,26.0993617 420.358463,25.7629787 421.189857,25.5374043 C422.02125,25.3138085 422.858582,25.1357234 423.705811,25.0031489 C424.547102,24.8705745 425.378496,24.7657021 426.198012,24.6865532 C427.015549,24.6074043 427.744008,24.4867021 428.375471,24.330383 C429.008914,24.1720851 429.50973,23.9425532 429.879898,23.6358511 C430.250066,23.3350851 430.420303,22.8938298 430.39457,22.3120851 C430.39457,21.704617 430.297574,21.2237872 430.097643,20.867617 C429.901672,20.5094681 429.636418,20.2344255 429.30782,20.0345745 C428.977242,19.8367021 428.593217,19.7061064 428.159705,19.6408085 C427.722234,19.5755106 427.25507,19.5398936 426.754254,19.5398936 C425.64375,19.5398936 424.774746,19.7793191 424.139324,20.2542128 C423.505881,20.7291064 423.135713,21.518617 423.030799,22.6286809 L417.408996,22.6286809 L417.408996,22.6286809 Z M430.39457,26.7820213 C430.157029,26.9957234 429.860102,27.1599574 429.503791,27.2767021 C429.14748,27.3974043 428.765434,27.4943617 428.355676,27.5754894 C427.945918,27.6546383 427.516365,27.7219149 427.068996,27.771383 C426.619648,27.8267872 426.172279,27.8920851 425.72293,27.971234 C425.301295,28.050383 424.883619,28.1552553 424.47584,28.2878298 C424.066082,28.4204043 423.71175,28.5984894 423.406906,28.8240638 C423.104041,29.0476596 422.858582,29.330617 422.674488,29.6729362 C422.488414,30.0152553 422.397357,30.4505745 422.397357,30.9808723 C422.397357,31.4795106 422.488414,31.9029574 422.674488,32.2452766 C422.858582,32.5875957 423.10998,32.8586809 423.426701,33.0545745 C423.743422,33.2544255 424.11359,33.3909574 424.535225,33.4720851 C424.95884,33.5492553 425.392352,33.5908085 425.84368,33.5908085 C426.950225,33.5908085 427.807352,33.4067872 428.417041,33.0347872 C429.02277,32.6687234 429.472119,32.2235106 429.761127,31.7090426 C430.052115,31.1965532 430.23027,30.6741702 430.297574,30.1498085 C430.360918,29.6195106 430.39457,29.1980426 430.39457,28.8814468 L430.39457,26.7820213 L430.39457,26.7820213 Z" id="Fill-21" fill="#3DA5D1" sketch:type="MSShapeGroup"></path>
            <path d="M450.506373,16.3363404 L450.506373,20.0959149 L446.388996,20.0959149 L446.388996,30.225 C446.388996,31.176766 446.547357,31.8119362 446.864078,32.1265532 C447.180799,32.4431489 447.814242,32.6014468 448.764406,32.6014468 C449.081127,32.6014468 449.383992,32.5875957 449.67498,32.5598936 C449.963988,32.5361489 450.243098,32.4945957 450.506373,32.4431489 L450.506373,36.7963404 C450.031291,36.8754894 449.502762,36.9269362 448.922766,36.9546383 C448.34277,36.9823404 447.774652,36.992234 447.220389,36.992234 C446.349406,36.992234 445.523951,36.9348511 444.747984,36.8141489 C443.968057,36.6974043 443.281168,36.4678723 442.687316,36.1235745 C442.093463,35.7792766 441.62432,35.2925106 441.281865,34.6593191 C440.93743,34.0241489 440.767193,33.1930851 440.767193,32.1661277 L440.767193,20.0959149 L437.362439,20.0959149 L437.362439,16.3363404 L440.767193,16.3363404 L440.767193,10.2042766 L446.388996,10.2042766 L446.388996,16.3363404 L450.506373,16.3363404" id="Fill-22" fill="#3DA5D1" sketch:type="MSShapeGroup"></path>
            <path d="M451.852439,22.6286809 C451.931619,21.3108511 452.262197,20.2146383 452.842193,19.344 C453.422189,18.4733617 454.160545,17.7728936 455.059242,17.2465532 C455.957939,16.7202128 456.965508,16.3442553 458.087889,16.1186809 C459.21027,15.8950851 460.33859,15.7822979 461.472848,15.7822979 C462.502193,15.7822979 463.545393,15.8555106 464.600471,15.9999574 C465.655549,16.1444043 466.61957,16.4293404 467.490553,16.8508085 C468.361537,17.2722766 469.07416,17.8599574 469.628422,18.6118723 C470.182684,19.3618085 470.459816,20.3590851 470.459816,21.5997447 L470.459816,32.2452766 C470.459816,33.1693404 470.513262,34.0518511 470.618176,34.896766 C470.72309,35.7416809 470.907184,36.3748723 471.172439,36.7963404 L465.471455,36.7963404 C465.364561,36.4797447 465.281422,36.1572128 465.214119,35.826766 C465.148795,35.4982979 465.103266,35.1619149 465.075553,34.817617 C464.178836,35.7416809 463.123758,36.3867447 461.90834,36.756766 C460.694902,37.1248085 459.45375,37.3108085 458.186865,37.3108085 C457.208988,37.3108085 456.300393,37.1920851 455.455143,36.9546383 C454.609893,36.7171915 453.871537,36.3471702 453.240074,35.8465532 C452.604652,35.3459362 452.109775,34.7127447 451.755443,33.9489574 C451.397152,33.1831915 451.218996,32.271 451.218996,31.2163404 C451.218996,30.0568085 451.422885,29.0971277 451.832643,28.3471915 C452.242402,27.5952766 452.768951,26.9957234 453.41625,26.5465532 C454.06157,26.0993617 454.801906,25.7629787 455.633299,25.5374043 C456.464693,25.3138085 457.302025,25.1357234 458.147275,25.0031489 C458.992525,24.8705745 459.823918,24.7657021 460.641455,24.6865532 C461.458992,24.6074043 462.185471,24.4867021 462.818914,24.330383 C463.452357,24.1720851 463.955152,23.9425532 464.32334,23.6358511 C464.691529,23.3350851 464.865725,22.8938298 464.838012,22.3120851 C464.838012,21.704617 464.739037,21.2237872 464.541086,20.867617 C464.343135,20.5094681 464.079861,20.2344255 463.749283,20.0345745 C463.418705,19.8367021 463.03666,19.7061064 462.601168,19.6408085 C462.165676,19.5755106 461.696533,19.5398936 461.195717,19.5398936 C460.087193,19.5398936 459.216209,19.7793191 458.582766,20.2542128 C457.949324,20.7291064 457.579156,21.518617 457.474242,22.6286809 L451.852439,22.6286809 L451.852439,22.6286809 Z M464.838012,26.7820213 C464.600471,26.9957234 464.303545,27.1599574 463.947234,27.2767021 C463.590922,27.3974043 463.206898,27.4943617 462.801098,27.5754894 C462.389361,27.6546383 461.961787,27.7219149 461.512439,27.771383 C461.06507,27.8267872 460.615721,27.8920851 460.166373,27.971234 C459.744738,28.050383 459.329041,28.1552553 458.919283,28.2878298 C458.511504,28.4204043 458.153213,28.5984894 457.852328,28.8240638 C457.545504,29.0476596 457.302025,29.330617 457.11793,29.6729362 C456.933836,30.0152553 456.840799,30.4505745 456.840799,30.9808723 C456.840799,31.4795106 456.933836,31.9029574 457.11793,32.2452766 C457.302025,32.5875957 457.553422,32.8586809 457.870143,33.0545745 C458.186865,33.2544255 458.557033,33.3909574 458.978668,33.4720851 C459.400303,33.5492553 459.835795,33.5908085 460.285143,33.5908085 C461.393668,33.5908085 462.250795,33.4067872 462.858504,33.0347872 C463.466213,32.6687234 463.913582,32.2235106 464.20457,31.7090426 C464.495557,31.1965532 464.673713,30.6741702 464.739037,30.1498085 C464.804361,29.6195106 464.838012,29.1980426 464.838012,28.8814468 L464.838012,26.7820213 L464.838012,26.7820213 Z" id="Fill-23" fill="#3DA5D1" sketch:type="MSShapeGroup"></path>
            <path d="M18.108541,59.8682553 L18.108541,62.4801702 L18.1877213,62.4801702 C18.8746107,61.3720851 19.7455943,60.5687234 20.8006721,60.0661277 C21.8577295,59.5635319 23.0197008,59.3142128 24.2846066,59.3142128 C25.8959262,59.3142128 27.281582,59.6169574 28.4435533,60.2244255 C29.6035451,60.8299149 30.5675656,61.6352553 31.3336352,62.6384681 C32.0977254,63.6397021 32.6638648,64.8071489 33.0340328,66.1408085 C33.4042008,67.4744681 33.5882951,68.8655106 33.5882951,70.3139362 C33.5882951,71.6871702 33.4042008,73.0069787 33.0340328,74.271383 C32.6638648,75.5397447 32.1036639,76.6597021 31.3534303,77.6391702 C30.5992377,78.6127021 29.6629303,79.3923191 28.5425287,79.9720851 C27.418168,80.5518511 26.1057541,80.8427234 24.6013279,80.8427234 C23.3364221,80.8427234 22.1685123,80.5854894 21.0995779,80.0710213 C20.0306434,79.5545745 19.1517418,78.7967234 18.466832,77.7974681 L18.3876516,77.7974681 L18.3876516,87.491234 L12.7658484,87.491234 L12.7658484,59.8682553 L18.108541,59.8682553 L18.108541,59.8682553 Z M25.4149057,76.0918085 C26.0344918,75.7257447 26.5353074,75.2429362 26.9173525,74.6493191 C27.301377,74.0557021 27.5705902,73.3651277 27.7309303,72.5716596 C27.889291,71.7781915 27.9684713,70.9768085 27.9684713,70.1556383 C27.9684713,69.3404043 27.881373,68.5350638 27.7111352,67.7435745 C27.538918,66.9520851 27.2538689,66.2456809 26.8599467,65.6263404 C26.4640451,65.007 25.9553115,64.506383 25.3337459,64.1225106 C24.7141598,63.740617 23.9540287,63.5467021 23.0573115,63.5467021 C22.1328811,63.5467021 21.3628525,63.740617 20.7412869,64.1225106 C20.1217008,64.506383 19.6208852,65.0010638 19.2388402,65.6065532 C18.8548156,66.2140213 18.583623,66.9125106 18.4252623,67.704 C18.2669016,68.4954894 18.1877213,69.3146809 18.1877213,70.1556383 C18.1877213,70.9768085 18.2748197,71.7781915 18.4470369,72.5716596 C18.6172746,73.3651277 18.8963852,74.0557021 19.2784303,74.6493191 C19.6584959,75.2429362 20.1672295,75.7257447 20.8006721,76.0918085 C21.4360943,76.4638085 22.2001844,76.6478298 23.0988811,76.6478298 C24.021332,76.6478298 24.7933402,76.4638085 25.4149057,76.0918085 L25.4149057,76.0918085 Z" id="Fill-24" fill="#3DA5D1" sketch:type="MSShapeGroup"></path>
            <path d="M49.7014918,80.3282553 L49.7014918,77.4788936 L49.5847008,77.4788936 C48.8700984,78.6661277 47.945668,79.5248936 46.8114098,80.0492553 C45.6771516,80.5795532 44.5151803,80.8427234 43.3274754,80.8427234 C41.8230492,80.8427234 40.5898156,80.6448511 39.6257951,80.2491064 C38.6617746,79.851383 37.903623,79.2914043 37.3493607,78.5652128 C36.7970779,77.8429787 36.4051352,76.9584894 36.1814508,75.9157021 C35.9577664,74.8748936 35.8449344,73.7193191 35.8449344,72.4509574 L35.8449344,59.8682553 L41.4667377,59.8682553 L41.4667377,71.424 C41.4667377,73.1138298 41.7319918,74.3722979 42.258541,75.2033617 C42.7870697,76.0344255 43.723377,76.4499574 45.0694426,76.4499574 C46.601582,76.4499574 47.708127,75.9948511 48.3950164,75.0846383 C49.0819057,74.1764043 49.4243607,72.6765319 49.4243607,70.5929362 L49.4243607,59.8682553 L55.0461639,59.8682553 L55.0461639,80.3282553 L49.7014918,80.3282553" id="Fill-25" fill="#3DA5D1" sketch:type="MSShapeGroup"></path>
            <path d="M63.8351803,52.0720851 L63.8351803,62.3614468 L63.9143607,62.3614468 C64.5992705,61.3067872 65.5296393,60.5350851 66.7054672,60.0463404 C67.8773361,59.5595745 69.1006721,59.3142128 70.3695369,59.3142128 C71.3969016,59.3142128 72.4123893,59.5239574 73.416,59.9474043 C74.4176311,60.3708511 75.3222664,61.0159149 76.1279262,61.8865532 C76.9335861,62.7571915 77.5868238,63.8712128 78.0876393,65.2305957 C78.5884549,66.588 78.8398525,68.204617 78.8398525,70.0784681 C78.8398525,71.9542979 78.5884549,73.5689362 78.0876393,74.9243617 C77.5868238,76.2857234 76.9335861,77.3997447 76.1279262,78.270383 C75.3222664,79.1410213 74.4176311,79.7880638 73.416,80.2075532 C72.4123893,80.631 71.3969016,80.8427234 70.3695369,80.8427234 C68.8631311,80.8427234 67.5170656,80.6072553 66.3313402,80.130383 C65.1416557,79.6554894 64.2449385,78.8521277 63.6372295,77.7143617 L63.5580492,77.7143617 L63.5580492,80.3282553 L58.213377,80.3282553 L58.213377,52.0720851 L63.8351803,52.0720851 L63.8351803,52.0720851 Z M72.940918,67.6248511 C72.7568238,66.8333617 72.4658361,66.1328936 72.0699344,65.5274043 C71.6740328,64.9199362 71.1791557,64.4410851 70.5853033,64.0829362 C69.9914508,63.7247872 69.2728893,63.5467021 68.4276393,63.5467021 C67.6101025,63.5467021 66.8974795,63.7247872 66.2897705,64.0829362 C65.6820615,64.4410851 65.1812459,64.9199362 64.7853443,65.5274043 C64.3894426,66.1328936 64.1004344,66.8333617 63.9143607,67.6248511 C63.7302664,68.4163404 63.6372295,69.2474043 63.6372295,70.1180426 C63.6372295,70.9629574 63.7302664,71.7781915 63.9143607,72.5716596 C64.1004344,73.3651277 64.3894426,74.063617 64.7853443,74.6710851 C65.1812459,75.2765745 65.6820615,75.7554255 66.2897705,76.1135745 C66.8974795,76.467766 67.6101025,76.6478298 68.4276393,76.6478298 C69.2728893,76.6478298 69.9914508,76.467766 70.5853033,76.1135745 C71.1791557,75.7554255 71.6740328,75.2765745 72.0699344,74.6710851 C72.4658361,74.063617 72.7568238,73.3651277 72.940918,72.5716596 C73.1250123,71.7781915 73.2180492,70.9629574 73.2180492,70.1180426 C73.2180492,69.2474043 73.1250123,68.4163404 72.940918,67.6248511 L72.940918,67.6248511 Z" id="Fill-26" fill="#3DA5D1" sketch:type="MSShapeGroup"></path>
            <path d="M81.4528033,52.0720851 L87.0746066,52.0720851 L87.0746066,80.3282553 L81.4528033,80.3282553 L81.4528033,52.0720851 Z" id="Fill-27" fill="#3DA5D1" sketch:type="MSShapeGroup"></path>
            <path d="M90.558541,52.0720851 L96.1803443,52.0720851 L96.1803443,56.7022979 L90.558541,56.7022979 L90.558541,52.0720851 Z M90.558541,59.8682553 L96.1803443,59.8682553 L96.1803443,80.3282553 L90.558541,80.3282553 L90.558541,59.8682553 Z" id="Fill-28" fill="#3DA5D1" sketch:type="MSShapeGroup"></path>
            <path d="M104.236943,75.2429362 C104.48834,75.6782553 104.811,76.0344255 105.206902,76.3134255 C105.602803,76.5864894 106.05809,76.7922766 106.570783,76.9228723 C107.087434,77.0574255 107.621902,77.1227234 108.176164,77.1227234 C108.572066,77.1227234 108.987762,77.0772128 109.423254,76.9861915 C109.858746,76.8931915 110.254648,76.7447872 110.610959,76.5488936 C110.96727,76.3510213 111.264197,76.0878511 111.501738,75.7554255 C111.739279,75.4289362 111.85607,75.0134043 111.85607,74.5108085 C111.85607,73.6658936 111.295869,73.0327021 110.175467,72.6092553 C109.053086,72.189766 107.489275,71.7682979 105.484033,71.3448511 C104.666496,71.1608298 103.866775,70.9431702 103.088828,70.6918723 C102.308902,70.4425532 101.618053,70.1121064 101.010344,69.7025106 C100.404615,69.2948936 99.9136967,68.7804255 99.5455082,68.1571277 C99.1753402,67.539766 98.9912459,66.7799362 98.9912459,65.8835745 C98.9912459,64.563766 99.248582,63.4814043 99.7632541,62.6384681 C100.277926,61.7935532 100.954918,61.1287021 101.802148,60.6399574 C102.645418,60.1512128 103.597561,59.8088936 104.652639,59.6090426 C105.707717,59.4131489 106.790508,59.3142128 107.899033,59.3142128 C109.007557,59.3142128 110.08243,59.4190851 111.125631,59.6308085 C112.168832,59.8405532 113.099201,60.1967234 113.916738,60.6993191 C114.732295,61.2019149 115.415225,61.866766 115.955631,62.6978298 C116.496037,63.5269149 116.818697,64.577617 116.92559,65.8420213 L111.580918,65.8420213 C111.501738,64.7616383 111.09198,64.0314894 110.351643,63.647617 C109.615266,63.2657234 108.742303,63.0718085 107.740672,63.0718085 C107.423951,63.0718085 107.079516,63.0935745 106.711328,63.1331489 C106.343139,63.1727234 106.004643,63.2578085 105.701779,63.3884043 C105.398914,63.5229574 105.141578,63.7129149 104.92977,63.9642128 C104.717963,64.2155106 104.613049,64.5518936 104.613049,64.9733617 C104.613049,65.4759574 104.797143,65.8835745 105.167311,66.1981915 C105.5355,66.5147872 106.0185,66.774 106.612352,66.9718723 C107.206205,67.167766 107.885176,67.3458511 108.651246,67.5041489 C109.415336,67.6644255 110.195262,67.8365745 110.987066,68.018617 C111.804602,68.204617 112.602344,68.4282128 113.38227,68.6933617 C114.160217,68.9585106 114.853045,69.306766 115.460754,69.7420851 C116.068463,70.1774043 116.557402,70.7175957 116.92559,71.3646383 C117.295758,72.0116809 117.479852,72.8091064 117.479852,73.7588936 C117.479852,75.1024468 117.20866,76.2303191 116.668254,77.1444894 C116.127848,78.0527234 115.421164,78.7848511 114.55018,79.3388936 C113.679197,79.8909574 112.683504,80.280766 111.561123,80.5063404 C110.438742,80.7299362 109.298545,80.8427234 108.136574,80.8427234 C106.948869,80.8427234 105.786898,80.724 104.652639,80.4865532 C103.518381,80.2491064 102.508832,79.851383 101.623992,79.3012979 C100.739152,78.7452766 100.012672,78.0131489 99.4465328,77.1029362 C98.8784139,76.1927234 98.5676311,75.0529787 98.5161639,73.6797447 L103.860836,73.6797447 C103.860836,74.2872128 103.985545,74.807617 104.236943,75.2429362" id="Fill-29" fill="#3DA5D1" sketch:type="MSShapeGroup"></path>
            <path d="M125.279115,52.0720851 L125.279115,62.7156383 L125.395906,62.7156383 C126.110508,61.530383 127.021082,60.6656809 128.127627,60.1254894 C129.238131,59.5852979 130.320922,59.3142128 131.376,59.3142128 C132.880426,59.3142128 134.11366,59.5180213 135.07768,59.9256383 C136.039721,60.335234 136.799852,60.9031277 137.352135,61.6273404 C137.906398,62.3555106 138.296361,63.2380213 138.520045,64.2827872 C138.74373,65.3235957 138.856561,66.4771915 138.856561,67.7435745 L138.856561,80.3282553 L133.234758,80.3282553 L133.234758,68.7725106 C133.234758,67.0846596 132.973463,65.8242128 132.444934,64.9931489 C131.914426,64.1620851 130.980098,63.7465532 129.634033,63.7465532 C128.103873,63.7465532 126.993369,64.1996809 126.30648,65.1138511 C125.62157,66.0201064 125.279115,67.5199787 125.279115,69.6035745 L125.279115,80.3282553 L119.657311,80.3282553 L119.657311,52.0720851 L125.279115,52.0720851" id="Fill-30" fill="#3DA5D1" sketch:type="MSShapeGroup"></path>
            <path d="M142.184115,52.0720851 L147.805918,52.0720851 L147.805918,56.7022979 L142.184115,56.7022979 L142.184115,52.0720851 Z M142.184115,59.8682553 L147.805918,59.8682553 L147.805918,80.3282553 L142.184115,80.3282553 L142.184115,59.8682553 Z" id="Fill-31" fill="#3DA5D1" sketch:type="MSShapeGroup"></path>
            <path d="M156.474184,59.8682553 L156.474184,62.7156383 L156.592955,62.7156383 C157.307557,61.530383 158.228029,60.6656809 159.364266,60.1254894 C160.498525,59.5852979 161.660496,59.3142128 162.848201,59.3142128 C164.352627,59.3142128 165.585861,59.5180213 166.549881,59.9256383 C167.513902,60.335234 168.272053,60.9031277 168.826316,61.6273404 C169.380578,62.3555106 169.768561,63.2380213 169.992246,64.2827872 C170.21791,65.3235957 170.330742,66.4771915 170.330742,67.7435745 L170.330742,80.3282553 L164.708939,80.3282553 L164.708939,68.7725106 C164.708939,67.0846596 164.445664,65.8242128 163.919115,64.9931489 C163.388607,64.1620851 162.452299,63.7465532 161.106234,63.7465532 C159.576074,63.7465532 158.467549,64.1996809 157.78066,65.1138511 C157.09377,66.0201064 156.751316,67.5199787 156.751316,69.6035745 L156.751316,80.3282553 L151.129512,80.3282553 L151.129512,59.8682553 L156.474184,59.8682553" id="Fill-32" fill="#3DA5D1" sketch:type="MSShapeGroup"></path>
            <path d="M192.83775,81.8320851 C192.614066,82.8867447 192.131066,83.8701702 191.392709,84.780383 C190.652373,85.6905957 189.583439,86.4603191 188.185906,87.0954894 C186.786393,87.7286809 184.913779,88.0452766 182.564102,88.0452766 C181.560492,88.0452766 180.539066,87.9186383 179.493885,87.6693191 C178.452664,87.4180213 177.5025,87.0301915 176.645373,86.5018723 C175.786266,85.9735532 175.073643,85.2948511 174.507504,84.4637872 C173.939385,83.6327234 173.616725,82.6354468 173.537545,81.4759149 L179.119758,81.4759149 C179.383033,82.5305745 179.895725,83.2607234 180.663775,83.6703191 C181.427865,84.0799149 182.312705,84.2857021 183.316316,84.2857021 C184.899922,84.2857021 186.053975,83.8108085 186.780455,82.8590426 C187.504955,81.911234 187.855328,80.7101489 187.827615,79.2597447 L187.827615,76.5686809 L187.748434,76.5686809 C187.142705,77.6490638 186.27766,78.4484681 185.157258,78.9629362 C184.034877,79.4774043 182.85509,79.7346383 181.613939,79.7346383 C180.081799,79.7346383 178.765426,79.4655319 177.654922,78.9233617 C176.546398,78.3831702 175.635824,77.6431277 174.923201,76.7071915 C174.208598,75.7712553 173.689967,74.6750426 173.359389,73.4225106 C173.028811,72.1699787 172.864512,70.844234 172.864512,69.4452766 C172.864512,68.1274468 173.054545,66.8511702 173.43857,65.6263404 C173.820615,64.3995319 174.382795,63.3171702 175.119172,62.381234 C175.857529,61.4452979 176.77602,60.6993191 177.872668,60.1432979 C178.967336,59.591234 180.228283,59.3142128 181.653529,59.3142128 C182.999594,59.3142128 184.181361,59.5635319 185.196848,60.0661277 C186.212336,60.5687234 187.063525,61.4096809 187.748434,62.5988936 L187.827615,62.5988936 L187.827615,59.8682553 L193.174266,59.8682553 L193.174266,79.0222979 C193.174266,79.8414894 193.061434,80.7754468 192.83775,81.8320851 L192.83775,81.8320851 Z M185.137463,75.0252766 C185.743193,74.7086809 186.245988,74.2872128 186.641889,73.7588936 C187.037791,73.2325532 187.332738,72.6290426 187.532668,71.9562766 C187.730619,71.2854894 187.827615,70.5790851 187.827615,69.8410213 C187.827615,68.9961064 187.748434,68.1986809 187.592053,67.446766 C187.433693,66.6928723 187.168439,66.0280213 186.80025,65.4482553 C186.430082,64.8684894 185.941143,64.4054681 185.335414,64.0611702 C184.727705,63.7208298 183.961635,63.5467021 183.039184,63.5467021 C182.247381,63.5467021 181.56643,63.705 181.000291,64.0235745 C180.432172,64.3401702 179.95709,64.7695532 179.573066,65.3097447 C179.19102,65.8519149 178.913889,66.4712553 178.743652,67.167766 C178.571434,67.868234 178.486316,68.6003617 178.486316,69.3661277 C178.486316,70.1061702 178.559557,70.8363191 178.704061,71.5625106 C178.848566,72.2887021 179.099963,72.9416809 179.456275,73.5214468 C179.812586,74.1012128 180.27975,74.5780851 180.861725,74.9441489 C181.441721,75.3161489 182.168201,75.5021489 183.039184,75.5021489 C183.830988,75.5021489 184.529754,75.3418723 185.137463,75.0252766 L185.137463,75.0252766 Z" id="Fill-33" fill="#3DA5D1" sketch:type="MSShapeGroup"></path>
            <path d="M206.23902,66.1605957 C206.318201,64.842766 206.646799,63.7465532 207.228775,62.8739362 C207.80877,62.0052766 208.547127,61.3067872 209.445824,60.7784681 C210.342541,60.2501489 211.35209,59.8761702 212.474471,59.6505957 C213.596852,59.4289787 214.723193,59.3142128 215.85943,59.3142128 C216.888775,59.3142128 217.929996,59.3874255 218.985074,59.5318723 C220.042131,59.6763191 221.006152,59.9612553 221.877135,60.3827234 C222.748119,60.8041915 223.460742,61.3898936 224.015004,62.145766 C224.569266,62.8937234 224.846398,63.891 224.846398,65.1316596 L224.846398,75.7771915 C224.846398,76.7012553 224.899844,77.583766 225.004758,78.4286809 C225.109672,79.271617 225.293766,79.9067872 225.55902,80.3282553 L219.858037,80.3282553 C219.751143,80.0116596 219.666025,79.6871489 219.600701,79.3586809 C219.535377,79.0302128 219.487869,78.6938298 219.462135,78.3495319 C218.565418,79.271617 217.51034,79.9186596 216.294922,80.2886809 C215.081484,80.6567234 213.840332,80.8427234 212.573447,80.8427234 C211.59557,80.8427234 210.684996,80.724 209.839746,80.4865532 C208.996475,80.2491064 208.258119,79.8810638 207.626656,79.3764894 C206.991234,78.8778511 206.496357,78.2446596 206.142025,77.4788936 C205.783734,76.7151064 205.605578,75.8029149 205.605578,74.7462766 C205.605578,73.5887234 205.809467,72.6290426 206.219225,71.8810851 C206.628984,71.1252128 207.155533,70.5276383 207.802832,70.0784681 C208.448152,69.6312766 209.188488,69.2948936 210.019881,69.0693191 C210.851275,68.8457234 211.688607,68.6676383 212.533857,68.5350638 C213.379107,68.4044681 214.2105,68.297617 215.028037,68.2184681 C215.845574,68.1393191 216.572053,68.018617 217.205496,67.8622979 C217.838939,67.704 218.341734,67.4744681 218.709922,67.167766 C219.078111,66.867 219.250328,66.423766 219.224594,65.8420213 C219.224594,65.2365319 219.125619,64.7557021 218.927668,64.3995319 C218.729717,64.0433617 218.466443,63.7663404 218.135865,63.5664894 C217.805287,63.3705957 217.423242,63.2380213 216.98775,63.1727234 C216.552258,63.1074255 216.083115,63.0718085 215.582299,63.0718085 C214.473775,63.0718085 213.602791,63.311234 212.969348,63.7881064 C212.335906,64.2610213 211.965738,65.0505319 211.860824,66.1605957 L206.23902,66.1605957 L206.23902,66.1605957 Z M219.224594,70.3139362 C218.985074,70.5276383 218.690127,70.6918723 218.331836,70.808617 C217.977504,70.9293191 217.59348,71.0282553 217.185701,71.1074043 C216.775943,71.1865532 216.348369,71.2538298 215.89902,71.3032979 C215.449672,71.3587021 215.002303,71.424 214.552955,71.5031489 C214.12934,71.5822979 213.713643,71.6871702 213.305865,71.8197447 C212.896107,71.9542979 212.539795,72.1304043 212.23891,72.3559787 C211.932086,72.5795745 211.688607,72.8605532 211.504512,73.2048511 C211.320418,73.5471702 211.227381,73.9824894 211.227381,74.5108085 C211.227381,75.0134043 211.320418,75.4348723 211.504512,75.7771915 C211.688607,76.1195106 211.940004,76.3905957 212.256725,76.5864894 C212.573447,76.7863404 212.943615,76.9228723 213.36525,77.004 C213.786885,77.0811702 214.222377,77.1227234 214.671725,77.1227234 C215.77827,77.1227234 216.637377,76.9387021 217.245086,76.5686809 C217.852795,76.2006383 218.300164,75.7554255 218.591152,75.2429362 C218.882139,74.7284681 219.060295,74.2060851 219.125619,73.6797447 C219.190943,73.1514255 219.224594,72.7299574 219.224594,72.4133617 L219.224594,70.3139362 L219.224594,70.3139362 Z" id="Fill-34" fill="#3DA5D1" sketch:type="MSShapeGroup"></path>
            <path d="M233.435484,59.8682553 L233.435484,62.7156383 L233.554254,62.7156383 C234.266877,61.530383 235.191307,60.6656809 236.325566,60.1254894 C237.461803,59.5852979 238.623775,59.3142128 239.8095,59.3142128 C241.313926,59.3142128 242.549139,59.5180213 243.51118,59.9256383 C244.475201,60.335234 245.233352,60.9031277 245.789594,61.6273404 C246.341877,62.3555106 246.73184,63.2380213 246.955525,64.2827872 C247.181189,65.3235957 247.29402,66.4771915 247.29402,67.7435745 L247.29402,80.3282553 L241.670238,80.3282553 L241.670238,68.7725106 C241.670238,67.0846596 241.406963,65.8242128 240.878434,64.9931489 C240.349906,64.1620851 239.413598,63.7465532 238.067533,63.7465532 C236.537373,63.7465532 235.428848,64.1996809 234.743939,65.1138511 C234.057049,66.0201064 233.712615,67.5199787 233.712615,69.6035745 L233.712615,80.3282553 L228.090811,80.3282553 L228.090811,59.8682553 L233.435484,59.8682553" id="Fill-35" fill="#3DA5D1" sketch:type="MSShapeGroup"></path>
            <path d="M264.988844,77.7143617 C264.329668,78.8244255 263.464623,79.6218511 262.395689,80.1125745 C261.326754,80.5993404 260.119254,80.8427234 258.773189,80.8427234 C257.243029,80.8427234 255.896963,80.5439362 254.734992,79.9542766 C253.57302,79.3586809 252.616918,78.5533404 251.864705,77.5382553 C251.112492,76.5211915 250.544373,75.3537447 250.162328,74.0359149 C249.778303,72.7161064 249.59025,71.3448511 249.59025,69.9201702 C249.59025,68.5489149 249.778303,67.2231702 250.162328,65.9449149 C250.544373,64.6646809 251.112492,63.5368085 251.864705,62.5593191 C252.616918,61.5838085 253.559164,60.7982553 254.697381,60.2046383 C255.82966,59.6090426 257.149992,59.3142128 258.656398,59.3142128 C259.867857,59.3142128 261.023889,59.5714468 262.120537,60.0839362 C263.213225,60.5984043 264.07827,61.3602128 264.711713,62.3614468 L264.790893,62.3614468 L264.790893,52.0720851 L270.412697,52.0720851 L270.412697,80.3282553 L265.068025,80.3282553 L265.068025,77.7143617 L264.988844,77.7143617 L264.988844,77.7143617 Z M264.751303,67.6050638 C264.594922,66.8274255 264.32175,66.1408085 263.939705,65.5452128 C263.55766,64.9535745 263.062783,64.470766 262.455074,64.1027234 C261.847365,63.7327021 261.083275,63.5467021 260.158844,63.5467021 C259.236393,63.5467021 258.456467,63.7327021 257.823025,64.1027234 C257.189582,64.470766 256.680848,64.9595106 256.298803,65.5669787 C255.916758,66.1724681 255.639627,66.867 255.46741,67.6446383 C255.297172,68.4222766 255.210074,69.2335532 255.210074,70.0784681 C255.210074,70.8719362 255.301131,71.6614468 255.487205,72.4509574 C255.671299,73.2444255 255.968225,73.9508298 256.377984,74.5701702 C256.785762,75.1895106 257.302414,75.6901277 257.92398,76.0720213 C258.541586,76.4558936 259.287861,76.6478298 260.158844,76.6478298 C261.083275,76.6478298 261.855283,76.4638085 262.474869,76.0918085 C263.094455,75.7257447 263.589332,75.2310638 263.9595,74.607766 C264.329668,73.9904043 264.594922,73.2820213 264.751303,72.4925106 C264.909664,71.703 264.988844,70.8838085 264.988844,70.0388936 C264.988844,69.1939787 264.909664,68.3827021 264.751303,67.6050638 L264.751303,67.6050638 Z" id="Fill-36" fill="#3DA5D1" sketch:type="MSShapeGroup"></path>
            <path d="M297.294418,80.3282553 L297.294418,77.4788936 L297.177627,77.4788936 C296.463025,78.6661277 295.540574,79.5248936 294.404336,80.0492553 C293.270078,80.5795532 292.108107,80.8427234 290.920402,80.8427234 C289.417955,80.8427234 288.182742,80.6448511 287.218721,80.2491064 C286.254701,79.851383 285.496549,79.2914043 284.942287,78.5652128 C284.390004,77.8429787 283.998061,76.9584894 283.774377,75.9157021 C283.550693,74.8748936 283.437861,73.7193191 283.437861,72.4509574 L283.437861,59.8682553 L289.059664,59.8682553 L289.059664,71.424 C289.059664,73.1138298 289.324918,74.3722979 289.851467,75.2033617 C290.379996,76.0344255 291.318283,76.4499574 292.664348,76.4499574 C294.194508,76.4499574 295.301053,75.9948511 295.987943,75.0846383 C296.672852,74.1764043 297.017287,72.6765319 297.017287,70.5929362 L297.017287,59.8682553 L302.64107,59.8682553 L302.64107,80.3282553 L297.294418,80.3282553" id="Fill-37" fill="#3DA5D1" sketch:type="MSShapeGroup"></path>
            <path d="M310.539307,75.2429362 C310.788725,75.6782553 311.111385,76.0344255 311.507287,76.3134255 C311.903189,76.5864894 312.360455,76.7922766 312.873148,76.9228723 C313.38782,77.0574255 313.924266,77.1227234 314.476549,77.1227234 C314.872451,77.1227234 315.288148,77.0772128 315.723639,76.9861915 C316.159131,76.8931915 316.553053,76.7447872 316.911344,76.5488936 C317.267656,76.3510213 317.564582,76.0878511 317.802123,75.7554255 C318.037684,75.4289362 318.158434,75.0134043 318.158434,74.5108085 C318.158434,73.6658936 317.598234,73.0327021 316.477832,72.6092553 C315.353471,72.189766 313.78966,71.7682979 311.786398,71.3448511 C310.966881,71.1608298 310.16716,70.9431702 309.391193,70.6918723 C308.611266,70.4425532 307.916459,70.1121064 307.31073,69.7025106 C306.70302,69.2948936 306.216061,68.7804255 305.847873,68.1571277 C305.475725,67.539766 305.291631,66.7799362 305.291631,65.8835745 C305.291631,64.563766 305.548967,63.4814043 306.063639,62.6384681 C306.578311,61.7935532 307.259262,61.1287021 308.102533,60.6399574 C308.947783,60.1512128 309.895967,59.8088936 310.955004,59.6090426 C312.008102,59.4131489 313.090893,59.3142128 314.199418,59.3142128 C315.307943,59.3142128 316.384795,59.4190851 317.426016,59.6308085 C318.469217,59.8405532 319.399586,60.1967234 320.217123,60.6993191 C321.036639,61.2019149 321.715611,61.866766 322.256016,62.6978298 C322.796422,63.5269149 323.121061,64.577617 323.225975,65.8420213 L317.883283,65.8420213 C317.802123,64.7616383 317.394344,64.0314894 316.655988,63.647617 C315.913672,63.2657234 315.044668,63.0718085 314.041057,63.0718085 C313.724336,63.0718085 313.381881,63.0935745 313.013693,63.1331489 C312.641545,63.1727234 312.305029,63.2578085 312.002164,63.3884043 C311.699299,63.5229574 311.441963,63.7129149 311.230156,63.9642128 C311.018348,64.2155106 310.913434,64.5518936 310.913434,64.9733617 C310.913434,65.4759574 311.097529,65.8835745 311.467697,66.1981915 C311.837865,66.5147872 312.318885,66.774 312.912738,66.9718723 C313.50857,67.167766 314.185561,67.3458511 314.951631,67.5041489 C315.717701,67.6644255 316.495648,67.8365745 317.287451,68.018617 C318.104988,68.204617 318.904709,68.4282128 319.682656,68.6933617 C320.460602,68.9585106 321.15343,69.306766 321.763119,69.7420851 C322.368848,70.1774043 322.855807,70.7175957 323.225975,71.3646383 C323.594164,72.0116809 323.780238,72.8091064 323.780238,73.7588936 C323.780238,75.1024468 323.509045,76.2303191 322.968639,77.1444894 C322.428234,78.0527234 321.721549,78.7848511 320.852545,79.3388936 C319.979582,79.8909574 318.98191,80.280766 317.861508,80.5063404 C316.739127,80.7299362 315.596951,80.8427234 314.436959,80.8427234 C313.249254,80.8427234 312.087283,80.724 310.955004,80.4865532 C309.816787,80.2491064 308.809217,79.851383 307.924377,79.3012979 C307.039537,78.7452766 306.315037,78.0131489 305.746918,77.1029362 C305.180779,76.1927234 304.869996,75.0529787 304.816549,73.6797447 L310.161221,73.6797447 C310.161221,74.2872128 310.28791,74.807617 310.539307,75.2429362" id="Fill-38" fill="#3DA5D1" sketch:type="MSShapeGroup"></path>
            <path d="M331.975402,75.4190426 C332.820652,76.2402128 334.03409,76.6478298 335.615717,76.6478298 C336.751955,76.6478298 337.727852,76.3648723 338.547369,75.7969787 C339.364906,75.2310638 339.865721,74.6295319 340.051795,73.9963404 L345.000566,73.9963404 C344.208762,76.4499574 342.993344,78.2031064 341.35827,79.2597447 C339.721217,80.316383 337.741709,80.8427234 335.419746,80.8427234 C333.808426,80.8427234 332.357447,80.5854894 331.064828,80.0710213 C329.77023,79.5545745 328.675561,78.8244255 327.776865,77.8746383 C326.882127,76.9228723 326.189299,75.7910426 325.700361,74.471234 C325.211422,73.1514255 324.967943,71.703 324.967943,70.1180426 C324.967943,68.5865106 325.21934,67.1618298 325.720156,65.8420213 C326.218992,64.5241915 326.933594,63.3844468 327.858025,62.4208085 C328.782455,61.4571702 329.883061,60.6993191 331.161824,60.1432979 C332.442566,59.591234 333.861873,59.3142128 335.419746,59.3142128 C337.161713,59.3142128 338.678016,59.6505957 339.972615,60.3233617 C341.265234,60.9961277 342.32823,61.9004043 343.159623,63.0342128 C343.991016,64.17 344.590807,65.4601277 344.960975,66.9125106 C345.331143,68.3629149 345.461791,69.8805957 345.354898,71.4635745 L330.587766,71.4635745 C330.668926,73.2820213 331.130152,74.6038085 331.975402,75.4190426 L331.975402,75.4190426 Z M338.329623,64.656766 C337.65659,63.9187021 336.633184,63.5467021 335.261385,63.5467021 C334.364668,63.5467021 333.618393,63.7010426 333.024541,64.0037872 C332.430689,64.3065319 331.955607,64.6844681 331.599295,65.1316596 C331.242984,65.5808298 330.991586,66.0557234 330.847082,66.5563404 C330.700598,67.0569574 330.61548,67.5041489 330.587766,67.9038511 L339.735074,67.9038511 C339.471799,66.4771915 339.000676,65.3948298 338.329623,64.656766 L338.329623,64.656766 Z" id="Fill-39" fill="#3DA5D1" sketch:type="MSShapeGroup"></path>
        </g>
    </g>
</svg>