<?xml version="1.0" encoding="UTF-8" standalone="no"?>
<svg width="770px" height="224px" viewBox="0 0 770 224" version="1.1" xmlns="http://www.w3.org/2000/svg" xmlns:xlink="http://www.w3.org/1999/xlink" xmlns:sketch="http://www.bohemiancoding.com/sketch/ns">
    <!-- Generator: Sketch 3.4.4 (17249) - http://www.bohemiancoding.com/sketch -->
    <title>rail_vis_1 copy 3</title>
    <desc>Created with Sketch.</desc>
    <defs>
        <rect id="path-1" x="0" y="0" width="770" height="223.188406"></rect>
    </defs>
    <g id="Page-1" stroke="none" stroke-width="1" fill="none" fill-rule="evenodd" sketch:type="MSPage">
        <g id="Banners-Copy-3" sketch:type="MSArtboardGroup" transform="translate(-54.000000, -942.000000)">
            <g id="rail_vis_1-copy-3" sketch:type="MSLayerGroup" transform="translate(54.000000, 942.000000)">
                <mask id="mask-2" sketch:name="Mask" fill="white">
                    <use xlink:href="#path-1"></use>
                </mask>
                <use id="Mask" fill="#21993E" sketch:type="MSShapeGroup" xlink:href="#path-1"></use>
                <path d="M847.6472,117.369333 C848.310259,106.128706 848.08211,95.3109994 846.95087,84.9162116 C845.824383,74.5237998 843.851843,64.3903668 841.052262,54.5301681 C838.243175,44.6652175 834.725875,34.8382822 830.500361,25.0303545 L732.206076,67.4197049 C727.163028,56.345395 721.226396,47.138583 714.396179,39.8206525 C707.523184,32.495594 699.682931,26.1636833 690.854032,20.8177925 L766.107623,-106.350259 C753.029445,-114.055469 740.2317,-120.346989 727.709636,-125.224817 C715.187571,-130.102646 702.781958,-133.816258 690.485666,-136.360902 C678.182245,-138.905546 665.897836,-140.397644 653.625309,-140.827691 C641.3409,-141.260114 628.909145,-140.877586 616.318161,-139.691986 L629.921557,4.59479577 C619.913887,6.35062392 610.875851,9.06158456 602.840721,12.7371815 C592.374376,17.5722428 582.566337,24.1512524 573.445121,32.4338193 L533.659226,-12.704507 C519.114714,0.218293141 508.037595,13.6709304 500.434998,27.6676606 C492.820518,41.6620149 487.21185,56.5592307 483.60424,72.3474283 L504.812611,77.1254667 C501.276298,93.7381195 500.301911,108.834915 501.872813,122.411102 C503.446092,135.973033 507.091726,149.22609 512.807339,162.19641 L428,198.873973 C433.568267,211.706487 439.725919,223.353401 446.487216,233.812339 C453.253266,244.283157 460.532651,253.832106 468.325373,262.478194 C476.118094,271.117153 484.507331,278.993433 493.507342,286.092776 C502.50973,293.196871 512.011194,299.728361 522.02837,305.684872 L536.803408,280.887066 C547.438488,287.085923 557.819277,292.187091 567.952905,296.181066 C578.081779,300.177416 588.163122,303.240018 598.194558,305.371246 C608.22124,307.500099 618.207521,308.735593 628.143895,309.072978 C638.077891,309.412739 648.173494,309.096738 658.442585,308.132102 L649.858471,217.102272 C663.314521,215.840642 674.990532,212.870703 684.879375,208.216214 C694.744451,203.556973 703.920328,197.495921 712.390367,190.016426 L788.252356,276.092396 C798.592744,267.016261 807.626026,257.804697 815.364087,248.452952 C823.102148,239.113087 829.785018,229.478604 835.415075,219.55663 C841.035626,209.639409 845.741204,199.482216 849.524678,189.096932 C853.305776,178.702145 856.459463,167.863054 859,156.563029 L842.551868,152.839913 C845.282529,140.432694 846.981765,128.607583 847.6472,117.369333 Z" id="Fill-7-Copy" fill="#000000" sketch:type="MSShapeGroup" mask="url(#mask-2)"></path>
                <text id="“The-ODI-inspired-us" sketch:type="MSTextLayer" mask="url(#mask-2)" font-family="Helvetica Neue" font-size="32" font-weight="bold" letter-spacing="0.564705908" fill="#FFFFFF">
                    <tspan x="27" y="48">“The ODI inspired us to use</tspan>
                    <tspan x="27" y="86.9282227">and benefit from open data”</tspan>
                </text>
                <text id="theodi.org/summer-sh" sketch:type="MSTextLayer" mask="url(#mask-2)" font-family="Helvetica Neue" font-size="15" font-style="italic" font-weight="normal" letter-spacing="0.264705896" fill="#FFFFFF">
                    <tspan x="27" y="195">theodi.org/summer-showcase</tspan>
                </text>
            </g>
            <g id="Group" sketch:type="MSLayerGroup" transform="translate(628.000000, 1009.000000)" fill="#FFFFFF">
                <path d="M23.2929111,39.907041 L15.3334889,39.907041 C14.0190889,39.907041 12.9532,40.969929 12.9532,42.2806285 L12.9532,90.8505004 C12.9532,92.1611999 14.0190889,93.2240879 15.3334889,93.2240879 L63.3314667,93.2240879 C64.6458667,93.2240879 65.7117556,92.1611999 65.7117556,90.8505004 L65.7117556,42.2806285 C65.7117556,40.969929 64.6458667,39.907041 63.3314667,39.907041 L45.1395111,39.907041 L45.1395111,27.4283833 L68.0402222,27.4283833 C73.6652889,27.4283833 78.2256444,31.9758997 78.2256444,37.5851298 L78.2256444,95.5459991 C78.2256444,101.155229 73.6652889,105.702746 68.0402222,105.702746 L10.6247333,105.702746 C4.99966667,105.702746 0.439311111,101.155229 0.439311111,95.5459991 L0.439311111,37.5851298 C0.439311111,31.9758997 4.99966667,27.4283833 10.6247333,27.4283833 L23.2929111,27.4283833 L23.2929111,39.907041 L23.2929111,39.907041 Z" id="Shape" sketch:type="MSShapeGroup"></path>
                <path d="M82.7070889,65.7945302 L90.6665111,65.7945302 C91.9809111,65.7945302 93.0468,64.7316422 93.0468,63.4209427 L93.0468,14.8522452 C93.0468,13.5415457 91.9809111,12.4786577 90.6665111,12.4786577 L42.6685333,12.4786577 C41.3541333,12.4786577 40.2882444,13.5415457 40.2882444,14.8522452 L40.2882444,63.4209427 C40.2882444,64.7316422 41.3541333,65.7945302 42.6685333,65.7945302 L60.8604889,65.7945302 L60.8604889,78.2731879 L37.9597778,78.2731879 C32.3347111,78.2731879 27.7743556,73.7256714 27.7743556,68.1164414 L27.7743556,10.1567465 C27.7743556,4.54751648 32.3347111,0 37.9597778,0 L95.3752667,0 C101.000333,0 105.560689,4.54751648 105.560689,10.1567465 L105.560689,68.1176158 C105.560689,73.7268459 101.000333,78.2743624 95.3752667,78.2743624 L82.7070889,78.2743624 L82.7070889,65.7945302 L82.7070889,65.7945302 Z" id="Shape" sketch:type="MSShapeGroup"></path>
                <path d="M23.2929111,27.4283833 L23.2929111,39.907041 L15.3334889,39.907041" id="Shape" sketch:type="MSShapeGroup"></path>
            </g>
            <path d="M292.026,1068.722 L292.134,1070 L293.214,1070 L294.618,1063.232 L289.02,1063.232 L288.732,1064.672 L292.836,1064.672 C292.679999,1065.296 292.479001,1065.866 292.233,1066.382 C291.986999,1066.898 291.678002,1067.339 291.306,1067.705 C290.933998,1068.071 290.493003,1068.356 289.983,1068.56 C289.472997,1068.764 288.876003,1068.866 288.192,1068.866 C287.543997,1068.866 286.983002,1068.764 286.509,1068.56 C286.034998,1068.356 285.642002,1068.071 285.33,1067.705 C285.017998,1067.339 284.784001,1066.898 284.628,1066.382 C284.471999,1065.866 284.394,1065.296 284.394,1064.672 C284.394,1063.892 284.504999,1063.121 284.727,1062.359 C284.949001,1061.597 285.281998,1060.916 285.726,1060.316 C286.170002,1059.716 286.724997,1059.227 287.391,1058.849 C288.057003,1058.471 288.839995,1058.282 289.74,1058.282 C290.208002,1058.282 290.651998,1058.339 291.072,1058.453 C291.492002,1058.567 291.857998,1058.741 292.17,1058.975 C292.482002,1059.209 292.730999,1059.506 292.917,1059.866 C293.103001,1060.226 293.196,1060.652 293.196,1061.144 L294.906,1061.144 C294.906,1060.4 294.771001,1059.758 294.501,1059.218 C294.230999,1058.678 293.862002,1058.231 293.394,1057.877 C292.925998,1057.523 292.377003,1057.262 291.747,1057.094 C291.116997,1056.926 290.448004,1056.842 289.74,1056.842 C288.647995,1056.842 287.664004,1057.055 286.788,1057.481 C285.911996,1057.907 285.171003,1058.48 284.565,1059.2 C283.958997,1059.92 283.494002,1060.751 283.17,1061.693 C282.845998,1062.635 282.684,1063.62799 282.684,1064.672 C282.684,1066.46001 283.160995,1067.843 284.115,1068.821 C285.069005,1069.799 286.427991,1070.288 288.192,1070.288 C288.888003,1070.288 289.574997,1070.162 290.253,1069.91 C290.931003,1069.658 291.521997,1069.262 292.026,1068.722 L292.026,1068.722 Z M297.743647,1065.806 L304.745647,1065.806 C304.769647,1065.674 304.799647,1065.5 304.835647,1065.284 C304.871647,1065.068 304.889647,1064.84 304.889647,1064.6 C304.889647,1063.29199 304.57465,1062.278 303.944647,1061.558 C303.314644,1060.838 302.315654,1060.478 300.947647,1060.478 C300.311644,1060.478 299.70265,1060.622 299.120647,1060.91 C298.538644,1061.198 298.028649,1061.606 297.590647,1062.134 C297.152645,1062.662 296.804648,1063.295 296.546647,1064.033 C296.288646,1064.771 296.159647,1065.584 296.159647,1066.472 C296.159647,1066.88 296.219646,1067.303 296.339647,1067.741 C296.459648,1068.179 296.669646,1068.581 296.969647,1068.947 C297.269649,1069.313 297.674645,1069.613 298.184647,1069.847 C298.69465,1070.081 299.333643,1070.198 300.101647,1070.198 C300.60565,1070.198 301.085645,1070.132 301.541647,1070 C301.997649,1069.868 302.411645,1069.673 302.783647,1069.415 C303.155649,1069.157 303.473646,1068.833 303.737647,1068.443 C304.001648,1068.053 304.193646,1067.6 304.313647,1067.084 L302.783647,1067.084 C302.567646,1067.66 302.237649,1068.101 301.793647,1068.407 C301.349645,1068.713 300.78565,1068.866 300.101647,1068.866 C299.789646,1068.866 299.489649,1068.815 299.201647,1068.713 C298.913646,1068.611 298.655648,1068.467 298.427647,1068.281 C298.199646,1068.095 298.019648,1067.861 297.887647,1067.579 C297.755646,1067.297 297.689647,1066.976 297.689647,1066.616 C297.689647,1066.34 297.707647,1066.07 297.743647,1065.806 L297.743647,1065.806 Z M303.359647,1064.456 L297.959647,1064.456 C298.067648,1064.096 298.211646,1063.757 298.391647,1063.439 C298.571648,1063.121 298.793646,1062.842 299.057647,1062.602 C299.321648,1062.362 299.630645,1062.173 299.984647,1062.035 C300.338649,1061.897 300.737645,1061.828 301.181647,1061.828 C301.601649,1061.828 301.955646,1061.903 302.243647,1062.053 C302.531649,1062.203 302.762646,1062.401 302.936647,1062.647 C303.110648,1062.893 303.230647,1063.175 303.296647,1063.493 C303.362647,1063.811 303.383647,1064.132 303.359647,1064.456 L303.359647,1064.456 Z M306.269294,1066.328 C306.269294,1066.892 306.359293,1067.411 306.539294,1067.885 C306.719295,1068.359 306.977292,1068.767 307.313294,1069.109 C307.649296,1069.451 308.060292,1069.718 308.546294,1069.91 C309.032297,1070.102 309.581291,1070.198 310.193294,1070.198 C311.009298,1070.198 311.735291,1070.036 312.371294,1069.712 C313.007297,1069.388 313.547292,1068.953 313.991294,1068.407 C314.435296,1067.861 314.771293,1067.234 314.999294,1066.526 C315.227295,1065.818 315.341294,1065.086 315.341294,1064.33 C315.341294,1063.06999 315.011297,1062.113 314.351294,1061.459 C313.691291,1060.805 312.7313,1060.478 311.471294,1060.478 C310.65529,1060.478 309.926297,1060.64 309.284294,1060.964 C308.642291,1061.288 308.096296,1061.72 307.646294,1062.26 C307.196292,1062.8 306.854295,1063.424 306.620294,1064.132 C306.386293,1064.84 306.269294,1065.572 306.269294,1066.328 L306.269294,1066.328 Z M307.799294,1066.31 C307.799294,1065.83 307.874293,1065.326 308.024294,1064.798 C308.174295,1064.27 308.399293,1063.787 308.699294,1063.349 C308.999296,1062.911 309.371292,1062.548 309.815294,1062.26 C310.259296,1061.972 310.775291,1061.828 311.363294,1061.828 C311.783296,1061.828 312.146293,1061.897 312.452294,1062.035 C312.758296,1062.173 313.013293,1062.359 313.217294,1062.593 C313.421295,1062.827 313.571294,1063.106 313.667294,1063.43 C313.763295,1063.754 313.811294,1064.096 313.811294,1064.456 C313.811294,1064.912 313.736295,1065.398 313.586294,1065.914 C313.436293,1066.43 313.214296,1066.907 312.920294,1067.345 C312.626293,1067.783 312.266296,1068.146 311.840294,1068.434 C311.414292,1068.722 310.919297,1068.866 310.355294,1068.866 C309.51529,1068.866 308.879296,1068.632 308.447294,1068.164 C308.015292,1067.696 307.799294,1067.078 307.799294,1066.31 L307.799294,1066.31 Z M318.466941,1060.694 L316.540941,1070 L318.052941,1070 L318.934941,1065.878 C319.006942,1065.53 319.102941,1065.155 319.222941,1064.753 C319.342942,1064.351 319.50494,1064 319.708941,1063.7 C319.948942,1063.328 320.23394,1063.01 320.563941,1062.746 C320.893943,1062.482 321.268939,1062.296 321.688941,1062.188 C321.868942,1062.14 322.018941,1062.113 322.138941,1062.107 C322.258942,1062.101 322.41494,1062.098 322.606941,1062.098 L322.822941,1062.098 C322.930942,1062.098 323.008941,1062.104 323.056941,1062.116 L323.416941,1060.478 C323.320941,1060.454 323.230942,1060.448 323.146941,1060.46 C323.062941,1060.472 322.972942,1060.478 322.876941,1060.478 C322.096937,1060.478 321.427944,1060.688 320.869941,1061.108 C320.311938,1061.528 319.852943,1062.056 319.492941,1062.692 L319.456941,1062.692 L319.906941,1060.694 L318.466941,1060.694 Z M330.682588,1068.65 L332.356588,1060.694 L330.916588,1060.694 L330.628588,1062.404 L330.592588,1062.404 L330.592588,1062.368 C330.520588,1062.08 330.391589,1061.819 330.205588,1061.585 C330.019587,1061.351 329.79159,1061.153 329.521588,1060.991 C329.251587,1060.829 328.95759,1060.703 328.639588,1060.613 C328.321587,1060.523 327.98859,1060.478 327.640588,1060.478 C326.884584,1060.478 326.206591,1060.649 325.606588,1060.991 C325.006585,1061.333 324.49959,1061.777 324.085588,1062.323 C323.671586,1062.869 323.353589,1063.484 323.131588,1064.168 C322.909587,1064.852 322.798588,1065.536 322.798588,1066.22 C322.798588,1066.784 322.873588,1067.3 323.023588,1067.768 C323.173589,1068.236 323.392587,1068.641 323.680588,1068.983 C323.96859,1069.325 324.331586,1069.589 324.769588,1069.775 C325.20759,1069.961 325.714585,1070.054 326.290588,1070.054 C326.878591,1070.054 327.424586,1069.946 327.928588,1069.73 C328.432591,1069.514 328.852587,1069.154 329.188588,1068.65 L329.224588,1068.686 C329.104588,1069.142 328.975589,1069.595 328.837588,1070.045 C328.699588,1070.495 328.510589,1070.894 328.270588,1071.242 C328.030587,1071.59 327.72159,1071.872 327.343588,1072.088 C326.965586,1072.304 326.482591,1072.412 325.894588,1072.412 C325.606587,1072.412 325.32459,1072.391 325.048588,1072.349 C324.772587,1072.307 324.529589,1072.229 324.319588,1072.115 C324.109587,1072.001 323.935589,1071.845 323.797588,1071.647 C323.659588,1071.449 323.578588,1071.194 323.554588,1070.882 L322.042588,1070.882 C322.054588,1071.398 322.165587,1071.839 322.375588,1072.205 C322.585589,1072.571 322.858587,1072.868 323.194588,1073.096 C323.53059,1073.324 323.917586,1073.492 324.355588,1073.6 C324.79359,1073.708 325.252586,1073.762 325.732588,1073.762 C326.740593,1073.762 327.598585,1073.564 328.306588,1073.168 C329.014592,1072.772 329.566586,1072.106 329.962588,1071.17 C330.094589,1070.846 330.220588,1070.465 330.340588,1070.027 C330.460589,1069.589 330.574588,1069.13 330.682588,1068.65 L330.682588,1068.65 Z M324.328588,1066.22 C324.328588,1065.788 324.400588,1065.317 324.544588,1064.807 C324.688589,1064.297 324.898587,1063.823 325.174588,1063.385 C325.45059,1062.947 325.792586,1062.578 326.200588,1062.278 C326.60859,1061.978 327.082586,1061.828 327.622588,1061.828 C328.426592,1061.828 329.023586,1062.05 329.413588,1062.494 C329.80359,1062.938 329.998588,1063.526 329.998588,1064.258 C329.998588,1064.726 329.929589,1065.221 329.791588,1065.743 C329.653588,1066.265 329.44659,1066.748 329.170588,1067.192 C328.894587,1067.636 328.54359,1068.002 328.117588,1068.29 C327.691586,1068.578 327.190591,1068.722 326.614588,1068.722 C326.230586,1068.722 325.89459,1068.653 325.606588,1068.515 C325.318587,1068.377 325.081589,1068.194 324.895588,1067.966 C324.709587,1067.738 324.568589,1067.474 324.472588,1067.174 C324.376588,1066.874 324.328588,1066.556 324.328588,1066.22 L324.328588,1066.22 Z M334.834235,1065.806 L341.836235,1065.806 C341.860235,1065.674 341.890235,1065.5 341.926235,1065.284 C341.962236,1065.068 341.980235,1064.84 341.980235,1064.6 C341.980235,1063.29199 341.665238,1062.278 341.035235,1061.558 C340.405232,1060.838 339.406242,1060.478 338.038235,1060.478 C337.402232,1060.478 336.793238,1060.622 336.211235,1060.91 C335.629232,1061.198 335.119238,1061.606 334.681235,1062.134 C334.243233,1062.662 333.895237,1063.295 333.637235,1064.033 C333.379234,1064.771 333.250235,1065.584 333.250235,1066.472 C333.250235,1066.88 333.310235,1067.303 333.430235,1067.741 C333.550236,1068.179 333.760234,1068.581 334.060235,1068.947 C334.360237,1069.313 334.765233,1069.613 335.275235,1069.847 C335.785238,1070.081 336.424232,1070.198 337.192235,1070.198 C337.696238,1070.198 338.176233,1070.132 338.632235,1070 C339.088238,1069.868 339.502233,1069.673 339.874235,1069.415 C340.246237,1069.157 340.564234,1068.833 340.828235,1068.443 C341.092237,1068.053 341.284235,1067.6 341.404235,1067.084 L339.874235,1067.084 C339.658234,1067.66 339.328238,1068.101 338.884235,1068.407 C338.440233,1068.713 337.876239,1068.866 337.192235,1068.866 C336.880234,1068.866 336.580237,1068.815 336.292235,1068.713 C336.004234,1068.611 335.746236,1068.467 335.518235,1068.281 C335.290234,1068.095 335.110236,1067.861 334.978235,1067.579 C334.846235,1067.297 334.780235,1066.976 334.780235,1066.616 C334.780235,1066.34 334.798235,1066.07 334.834235,1065.806 L334.834235,1065.806 Z M340.450235,1064.456 L335.050235,1064.456 C335.158236,1064.096 335.302234,1063.757 335.482235,1063.439 C335.662236,1063.121 335.884234,1062.842 336.148235,1062.602 C336.412237,1062.362 336.721234,1062.173 337.075235,1062.035 C337.429237,1061.897 337.828233,1061.828 338.272235,1061.828 C338.692237,1061.828 339.046234,1061.903 339.334235,1062.053 C339.622237,1062.203 339.853234,1062.401 340.027235,1062.647 C340.201236,1062.893 340.321235,1063.175 340.387235,1063.493 C340.453236,1063.811 340.474235,1064.132 340.450235,1064.456 L340.450235,1064.456 Z M358.401529,1068.722 L358.509529,1070 L359.589529,1070 L360.993529,1063.232 L355.395529,1063.232 L355.107529,1064.672 L359.211529,1064.672 C359.055529,1065.296 358.854531,1065.866 358.608529,1066.382 C358.362528,1066.898 358.053531,1067.339 357.681529,1067.705 C357.309528,1068.071 356.868532,1068.356 356.358529,1068.56 C355.848527,1068.764 355.251533,1068.866 354.567529,1068.866 C353.919526,1068.866 353.358532,1068.764 352.884529,1068.56 C352.410527,1068.356 352.017531,1068.071 351.705529,1067.705 C351.393528,1067.339 351.15953,1066.898 351.003529,1066.382 C350.847529,1065.866 350.769529,1065.296 350.769529,1064.672 C350.769529,1063.892 350.880528,1063.121 351.102529,1062.359 C351.324531,1061.597 351.657527,1060.916 352.101529,1060.316 C352.545532,1059.716 353.100526,1059.227 353.766529,1058.849 C354.432533,1058.471 355.215525,1058.282 356.115529,1058.282 C356.583532,1058.282 357.027527,1058.339 357.447529,1058.453 C357.867532,1058.567 358.233528,1058.741 358.545529,1058.975 C358.857531,1059.209 359.106529,1059.506 359.292529,1059.866 C359.47853,1060.226 359.571529,1060.652 359.571529,1061.144 L361.281529,1061.144 C361.281529,1060.4 361.146531,1059.758 360.876529,1059.218 C360.606528,1058.678 360.237532,1058.231 359.769529,1057.877 C359.301527,1057.523 358.752533,1057.262 358.122529,1057.094 C357.492526,1056.926 356.823533,1056.842 356.115529,1056.842 C355.023524,1056.842 354.039534,1057.055 353.163529,1057.481 C352.287525,1057.907 351.546533,1058.48 350.940529,1059.2 C350.334526,1059.92 349.869531,1060.751 349.545529,1061.693 C349.221528,1062.635 349.059529,1063.62799 349.059529,1064.672 C349.059529,1066.46001 349.536525,1067.843 350.490529,1068.821 C351.444534,1069.799 352.803521,1070.288 354.567529,1070.288 C355.263533,1070.288 355.950526,1070.162 356.628529,1069.91 C357.306533,1069.658 357.897527,1069.262 358.401529,1068.722 L358.401529,1068.722 Z M362.661177,1066.328 C362.661177,1066.892 362.751176,1067.411 362.931177,1067.885 C363.111177,1068.359 363.369175,1068.767 363.705177,1069.109 C364.041178,1069.451 364.452174,1069.718 364.938177,1069.91 C365.424179,1070.102 365.973173,1070.198 366.585177,1070.198 C367.401181,1070.198 368.127173,1070.036 368.763177,1069.712 C369.39918,1069.388 369.939174,1068.953 370.383177,1068.407 C370.827179,1067.861 371.163175,1067.234 371.391177,1066.526 C371.619178,1065.818 371.733177,1065.086 371.733177,1064.33 C371.733177,1063.06999 371.40318,1062.113 370.743177,1061.459 C370.083173,1060.805 369.123183,1060.478 367.863177,1060.478 C367.047172,1060.478 366.31818,1060.64 365.676177,1060.964 C365.034173,1061.288 364.488179,1061.72 364.038177,1062.26 C363.588174,1062.8 363.246178,1063.424 363.012177,1064.132 C362.778175,1064.84 362.661177,1065.572 362.661177,1066.328 L362.661177,1066.328 Z M364.191177,1066.31 C364.191177,1065.83 364.266176,1065.326 364.416177,1064.798 C364.566177,1064.27 364.791175,1063.787 365.091177,1063.349 C365.391178,1062.911 365.763174,1062.548 366.207177,1062.26 C366.651179,1061.972 367.167174,1061.828 367.755177,1061.828 C368.175179,1061.828 368.538175,1061.897 368.844177,1062.035 C369.150178,1062.173 369.405176,1062.359 369.609177,1062.593 C369.813178,1062.827 369.963176,1063.106 370.059177,1063.43 C370.155177,1063.754 370.203177,1064.096 370.203177,1064.456 C370.203177,1064.912 370.128177,1065.398 369.978177,1065.914 C369.828176,1066.43 369.606178,1066.907 369.312177,1067.345 C369.018175,1067.783 368.658179,1068.146 368.232177,1068.434 C367.806174,1068.722 367.311179,1068.866 366.747177,1068.866 C365.907172,1068.866 365.271179,1068.632 364.839177,1068.164 C364.407174,1067.696 364.191177,1067.078 364.191177,1066.31 L364.191177,1066.31 Z M375.614824,1057.148 L372.932824,1070 L374.444824,1070 L377.144824,1057.148 L375.614824,1057.148 Z M385.508471,1070 L388.226471,1057.148 L386.714471,1057.148 L385.724471,1062.116 L385.688471,1062.116 C385.59247,1061.804 385.442472,1061.543 385.238471,1061.333 C385.03447,1061.123 384.797472,1060.955 384.527471,1060.829 C384.257469,1060.703 383.972472,1060.613 383.672471,1060.559 C383.372469,1060.505 383.078472,1060.478 382.790471,1060.478 C381.974467,1060.478 381.245474,1060.655 380.603471,1061.009 C379.961467,1061.363 379.421473,1061.822 378.983471,1062.386 C378.545469,1062.95 378.209472,1063.583 377.975471,1064.285 C377.74147,1064.987 377.624471,1065.692 377.624471,1066.4 C377.624471,1066.964 377.70247,1067.48 377.858471,1067.948 C378.014471,1068.416 378.248469,1068.815 378.560471,1069.145 C378.872472,1069.475 379.256468,1069.733 379.712471,1069.919 C380.168473,1070.105 380.690468,1070.198 381.278471,1070.198 C381.902474,1070.198 382.457468,1070.093 382.943471,1069.883 C383.429473,1069.673 383.900468,1069.268 384.356471,1068.668 L384.392471,1068.668 L384.068471,1070 L385.508471,1070 Z M379.154471,1066.4 C379.154471,1065.884 379.23247,1065.356 379.388471,1064.816 C379.544471,1064.276 379.778469,1063.784 380.090471,1063.34 C380.402472,1062.896 380.786468,1062.533 381.242471,1062.251 C381.698473,1061.969 382.232468,1061.828 382.844471,1061.828 C383.600474,1061.828 384.179469,1062.056 384.581471,1062.512 C384.983473,1062.968 385.184471,1063.544 385.184471,1064.24 C385.184471,1064.72 385.103472,1065.233 384.941471,1065.779 C384.77947,1066.325 384.545472,1066.826 384.239471,1067.282 C383.933469,1067.738 383.552473,1068.116 383.096471,1068.416 C382.640468,1068.716 382.124474,1068.866 381.548471,1068.866 C380.708466,1068.866 380.099473,1068.644 379.721471,1068.2 C379.343469,1067.756 379.154471,1067.156 379.154471,1066.4 L379.154471,1066.4 Z M390.938118,1057.148 L388.238118,1070 L389.588118,1070 L389.930118,1068.272 L389.966118,1068.272 C390.014118,1068.512 390.125117,1068.746 390.299118,1068.974 C390.473119,1069.202 390.695116,1069.406 390.965118,1069.586 C391.235119,1069.766 391.550116,1069.913 391.910118,1070.027 C392.27012,1070.141 392.666116,1070.198 393.098118,1070.198 C393.890122,1070.198 394.589115,1070.036 395.195118,1069.712 C395.801121,1069.388 396.314116,1068.962 396.734118,1068.434 C397.15412,1067.906 397.472117,1067.3 397.688118,1066.616 C397.904119,1065.932 398.012118,1065.224 398.012118,1064.492 C398.012118,1063.892 397.937119,1063.346 397.787118,1062.854 C397.637117,1062.362 397.412119,1061.942 397.112118,1061.594 C396.812116,1061.246 396.43412,1060.973 395.978118,1060.775 C395.522115,1060.577 394.982121,1060.478 394.358118,1060.478 C393.782115,1060.478 393.25112,1060.601 392.765118,1060.847 C392.279115,1061.093 391.86212,1061.438 391.514118,1061.882 L391.478118,1061.846 L392.468118,1057.148 L390.938118,1057.148 Z M396.482118,1064.492 C396.482118,1064.936 396.410118,1065.416 396.266118,1065.932 C396.122117,1066.448 395.906119,1066.922 395.618118,1067.354 C395.330116,1067.786 394.97612,1068.146 394.556118,1068.434 C394.136116,1068.722 393.650121,1068.866 393.098118,1068.866 C392.342114,1068.866 391.73012,1068.662 391.262118,1068.254 C390.794115,1067.846 390.560118,1067.276 390.560118,1066.544 C390.560118,1066.052 390.632117,1065.53 390.776118,1064.978 C390.920118,1064.426 391.145116,1063.916 391.451118,1063.448 C391.757119,1062.98 392.150115,1062.593 392.630118,1062.287 C393.11012,1061.981 393.686114,1061.828 394.358118,1061.828 C394.71812,1061.828 395.030116,1061.897 395.294118,1062.035 C395.558119,1062.173 395.777117,1062.362 395.951118,1062.602 C396.125119,1062.842 396.257117,1063.124 396.347118,1063.448 C396.437118,1063.772 396.482118,1064.12 396.482118,1064.492 L396.482118,1064.492 Z M401.065765,1065.806 L408.067765,1065.806 C408.091765,1065.674 408.121765,1065.5 408.157765,1065.284 C408.193765,1065.068 408.211765,1064.84 408.211765,1064.6 C408.211765,1063.29199 407.896768,1062.278 407.266765,1061.558 C406.636762,1060.838 405.637772,1060.478 404.269765,1060.478 C403.633762,1060.478 403.024768,1060.622 402.442765,1060.91 C401.860762,1061.198 401.350767,1061.606 400.912765,1062.134 C400.474763,1062.662 400.126766,1063.295 399.868765,1064.033 C399.610764,1064.771 399.481765,1065.584 399.481765,1066.472 C399.481765,1066.88 399.541764,1067.303 399.661765,1067.741 C399.781765,1068.179 399.991763,1068.581 400.291765,1068.947 C400.591766,1069.313 400.996762,1069.613 401.506765,1069.847 C402.016767,1070.081 402.655761,1070.198 403.423765,1070.198 C403.927767,1070.198 404.407763,1070.132 404.863765,1070 C405.319767,1069.868 405.733763,1069.673 406.105765,1069.415 C406.477767,1069.157 406.795764,1068.833 407.059765,1068.443 C407.323766,1068.053 407.515764,1067.6 407.635765,1067.084 L406.105765,1067.084 C405.889764,1067.66 405.559767,1068.101 405.115765,1068.407 C404.671763,1068.713 404.107768,1068.866 403.423765,1068.866 C403.111763,1068.866 402.811766,1068.815 402.523765,1068.713 C402.235763,1068.611 401.977766,1068.467 401.749765,1068.281 C401.521764,1068.095 401.341765,1067.861 401.209765,1067.579 C401.077764,1067.297 401.011765,1066.976 401.011765,1066.616 C401.011765,1066.34 401.029765,1066.07 401.065765,1065.806 L401.065765,1065.806 Z M406.681765,1064.456 L401.281765,1064.456 C401.389765,1064.096 401.533764,1063.757 401.713765,1063.439 C401.893766,1063.121 402.115764,1062.842 402.379765,1062.602 C402.643766,1062.362 402.952763,1062.173 403.306765,1062.035 C403.660767,1061.897 404.059763,1061.828 404.503765,1061.828 C404.923767,1061.828 405.277763,1061.903 405.565765,1062.053 C405.853766,1062.203 406.084764,1062.401 406.258765,1062.647 C406.432766,1062.893 406.552765,1063.175 406.618765,1063.493 C406.684765,1063.811 406.705765,1064.132 406.681765,1064.456 L406.681765,1064.456 Z M411.139412,1060.694 L409.213412,1070 L410.725412,1070 L411.607412,1065.878 C411.679412,1065.53 411.775411,1065.155 411.895412,1064.753 C412.015413,1064.351 412.177411,1064 412.381412,1063.7 C412.621413,1063.328 412.90641,1063.01 413.236412,1062.746 C413.566414,1062.482 413.94141,1062.296 414.361412,1062.188 C414.541413,1062.14 414.691411,1062.113 414.811412,1062.107 C414.931413,1062.101 415.087411,1062.098 415.279412,1062.098 L415.495412,1062.098 C415.603412,1062.098 415.681412,1062.104 415.729412,1062.116 L416.089412,1060.478 C415.993411,1060.454 415.903412,1060.448 415.819412,1060.46 C415.735411,1060.472 415.645412,1060.478 415.549412,1060.478 C414.769408,1060.478 414.100415,1060.688 413.542412,1061.108 C412.984409,1061.528 412.525414,1062.056 412.165412,1062.692 L412.129412,1062.692 L412.579412,1060.694 L411.139412,1060.694 Z M423.355059,1068.65 L425.029059,1060.694 L423.589059,1060.694 L423.301059,1062.404 L423.265059,1062.404 L423.265059,1062.368 C423.193059,1062.08 423.06406,1061.819 422.878059,1061.585 C422.692058,1061.351 422.46406,1061.153 422.194059,1060.991 C421.924058,1060.829 421.630061,1060.703 421.312059,1060.613 C420.994057,1060.523 420.661061,1060.478 420.313059,1060.478 C419.557055,1060.478 418.879062,1060.649 418.279059,1060.991 C417.679056,1061.333 417.172061,1061.777 416.758059,1062.323 C416.344057,1062.869 416.02606,1063.484 415.804059,1064.168 C415.582058,1064.852 415.471059,1065.536 415.471059,1066.22 C415.471059,1066.784 415.546058,1067.3 415.696059,1067.768 C415.84606,1068.236 416.065058,1068.641 416.353059,1068.983 C416.64106,1069.325 417.004057,1069.589 417.442059,1069.775 C417.880061,1069.961 418.387056,1070.054 418.963059,1070.054 C419.551062,1070.054 420.097056,1069.946 420.601059,1069.73 C421.105061,1069.514 421.525057,1069.154 421.861059,1068.65 L421.897059,1068.686 C421.777058,1069.142 421.64806,1069.595 421.510059,1070.045 C421.372058,1070.495 421.18306,1070.894 420.943059,1071.242 C420.703058,1071.59 420.394061,1071.872 420.016059,1072.088 C419.638057,1072.304 419.155062,1072.412 418.567059,1072.412 C418.279058,1072.412 417.99706,1072.391 417.721059,1072.349 C417.445058,1072.307 417.20206,1072.229 416.992059,1072.115 C416.782058,1072.001 416.60806,1071.845 416.470059,1071.647 C416.332058,1071.449 416.251059,1071.194 416.227059,1070.882 L414.715059,1070.882 C414.727059,1071.398 414.838058,1071.839 415.048059,1072.205 C415.25806,1072.571 415.531057,1072.868 415.867059,1073.096 C416.203061,1073.324 416.590057,1073.492 417.028059,1073.6 C417.466061,1073.708 417.925057,1073.762 418.405059,1073.762 C419.413064,1073.762 420.271055,1073.564 420.979059,1073.168 C421.687063,1072.772 422.239057,1072.106 422.635059,1071.17 C422.76706,1070.846 422.893058,1070.465 423.013059,1070.027 C423.13306,1069.589 423.247058,1069.13 423.355059,1068.65 L423.355059,1068.65 Z M417.001059,1066.22 C417.001059,1065.788 417.073058,1065.317 417.217059,1064.807 C417.36106,1064.297 417.571058,1063.823 417.847059,1063.385 C418.12306,1062.947 418.465057,1062.578 418.873059,1062.278 C419.281061,1061.978 419.755056,1061.828 420.295059,1061.828 C421.099063,1061.828 421.696057,1062.05 422.086059,1062.494 C422.476061,1062.938 422.671059,1063.526 422.671059,1064.258 C422.671059,1064.726 422.60206,1065.221 422.464059,1065.743 C422.326058,1066.265 422.11906,1066.748 421.843059,1067.192 C421.567058,1067.636 421.216061,1068.002 420.790059,1068.29 C420.364057,1068.578 419.863062,1068.722 419.287059,1068.722 C418.903057,1068.722 418.56706,1068.653 418.279059,1068.515 C417.991058,1068.377 417.75406,1068.194 417.568059,1067.966 C417.382058,1067.738 417.241059,1067.474 417.145059,1067.174 C417.049058,1066.874 417.001059,1066.556 417.001059,1066.22 L417.001059,1066.22 Z M426.444706,1068.002 L426.012706,1070 L427.020706,1070 C426.960706,1070.204 426.900706,1070.402 426.840706,1070.594 C426.780706,1070.786 426.702707,1070.963 426.606706,1071.125 C426.510706,1071.287 426.387707,1071.425 426.237706,1071.539 C426.087705,1071.653 425.892707,1071.728 425.652706,1071.764 L425.472706,1072.628 C426.096709,1072.58 426.579704,1072.403 426.921706,1072.097 C427.263708,1071.791 427.527705,1071.419 427.713706,1070.981 C427.899707,1070.543 428.037706,1070.06 428.127706,1069.532 C428.217706,1069.004 428.322705,1068.494 428.442706,1068.002 L426.444706,1068.002 Z M439.194,1057.148 L436.512,1070 L438.222,1070 L439.446,1064.114 L445.386,1064.114 L445.692,1062.674 L439.752,1062.674 L440.598,1058.588 L447.348,1058.588 L447.654,1057.148 L439.194,1057.148 Z M447.989647,1063.502 L449.519647,1063.502 C449.567647,1063.202 449.669646,1062.947 449.825647,1062.737 C449.981648,1062.527 450.173646,1062.353 450.401647,1062.215 C450.629648,1062.077 450.884646,1061.978 451.166647,1061.918 C451.448649,1061.858 451.733646,1061.828 452.021647,1061.828 C452.225648,1061.828 452.438646,1061.846 452.660647,1061.882 C452.882648,1061.918 453.083646,1061.981 453.263647,1062.071 C453.443648,1062.161 453.593647,1062.284 453.713647,1062.44 C453.833648,1062.596 453.893647,1062.8 453.893647,1063.052 C453.893647,1063.364 453.848648,1063.61 453.758647,1063.79 C453.668647,1063.97 453.527648,1064.108 453.335647,1064.204 C453.143646,1064.3 452.900649,1064.369 452.606647,1064.411 C452.312646,1064.453 451.961649,1064.492 451.553647,1064.528 C451.037645,1064.576 450.50365,1064.636 449.951647,1064.708 C449.399644,1064.78 448.89565,1064.915 448.439647,1065.113 C447.983645,1065.311 447.608649,1065.602 447.314647,1065.986 C447.020646,1066.37 446.873647,1066.904 446.873647,1067.588 C446.873647,1068.068 446.948647,1068.473 447.098647,1068.803 C447.248648,1069.133 447.449646,1069.403 447.701647,1069.613 C447.953649,1069.823 448.250646,1069.973 448.592647,1070.063 C448.934649,1070.153 449.303645,1070.198 449.699647,1070.198 C450.491651,1070.198 451.127645,1070.084 451.607647,1069.856 C452.08765,1069.628 452.489646,1069.298 452.813647,1068.866 L452.849647,1068.902 C452.801647,1069.31 452.885646,1069.628 453.101647,1069.856 C453.317648,1070.084 453.635645,1070.198 454.055647,1070.198 C454.187648,1070.198 454.346646,1070.177 454.532647,1070.135 C454.718648,1070.093 454.871647,1070.048 454.991647,1070 L455.225647,1068.866 C455.153647,1068.89 455.072648,1068.917 454.982647,1068.947 C454.892647,1068.977 454.811648,1068.992 454.739647,1068.992 C454.607647,1068.992 454.499648,1068.95 454.415647,1068.866 C454.331647,1068.782 454.289647,1068.632 454.289647,1068.416 C454.289647,1068.2 454.322647,1067.972 454.388647,1067.732 C454.454648,1067.492 454.505647,1067.276 454.541647,1067.084 L455.135647,1064.546 C455.195648,1064.294 455.258647,1064.015 455.324647,1063.709 C455.390648,1063.403 455.423647,1063.118 455.423647,1062.854 C455.423647,1062.386 455.330648,1061.999 455.144647,1061.693 C454.958646,1061.387 454.709649,1061.144 454.397647,1060.964 C454.085646,1060.784 453.725649,1060.658 453.317647,1060.586 C452.909645,1060.514 452.47765,1060.478 452.021647,1060.478 C451.529645,1060.478 451.05565,1060.538 450.599647,1060.658 C450.143645,1060.778 449.735649,1060.964 449.375647,1061.216 C449.015645,1061.468 448.712648,1061.783 448.466647,1062.161 C448.220646,1062.539 448.061648,1062.986 447.989647,1063.502 L447.989647,1063.502 Z M448.385647,1067.57 C448.397647,1067.174 448.499646,1066.865 448.691647,1066.643 C448.883648,1066.421 449.129646,1066.25 449.429647,1066.13 C449.729649,1066.01 450.068645,1065.923 450.446647,1065.869 C450.824649,1065.815 451.199645,1065.77 451.571647,1065.734 C451.943649,1065.698 452.294646,1065.647 452.624647,1065.581 C452.954649,1065.515 453.227646,1065.404 453.443647,1065.248 L453.479647,1065.248 C453.371647,1065.68 453.272648,1066.1 453.182647,1066.508 C453.092647,1066.916 452.921649,1067.294 452.669647,1067.642 C452.141645,1068.458 451.271653,1068.866 450.059647,1068.866 C449.627645,1068.866 449.240649,1068.758 448.898647,1068.542 C448.556646,1068.326 448.385647,1068.002 448.385647,1067.57 L448.385647,1067.57 Z M463.085294,1063.43 L464.615294,1063.43 C464.615294,1062.89 464.513295,1062.431 464.309294,1062.053 C464.105293,1061.675 463.838296,1061.369 463.508294,1061.135 C463.178293,1060.901 462.803296,1060.733 462.383294,1060.631 C461.963292,1060.529 461.537296,1060.478 461.105294,1060.478 C460.673292,1060.478 460.250296,1060.538 459.836294,1060.658 C459.422292,1060.778 459.053296,1060.949 458.729294,1061.171 C458.405293,1061.393 458.144295,1061.672 457.946294,1062.008 C457.748293,1062.344 457.649294,1062.728 457.649294,1063.16 C457.649294,1063.508 457.718294,1063.814 457.856294,1064.078 C457.994295,1064.342 458.180293,1064.573 458.414294,1064.771 C458.648295,1064.969 458.912293,1065.14 459.206294,1065.284 C459.500296,1065.428 459.803293,1065.56 460.115294,1065.68 C460.415296,1065.812 460.712293,1065.935 461.006294,1066.049 C461.300296,1066.163 461.561293,1066.286 461.789294,1066.418 C462.017295,1066.55 462.203294,1066.697 462.347294,1066.859 C462.491295,1067.021 462.563294,1067.216 462.563294,1067.444 C462.563294,1067.708 462.500295,1067.93 462.374294,1068.11 C462.248294,1068.29 462.083295,1068.437 461.879294,1068.551 C461.675293,1068.665 461.447296,1068.746 461.195294,1068.794 C460.943293,1068.842 460.691296,1068.866 460.439294,1068.866 C460.115293,1068.866 459.806296,1068.836 459.512294,1068.776 C459.218293,1068.716 458.960295,1068.617 458.738294,1068.479 C458.516293,1068.341 458.342295,1068.155 458.216294,1067.921 C458.090294,1067.687 458.039294,1067.402 458.063294,1067.066 L456.551294,1067.066 C456.551294,1067.666 456.647293,1068.167 456.839294,1068.569 C457.031295,1068.971 457.292293,1069.292 457.622294,1069.532 C457.952296,1069.772 458.345292,1069.943 458.801294,1070.045 C459.257297,1070.147 459.755292,1070.198 460.295294,1070.198 C460.751297,1070.198 461.204292,1070.147 461.654294,1070.045 C462.104297,1069.943 462.509293,1069.778 462.869294,1069.55 C463.229296,1069.322 463.523293,1069.025 463.751294,1068.659 C463.979295,1068.293 464.093294,1067.852 464.093294,1067.336 C464.093294,1066.976 464.021295,1066.661 463.877294,1066.391 C463.733294,1066.121 463.547295,1065.887 463.319294,1065.689 C463.091293,1065.491 462.830296,1065.314 462.536294,1065.158 C462.242293,1065.002 461.939296,1064.858 461.627294,1064.726 C461.327293,1064.606 461.030296,1064.489 460.736294,1064.375 C460.442293,1064.261 460.178295,1064.138 459.944294,1064.006 C459.710293,1063.874 459.524295,1063.73 459.386294,1063.574 C459.248294,1063.418 459.179294,1063.232 459.179294,1063.016 C459.179294,1062.776 459.239294,1062.581 459.359294,1062.431 C459.479295,1062.281 459.632293,1062.161 459.818294,1062.071 C460.004295,1061.981 460.217293,1061.918 460.457294,1061.882 C460.697296,1061.846 460.931293,1061.828 461.159294,1061.828 C461.699297,1061.828 462.161292,1061.963 462.545294,1062.233 C462.929296,1062.503 463.109294,1062.902 463.085294,1063.43 L463.085294,1063.43 Z M469.648941,1060.694 L470.224941,1057.94 L468.694941,1057.94 L468.118941,1060.694 L466.552941,1060.694 L466.264941,1062.044 L467.830941,1062.044 L466.606941,1067.822 C466.582941,1067.966 466.561941,1068.098 466.543941,1068.218 C466.525941,1068.338 466.516941,1068.464 466.516941,1068.596 C466.516941,1068.896 466.573941,1069.142 466.687941,1069.334 C466.801942,1069.526 466.95194,1069.679 467.137941,1069.793 C467.323942,1069.907 467.54294,1069.985 467.794941,1070.027 C468.046943,1070.069 468.31694,1070.09 468.604941,1070.09 C468.784942,1070.09 468.96494,1070.081 469.144941,1070.063 C469.324942,1070.045 469.50494,1070.024 469.684941,1070 L469.954941,1068.596 C469.810941,1068.644 469.666942,1068.683 469.522941,1068.713 C469.378941,1068.743 469.228942,1068.758 469.072941,1068.758 C468.83294,1068.758 468.619942,1068.713 468.433941,1068.623 C468.24794,1068.533 468.154941,1068.368 468.154941,1068.128 C468.154941,1068.02 468.160941,1067.918 468.172941,1067.822 C468.184941,1067.726 468.196941,1067.624 468.208941,1067.516 L469.360941,1062.044 L471.214941,1062.044 L471.502941,1060.694 L469.648941,1060.694 Z M473.422588,1065.806 L480.424588,1065.806 C480.448589,1065.674 480.478588,1065.5 480.514588,1065.284 C480.550589,1065.068 480.568588,1064.84 480.568588,1064.6 C480.568588,1063.29199 480.253592,1062.278 479.623588,1061.558 C478.993585,1060.838 477.994595,1060.478 476.626588,1060.478 C475.990585,1060.478 475.381591,1060.622 474.799588,1060.91 C474.217586,1061.198 473.707591,1061.606 473.269588,1062.134 C472.831586,1062.662 472.48359,1063.295 472.225588,1064.033 C471.967587,1064.771 471.838588,1065.584 471.838588,1066.472 C471.838588,1066.88 471.898588,1067.303 472.018588,1067.741 C472.138589,1068.179 472.348587,1068.581 472.648588,1068.947 C472.94859,1069.313 473.353586,1069.613 473.863588,1069.847 C474.373591,1070.081 475.012585,1070.198 475.780588,1070.198 C476.284591,1070.198 476.764586,1070.132 477.220588,1070 C477.676591,1069.868 478.090587,1069.673 478.462588,1069.415 C478.83459,1069.157 479.152587,1068.833 479.416588,1068.443 C479.68059,1068.053 479.872588,1067.6 479.992588,1067.084 L478.462588,1067.084 C478.246587,1067.66 477.916591,1068.101 477.472588,1068.407 C477.028586,1068.713 476.464592,1068.866 475.780588,1068.866 C475.468587,1068.866 475.16859,1068.815 474.880588,1068.713 C474.592587,1068.611 474.33459,1068.467 474.106588,1068.281 C473.878587,1068.095 473.698589,1067.861 473.566588,1067.579 C473.434588,1067.297 473.368588,1066.976 473.368588,1066.616 C473.368588,1066.34 473.386588,1066.07 473.422588,1065.806 L473.422588,1065.806 Z M479.038588,1064.456 L473.638588,1064.456 C473.746589,1064.096 473.890588,1063.757 474.070588,1063.439 C474.250589,1063.121 474.472587,1062.842 474.736588,1062.602 C475.00059,1062.362 475.309587,1062.173 475.663588,1062.035 C476.01759,1061.897 476.416586,1061.828 476.860588,1061.828 C477.280591,1061.828 477.634587,1061.903 477.922588,1062.053 C478.21059,1062.203 478.441588,1062.401 478.615588,1062.647 C478.789589,1062.893 478.909588,1063.175 478.975588,1063.493 C479.041589,1063.811 479.062589,1064.132 479.038588,1064.456 L479.038588,1064.456 Z M483.496236,1060.694 L481.570236,1070 L483.082236,1070 L483.964236,1065.878 C484.036236,1065.53 484.132235,1065.155 484.252236,1064.753 C484.372236,1064.351 484.534235,1064 484.738236,1063.7 C484.978237,1063.328 485.263234,1063.01 485.593236,1062.746 C485.923237,1062.482 486.298233,1062.296 486.718236,1062.188 C486.898236,1062.14 487.048235,1062.113 487.168236,1062.107 C487.288236,1062.101 487.444235,1062.098 487.636236,1062.098 L487.852236,1062.098 C487.960236,1062.098 488.038235,1062.104 488.086236,1062.116 L488.446236,1060.478 C488.350235,1060.454 488.260236,1060.448 488.176236,1060.46 C488.092235,1060.472 488.002236,1060.478 487.906236,1060.478 C487.126232,1060.478 486.457238,1060.688 485.899236,1061.108 C485.341233,1061.528 484.882237,1062.056 484.522236,1062.692 L484.486236,1062.692 L484.936236,1060.694 L483.496236,1060.694 Z M487.935883,1066.328 C487.935883,1066.892 488.025882,1067.411 488.205883,1067.885 C488.385884,1068.359 488.643881,1068.767 488.979883,1069.109 C489.315884,1069.451 489.72688,1069.718 490.212883,1069.91 C490.698885,1070.102 491.24788,1070.198 491.859883,1070.198 C492.675887,1070.198 493.401879,1070.036 494.037883,1069.712 C494.673886,1069.388 495.21388,1068.953 495.657883,1068.407 C496.101885,1067.861 496.437881,1067.234 496.665883,1066.526 C496.893884,1065.818 497.007883,1065.086 497.007883,1064.33 C497.007883,1063.06999 496.677886,1062.113 496.017883,1061.459 C495.357879,1060.805 494.397889,1060.478 493.137883,1060.478 C492.321879,1060.478 491.592886,1060.64 490.950883,1060.964 C490.308879,1061.288 489.762885,1061.72 489.312883,1062.26 C488.86288,1062.8 488.520884,1063.424 488.286883,1064.132 C488.052881,1064.84 487.935883,1065.572 487.935883,1066.328 L487.935883,1066.328 Z M489.465883,1066.31 C489.465883,1065.83 489.540882,1065.326 489.690883,1064.798 C489.840883,1064.27 490.065881,1063.787 490.365883,1063.349 C490.665884,1062.911 491.03788,1062.548 491.481883,1062.26 C491.925885,1061.972 492.44188,1061.828 493.029883,1061.828 C493.449885,1061.828 493.812881,1061.897 494.118883,1062.035 C494.424884,1062.173 494.679882,1062.359 494.883883,1062.593 C495.087884,1062.827 495.237882,1063.106 495.333883,1063.43 C495.429883,1063.754 495.477883,1064.096 495.477883,1064.456 C495.477883,1064.912 495.402883,1065.398 495.252883,1065.914 C495.102882,1066.43 494.880884,1066.907 494.586883,1067.345 C494.292881,1067.783 493.932885,1068.146 493.506883,1068.434 C493.08088,1068.722 492.585885,1068.866 492.021883,1068.866 C491.181878,1068.866 490.545885,1068.632 490.113883,1068.164 C489.68188,1067.696 489.465883,1067.078 489.465883,1066.31 L489.465883,1066.31 Z M505.67753,1070 L507.63953,1060.694 L506.10953,1060.694 L505.02953,1065.842 C504.945529,1066.226 504.804531,1066.601 504.60653,1066.967 C504.408529,1067.333 504.165531,1067.657 503.87753,1067.939 C503.589528,1068.221 503.262532,1068.446 502.89653,1068.614 C502.530528,1068.782 502.131532,1068.866 501.69953,1068.866 C501.243527,1068.866 500.859531,1068.761 500.54753,1068.551 C500.235528,1068.341 500.07953,1068.014 500.07953,1067.57 C500.07953,1067.486 500.08553,1067.381 500.09753,1067.255 C500.10953,1067.129 500.12753,1066.997 500.15153,1066.859 C500.17553,1066.721 500.19953,1066.586 500.22353,1066.454 C500.24753,1066.322 500.27153,1066.214 500.29553,1066.13 L501.48353,1060.694 L499.95353,1060.694 L498.81953,1066.004 C498.735529,1066.364 498.66953,1066.706 498.62153,1067.03 C498.573529,1067.354 498.54953,1067.618 498.54953,1067.822 C498.54953,1068.65 498.762528,1069.253 499.18853,1069.631 C499.614532,1070.009 500.265525,1070.198 501.14153,1070.198 C501.789533,1070.198 502.407527,1070.066 502.99553,1069.802 C503.583533,1069.538 504.069528,1069.136 504.45353,1068.596 L504.48953,1068.596 L504.20153,1070 L505.67753,1070 Z M512.583177,1060.694 L513.159177,1057.94 L511.629177,1057.94 L511.053177,1060.694 L509.487177,1060.694 L509.199177,1062.044 L510.765177,1062.044 L509.541177,1067.822 C509.517177,1067.966 509.496177,1068.098 509.478177,1068.218 C509.460177,1068.338 509.451177,1068.464 509.451177,1068.596 C509.451177,1068.896 509.508176,1069.142 509.622177,1069.334 C509.736177,1069.526 509.886176,1069.679 510.072177,1069.793 C510.258178,1069.907 510.477175,1069.985 510.729177,1070.027 C510.981178,1070.069 511.251175,1070.09 511.539177,1070.09 C511.719178,1070.09 511.899176,1070.081 512.079177,1070.063 C512.259178,1070.045 512.439176,1070.024 512.619177,1070 L512.889177,1068.596 C512.745176,1068.644 512.601177,1068.683 512.457177,1068.713 C512.313176,1068.743 512.163178,1068.758 512.007177,1068.758 C511.767176,1068.758 511.554178,1068.713 511.368177,1068.623 C511.182176,1068.533 511.089177,1068.368 511.089177,1068.128 C511.089177,1068.02 511.095177,1067.918 511.107177,1067.822 C511.119177,1067.726 511.131177,1067.624 511.143177,1067.516 L512.295177,1062.044 L514.149177,1062.044 L514.437177,1060.694 L512.583177,1060.694 Z M516.356824,1065.806 L523.358824,1065.806 C523.382824,1065.674 523.412824,1065.5 523.448824,1065.284 C523.484824,1065.068 523.502824,1064.84 523.502824,1064.6 C523.502824,1063.29199 523.187827,1062.278 522.557824,1061.558 C521.927821,1060.838 520.928831,1060.478 519.560824,1060.478 C518.924821,1060.478 518.315827,1060.622 517.733824,1060.91 C517.151821,1061.198 516.641826,1061.606 516.203824,1062.134 C515.765822,1062.662 515.417825,1063.295 515.159824,1064.033 C514.901823,1064.771 514.772824,1065.584 514.772824,1066.472 C514.772824,1066.88 514.832823,1067.303 514.952824,1067.741 C515.072824,1068.179 515.282822,1068.581 515.582824,1068.947 C515.882825,1069.313 516.287821,1069.613 516.797824,1069.847 C517.307826,1070.081 517.94682,1070.198 518.714824,1070.198 C519.218826,1070.198 519.698822,1070.132 520.154824,1070 C520.610826,1069.868 521.024822,1069.673 521.396824,1069.415 C521.768826,1069.157 522.086822,1068.833 522.350824,1068.443 C522.614825,1068.053 522.806823,1067.6 522.926824,1067.084 L521.396824,1067.084 C521.180823,1067.66 520.850826,1068.101 520.406824,1068.407 C519.962822,1068.713 519.398827,1068.866 518.714824,1068.866 C518.402822,1068.866 518.102825,1068.815 517.814824,1068.713 C517.526822,1068.611 517.268825,1068.467 517.040824,1068.281 C516.812823,1068.095 516.632824,1067.861 516.500824,1067.579 C516.368823,1067.297 516.302824,1066.976 516.302824,1066.616 C516.302824,1066.34 516.320824,1066.07 516.356824,1065.806 L516.356824,1065.806 Z M521.972824,1064.456 L516.572824,1064.456 C516.680824,1064.096 516.824823,1063.757 517.004824,1063.439 C517.184825,1063.121 517.406822,1062.842 517.670824,1062.602 C517.934825,1062.362 518.243822,1062.173 518.597824,1062.035 C518.951826,1061.897 519.350822,1061.828 519.794824,1061.828 C520.214826,1061.828 520.568822,1061.903 520.856824,1062.053 C521.144825,1062.203 521.375823,1062.401 521.549824,1062.647 C521.723825,1062.893 521.843823,1063.175 521.909824,1063.493 C521.975824,1063.811 521.996824,1064.132 521.972824,1064.456 L521.972824,1064.456 Z" id="George-Goldberg,-Fas" fill="#FFFFFF" sketch:type="MSShapeGroup"></path>
        </g>
    </g>
</svg>