<?xml version="1.0" encoding="UTF-8" standalone="no"?>
<svg width="196px" height="27px" viewBox="0 0 196 27" version="1.1" xmlns="http://www.w3.org/2000/svg" xmlns:xlink="http://www.w3.org/1999/xlink" xmlns:sketch="http://www.bohemiancoding.com/sketch/ns">
    <!-- Generator: Sketch 3.2.2 (9983) - http://www.bohemiancoding.com/sketch -->
    <title>Rectangle 1</title>
    <desc>Created with Sketch.</desc>
    <defs></defs>
    <g id="Page-1" stroke="none" stroke-width="1" fill="none" fill-rule="evenodd" sketch:type="MSPage">
        <rect id="Rectangle-1" fill="#000000" sketch:type="MSShapeGroup" x="0" y="0" width="196" height="27"></rect>
        <path d="M10.972,18.096 L10.972,8.196 L13.436,8.196 C14.2866709,8.196 15.0016638,8.31699879 15.581,8.559 C16.1603362,8.80100121 16.6259982,9.14933106 16.978,9.604 C17.3300018,10.0586689 17.5829992,10.6049968 17.737,11.243 C17.8910008,11.8810032 17.968,12.595996 17.968,13.388 C17.968,14.2533377 17.8580011,14.9866637 17.638,15.588 C17.4179989,16.1893363 17.1246685,16.6769981 16.758,17.051 C16.3913315,17.4250019 15.9733357,17.6926659 15.504,17.854 C15.0346643,18.0153341 14.5506692,18.096 14.052,18.096 L10.972,18.096 Z M7.518,5.292 L7.518,21 L14.294,21 C15.4966727,21 16.5416622,20.7983354 17.429,20.395 C18.3163378,19.9916646 19.056997,19.4380035 19.651,18.734 C20.245003,18.0299965 20.6886652,17.1940048 20.982,16.226 C21.2753348,15.2579952 21.422,14.2020057 21.422,13.058 C21.422,11.7526601 21.2423351,10.6160048 20.883,9.648 C20.5236649,8.67999516 20.0250032,7.87333656 19.387,7.228 C18.7489968,6.58266344 17.993671,6.09866828 17.121,5.776 C16.248329,5.45333172 15.3060051,5.292 14.294,5.292 L7.518,5.292 Z M26.462,15.324 C26.462,14.8693311 26.5059996,14.4220022 26.594,13.982 C26.6820004,13.5419978 26.8323323,13.153335 27.045,12.816 C27.2576677,12.478665 27.5399982,12.2036677 27.892,11.991 C28.2440018,11.7783323 28.6839974,11.672 29.212,11.672 C29.7400026,11.672 30.1836649,11.7783323 30.543,11.991 C30.9023351,12.2036677 31.1883323,12.478665 31.401,12.816 C31.6136677,13.153335 31.7639996,13.5419978 31.852,13.982 C31.9400004,14.4220022 31.984,14.8693311 31.984,15.324 C31.984,15.7786689 31.9400004,16.2223312 31.852,16.655 C31.7639996,17.0876688 31.6136677,17.4763316 31.401,17.821 C31.1883323,18.1656684 30.9023351,18.4406656 30.543,18.646 C30.1836649,18.8513344 29.7400026,18.954 29.212,18.954 C28.6839974,18.954 28.2440018,18.8513344 27.892,18.646 C27.5399982,18.4406656 27.2576677,18.1656684 27.045,17.821 C26.8323323,17.4763316 26.6820004,17.0876688 26.594,16.655 C26.5059996,16.2223312 26.462,15.7786689 26.462,15.324 L26.462,15.324 Z M23.338,15.324 C23.338,16.2333379 23.4773319,17.054663 23.756,17.788 C24.0346681,18.521337 24.4306641,19.1483307 24.944,19.669 C25.4573359,20.1896693 26.0733297,20.5893319 26.792,20.868 C27.5106703,21.1466681 28.3173289,21.286 29.212,21.286 C30.1066711,21.286 30.9169964,21.1466681 31.643,20.868 C32.3690036,20.5893319 32.9886641,20.1896693 33.502,19.669 C34.0153359,19.1483307 34.4113319,18.521337 34.69,17.788 C34.9686681,17.054663 35.108,16.2333379 35.108,15.324 C35.108,14.4146621 34.9686681,13.5896704 34.69,12.849 C34.4113319,12.1083296 34.0153359,11.4776693 33.502,10.957 C32.9886641,10.4363307 32.3690036,10.0330014 31.643,9.747 C30.9169964,9.46099857 30.1066711,9.318 29.212,9.318 C28.3173289,9.318 27.5106703,9.46099857 26.792,9.747 C26.0733297,10.0330014 25.4573359,10.4363307 24.944,10.957 C24.4306641,11.4776693 24.0346681,12.1083296 23.756,12.849 C23.4773319,13.5896704 23.338,14.4146621 23.338,15.324 L23.338,15.324 Z M50.334,21 L53.92,9.626 L50.708,9.626 L48.618,17.326 L48.574,17.326 L46.638,9.626 L43.602,9.626 L41.71,17.348 L41.666,17.348 L39.576,9.626 L36.276,9.626 L39.884,21 L43.118,21 L45.054,13.366 L45.098,13.366 L47.122,21 L50.334,21 Z M55.44,9.626 L55.44,21 L58.564,21 L58.564,15.038 C58.564,13.8793275 58.7546648,13.0470025 59.136,12.541 C59.5173352,12.0349975 60.1333291,11.782 60.984,11.782 C61.7320037,11.782 62.2526652,12.0129977 62.546,12.475 C62.8393348,12.9370023 62.986,13.6373286 62.986,14.576 L62.986,21 L66.11,21 L66.11,14.004 C66.11,13.2999965 66.0476673,12.6583362 65.923,12.079 C65.7983327,11.4996638 65.5820015,11.0083354 65.274,10.605 C64.9659985,10.2016646 64.544336,9.88633447 64.009,9.659 C63.473664,9.43166553 62.7880042,9.318 61.952,9.318 C61.2919967,9.318 60.6466698,9.46833183 60.016,9.769 C59.3853302,10.0696682 58.872002,10.5499967 58.476,11.21 L58.41,11.21 L58.41,9.626 L55.44,9.626 Z M68.774,5.292 L68.774,21 L71.898,21 L71.898,5.292 L68.774,5.292 Z M77.334,15.324 C77.334,14.8693311 77.3779996,14.4220022 77.466,13.982 C77.5540005,13.5419978 77.7043323,13.153335 77.917,12.816 C78.1296677,12.478665 78.4119983,12.2036677 78.764,11.991 C79.1160018,11.7783323 79.5559974,11.672 80.084,11.672 C80.6120027,11.672 81.0556649,11.7783323 81.415,11.991 C81.7743351,12.2036677 82.0603323,12.478665 82.273,12.816 C82.4856677,13.153335 82.6359996,13.5419978 82.724,13.982 C82.8120005,14.4220022 82.856,14.8693311 82.856,15.324 C82.856,15.7786689 82.8120005,16.2223312 82.724,16.655 C82.6359996,17.0876688 82.4856677,17.4763316 82.273,17.821 C82.0603323,18.1656684 81.7743351,18.4406656 81.415,18.646 C81.0556649,18.8513344 80.6120027,18.954 80.084,18.954 C79.5559974,18.954 79.1160018,18.8513344 78.764,18.646 C78.4119983,18.4406656 78.1296677,18.1656684 77.917,17.821 C77.7043323,17.4763316 77.5540005,17.0876688 77.466,16.655 C77.3779996,16.2223312 77.334,15.7786689 77.334,15.324 L77.334,15.324 Z M74.21,15.324 C74.21,16.2333379 74.349332,17.054663 74.628,17.788 C74.9066681,18.521337 75.3026641,19.1483307 75.816,19.669 C76.3293359,20.1896693 76.9453298,20.5893319 77.664,20.868 C78.3826703,21.1466681 79.1893289,21.286 80.084,21.286 C80.9786712,21.286 81.7889964,21.1466681 82.515,20.868 C83.2410036,20.5893319 83.8606641,20.1896693 84.374,19.669 C84.8873359,19.1483307 85.283332,18.521337 85.562,17.788 C85.8406681,17.054663 85.98,16.2333379 85.98,15.324 C85.98,14.4146621 85.8406681,13.5896704 85.562,12.849 C85.283332,12.1083296 84.8873359,11.4776693 84.374,10.957 C83.8606641,10.4363307 83.2410036,10.0330014 82.515,9.747 C81.7889964,9.46099857 80.9786712,9.318 80.084,9.318 C79.1893289,9.318 78.3826703,9.46099857 77.664,9.747 C76.9453298,10.0330014 76.3293359,10.4363307 75.816,10.957 C75.3026641,11.4776693 74.9066681,12.1083296 74.628,12.849 C74.349332,13.5896704 74.21,14.4146621 74.21,15.324 L74.21,15.324 Z M88.072,13.124 C88.1160002,12.390663 88.2993317,11.7820024 88.622,11.298 C88.9446683,10.8139976 89.3553309,10.4253348 89.854,10.132 C90.3526692,9.8386652 90.9136636,9.62966729 91.537,9.505 C92.1603365,9.38033271 92.7873302,9.318 93.418,9.318 C93.9900029,9.318 94.5693304,9.35833293 95.156,9.439 C95.7426696,9.51966707 96.2779976,9.67733216 96.762,9.912 C97.2460024,10.1466678 97.6419985,10.4729979 97.95,10.891 C98.2580016,11.3090021 98.412,11.8626632 98.412,12.552 L98.412,18.47 C98.412,18.9833359 98.4413331,19.4746643 98.5,19.944 C98.558667,20.4133357 98.6613326,20.7653322 98.808,21 L95.64,21 C95.5813331,20.8239991 95.5336669,20.6443342 95.497,20.461 C95.4603332,20.2776658 95.4346668,20.0906676 95.42,19.9 C94.9213309,20.4133359 94.3346701,20.7726656 93.66,20.978 C92.98533,21.1833344 92.2960035,21.286 91.592,21.286 C91.0493306,21.286 90.5433357,21.2200007 90.074,21.088 C89.6046643,20.9559993 89.1940018,20.7506681 88.842,20.472 C88.4899983,20.1933319 88.215001,19.8413355 88.017,19.416 C87.818999,18.9906645 87.72,18.4846696 87.72,17.898 C87.72,17.2526634 87.8336655,16.7210021 88.061,16.303 C88.2883345,15.8849979 88.5816649,15.5513346 88.941,15.302 C89.3003351,15.0526654 89.7109977,14.8656673 90.173,14.741 C90.6350023,14.6163327 91.1006643,14.5173337 91.57,14.444 C92.0393357,14.3706663 92.5013311,14.3120002 92.956,14.268 C93.410669,14.2239998 93.8139983,14.1580004 94.166,14.07 C94.5180018,13.9819996 94.7966657,13.8536675 95.002,13.685 C95.2073344,13.5163325 95.3026668,13.2706683 95.288,12.948 C95.288,12.610665 95.2330006,12.343001 95.123,12.145 C95.0129995,11.946999 94.8663343,11.7930005 94.683,11.683 C94.4996658,11.5729994 94.2870012,11.4996669 94.045,11.463 C93.8029988,11.4263332 93.5426681,11.408 93.264,11.408 C92.6479969,11.408 92.1640018,11.5399987 91.812,11.804 C91.4599983,12.0680013 91.254667,12.5079969 91.196,13.124 L88.072,13.124 Z M95.288,15.434 C95.1559994,15.5513339 94.991001,15.6429997 94.793,15.709 C94.594999,15.7750003 94.3823345,15.8299998 94.155,15.874 C93.9276655,15.9180002 93.6893346,15.9546665 93.44,15.984 C93.1906654,16.0133335 92.9413346,16.0499998 92.692,16.094 C92.4573322,16.1380002 92.2263345,16.1966663 91.999,16.27 C91.7716655,16.3433337 91.5736675,16.4423327 91.405,16.567 C91.2363325,16.6916673 91.1006672,16.8493324 90.998,17.04 C90.8953328,17.2306676 90.844,17.4726652 90.844,17.766 C90.844,18.0446681 90.8953328,18.2793324 90.998,18.47 C91.1006672,18.6606676 91.2399991,18.8109994 91.416,18.921 C91.5920009,19.0310005 91.7973322,19.1079998 92.032,19.152 C92.2666679,19.1960002 92.5086654,19.218 92.758,19.218 C93.3740031,19.218 93.850665,19.1153344 94.188,18.91 C94.525335,18.7046656 94.7746659,18.4590014 94.936,18.173 C95.0973342,17.8869986 95.1963332,17.5973348 95.233,17.304 C95.2696669,17.0106652 95.288,16.7760009 95.288,16.6 L95.288,15.434 Z M109.106,15.28 C109.106,15.7493357 109.062,16.2039978 108.974,16.644 C108.886,17.0840022 108.739334,17.4763316 108.534,17.821 C108.328666,18.1656684 108.053668,18.4406656 107.709,18.646 C107.364332,18.8513344 106.935336,18.954 106.422,18.954 C105.937998,18.954 105.523668,18.8476677 105.179,18.635 C104.834332,18.4223323 104.548334,18.1436684 104.321,17.799 C104.093666,17.4543316 103.928667,17.0620022 103.826,16.622 C103.723333,16.1819978 103.672,15.7420022 103.672,15.302 C103.672,14.8326643 103.719666,14.3816688 103.815,13.949 C103.910334,13.5163312 104.064332,13.131335 104.277,12.794 C104.489668,12.456665 104.771998,12.1853344 105.124,11.98 C105.476002,11.7746656 105.908664,11.672 106.422,11.672 C106.935336,11.672 107.360665,11.7746656 107.698,11.98 C108.035335,12.1853344 108.310332,12.4529984 108.523,12.783 C108.735668,13.1130017 108.886,13.4943312 108.974,13.927 C109.062,14.3596688 109.106,14.8106643 109.106,15.28 L109.106,15.28 Z M109.15,19.548 L109.15,21 L112.12,21 L112.12,5.292 L108.996,5.292 L108.996,11.012 L108.952,11.012 C108.599998,10.4546639 108.11967,10.0330014 107.511,9.747 C106.90233,9.46099857 106.26067,9.318 105.586,9.318 C104.749996,9.318 104.01667,9.48299835 103.386,9.813 C102.75533,10.1430017 102.231002,10.5793306 101.813,11.122 C101.394998,11.6646694 101.079668,12.2916631 100.867,13.003 C100.654332,13.7143369 100.548,14.4513295 100.548,15.214 C100.548,16.006004 100.654332,16.768663 100.867,17.502 C101.079668,18.235337 101.394998,18.8843305 101.813,19.449 C102.231002,20.0136695 102.762663,20.4609984 103.408,20.791 C104.053337,21.1210017 104.801329,21.286 105.652,21.286 C106.400004,21.286 107.070997,21.1503347 107.665,20.879 C108.259003,20.6076653 108.739332,20.1640031 109.106,19.548 L109.15,19.548 Z M130.01,19.438 L131.286,21 L135.114,21 L131.924,17.282 C132.364002,16.7246639 132.708665,16.1160033 132.958,15.456 C133.207335,14.7959967 133.368666,14.1140035 133.442,13.41 L130.736,13.41 C130.692,13.7326683 130.626,14.0516651 130.538,14.367 C130.45,14.6823349 130.325334,14.9866652 130.164,15.28 L128.14,12.794 C128.932004,12.3686645 129.595664,11.8406698 130.131,11.21 C130.666336,10.5793302 130.934,9.80200462 130.934,8.878 C130.934,8.26199692 130.820334,7.71933568 130.593,7.25 C130.365666,6.78066432 130.057669,6.38833491 129.669,6.073 C129.280331,5.75766509 128.825669,5.51933414 128.305,5.358 C127.784331,5.19666586 127.223336,5.116 126.622,5.116 C126.093997,5.116 125.584336,5.20033249 125.093,5.369 C124.601664,5.53766751 124.165335,5.77966509 123.784,6.095 C123.402665,6.41033491 123.098334,6.7879978 122.871,7.228 C122.643666,7.6680022 122.53,8.15933062 122.53,8.702 C122.53,9.39133678 122.672999,9.9926641 122.959,10.506 C123.245001,11.0193359 123.600665,11.5326641 124.026,12.046 C123.571331,12.2660011 123.131335,12.5226652 122.706,12.816 C122.280665,13.1093348 121.903002,13.4429981 121.573,13.817 C121.242998,14.1910019 120.982668,14.6089977 120.792,15.071 C120.601332,15.5330023 120.506,16.0426639 120.506,16.6 C120.506,17.3480037 120.637999,18.0116638 120.902,18.591 C121.166001,19.1703362 121.525331,19.6616647 121.98,20.065 C122.434669,20.4683353 122.973664,20.7726656 123.597,20.978 C124.220336,21.1833344 124.883997,21.286 125.588,21.286 C126.482671,21.286 127.285663,21.1320015 127.997,20.824 C128.708337,20.5159985 129.37933,20.0540031 130.01,19.438 L130.01,19.438 Z M125.676,14.07 L128.36,17.348 C127.993332,17.7586687 127.601002,18.0923321 127.183,18.349 C126.764998,18.6056679 126.277336,18.734 125.72,18.734 C125.426665,18.734 125.144335,18.6790006 124.873,18.569 C124.601665,18.4589994 124.363334,18.3123342 124.158,18.129 C123.952666,17.9456657 123.787667,17.725668 123.663,17.469 C123.538333,17.212332 123.476,16.9446681 123.476,16.666 C123.476,16.3433317 123.538333,16.0500013 123.663,15.786 C123.787667,15.5219987 123.952666,15.2800011 124.158,15.06 C124.363334,14.8399989 124.597999,14.6493341 124.862,14.488 C125.126001,14.3266659 125.397332,14.1873339 125.676,14.07 L125.676,14.07 Z M128.206,8.702 C128.206,9.27400286 128.048335,9.72133172 127.733,10.044 C127.417665,10.3666683 127.040002,10.6673319 126.6,10.946 C126.306665,10.5793315 126.028001,10.2200018 125.764,9.868 C125.499999,9.51599824 125.368,9.09066916 125.368,8.592 C125.368,8.18133128 125.507332,7.84766795 125.786,7.591 C126.064668,7.33433205 126.394665,7.206 126.776,7.206 C127.157335,7.206 127.490999,7.3526652 127.777,7.646 C128.063001,7.9393348 128.206,8.29133128 128.206,8.702 L128.206,8.702 Z M142.576,9.626 L142.576,21 L145.7,21 L145.7,15.874 C145.7,15.3606641 145.751333,14.8840022 145.854,14.444 C145.956667,14.0039978 146.128999,13.6190017 146.371,13.289 C146.613001,12.9589984 146.931998,12.6986676 147.328,12.508 C147.724002,12.3173324 148.207997,12.222 148.78,12.222 C148.970668,12.222 149.168666,12.2329999 149.374,12.255 C149.579334,12.2770001 149.755333,12.3026665 149.902,12.332 L149.902,9.428 C149.652665,9.3546663 149.425334,9.318 149.22,9.318 C148.823998,9.318 148.442669,9.37666608 148.076,9.494 C147.709332,9.61133392 147.364668,9.77633227 147.042,9.989 C146.719332,10.2016677 146.433335,10.4583318 146.184,10.759 C145.934665,11.0596682 145.736667,11.3859982 145.59,11.738 L145.546,11.738 L145.546,9.626 L142.576,9.626 Z M158.594,14.092 L153.512,14.092 C153.526667,13.8719989 153.574333,13.6226681 153.655,13.344 C153.735667,13.0653319 153.874999,12.8013346 154.073,12.552 C154.271001,12.3026654 154.534998,12.0936675 154.865,11.925 C155.195002,11.7563325 155.609331,11.672 156.108,11.672 C156.870671,11.672 157.438998,11.8773313 157.813,12.288 C158.187002,12.6986687 158.447333,13.299996 158.594,14.092 L158.594,14.092 Z M153.512,16.072 L161.718,16.072 C161.776667,15.1919956 161.703334,14.3486707 161.498,13.542 C161.292666,12.7353293 160.959002,12.0166698 160.497,11.386 C160.034998,10.7553302 159.44467,10.2530019 158.726,9.879 C158.00733,9.50499813 157.164005,9.318 156.196,9.318 C155.330662,9.318 154.542337,9.47199846 153.831,9.78 C153.119663,10.0880015 152.507336,10.509664 151.994,11.045 C151.480664,11.580336 151.084668,12.214663 150.806,12.948 C150.527332,13.681337 150.388,14.4733291 150.388,15.324 C150.388,16.2040044 150.523665,17.010663 150.795,17.744 C151.066335,18.477337 151.451331,19.1079974 151.95,19.636 C152.448669,20.1640026 153.05733,20.5709986 153.776,20.857 C154.49467,21.1430014 155.301329,21.286 156.196,21.286 C157.486673,21.286 158.586662,20.9926696 159.496,20.406 C160.405338,19.8193304 161.079998,18.8440068 161.52,17.48 L158.77,17.48 C158.667333,17.8320018 158.388669,18.1656651 157.934,18.481 C157.479331,18.7963349 156.93667,18.954 156.306,18.954 C155.425996,18.954 154.751336,18.7266689 154.282,18.272 C153.812664,17.8173311 153.556,17.0840051 153.512,16.072 L153.512,16.072 Z M163.634,13.124 C163.678,12.390663 163.861332,11.7820024 164.184,11.298 C164.506668,10.8139976 164.917331,10.4253348 165.416,10.132 C165.914669,9.8386652 166.475664,9.62966729 167.099,9.505 C167.722336,9.38033271 168.34933,9.318 168.98,9.318 C169.552003,9.318 170.13133,9.35833293 170.718,9.439 C171.30467,9.51966707 171.839998,9.67733216 172.324,9.912 C172.808002,10.1466678 173.203998,10.4729979 173.512,10.891 C173.820002,11.3090021 173.974,11.8626632 173.974,12.552 L173.974,18.47 C173.974,18.9833359 174.003333,19.4746643 174.062,19.944 C174.120667,20.4133357 174.223333,20.7653322 174.37,21 L171.202,21 C171.143333,20.8239991 171.095667,20.6443342 171.059,20.461 C171.022333,20.2776658 170.996667,20.0906676 170.982,19.9 C170.483331,20.4133359 169.89667,20.7726656 169.222,20.978 C168.54733,21.1833344 167.858004,21.286 167.154,21.286 C166.611331,21.286 166.105336,21.2200007 165.636,21.088 C165.166664,20.9559993 164.756002,20.7506681 164.404,20.472 C164.051998,20.1933319 163.777001,19.8413355 163.579,19.416 C163.380999,18.9906645 163.282,18.4846696 163.282,17.898 C163.282,17.2526634 163.395666,16.7210021 163.623,16.303 C163.850335,15.8849979 164.143665,15.5513346 164.503,15.302 C164.862335,15.0526654 165.272998,14.8656673 165.735,14.741 C166.197002,14.6163327 166.662664,14.5173337 167.132,14.444 C167.601336,14.3706663 168.063331,14.3120002 168.518,14.268 C168.972669,14.2239998 169.375998,14.1580004 169.728,14.07 C170.080002,13.9819996 170.358666,13.8536675 170.564,13.685 C170.769334,13.5163325 170.864667,13.2706683 170.85,12.948 C170.85,12.610665 170.795001,12.343001 170.685,12.145 C170.574999,11.946999 170.428334,11.7930005 170.245,11.683 C170.061666,11.5729994 169.849001,11.4996669 169.607,11.463 C169.364999,11.4263332 169.104668,11.408 168.826,11.408 C168.209997,11.408 167.726002,11.5399987 167.374,11.804 C167.021998,12.0680013 166.816667,12.5079969 166.758,13.124 L163.634,13.124 Z M170.85,15.434 C170.717999,15.5513339 170.553001,15.6429997 170.355,15.709 C170.156999,15.7750003 169.944335,15.8299998 169.717,15.874 C169.489666,15.9180002 169.251335,15.9546665 169.002,15.984 C168.752665,16.0133335 168.503335,16.0499998 168.254,16.094 C168.019332,16.1380002 167.788335,16.1966663 167.561,16.27 C167.333666,16.3433337 167.135668,16.4423327 166.967,16.567 C166.798333,16.6916673 166.662667,16.8493324 166.56,17.04 C166.457333,17.2306676 166.406,17.4726652 166.406,17.766 C166.406,18.0446681 166.457333,18.2793324 166.56,18.47 C166.662667,18.6606676 166.801999,18.8109994 166.978,18.921 C167.154001,19.0310005 167.359332,19.1079998 167.594,19.152 C167.828668,19.1960002 168.070665,19.218 168.32,19.218 C168.936003,19.218 169.412665,19.1153344 169.75,18.91 C170.087335,18.7046656 170.336666,18.4590014 170.498,18.173 C170.659334,17.8869986 170.758333,17.5973348 170.795,17.304 C170.831667,17.0106652 170.85,16.7760009 170.85,16.6 L170.85,15.434 Z M184.668,15.28 C184.668,15.7493357 184.624,16.2039978 184.536,16.644 C184.448,17.0840022 184.301334,17.4763316 184.096,17.821 C183.890666,18.1656684 183.615668,18.4406656 183.271,18.646 C182.926332,18.8513344 182.497336,18.954 181.984,18.954 C181.499998,18.954 181.085668,18.8476677 180.741,18.635 C180.396332,18.4223323 180.110335,18.1436684 179.883,17.799 C179.655666,17.4543316 179.490667,17.0620022 179.388,16.622 C179.285333,16.1819978 179.234,15.7420022 179.234,15.302 C179.234,14.8326643 179.281666,14.3816688 179.377,13.949 C179.472334,13.5163312 179.626332,13.131335 179.839,12.794 C180.051668,12.456665 180.333998,12.1853344 180.686,11.98 C181.038002,11.7746656 181.470664,11.672 181.984,11.672 C182.497336,11.672 182.922665,11.7746656 183.26,11.98 C183.597335,12.1853344 183.872332,12.4529984 184.085,12.783 C184.297668,13.1130017 184.448,13.4943312 184.536,13.927 C184.624,14.3596688 184.668,14.8106643 184.668,15.28 L184.668,15.28 Z M184.712,19.548 L184.712,21 L187.682,21 L187.682,5.292 L184.558,5.292 L184.558,11.012 L184.514,11.012 C184.161998,10.4546639 183.68167,10.0330014 183.073,9.747 C182.46433,9.46099857 181.82267,9.318 181.148,9.318 C180.311996,9.318 179.57867,9.48299835 178.948,9.813 C178.31733,10.1430017 177.793002,10.5793306 177.375,11.122 C176.956998,11.6646694 176.641668,12.2916631 176.429,13.003 C176.216332,13.7143369 176.11,14.4513295 176.11,15.214 C176.11,16.006004 176.216332,16.768663 176.429,17.502 C176.641668,18.235337 176.956998,18.8843305 177.375,19.449 C177.793002,20.0136695 178.324663,20.4609984 178.97,20.791 C179.615337,21.1210017 180.363329,21.286 181.214,21.286 C181.962004,21.286 182.632997,21.1503347 183.227,20.879 C183.821003,20.6076653 184.301332,20.1640031 184.668,19.548 L184.712,19.548 Z" id="Download-&amp;-read" fill="#FFFFFF" sketch:type="MSShapeGroup"></path>
    </g>
</svg>