<?xml version="1.0" encoding="UTF-8" standalone="no"?>
<svg width="293px" height="40px" viewBox="0 0 293 40" version="1.1" xmlns="http://www.w3.org/2000/svg" xmlns:xlink="http://www.w3.org/1999/xlink" xmlns:sketch="http://www.bohemiancoding.com/sketch/ns">
    <!-- Generator: Sketch 3.5.2 (25235) - http://www.bohemiancoding.com/sketch -->
    <title>Rectangle 1 Copy</title>
    <desc>Created with Sketch.</desc>
    <defs></defs>
    <g id="Page-1" stroke="none" stroke-width="1" fill="none" fill-rule="evenodd" sketch:type="MSPage">
        <rect id="Rectangle-1-Copy" fill="#F9BC26" sketch:type="MSShapeGroup" x="0" y="0" width="293" height="40"></rect>
        <path d="M14.909375,10.15 L27.759375,10.15 L27.759375,12.85 L18.034375,12.85 L18.034375,17.525 L27.034375,17.525 L27.034375,20.075 L18.034375,20.075 L18.034375,25.3 L27.934375,25.3 L27.934375,28 L14.909375,28 L14.909375,10.15 Z M33.265625,21.2 L28.790625,15.075 L32.240625,15.075 L34.940625,19.05 L37.765625,15.075 L41.065625,15.075 L36.665625,21.05 L41.615625,28 L38.190625,28 L34.915625,23.225 L31.740625,28 L28.390625,28 L33.265625,21.2 Z M42.821875,15.075 L45.521875,15.075 L45.521875,16.825 L45.571875,16.825 C45.971877,16.0749963 46.5302047,15.5375016 47.246875,15.2125 C47.9635452,14.8874984 48.7385375,14.725 49.571875,14.725 C50.5885467,14.725 51.4760379,14.9041649 52.234375,15.2625 C52.9927121,15.6208351 53.6218725,16.1124969 54.121875,16.7375 C54.6218775,17.3625031 54.9968737,18.0916625 55.246875,18.925 C55.4968762,19.7583375 55.621875,20.6499953 55.621875,21.6 C55.621875,22.466671 55.5093761,23.3083292 55.284375,24.125 C55.0593739,24.9416708 54.7177106,25.6624969 54.259375,26.2875 C53.8010394,26.9125031 53.2218785,27.4124981 52.521875,27.7875 C51.8218715,28.1625019 50.9968797,28.35 50.046875,28.35 C49.6302062,28.35 49.2135437,28.3125004 48.796875,28.2375 C48.3802062,28.1624996 47.9802102,28.0416675 47.596875,27.875 C47.2135397,27.7083325 46.8593766,27.4958346 46.534375,27.2375 C46.2093734,26.9791654 45.9385427,26.6750017 45.721875,26.325 L45.671875,26.325 L45.671875,32.775 L42.821875,32.775 L42.821875,15.075 Z M52.771875,21.55 C52.771875,20.9666638 52.6968757,20.4000027 52.546875,19.85 C52.3968742,19.2999972 52.1718765,18.8125021 51.871875,18.3875 C51.5718735,17.9624979 51.1968772,17.6208346 50.746875,17.3625 C50.2968727,17.1041654 49.7802112,16.975 49.196875,16.975 C47.996869,16.975 47.0927114,17.3916625 46.484375,18.225 C45.8760386,19.0583375 45.571875,20.1666598 45.571875,21.55 C45.571875,22.2000033 45.6510409,22.8041639 45.809375,23.3625 C45.9677091,23.9208361 46.2052067,24.399998 46.521875,24.8 C46.8385432,25.200002 47.2177061,25.5166655 47.659375,25.75 C48.1010439,25.9833345 48.6135387,26.1 49.196875,26.1 C49.8468782,26.1 50.3968727,25.966668 50.846875,25.7 C51.2968772,25.433332 51.6677069,25.0875021 51.959375,24.6625 C52.2510431,24.2374979 52.4593744,23.7541694 52.584375,23.2125 C52.7093756,22.6708306 52.771875,22.1166695 52.771875,21.55 L52.771875,21.55 Z M57.628125,10.15 L60.478125,10.15 L60.478125,28 L57.628125,28 L57.628125,10.15 Z M69.034375,28.35 C68.0010365,28.35 67.0802124,28.1791684 66.271875,27.8375 C65.4635376,27.4958316 64.7802111,27.025003 64.221875,26.425 C63.6635389,25.824997 63.2385431,25.1083375 62.946875,24.275 C62.6552069,23.4416625 62.509375,22.525005 62.509375,21.525 C62.509375,20.5416618 62.6552069,19.6333375 62.946875,18.8 C63.2385431,17.9666625 63.6635389,17.250003 64.221875,16.65 C64.7802111,16.049997 65.4635376,15.5791684 66.271875,15.2375 C67.0802124,14.8958316 68.0010365,14.725 69.034375,14.725 C70.0677135,14.725 70.9885376,14.8958316 71.796875,15.2375 C72.6052124,15.5791684 73.2885389,16.049997 73.846875,16.65 C74.4052111,17.250003 74.8302069,17.9666625 75.121875,18.8 C75.4135431,19.6333375 75.559375,20.5416618 75.559375,21.525 C75.559375,22.525005 75.4135431,23.4416625 75.121875,24.275 C74.8302069,25.1083375 74.4052111,25.824997 73.846875,26.425 C73.2885389,27.025003 72.6052124,27.4958316 71.796875,27.8375 C70.9885376,28.1791684 70.0677135,28.35 69.034375,28.35 L69.034375,28.35 Z M69.034375,26.1 C69.6677115,26.1 70.217706,25.966668 70.684375,25.7 C71.151044,25.433332 71.5343735,25.0833355 71.834375,24.65 C72.1343765,24.2166645 72.3552076,23.7291694 72.496875,23.1875 C72.6385424,22.6458306 72.709375,22.0916695 72.709375,21.525 C72.709375,20.9749973 72.6385424,20.4250027 72.496875,19.875 C72.3552076,19.3249973 72.1343765,18.8375021 71.834375,18.4125 C71.5343735,17.9874979 71.151044,17.641668 70.684375,17.375 C70.217706,17.108332 69.6677115,16.975 69.034375,16.975 C68.4010385,16.975 67.851044,17.108332 67.384375,17.375 C66.917706,17.641668 66.5343765,17.9874979 66.234375,18.4125 C65.9343735,18.8375021 65.7135424,19.3249973 65.571875,19.875 C65.4302076,20.4250027 65.359375,20.9749973 65.359375,21.525 C65.359375,22.0916695 65.4302076,22.6458306 65.571875,23.1875 C65.7135424,23.7291694 65.9343735,24.2166645 66.234375,24.65 C66.5343765,25.0833355 66.917706,25.433332 67.384375,25.7 C67.851044,25.966668 68.4010385,26.1 69.034375,26.1 L69.034375,26.1 Z M77.465625,15.075 L80.140625,15.075 L80.140625,17.575 L80.190625,17.575 C80.2739587,17.2249982 80.4364571,16.883335 80.678125,16.55 C80.9197929,16.216665 81.2114566,15.9125014 81.553125,15.6375 C81.8947934,15.3624986 82.2739562,15.1416675 82.690625,14.975 C83.1072937,14.8083325 83.5322895,14.725 83.965625,14.725 C84.29896,14.725 84.5281244,14.7333332 84.653125,14.75 C84.7781256,14.7666668 84.907291,14.7833332 85.040625,14.8 L85.040625,17.55 C84.840624,17.5166665 84.6364594,17.4875001 84.428125,17.4625 C84.2197906,17.4374999 84.015626,17.425 83.815625,17.425 C83.3322892,17.425 82.8781271,17.5208324 82.453125,17.7125 C82.0281229,17.9041676 81.6572932,18.1874981 81.340625,18.5625 C81.0239567,18.9375019 80.7739592,19.3999973 80.590625,19.95 C80.4072907,20.5000028 80.315625,21.1333298 80.315625,21.85 L80.315625,28 L77.465625,28 L77.465625,15.075 Z M94.221875,20.4 C94.1885415,19.9499978 94.0927091,19.5166688 93.934375,19.1 C93.7760409,18.6833312 93.5593764,18.3208349 93.284375,18.0125 C93.0093736,17.7041651 92.6760436,17.4541676 92.284375,17.2625 C91.8927064,17.0708324 91.4552107,16.975 90.971875,16.975 C90.4718725,16.975 90.0177104,17.0624991 89.609375,17.2375 C89.2010396,17.4125009 88.8510431,17.6541651 88.559375,17.9625 C88.2677069,18.2708349 88.0343759,18.6333312 87.859375,19.05 C87.6843741,19.4666687 87.5885417,19.9166642 87.571875,20.4 L94.221875,20.4 Z M87.571875,22.275 C87.571875,22.7750025 87.6427076,23.258331 87.784375,23.725 C87.9260424,24.191669 88.1385403,24.5999982 88.421875,24.95 C88.7052097,25.3000017 89.0635395,25.5791656 89.496875,25.7875 C89.9302105,25.9958344 90.446872,26.1 91.046875,26.1 C91.8802125,26.1 92.5510391,25.9208351 93.059375,25.5625 C93.5677109,25.2041649 93.9468737,24.6666702 94.196875,23.95 L96.896875,23.95 C96.7468742,24.6500035 96.4885435,25.2749973 96.121875,25.825 C95.7552065,26.3750028 95.3135442,26.8374981 94.796875,27.2125 C94.2802057,27.5875019 93.7010449,27.8708324 93.059375,28.0625 C92.4177051,28.2541676 91.7468785,28.35 91.046875,28.35 C90.0302032,28.35 89.1302122,28.183335 88.346875,27.85 C87.5635377,27.516665 86.9010444,27.050003 86.359375,26.45 C85.8177056,25.849997 85.4093764,25.1333375 85.134375,24.3 C84.8593736,23.4666625 84.721875,22.550005 84.721875,21.55 C84.721875,20.6333288 84.8677069,19.7625041 85.159375,18.9375 C85.4510431,18.1124959 85.8677056,17.3875031 86.409375,16.7625 C86.9510444,16.1374969 87.6052045,15.6416685 88.371875,15.275 C89.1385455,14.9083315 90.0052035,14.725 90.971875,14.725 C91.9885467,14.725 92.9010376,14.9374979 93.709375,15.3625 C94.5177124,15.7875021 95.188539,16.3499965 95.721875,17.05 C96.255211,17.7500035 96.6427071,18.5541621 96.884375,19.4625 C97.1260429,20.3708379 97.1885422,21.3083285 97.071875,22.275 L87.571875,22.275 Z M103.959375,15.075 L106.109375,15.075 L106.109375,11.2 L108.959375,11.2 L108.959375,15.075 L111.534375,15.075 L111.534375,17.2 L108.959375,17.2 L108.959375,24.1 C108.959375,24.4000015 108.971875,24.6583323 108.996875,24.875 C109.021875,25.0916677 109.080208,25.2749993 109.171875,25.425 C109.263542,25.5750008 109.401041,25.6874996 109.584375,25.7625 C109.767709,25.8375004 110.017707,25.875 110.334375,25.875 C110.534376,25.875 110.734374,25.8708334 110.934375,25.8625 C111.134376,25.8541666 111.334374,25.8250003 111.534375,25.775 L111.534375,27.975 C111.217707,28.0083335 110.909377,28.0416665 110.609375,28.075 C110.309373,28.1083335 110.001043,28.125 109.684375,28.125 C108.934371,28.125 108.330211,28.0541674 107.871875,27.9125 C107.413539,27.7708326 107.05521,27.5625014 106.796875,27.2875 C106.53854,27.0124986 106.363542,26.6666687 106.271875,26.25 C106.180208,25.8333313 106.126042,25.358336 106.109375,24.825 L106.109375,17.2 L103.959375,17.2 L103.959375,15.075 Z M113.115625,10.15 L115.965625,10.15 L115.965625,16.775 L116.015625,16.775 C116.365627,16.1916637 116.886455,15.7041686 117.578125,15.3125 C118.269795,14.9208314 119.040621,14.725 119.890625,14.725 C121.307299,14.725 122.423954,15.091663 123.240625,15.825 C124.057296,16.558337 124.465625,17.658326 124.465625,19.125 L124.465625,28 L121.615625,28 L121.615625,19.875 C121.582291,18.8583282 121.365627,18.1208356 120.965625,17.6625 C120.565623,17.2041644 119.940629,16.975 119.090625,16.975 C118.607289,16.975 118.17396,17.0624991 117.790625,17.2375 C117.40729,17.4125009 117.082293,17.6541651 116.815625,17.9625 C116.548957,18.2708349 116.340626,18.6333312 116.190625,19.05 C116.040624,19.4666687 115.965625,19.908331 115.965625,20.375 L115.965625,28 L113.115625,28 L113.115625,10.15 Z M135.871875,20.4 C135.838541,19.9499978 135.742709,19.5166688 135.584375,19.1 C135.426041,18.6833312 135.209376,18.3208349 134.934375,18.0125 C134.659374,17.7041651 134.326044,17.4541676 133.934375,17.2625 C133.542706,17.0708324 133.105211,16.975 132.621875,16.975 C132.121872,16.975 131.66771,17.0624991 131.259375,17.2375 C130.85104,17.4125009 130.501043,17.6541651 130.209375,17.9625 C129.917707,18.2708349 129.684376,18.6333312 129.509375,19.05 C129.334374,19.4666687 129.238542,19.9166642 129.221875,20.4 L135.871875,20.4 Z M129.221875,22.275 C129.221875,22.7750025 129.292708,23.258331 129.434375,23.725 C129.576042,24.191669 129.78854,24.5999982 130.071875,24.95 C130.35521,25.3000017 130.713539,25.5791656 131.146875,25.7875 C131.58021,25.9958344 132.096872,26.1 132.696875,26.1 C133.530213,26.1 134.201039,25.9208351 134.709375,25.5625 C135.217711,25.2041649 135.596874,24.6666702 135.846875,23.95 L138.546875,23.95 C138.396874,24.6500035 138.138543,25.2749973 137.771875,25.825 C137.405206,26.3750028 136.963544,26.8374981 136.446875,27.2125 C135.930206,27.5875019 135.351045,27.8708324 134.709375,28.0625 C134.067705,28.2541676 133.396878,28.35 132.696875,28.35 C131.680203,28.35 130.780212,28.183335 129.996875,27.85 C129.213538,27.516665 128.551044,27.050003 128.009375,26.45 C127.467706,25.849997 127.059376,25.1333375 126.784375,24.3 C126.509374,23.4666625 126.371875,22.550005 126.371875,21.55 C126.371875,20.6333288 126.517707,19.7625041 126.809375,18.9375 C127.101043,18.1124959 127.517706,17.3875031 128.059375,16.7625 C128.601044,16.1374969 129.255204,15.6416685 130.021875,15.275 C130.788545,14.9083315 131.655203,14.725 132.621875,14.725 C133.638547,14.725 134.551038,14.9374979 135.359375,15.3625 C136.167712,15.7875021 136.838539,16.3499965 137.371875,17.05 C137.905211,17.7500035 138.292707,18.5541621 138.534375,19.4625 C138.776043,20.3708379 138.838542,21.3083285 138.721875,22.275 L129.221875,22.275 Z M145.634375,15.075 L148.734375,15.075 L152.009375,25 L152.059375,25 L155.209375,15.075 L158.159375,15.075 L153.534375,28 L150.334375,28 L145.634375,15.075 Z M159.490625,10.15 L162.340625,10.15 L162.340625,12.85 L159.490625,12.85 L159.490625,10.15 Z M159.490625,15.075 L162.340625,15.075 L162.340625,28 L159.490625,28 L159.490625,15.075 Z M167.121875,23.85 C167.205209,24.6833375 167.521872,25.266665 168.071875,25.6 C168.621878,25.933335 169.280204,26.1 170.046875,26.1 C170.313543,26.1 170.617707,26.0791669 170.959375,26.0375 C171.301043,25.9958331 171.621873,25.9166672 171.921875,25.8 C172.221876,25.6833327 172.467707,25.5125011 172.659375,25.2875 C172.851043,25.0624989 172.938542,24.7666685 172.921875,24.4 C172.905208,24.0333315 172.771876,23.7333345 172.521875,23.5 C172.271874,23.2666655 171.951044,23.0791674 171.559375,22.9375 C171.167706,22.7958326 170.721877,22.6750005 170.221875,22.575 C169.721872,22.4749995 169.213544,22.3666672 168.696875,22.25 C168.163539,22.1333328 167.651044,21.9916675 167.159375,21.825 C166.667706,21.6583325 166.226044,21.4333347 165.834375,21.15 C165.442706,20.8666652 165.13021,20.5041689 164.896875,20.0625 C164.66354,19.6208311 164.546875,19.0750033 164.546875,18.425 C164.546875,17.7249965 164.717707,17.1375024 165.059375,16.6625 C165.401043,16.1874976 165.834372,15.8041681 166.359375,15.5125 C166.884378,15.2208319 167.467705,15.0166673 168.109375,14.9 C168.751045,14.7833327 169.363539,14.725 169.946875,14.725 C170.613545,14.725 171.251039,14.7958326 171.859375,14.9375 C172.467711,15.0791674 173.017706,15.3083317 173.509375,15.625 C174.001044,15.9416683 174.409373,16.3541641 174.734375,16.8625 C175.059377,17.3708359 175.263541,17.9833297 175.346875,18.7 L172.371875,18.7 C172.238541,18.0166632 171.926044,17.5583345 171.434375,17.325 C170.942706,17.0916655 170.380211,16.975 169.746875,16.975 C169.546874,16.975 169.309376,16.9916665 169.034375,17.025 C168.759374,17.0583335 168.501043,17.1208329 168.259375,17.2125 C168.017707,17.3041671 167.813542,17.4374991 167.646875,17.6125 C167.480208,17.7875009 167.396875,18.0166653 167.396875,18.3 C167.396875,18.6500018 167.517707,18.9333322 167.759375,19.15 C168.001043,19.3666677 168.317706,19.5458326 168.709375,19.6875 C169.101044,19.8291674 169.546872,19.9499995 170.046875,20.05 C170.546877,20.1500005 171.063539,20.2583328 171.596875,20.375 C172.113544,20.4916672 172.621872,20.6333325 173.121875,20.8 C173.621877,20.9666675 174.067706,21.1916653 174.459375,21.475 C174.851044,21.7583348 175.167707,22.1166645 175.409375,22.55 C175.651043,22.9833355 175.771875,23.5166635 175.771875,24.15 C175.771875,24.9166705 175.596877,25.566664 175.246875,26.1 C174.896873,26.633336 174.442711,27.066665 173.884375,27.4 C173.326039,27.733335 172.705212,27.9749992 172.021875,28.125 C171.338538,28.2750008 170.663545,28.35 169.996875,28.35 C169.180204,28.35 168.426045,28.2583343 167.734375,28.075 C167.042705,27.8916658 166.442711,27.6125019 165.934375,27.2375 C165.426039,26.8624981 165.026043,26.3958361 164.734375,25.8375 C164.442707,25.2791639 164.288542,24.6166705 164.271875,23.85 L167.121875,23.85 Z M188.828125,28 L186.028125,28 L186.028125,26.2 L185.978125,26.2 C185.628123,26.8500032 185.107295,27.3708314 184.415625,27.7625 C183.723955,28.1541686 183.019795,28.35 182.303125,28.35 C180.603116,28.35 179.373962,27.9291709 178.615625,27.0875 C177.857288,26.2458291 177.478125,24.9750085 177.478125,23.275 L177.478125,15.075 L180.328125,15.075 L180.328125,23 C180.328125,24.133339 180.544789,24.933331 180.978125,25.4 C181.41146,25.866669 182.019788,26.1 182.803125,26.1 C183.403128,26.1 183.903123,26.0083343 184.303125,25.825 C184.703127,25.6416658 185.028124,25.3958349 185.278125,25.0875 C185.528126,24.7791651 185.707291,24.4083355 185.815625,23.975 C185.923959,23.5416645 185.978125,23.0750025 185.978125,22.575 L185.978125,15.075 L188.828125,15.075 L188.828125,28 Z M202.184375,25.125 C202.184375,25.4750017 202.230208,25.7249992 202.321875,25.875 C202.413542,26.0250008 202.592707,26.1 202.859375,26.1 L203.159375,26.1 C203.276042,26.1 203.409374,26.0833335 203.559375,26.05 L203.559375,28.025 C203.459374,28.0583335 203.330209,28.0958331 203.171875,28.1375 C203.013541,28.1791669 202.851042,28.2166665 202.684375,28.25 C202.517707,28.2833335 202.351042,28.3083333 202.184375,28.325 C202.017707,28.3416668 201.876042,28.35 201.759375,28.35 C201.176039,28.35 200.69271,28.2333345 200.309375,28 C199.92604,27.7666655 199.676042,27.3583362 199.559375,26.775 C198.992705,27.3250028 198.296879,27.7249987 197.471875,27.975 C196.646871,28.2250012 195.851045,28.35 195.084375,28.35 C194.501039,28.35 193.942711,28.2708341 193.409375,28.1125 C192.876039,27.9541659 192.40521,27.7208349 191.996875,27.4125 C191.58854,27.1041651 191.263543,26.7125024 191.021875,26.2375 C190.780207,25.7624976 190.659375,25.2083365 190.659375,24.575 C190.659375,23.774996 190.805207,23.1250025 191.096875,22.625 C191.388543,22.1249975 191.771873,21.7333347 192.246875,21.45 C192.721877,21.1666652 193.255205,20.9625006 193.846875,20.8375 C194.438545,20.7124994 195.034372,20.616667 195.634375,20.55 C196.151044,20.4499995 196.642706,20.3791669 197.109375,20.3375 C197.576044,20.2958331 197.98854,20.2250005 198.346875,20.125 C198.70521,20.0249995 198.988541,19.8708344 199.196875,19.6625 C199.405209,19.4541656 199.509375,19.1416688 199.509375,18.725 C199.509375,18.3583315 199.421876,18.0583345 199.246875,17.825 C199.071874,17.5916655 198.85521,17.4125006 198.596875,17.2875 C198.33854,17.1624994 198.051043,17.0791669 197.734375,17.0375 C197.417707,16.9958331 197.11771,16.975 196.834375,16.975 C196.034371,16.975 195.376044,17.141665 194.859375,17.475 C194.342706,17.808335 194.051042,18.3249965 193.984375,19.025 L191.134375,19.025 C191.184375,18.1916625 191.384373,17.5000028 191.734375,16.95 C192.084377,16.3999973 192.530206,15.958335 193.071875,15.625 C193.613544,15.291665 194.226038,15.058334 194.909375,14.925 C195.592712,14.791666 196.292705,14.725 197.009375,14.725 C197.642711,14.725 198.267705,14.791666 198.884375,14.925 C199.501045,15.058334 200.055206,15.2749985 200.546875,15.575 C201.038544,15.8750015 201.434373,16.2624976 201.734375,16.7375 C202.034376,17.2125024 202.184375,17.7916632 202.184375,18.475 L202.184375,25.125 Z M199.334375,21.525 C198.901039,21.8083347 198.367711,21.9791664 197.734375,22.0375 C197.101038,22.0958336 196.467711,22.1833327 195.834375,22.3 C195.534374,22.3500002 195.24271,22.4208329 194.959375,22.5125 C194.67604,22.6041671 194.426043,22.7291659 194.209375,22.8875 C193.992707,23.0458341 193.821876,23.2541654 193.696875,23.5125 C193.571874,23.7708346 193.509375,24.0833315 193.509375,24.45 C193.509375,24.7666683 193.601041,25.0333323 193.784375,25.25 C193.967709,25.4666677 194.18854,25.6374994 194.446875,25.7625 C194.70521,25.8875006 194.98854,25.9749997 195.296875,26.025 C195.60521,26.0750003 195.884374,26.1 196.134375,26.1 C196.451043,26.1 196.792706,26.0583337 197.159375,25.975 C197.526043,25.8916663 197.871873,25.750001 198.196875,25.55 C198.521877,25.349999 198.792707,25.0958349 199.009375,24.7875 C199.226043,24.4791651 199.334375,24.1000022 199.334375,23.65 L199.334375,21.525 Z M204.865625,10.15 L207.715625,10.15 L207.715625,28 L204.865625,28 L204.865625,10.15 Z M210.421875,10.15 L213.271875,10.15 L213.271875,12.85 L210.421875,12.85 L210.421875,10.15 Z M210.421875,15.075 L213.271875,15.075 L213.271875,28 L210.421875,28 L210.421875,15.075 Z M218.053125,23.85 C218.136459,24.6833375 218.453122,25.266665 219.003125,25.6 C219.553128,25.933335 220.211455,26.1 220.978125,26.1 C221.244793,26.1 221.548957,26.0791669 221.890625,26.0375 C222.232293,25.9958331 222.553123,25.9166672 222.853125,25.8 C223.153126,25.6833327 223.398957,25.5125011 223.590625,25.2875 C223.782293,25.0624989 223.869792,24.7666685 223.853125,24.4 C223.836458,24.0333315 223.703126,23.7333345 223.453125,23.5 C223.203124,23.2666655 222.882294,23.0791674 222.490625,22.9375 C222.098956,22.7958326 221.653127,22.6750005 221.153125,22.575 C220.653122,22.4749995 220.144794,22.3666672 219.628125,22.25 C219.094789,22.1333328 218.582294,21.9916675 218.090625,21.825 C217.598956,21.6583325 217.157294,21.4333347 216.765625,21.15 C216.373956,20.8666652 216.061459,20.5041689 215.828125,20.0625 C215.59479,19.6208311 215.478125,19.0750033 215.478125,18.425 C215.478125,17.7249965 215.648957,17.1375024 215.990625,16.6625 C216.332293,16.1874976 216.765622,15.8041681 217.290625,15.5125 C217.815628,15.2208319 218.398955,15.0166673 219.040625,14.9 C219.682295,14.7833327 220.294789,14.725 220.878125,14.725 C221.544795,14.725 222.182289,14.7958326 222.790625,14.9375 C223.398961,15.0791674 223.948956,15.3083317 224.440625,15.625 C224.932294,15.9416683 225.340623,16.3541641 225.665625,16.8625 C225.990627,17.3708359 226.194791,17.9833297 226.278125,18.7 L223.303125,18.7 C223.169791,18.0166632 222.857294,17.5583345 222.365625,17.325 C221.873956,17.0916655 221.311462,16.975 220.678125,16.975 C220.478124,16.975 220.240626,16.9916665 219.965625,17.025 C219.690624,17.0583335 219.432293,17.1208329 219.190625,17.2125 C218.948957,17.3041671 218.744793,17.4374991 218.578125,17.6125 C218.411457,17.7875009 218.328125,18.0166653 218.328125,18.3 C218.328125,18.6500018 218.448957,18.9333322 218.690625,19.15 C218.932293,19.3666677 219.248956,19.5458326 219.640625,19.6875 C220.032294,19.8291674 220.478122,19.9499995 220.978125,20.05 C221.478127,20.1500005 221.994789,20.2583328 222.528125,20.375 C223.044794,20.4916672 223.553122,20.6333325 224.053125,20.8 C224.553128,20.9666675 224.998956,21.1916653 225.390625,21.475 C225.782294,21.7583348 226.098957,22.1166645 226.340625,22.55 C226.582293,22.9833355 226.703125,23.5166635 226.703125,24.15 C226.703125,24.9166705 226.528127,25.566664 226.178125,26.1 C225.828123,26.633336 225.373961,27.066665 224.815625,27.4 C224.257289,27.733335 223.636462,27.9749992 222.953125,28.125 C222.269788,28.2750008 221.594795,28.35 220.928125,28.35 C220.111454,28.35 219.357295,28.2583343 218.665625,28.075 C217.973955,27.8916658 217.373961,27.6125019 216.865625,27.2375 C216.357289,26.8624981 215.957293,26.3958361 215.665625,25.8375 C215.373957,25.2791639 215.219792,24.6166705 215.203125,23.85 L218.053125,23.85 Z M239.234375,25.125 C239.234375,25.4750017 239.280208,25.7249992 239.371875,25.875 C239.463542,26.0250008 239.642707,26.1 239.909375,26.1 L240.209375,26.1 C240.326042,26.1 240.459374,26.0833335 240.609375,26.05 L240.609375,28.025 C240.509374,28.0583335 240.380209,28.0958331 240.221875,28.1375 C240.063541,28.1791669 239.901042,28.2166665 239.734375,28.25 C239.567707,28.2833335 239.401043,28.3083333 239.234375,28.325 C239.067707,28.3416668 238.926042,28.35 238.809375,28.35 C238.226039,28.35 237.74271,28.2333345 237.359375,28 C236.97604,27.7666655 236.726042,27.3583362 236.609375,26.775 C236.042705,27.3250028 235.346879,27.7249987 234.521875,27.975 C233.696871,28.2250012 232.901046,28.35 232.134375,28.35 C231.551039,28.35 230.992711,28.2708341 230.459375,28.1125 C229.926039,27.9541659 229.45521,27.7208349 229.046875,27.4125 C228.63854,27.1041651 228.313543,26.7125024 228.071875,26.2375 C227.830207,25.7624976 227.709375,25.2083365 227.709375,24.575 C227.709375,23.774996 227.855207,23.1250025 228.146875,22.625 C228.438543,22.1249975 228.821873,21.7333347 229.296875,21.45 C229.771877,21.1666652 230.305205,20.9625006 230.896875,20.8375 C231.488545,20.7124994 232.084372,20.616667 232.684375,20.55 C233.201044,20.4499995 233.692706,20.3791669 234.159375,20.3375 C234.626044,20.2958331 235.03854,20.2250005 235.396875,20.125 C235.75521,20.0249995 236.038541,19.8708344 236.246875,19.6625 C236.455209,19.4541656 236.559375,19.1416688 236.559375,18.725 C236.559375,18.3583315 236.471876,18.0583345 236.296875,17.825 C236.121874,17.5916655 235.90521,17.4125006 235.646875,17.2875 C235.38854,17.1624994 235.101043,17.0791669 234.784375,17.0375 C234.467707,16.9958331 234.16771,16.975 233.884375,16.975 C233.084371,16.975 232.426044,17.141665 231.909375,17.475 C231.392706,17.808335 231.101042,18.3249965 231.034375,19.025 L228.184375,19.025 C228.234375,18.1916625 228.434373,17.5000028 228.784375,16.95 C229.134377,16.3999973 229.580206,15.958335 230.121875,15.625 C230.663544,15.291665 231.276038,15.058334 231.959375,14.925 C232.642712,14.791666 233.342705,14.725 234.059375,14.725 C234.692711,14.725 235.317705,14.791666 235.934375,14.925 C236.551045,15.058334 237.105206,15.2749985 237.596875,15.575 C238.088544,15.8750015 238.484374,16.2624976 238.784375,16.7375 C239.084376,17.2125024 239.234375,17.7916632 239.234375,18.475 L239.234375,25.125 Z M236.384375,21.525 C235.951039,21.8083347 235.417711,21.9791664 234.784375,22.0375 C234.151039,22.0958336 233.517712,22.1833327 232.884375,22.3 C232.584373,22.3500002 232.29271,22.4208329 232.009375,22.5125 C231.72604,22.6041671 231.476043,22.7291659 231.259375,22.8875 C231.042707,23.0458341 230.871876,23.2541654 230.746875,23.5125 C230.621874,23.7708346 230.559375,24.0833315 230.559375,24.45 C230.559375,24.7666683 230.651041,25.0333323 230.834375,25.25 C231.017709,25.4666677 231.23854,25.6374994 231.496875,25.7625 C231.75521,25.8875006 232.03854,25.9749997 232.346875,26.025 C232.65521,26.0750003 232.934374,26.1 233.184375,26.1 C233.501043,26.1 233.842706,26.0583337 234.209375,25.975 C234.576043,25.8916663 234.921873,25.750001 235.246875,25.55 C235.571877,25.349999 235.842707,25.0958349 236.059375,24.7875 C236.276043,24.4791651 236.384375,24.1000022 236.384375,23.65 L236.384375,21.525 Z M240.540625,15.075 L242.690625,15.075 L242.690625,11.2 L245.540625,11.2 L245.540625,15.075 L248.115625,15.075 L248.115625,17.2 L245.540625,17.2 L245.540625,24.1 C245.540625,24.4000015 245.553125,24.6583323 245.578125,24.875 C245.603125,25.0916677 245.661458,25.2749993 245.753125,25.425 C245.844792,25.5750008 245.982291,25.6874996 246.165625,25.7625 C246.348959,25.8375004 246.598957,25.875 246.915625,25.875 C247.115626,25.875 247.315624,25.8708334 247.515625,25.8625 C247.715626,25.8541666 247.915624,25.8250003 248.115625,25.775 L248.115625,27.975 C247.798957,28.0083335 247.490626,28.0416665 247.190625,28.075 C246.890624,28.1083335 246.582293,28.125 246.265625,28.125 C245.515621,28.125 244.911461,28.0541674 244.453125,27.9125 C243.994789,27.7708326 243.63646,27.5625014 243.378125,27.2875 C243.11979,27.0124986 242.944792,26.6666687 242.853125,26.25 C242.761458,25.8333313 242.707292,25.358336 242.690625,24.825 L242.690625,17.2 L240.540625,17.2 L240.540625,15.075 Z M249.771875,10.15 L252.621875,10.15 L252.621875,12.85 L249.771875,12.85 L249.771875,10.15 Z M249.771875,15.075 L252.621875,15.075 L252.621875,28 L249.771875,28 L249.771875,15.075 Z M261.178125,28.35 C260.144787,28.35 259.223962,28.1791684 258.415625,27.8375 C257.607288,27.4958316 256.923961,27.025003 256.365625,26.425 C255.807289,25.824997 255.382293,25.1083375 255.090625,24.275 C254.798957,23.4416625 254.653125,22.525005 254.653125,21.525 C254.653125,20.5416618 254.798957,19.6333375 255.090625,18.8 C255.382293,17.9666625 255.807289,17.250003 256.365625,16.65 C256.923961,16.049997 257.607288,15.5791684 258.415625,15.2375 C259.223962,14.8958316 260.144787,14.725 261.178125,14.725 C262.211463,14.725 263.132288,14.8958316 263.940625,15.2375 C264.748962,15.5791684 265.432289,16.049997 265.990625,16.65 C266.548961,17.250003 266.973957,17.9666625 267.265625,18.8 C267.557293,19.6333375 267.703125,20.5416618 267.703125,21.525 C267.703125,22.525005 267.557293,23.4416625 267.265625,24.275 C266.973957,25.1083375 266.548961,25.824997 265.990625,26.425 C265.432289,27.025003 264.748962,27.4958316 263.940625,27.8375 C263.132288,28.1791684 262.211463,28.35 261.178125,28.35 L261.178125,28.35 Z M261.178125,26.1 C261.811462,26.1 262.361456,25.966668 262.828125,25.7 C263.294794,25.433332 263.678123,25.0833355 263.978125,24.65 C264.278126,24.2166645 264.498958,23.7291694 264.640625,23.1875 C264.782292,22.6458306 264.853125,22.0916695 264.853125,21.525 C264.853125,20.9749973 264.782292,20.4250027 264.640625,19.875 C264.498958,19.3249973 264.278126,18.8375021 263.978125,18.4125 C263.678123,17.9874979 263.294794,17.641668 262.828125,17.375 C262.361456,17.108332 261.811462,16.975 261.178125,16.975 C260.544788,16.975 259.994794,17.108332 259.528125,17.375 C259.061456,17.641668 258.678126,17.9874979 258.378125,18.4125 C258.078124,18.8375021 257.857292,19.3249973 257.715625,19.875 C257.573958,20.4250027 257.503125,20.9749973 257.503125,21.525 C257.503125,22.0916695 257.573958,22.6458306 257.715625,23.1875 C257.857292,23.7291694 258.078124,24.2166645 258.378125,24.65 C258.678126,25.0833355 259.061456,25.433332 259.528125,25.7 C259.994794,25.966668 260.544788,26.1 261.178125,26.1 L261.178125,26.1 Z M269.609375,15.075 L272.309375,15.075 L272.309375,16.975 L272.359375,17.025 C272.79271,16.3083297 273.359371,15.7458354 274.059375,15.3375 C274.759379,14.9291646 275.534371,14.725 276.384375,14.725 C277.801049,14.725 278.917704,15.091663 279.734375,15.825 C280.551046,16.558337 280.959375,17.658326 280.959375,19.125 L280.959375,28 L278.109375,28 L278.109375,19.875 C278.076041,18.8583282 277.859377,18.1208356 277.459375,17.6625 C277.059373,17.2041644 276.434379,16.975 275.584375,16.975 C275.101039,16.975 274.66771,17.0624991 274.284375,17.2375 C273.90104,17.4125009 273.576043,17.6541651 273.309375,17.9625 C273.042707,18.2708349 272.834376,18.6333312 272.684375,19.05 C272.534374,19.4666687 272.459375,19.908331 272.459375,20.375 L272.459375,28 L269.609375,28 L269.609375,15.075 Z" id="Explore-the-visualis-Copy" fill="#FFFFFF" sketch:type="MSShapeGroup"></path>
    </g>
</svg>